<?xml version="1.0" encoding="utf-8"?>
<!-- Generator: Adobe Illustrator 23.1.0, SVG Export Plug-In . SVG Version: 6.00 Build 0)  -->
<svg version="1.1" id="Layer_1" xmlns="http://www.w3.org/2000/svg" xmlns:xlink="http://www.w3.org/1999/xlink" x="0px" y="0px"
	 viewBox="0 0 1580 515" style="enable-background:new 0 0 1580 515;" xml:space="preserve">
<style type="text/css">
	.st0{fill:none;stroke:#A97D47;stroke-width:3;stroke-miterlimit:10;}
	.st1{fill:#15131F;}
	.st2{fill:none;stroke:#15131F;stroke-miterlimit:10;}


      @keyframes drawingin {
        to {
          stroke-dashoffset: 0;
        }
      }
      @keyframes stretchingin {
        from {
          stroke-dashoffset: -110;
        }
        to {
          stroke-dashoffset: 0;
        }
      }

    .st2 {
        stroke-dasharray: 1715;
        stroke-dashoffset: 1715;
        transform: translateZ(0);
        animation: drawingin 2.5s cubic-bezier(0.83, 0, 0.17, 1) forwards;
      }
    .st2 + .st2 {
        animation-delay: 2s;
      }

     #Rays {
 transform-origin: center;
        animation: stretchingin 4.5s cubic-bezier(0.83, 0, 0.17, 1) forwards;
      }

      .st0 {
        stroke: #aa7d47;
        stroke-dasharray: 110;
        transform: translateZ(0);
      }
</style>
<g id="Rays">
	<path class="st0" d="M1285,62.2l3,18"/>
	<path class="st0" d="M1301.9,161.8l-11.5-66.5"/>
	<path class="st0" d="M1285,166.3l-23.3-63.3"/>
	<path class="st0" d="M1220.2,86.1l50.4,87.7"/>
	<path class="st0" d="M1192.7,104.5l11.5,14.1"/>
	<path class="st0" d="M1213.6,130.7l43.3,52.2"/>
	<path class="st0" d="M1192.5,151.7l52,43.5"/>
	<path class="st0" d="M1148.1,157.5l87.4,51.2"/>
	<path class="st0" d="M1132.9,188.4l17.1,6.5"/>
	<path class="st0" d="M1164.6,199.6l63.2,23.7"/>
	<path class="st0" d="M1156.7,228.2l66.5,11.9"/>
	<path class="st0" d="M1222.3,257.2h-101.2"/>
	<path class="st0" d="M1123.5,291.6l18-3"/>
	<path class="st0" d="M1223.7,273.6l-67.2,11.6"/>
	<path class="st0" d="M1228.2,290.4l-64,23.5"/>
	<path class="st0" d="M1148.1,356.9l87.4-51.2"/>
	<path class="st0" d="M1167.3,385.2l13.9-11.7"/>
	<path class="st0" d="M1192.8,363.1l51.6-43.5"/>
	<path class="st0" d="M1214,384l42.9-52.1"/>
	<path class="st0" d="M1270.6,340.6l-50.4,87.7"/>
	<path class="st0" d="M1250.7,443.4l6.4-17"/>
	<path class="st0" d="M1285.4,347.7l-23.3,63.8"/>
	<path class="st0" d="M1302.2,352.2l-11.3,66.9"/>
	<path class="st0" d="M1318.4,454.5V353.3"/>
	<path class="st0" d="M1349.1,434.6l3,17.9"/>
	<path class="st0" d="M1346.4,419.1l-11.7-67.4"/>
	<path class="st0" d="M1375.1,411.4l-23.6-64.1"/>
	<path class="st0" d="M1366.2,340.6l50.4,87.7"/>
	<path class="st0" d="M1432.9,396.1l11.5,14.2"/>
	<path class="st0" d="M1379.4,330.8l43.8,52.9"/>
	<path class="st0" d="M1391.7,318.6l52.6,44.1"/>
	<path class="st0" d="M1401.3,305.7l87.4,51.2"/>
	<path class="st0" d="M1487.1,319.9l17.1,6.4"/>
	<path class="st0" d="M1408.2,290.9l64,23.9"/>
	<path class="st0" d="M1412.8,274.1l67.3,12.1"/>
	<path class="st0" d="M1515.7,257.2h-101.2"/>
	<path class="st0" d="M1495.6,226.2l18-3.1"/>
	<path class="st0" d="M1480.3,229.2l-67.9,11.8"/>
	<path class="st0" d="M1472.6,200.5l-64.7,23.8"/>
	<path class="st0" d="M1401.3,208.7l87.4-51.2"/>
	<path class="st0" d="M1455.8,141.3l14-11.7"/>
	<path class="st0" d="M1391.8,195.3l52.2-44"/>
	<path class="st0" d="M1379.4,183.1l43.4-52.7"/>
	<path class="st0" d="M1416.6,86.1l-50.4,87.7"/>
	<path class="st0" d="M1380,88.4l6.4-17.1"/>
	<path class="st0" d="M1374.7,102.9l-23.5,64.2"/>
	<path class="st0" d="M1345.9,95.3l-11.4,67.4"/>
	<path class="st0" d="M1318.4,161.1V59.9"/>
</g>
<clipPath id="LogoClip">
	<path class="st1" d="M1350.8,211.8c-4.8-0.5-9.7-0.1-14.5,1.2c-4.4,1.3-8.7,3.5-12.3,6.3c-3.5,2.8-6.5,6.5-8.5,10.5
		c-1.2,2.2-2.1,4.4-2.8,6.8c-0.8,2.5-1.3,5-1.8,7.5c-0.5,2.6-0.6,5.4-0.9,7.9c-0.3,2.6-0.4,5.2-0.5,7.8c-0.1,2.6-0.5,5.4-0.8,8
		c-0.3,2.6-0.5,5.2-0.9,7.6c-0.4,2.3-0.9,4.8-1.8,7c-0.8,2.1-1.6,3.7-2.7,5.6c-2.5,3.6-5.9,6.6-10.2,8c-4.1,1.4-8.7,1.2-12.5-0.8
		c-1-0.5-1.9-1-2.8-1.8l-4.8,4.8c2.7,1.6,5.6,2.7,8.7,3.4c6.6,1.7,13.6,1.4,20-0.6c3.1-1,5.9-2.3,8.7-4.1c2.6-1.8,5-3.9,7-6.2
		c2.1-2.5,3.7-5.2,5-8.1c1.3-3.1,2.2-6.5,3-9.7c0.4-1.7,0.6-3.5,0.9-5.2c0.1-0.4,0.3-1.9,0.3-1.9s1.8,0.3,2.7,0.3
		c3.4,0.1,6.8-0.3,10.1-1.3c3.1-0.9,5.9-2.3,8.5-4.3c2.5-1.8,4.7-4,6.5-6.5c-1.8-1.2-4-1.7-6.3-1.6c-1.9,0.1-3.9,0.8-5.4,2.1
		c-0.8,0.6-1.6,1.4-2.2,2.1c-0.8,0.6-1.6,1.3-2.5,1.9c-3.2,2.2-7,3.6-10.9,4c0.1-1.3,0.3-2.6,0.4-3.9c0.1-2.7,0.3-5.3,0.4-8
		c0.1-1.8,0.3-3.5,0.4-5.3c0.3-3.1,0.8-6.2,1.4-9.2c0.3-1.4,0.6-3,1.2-4.3c0.5-1.4,1.2-2.7,1.9-3.9c2.3-3.9,5.7-7.2,10-9
		c4-1.7,8.7-1.8,12.8-0.1c1.4,0.5,2.7,1.3,3.9,2.2l4.8-4.8C1359.9,213.8,1355.4,212.4,1350.8,211.8z"/>
	<path class="st1" d="M1379.7,238.3c-0.6-4.7-2.5-9.2-5.3-13.1c-1.4-1.9-3.1-3.9-5-5.4l-5.7,5.7c0.4,0.5,0.8,1,1,1.7
		c2.3,4,3.6,8.7,3.7,13.4c0.1,4.9-0.9,9.7-3,14.1c-6.6,13.1-21.8,19.3-35.7,14.3c0.3,0.3,0.5,0.5,0.9,0.8c1.9,1.9,3.4,4.4,4.3,7.1
		c0.9,3,0.9,6.1,0.1,9c-0.8,2.7-2.2,5.3-4.1,7.2c-1.9,2.1-4.4,3.6-7.1,4.5c-2.8,1-6.1,1.3-9,0.8c0.4,0.1,0.8,0.4,1.2,0.5
		c3.2,1.3,6.7,1.7,10.1,1c3.2-0.5,6.2-1.8,8.8-3.7c2.5-1.9,4.4-4.4,5.4-7.4c1.2-3.2,1.3-6.6,0.3-9.8c-0.9-3-2.7-5.6-5-7.5
		c2.2,0.6,4.4,1.2,6.7,1.3c4,0.4,8.1,0.1,12-0.6c3.7-0.8,7.2-2.3,10.6-4.3c1.9-1.2,3.9-2.6,5.6-4.3c3.4-3.1,5.9-6.8,7.6-11.1
		C1379.7,248.2,1380.4,243.2,1379.7,238.3z"/>
	<path class="st1" d="M1267.8,294.7l5.6-5.6c-0.6-0.8-1.2-1.7-1.7-2.6c-2.2-4-3.2-8.7-3.2-13.3c0-4.8,1-9.6,3.2-13.8
		c6.7-12.8,21.8-18.7,35.5-14c-0.3-0.3-0.5-0.5-0.9-0.8c-1.9-1.9-3.5-4.4-4.3-7.1c-0.9-3-0.9-6.1,0-9.2c0.8-2.7,2.2-5.2,4.1-7.2
		c1.9-1.9,4.4-3.5,7-4.4c2.8-1,5.9-1.3,8.9-0.8c-0.4-0.1-0.8-0.4-1.2-0.5c-3.2-1.3-6.7-1.7-10.1-1c-3.2,0.5-6.2,1.8-8.8,3.7
		c-2.5,1.9-4.3,4.4-5.4,7.4c-1.2,3.2-1.3,6.6-0.3,9.8c0.9,3,2.7,5.6,5,7.5c-1.6-0.5-3.2-0.9-4.8-1c-3.5-0.5-7-0.6-10.5-0.1
		c-3.2,0.4-6.5,1.3-9.6,2.6c-3,1.3-5.7,3-8.3,4.9c-2.5,1.9-4.7,4.3-6.3,7c-1.8,2.7-3.2,5.6-4,8.8c-1.7,6.3-1.2,13.3,1.8,19.5
		c1.4,2.8,3.2,5.6,5.4,7.9C1266,293.1,1266.9,293.9,1267.8,294.7z"/>
</clipPath>
<g id="Text">
	<path class="st1" d="M62.3,111.6l-0.2-3.2l4.1-1.1c0-0.3,0.1-1.4,0.2-3.3c0.1-1.9,0.1-4.3,0.1-7.3l0.1-11.8c0-2.9,0-5.3-0.1-7.1
		c-0.1-1.9-0.2-2.9-0.2-3.1l-4.4-1.1l0.2-3.2h21.4c1.3,0,2.9,0,4.8-0.1s3.5-0.2,4.7-0.2L94.8,80l-3.9,0.5l-2.6-6
		c-0.9-0.2-1.9-0.3-3-0.3h-6.1c-0.8,0-1.5,0-2.4,0.1c-0.8,0.1-1.5,0.1-1.9,0.2c0,0.4-0.1,1.2-0.1,2.5c0,1.2,0,3.3,0,6.3v5.3
		c0.7,0,1.2,0.1,1.8,0.1h4.6c0.9,0,1.7,0,2.4-0.1c0.7,0,1.1-0.1,1.4-0.1l0.8-4.7h3.8v14.3h-3.8l-0.8-5c-0.5-0.1-1-0.2-1.7-0.2
		c-0.6,0-1.3-0.1-2.1-0.1h-4.6c-0.5,0-1.1,0-1.8,0.1l0.1,6.1c0,2,0,3.8,0.1,5.4s0.2,2.6,0.2,2.8l5.7,0.9l-0.2,3.4H62.3z"/>
	<path class="st1" d="M107.1,112.1c-2.1,0-3.9-0.4-5.4-1.3c-1.5-0.9-2.7-2-3.5-3.2c-0.8-1.3-1.2-2.5-1.2-3.7c0-1.7,0.5-3.1,1.5-4.1
		c1-1.1,2.7-2,4.9-2.7l11-3.4v-2.9c0-1-0.3-2-1-2.9c-0.7-0.9-1.5-1.6-2.6-2.2s-2.2-0.8-3.5-0.8c-0.9,0-1.5,0.2-1.9,0.6
		c-0.4,0.4-0.6,1.2-0.7,2.4l-0.3,3.8c-2.1,0.5-3.9,0.4-5.2-0.2c-1.4-0.6-2.1-1.6-2.1-2.9c0-0.8,0.4-1.7,1.3-2.6
		c0.8-0.9,1.9-1.7,3.2-2.5c1.3-0.8,2.6-1.5,4.1-2c1.4-0.6,2.7-0.9,3.8-1.1c4,0,7.1,0.9,9.5,2.8c2.3,1.9,3.5,4.4,3.6,7.5l-0.2,10.3
		c0,2.3,0.2,4,0.5,4.9l4.6,0.8v2.7l-4.1,1.8c-1.5,0.7-2.9,1-4.1,1c-1.7,0-2.9-0.9-3.5-2.7l-0.6-1.8
		C112.3,110.6,109.7,112.1,107.1,112.1z M110.2,106.5c1.6,0,3.1-0.7,4.3-2v-7l-5.8,1.3c-2.1,0.4-3.2,1.6-3.2,3.4
		c0,1.1,0.5,2.1,1.4,3C107.8,106,108.9,106.5,110.2,106.5z M112.5,77.6l-3.7-1.2l7-12.4l7.4,1.6L112.5,77.6z"/>
	<path class="st1" d="M133.2,109.6c0.1-2.3,0.2-4.6,0.2-6.9c0-2.2,0-4.5,0-6.9v-9.7c0-2.6,0-5.1,0-7.4c0-2.3-0.1-4.3-0.1-6
		c0-1.7-0.1-2.8-0.1-3.5l-5.2-0.6l-0.1-2.7l12.2-3.2l1.8,1.1c-0.1,1.9-0.2,3.8-0.2,5.8c-0.1,1.9-0.1,4.1-0.2,6.6
		c-0.1,2.5-0.1,5.6-0.2,9.3l0.2,0.1c1-1.4,2.4-2.6,4.1-3.7c1.8-1,3.6-1.5,5.6-1.5c2.3,0,4.4,0.6,6.4,1.7c2,1.1,3.6,2.8,4.8,4.9
		c1.2,2.2,1.8,4.7,1.8,7.7c0,3.3-0.8,6.2-2.4,8.9c-1.6,2.6-3.7,4.7-6.5,6.3c-2.8,1.5-6,2.3-9.7,2.3c-2.2,0-4.3-0.2-6.4-0.7
		C137.1,111,135.1,110.4,133.2,109.6z M147.3,107.5c2.3,0,4.3-0.9,5.9-2.7c1.6-1.8,2.4-4.6,2.4-8.3c0-3.5-0.8-6.1-2.4-7.7
		s-3.5-2.4-5.7-2.4c-1.1,0-2.2,0.2-3.3,0.7c-1.1,0.5-2,1.2-2.8,2.1v16.2c0.7,0.6,1.7,1,2.7,1.4C145.1,107.3,146.2,107.5,147.3,107.5
		z"/>
	<path class="st1" d="M168,111.6l-0.2-3.1l4.7-1.1c0.1-0.7,0.3-3,0.4-7.2l0.1-5.3c0-2.8-0.2-5.3-0.6-7.5l-4.7-1v-2.9l12.1-3l1.6,1.2
		c-0.1,1.5-0.2,2.9-0.3,4.4s-0.1,3.2-0.1,5.1v8.9c0,1.7,0,3.3,0.1,4.7s0.2,2.3,0.3,2.7l4.7,1.1l-0.2,3.1H168z M176.9,74
		c-1.7,0-3-0.5-4-1.5c-1-1-1.4-2.2-1.4-3.6c0-1.4,0.5-2.6,1.4-3.6c1-1,2.3-1.5,4-1.5s3,0.5,3.9,1.5c0.9,1,1.4,2.2,1.4,3.6
		c0,1.4-0.5,2.6-1.4,3.6C179.9,73.5,178.6,74,176.9,74z"/>
	<path class="st1" d="M205.5,112.1c-3.2,0-6-0.7-8.4-2c-2.4-1.3-4.3-3.2-5.7-5.6c-1.4-2.4-2-5.1-2-8.1c0-3.3,0.8-6.2,2.3-8.6
		c1.5-2.4,3.5-4.3,6-5.6c2.5-1.3,5.2-1.9,8.1-1.9c3,0,5.7,0.7,8.1,2c2.3,1.3,4.1,3.1,5.4,5.5c1.3,2.3,1.9,5,1.9,8.1
		c0,3-0.7,5.8-2.1,8.3s-3.3,4.4-5.7,5.8C211,111.4,208.4,112.1,205.5,112.1z M206.2,108.1c2,0,3.5-0.9,4.6-2.7s1.7-4.3,1.7-7.5
		c0-4-0.7-7.3-2.1-9.8c-1.4-2.5-3.3-3.8-5.6-3.8c-2,0-3.6,1-4.8,2.9c-1.2,1.9-1.8,4.5-1.8,7.7c0,2.5,0.4,4.8,1.1,6.8
		c0.7,2,1.7,3.6,2.8,4.7C203.3,107.5,204.7,108.1,206.2,108.1z"/>
	<path class="st1" d="M240.9,70.3h14l13.7,30l12.8-30H295l0.2,3.2l-4.4,1c0,0.5-0.1,1.5,0,3c0,1.5,0.1,3.6,0.2,6l0.4,12.5
		c0.1,3.1,0.2,5.6,0.3,7.6c0.1,1.9,0.2,3.2,0.3,3.6l4.4,1.1l-0.2,3.2h-17.8l-0.2-3.2l4.4-1.1c0.1-0.6,0.2-4.2,0.1-10.8l-0.1-17.8
		l-14.1,33h-3.7l-14.8-31.9v16.5c0,3.7,0,6.4,0.1,7.9c0,1.6,0.1,2.6,0.1,3l4.9,1.1l-0.2,3.2h-14.9l-0.2-3.2l4.9-1.1
		c0-0.5,0.1-1.7,0.2-3.6s0.1-4.1,0.2-6.5l0.2-13.5c0-2.6,0.1-4.7,0-6.1c0-1.4,0-2.4,0-3.1l-4.4-1.1L240.9,70.3z"/>
	<path class="st1" d="M308.4,112.3c-1.6,0-3-0.6-4.1-1.7c-1.1-1.1-1.7-2.5-1.7-4.1c0-1.6,0.6-3,1.7-4.1c1.1-1.1,2.5-1.7,4.1-1.7
		c1.7,0,3.1,0.6,4.3,1.7c1.1,1.1,1.7,2.5,1.7,4.1c0,1.6-0.6,3-1.7,4.1C311.5,111.7,310.1,112.3,308.4,112.3z"/>
	<path class="st1" d="M321,111.6l-0.2-3.2l4.4-1.1c0-0.4,0-1.2,0.1-2.4c0-1.2,0.1-2.5,0.1-4c0-1.5,0-2.9,0-4.2V85.4
		c0-3,0-5.5-0.1-7.4c-0.1-1.9-0.2-3.1-0.4-3.3l-4.4-1.1l0.2-3.2h17.4c10,0,15,3.5,15,10.5c0,2.5-0.8,4.7-2.4,6.6
		c-1.6,1.9-3.8,3.3-6.5,4.3l6.9,9.8c1.6,2.3,3.2,4,4.6,5.2c1.5,1.1,3.1,1.9,4.9,2.3l-0.1,3c-0.7,0.1-1.3,0.2-2,0.3
		c-0.7,0-1.3,0.1-1.9,0.1c-3.7,0-6.8-0.9-9.3-2.8c-2.5-1.9-4.8-5-7-9.3l-3.7-7.5h-3v3.9c0,2.2,0,4.4,0.1,6.5
		c0.1,2.1,0.2,3.4,0.2,4.1l4,1.1l-0.2,3.2H321z M333.9,74c-0.1,0.3-0.1,1.3-0.1,3.1c0,1.8,0,4.3,0,7.5V89h2.5c2.5,0,4.5-0.7,5.9-2.2
		c1.5-1.5,2.2-3.4,2.2-5.8c0-4.7-2.5-7-7.4-7H333.9z"/>
	<path class="st1" d="M369.8,112.3c-1.6,0-3-0.6-4.1-1.7c-1.1-1.1-1.7-2.5-1.7-4.1c0-1.6,0.6-3,1.7-4.1c1.1-1.1,2.5-1.7,4.1-1.7
		c1.7,0,3.1,0.6,4.3,1.7c1.1,1.1,1.7,2.5,1.7,4.1c0,1.6-0.6,3-1.7,4.1C372.9,111.7,371.4,112.3,369.8,112.3z"/>
	<path class="st1" d="M399.9,107.3c0.1-0.3,0.3-1.5,0.4-3.5c0.1-2,0.1-4.4,0.1-7.2V85.4c0-3,0-5.4-0.1-7.4c-0.1-2-0.2-3.1-0.4-3.4
		l-4.4-1l0.2-3.2h18.9c9.7,0,14.5,3.3,14.5,9.9c0,2.2-0.8,4.2-2.5,5.8c-1.7,1.6-3.9,2.7-6.6,3.3c3.6,0.5,6.4,1.6,8.3,3.3
		c1.9,1.8,2.9,4,2.9,6.9c0,3.8-1.6,6.7-4.8,8.8c-3.2,2.1-7.6,3.2-13.3,3.2h-17.4l-0.2-3.2L399.9,107.3z M408.7,82.7v5.7
		c0.5,0,1,0.1,1.5,0.1c0.5,0,1.1,0,1.7,0c2.7,0,4.7-0.6,6.1-1.9c1.4-1.3,2.1-3.1,2.1-5.5c0-2.2-0.7-3.9-2-5.2s-3.4-1.9-6.1-1.9h-3.2
		c0,0.4-0.1,1.4-0.1,3C408.7,78.6,408.7,80.5,408.7,82.7z M408.7,99.1c0,2,0,3.7,0,5.2c0,1.5,0.1,2.5,0.2,2.9
		c0.5,0.1,1.2,0.3,2.1,0.4c0.9,0.1,1.7,0.2,2.4,0.2c2.8,0,5-0.6,6.5-1.9c1.5-1.3,2.3-3.1,2.3-5.4c0-5.3-3.3-7.9-9.9-7.9
		c-0.8,0-1.5,0-2.1,0s-1.1,0-1.5,0.1V99.1z"/>
	<path class="st1" d="M447.4,112.1c-2.1,0-3.9-0.4-5.4-1.3c-1.5-0.9-2.7-2-3.5-3.2c-0.8-1.3-1.2-2.5-1.2-3.7c0-1.7,0.5-3.1,1.5-4.1
		c1-1.1,2.7-2,4.9-2.7l11-3.4v-2.9c0-1-0.3-2-1-2.9c-0.7-0.9-1.5-1.6-2.6-2.2s-2.2-0.8-3.5-0.8c-0.9,0-1.5,0.2-1.9,0.6
		c-0.4,0.4-0.6,1.2-0.7,2.4l-0.3,3.8c-2.1,0.5-3.9,0.4-5.2-0.2c-1.4-0.6-2.1-1.6-2.1-2.9c0-0.8,0.4-1.7,1.3-2.6
		c0.8-0.9,1.9-1.7,3.2-2.5c1.3-0.8,2.6-1.5,4.1-2c1.4-0.6,2.7-0.9,3.8-1.1c4,0,7.1,0.9,9.5,2.8c2.3,1.9,3.5,4.4,3.6,7.5l-0.2,10.3
		c0,2.3,0.2,4,0.5,4.9l4.6,0.8v2.7l-4.1,1.8c-1.5,0.7-2.9,1-4.1,1c-1.7,0-2.9-0.9-3.5-2.7l-0.6-1.8
		C452.6,110.6,449.9,112.1,447.4,112.1z M450.4,106.5c1.6,0,3.1-0.7,4.3-2v-7l-5.8,1.3c-2.1,0.4-3.2,1.6-3.2,3.4
		c0,1.1,0.5,2.1,1.4,3C448,106,449.1,106.5,450.4,106.5z"/>
	<path class="st1" d="M470.1,111.6l-0.2-3l4.4-1.1c0.1-0.7,0.3-3,0.4-7.2l0.1-5.3c0-2.8-0.2-5.3-0.6-7.5l-4.5-1v-2.9l11.3-3l1.6,1.1
		l-0.3,5.6l0.2,0.1c1.3-2.6,2.7-4.4,4.1-5.3c1.4-0.9,2.8-1.4,4.3-1.4c1.2,0,2.2,0.3,3.1,1c0.9,0.7,1.3,1.7,1.3,3
		c0,1.4-0.5,2.5-1.4,3.2c-0.9,0.7-2.1,1.1-3.4,1.1c-0.9,0-1.7-0.1-2.4-0.4c-0.7-0.2-1.5-0.7-2.2-1.3c-1.3,1.1-2.3,2.6-3.2,4.6
		l0.1,5.8c0,2.3,0.1,4.4,0.2,6.2s0.2,3,0.2,3.6l6.1,1l-0.2,3.2H470.1z"/>
	<path class="st1" d="M500.8,109.6c0.1-2.3,0.2-4.6,0.2-6.9c0-2.2,0-4.5,0-6.9v-9.7c0-2.6,0-5.1,0-7.4c0-2.3-0.1-4.3-0.1-6
		c0-1.7-0.1-2.8-0.1-3.5l-5.2-0.6l-0.1-2.7l12.2-3.2l1.8,1.1c-0.1,1.9-0.2,3.8-0.2,5.8c-0.1,1.9-0.1,4.1-0.2,6.6
		c-0.1,2.5-0.1,5.6-0.2,9.3l0.2,0.1c1-1.4,2.4-2.6,4.1-3.7c1.8-1,3.6-1.5,5.6-1.5c2.3,0,4.4,0.6,6.4,1.7c2,1.1,3.6,2.8,4.8,4.9
		c1.2,2.2,1.8,4.7,1.8,7.7c0,3.3-0.8,6.2-2.4,8.9c-1.6,2.6-3.7,4.7-6.5,6.3c-2.8,1.5-6,2.3-9.7,2.3c-2.2,0-4.3-0.2-6.4-0.7
		C504.7,111,502.7,110.4,500.8,109.6z M514.9,107.5c2.3,0,4.3-0.9,5.9-2.7c1.6-1.8,2.4-4.6,2.4-8.3c0-3.5-0.8-6.1-2.4-7.7
		s-3.5-2.4-5.7-2.4c-1.1,0-2.2,0.2-3.3,0.7c-1.1,0.5-2,1.2-2.8,2.1v16.2c0.7,0.6,1.7,1,2.7,1.4C512.7,107.3,513.8,107.5,514.9,107.5
		z"/>
	<path class="st1" d="M552.9,112.1c-3.2,0-6-0.7-8.4-2c-2.4-1.3-4.3-3.2-5.7-5.6c-1.4-2.4-2-5.1-2-8.1c0-3.3,0.8-6.2,2.3-8.6
		c1.5-2.4,3.5-4.3,6-5.6c2.5-1.3,5.2-1.9,8.1-1.9c3,0,5.7,0.7,8.1,2c2.3,1.3,4.1,3.1,5.4,5.5c1.3,2.3,1.9,5,1.9,8.1
		c0,3-0.7,5.8-2.1,8.3s-3.3,4.4-5.7,5.8C558.5,111.4,555.8,112.1,552.9,112.1z M553.6,108.1c2,0,3.5-0.9,4.6-2.7s1.7-4.3,1.7-7.5
		c0-4-0.7-7.3-2.1-9.8c-1.4-2.5-3.3-3.8-5.6-3.8c-2,0-3.6,1-4.8,2.9c-1.2,1.9-1.8,4.5-1.8,7.7c0,2.5,0.4,4.8,1.1,6.8
		c0.7,2,1.7,3.6,2.8,4.7C550.7,107.5,552.1,108.1,553.6,108.1z"/>
	<path class="st1" d="M584.8,112.1c-1.9,0-3.8-0.2-5.6-0.6c-1.9-0.4-3.4-1-4.7-1.7l-0.4-8h4.1l1.5,5.1c1.7,1.1,3.5,1.6,5.6,1.6
		c1.5,0,2.7-0.3,3.5-1c0.8-0.7,1.3-1.5,1.3-2.6c0-1.1-0.4-2.1-1.3-2.9c-0.8-0.8-2.6-1.7-5.1-2.7c-3.4-1.3-5.8-2.6-7.2-4.1
		c-1.4-1.5-2-3.3-2-5.5c0-2.7,1.2-5,3.7-6.7s5.7-2.6,9.6-2.6c1.5,0,2.9,0.1,4.4,0.4c1.5,0.3,2.7,0.6,3.7,1.1l0.8,7.9h-4.1l-1.6-4.9
		c-1-0.6-2.2-0.9-3.7-0.9c-1.5,0-2.7,0.3-3.6,1c-0.9,0.7-1.3,1.6-1.3,2.6c0,1.2,0.5,2.2,1.5,3c1,0.8,2.9,1.8,5.7,3
		c3.1,1.3,5.3,2.6,6.6,4c1.3,1.4,1.9,3.2,1.9,5.3c0,2.8-1.2,5.1-3.7,6.8C591.9,111.3,588.7,112.1,584.8,112.1z"/>
	<path class="st1" d="M613.1,112.1c-2.1,0-3.9-0.4-5.4-1.3c-1.5-0.9-2.7-2-3.5-3.2c-0.8-1.3-1.2-2.5-1.2-3.7c0-1.7,0.5-3.1,1.5-4.1
		c1-1.1,2.7-2,4.9-2.7l11-3.4v-2.9c0-1-0.3-2-1-2.9c-0.7-0.9-1.5-1.6-2.6-2.2s-2.2-0.8-3.5-0.8c-0.9,0-1.5,0.2-1.9,0.6
		c-0.4,0.4-0.6,1.2-0.7,2.4l-0.3,3.8c-2.1,0.5-3.9,0.4-5.2-0.2c-1.4-0.6-2.1-1.6-2.1-2.9c0-0.8,0.4-1.7,1.3-2.6
		c0.8-0.9,1.9-1.7,3.2-2.5c1.3-0.8,2.6-1.5,4.1-2c1.4-0.6,2.7-0.9,3.8-1.1c4,0,7.1,0.9,9.5,2.8c2.3,1.9,3.5,4.4,3.6,7.5l-0.2,10.3
		c0,2.3,0.2,4,0.5,4.9l4.6,0.8v2.7l-4.1,1.8c-1.5,0.7-2.9,1-4.1,1c-1.7,0-2.9-0.9-3.5-2.7l-0.6-1.8
		C618.3,110.6,615.6,112.1,613.1,112.1z M616.1,106.5c1.6,0,3.1-0.7,4.3-2v-7l-5.8,1.3c-2.1,0.4-3.2,1.6-3.2,3.4
		c0,1.1,0.5,2.1,1.4,3C613.8,106,614.9,106.5,616.1,106.5z"/>
	<path class="st1" d="M78.3,168.4c-3,0-5.8-0.6-8.2-1.8c-2.5-1.2-4.5-2.9-6-5.2c-1.5-2.3-2.2-5.2-2.2-8.7c0-2.9,0.7-5.5,2-8
		c1.3-2.4,3.3-4.4,5.8-5.9c2.5-1.5,5.6-2.2,9.3-2.2c1.4,0,2.9,0.1,4.5,0.4c1.6,0.3,3.1,0.7,4.3,1.2l0.4,7.1l-2.3,0.2l-1.5-4.9
		c-0.7-0.5-1.6-0.8-2.7-1.1c-1.1-0.2-2.2-0.3-3.2-0.3c-2.7,0-4.8,0.6-6.5,1.7c-1.7,1.2-2.9,2.7-3.7,4.6c-0.8,1.9-1.2,4-1.2,6.2
		c0,3,0.5,5.5,1.6,7.6c1,2.1,2.5,3.6,4.2,4.7c1.8,1.1,3.7,1.6,5.9,1.6c1.2,0,2.2-0.1,3.1-0.4c0.9-0.2,1.8-0.6,2.6-1.1l2.4-4.9
		l2.3,0.2l-1.5,6.5c-1.2,0.6-2.6,1.2-4.2,1.6C81.9,168.2,80.1,168.4,78.3,168.4z"/>
	<path class="st1" d="M92.4,167.9l-0.1-1.8l3.2-0.8c0-0.2,0.1-0.8,0.1-1.7c0-0.9,0.1-2.2,0.1-3.9l0.1-4.1c0-1.2,0-2.3-0.1-3.5
		c-0.1-1.2-0.2-2-0.3-2.6l-3.4-0.7V147l6.9-1.9l0.7,0.7l-0.2,4.3l0.2,0.1c1-2,2.1-3.3,3.2-4.1c1.1-0.7,2.1-1.1,3-1.1
		c0.8,0,1.5,0.2,2,0.6c0.5,0.4,0.8,1,0.8,1.8c0,0.8-0.3,1.4-0.8,1.8c-0.6,0.4-1.3,0.6-2.1,0.6c-1,0-1.9-0.3-2.8-1
		c-1.3,0.9-2.3,2.4-3.2,4.5l0.1,4.9c0,1.3,0.1,2.6,0.2,4c0.1,1.4,0.1,2.4,0.2,3l4.6,0.7l-0.1,1.9H92.4z"/>
	<path class="st1" d="M121.3,168.4c-2,0-3.8-0.5-5.4-1.4c-1.6-0.9-2.9-2.2-3.9-3.9c-1-1.7-1.4-3.7-1.4-6c0-2.5,0.5-4.7,1.5-6.5
		c1-1.8,2.3-3.2,4-4.2c1.6-1,3.4-1.4,5.3-1.4c2.7,0,4.8,0.9,6.3,2.7c1.5,1.8,2.3,4.3,2.3,7.5v0.9h-15c0.1,2.8,0.8,4.9,2.2,6.5
		c1.4,1.5,3.2,2.3,5.4,2.3c1.3,0,2.4-0.2,3.4-0.7c1-0.5,1.9-1.3,2.8-2.4l1.3,1.2c-1,1.8-2.3,3.2-3.7,4
		C124.7,167.9,123.1,168.4,121.3,168.4z M120.9,147.1c-1.4,0-2.7,0.6-3.8,1.7c-1.2,1.1-1.9,2.8-2.1,5.1H126v-0.4
		c0-2-0.5-3.6-1.4-4.7C123.7,147.7,122.5,147.1,120.9,147.1z"/>
	<path class="st1" d="M142.2,168.4c-1.4,0-2.6-0.3-3.7-0.8c-1.1-0.6-1.9-1.3-2.5-2.1c-0.6-0.9-0.9-1.8-0.9-2.7
		c0-1.2,0.4-2.1,1.1-2.9c0.8-0.8,2-1.4,3.8-2l8-2.7v-2.7c0-1.3-0.6-2.4-1.7-3.4c-1.2-0.9-2.5-1.4-4.2-1.4c-0.9,0-1.5,0.2-1.8,0.6
		c-0.3,0.4-0.5,1.1-0.5,2.2l-0.2,2c-1.2,0.3-2.2,0.3-3.1-0.1c-0.9-0.4-1.3-1-1.3-1.8c0-0.7,0.4-1.5,1.3-2.3c0.9-0.8,1.9-1.5,3.2-2.1
		c1.3-0.6,2.5-1,3.7-1.2c2.5,0,4.6,0.7,6.2,2c1.6,1.3,2.3,3.1,2.3,5.3l-0.1,8.9c0,0.6,0,1.3,0.1,1.9c0.1,0.6,0.1,1.1,0.2,1.4
		l3.4,0.6v1.6l-2.5,0.9c-0.5,0.2-0.9,0.3-1.3,0.4c-0.4,0.1-0.7,0.2-1,0.2c-1,0-1.7-0.6-2-1.8l-0.3-1.4
		C146.1,167.3,144.1,168.4,142.2,168.4z M143.5,165.4c1.6,0,3.1-0.8,4.5-2.3v-5.6l-6.1,1.7c-1.6,0.4-2.4,1.3-2.4,2.7
		c0,0.9,0.4,1.7,1.2,2.4C141.5,165,142.4,165.4,143.5,165.4z"/>
	<path class="st1" d="M174.6,164.8c-0.7,1.1-1.6,2-2.7,2.6c-1.1,0.6-2.3,0.9-3.5,0.9c-2.1,0-3.8-0.6-5.2-1.9c-1.4-1.3-2-3.2-2-5.8
		l0.1-12.6h-3.7v-1l6.7-6.1h0.9l-0.1,4.6h7.9v2.6h-7.9l-0.1,11.7c0,1.8,0.4,3.2,1.2,4.1c0.8,0.9,1.9,1.3,3.3,1.3
		c0.8,0,1.6-0.2,2.3-0.5c0.7-0.3,1.3-0.7,1.9-1.3L174.6,164.8z"/>
	<path class="st1" d="M175.7,167.9l-0.1-1.9l3.5-0.7c0-0.2,0.1-0.6,0.1-1.4c0-0.7,0.1-2.1,0.1-4.2v-3.5c0-1.5,0-2.8-0.1-4
		c-0.1-1.2-0.2-2.1-0.3-2.7l-3.5-0.7V147l7.3-1.9l0.7,0.7c-0.1,1.1-0.2,2.1-0.2,3.2c-0.1,1-0.1,2.3-0.1,3.7v6.6c0,1.6,0,3,0.1,4.1
		c0.1,1.1,0.1,1.7,0.2,2l3.5,0.7l-0.1,1.9H175.7z M181.3,139.1c-0.9,0-1.6-0.3-2.2-0.8c-0.6-0.6-0.9-1.3-0.9-2.1
		c0-0.8,0.3-1.5,0.9-2.1c0.6-0.6,1.4-0.9,2.2-0.9c0.9,0,1.6,0.3,2.2,0.9c0.6,0.6,0.9,1.3,0.9,2.1c0,0.9-0.3,1.6-0.9,2.1
		C182.9,138.8,182.2,139.1,181.3,139.1z"/>
	<path class="st1" d="M199.7,168.2l-9.2-20.1l-2.5-0.8l0.1-1.8h9.9l0.2,1.8l-3.2,0.8l6.5,14.6l6-14.6l-3.2-0.8l0.2-1.8h8.5l0.1,1.8
		l-2.5,0.8l-9.4,20.1H199.7z"/>
	<path class="st1" d="M225.3,168.4c-2,0-3.8-0.5-5.4-1.4c-1.6-0.9-2.9-2.2-3.9-3.9c-1-1.7-1.4-3.7-1.4-6c0-2.5,0.5-4.7,1.5-6.5
		c1-1.8,2.3-3.2,4-4.2c1.6-1,3.4-1.4,5.3-1.4c2.7,0,4.8,0.9,6.3,2.7c1.5,1.8,2.3,4.3,2.3,7.5v0.9h-15c0.1,2.8,0.8,4.9,2.2,6.5
		c1.4,1.5,3.2,2.3,5.4,2.3c1.3,0,2.4-0.2,3.4-0.7c1-0.5,1.9-1.3,2.8-2.4l1.3,1.2c-1,1.8-2.3,3.2-3.7,4
		C228.8,167.9,227.2,168.4,225.3,168.4z M224.9,147.1c-1.4,0-2.7,0.6-3.8,1.7c-1.2,1.1-1.9,2.8-2.1,5.1h11.1v-0.4
		c0-2-0.5-3.6-1.4-4.7C227.8,147.7,226.5,147.1,224.9,147.1z"/>
	<path class="st1" d="M258.9,168.4c-2,0-3.8-0.4-5.4-1.3c-1.6-0.9-2.9-2.2-3.9-3.8c-1-1.7-1.5-3.7-1.5-6.1c0-2.3,0.5-4.3,1.5-6.1
		c1-1.8,2.4-3.3,4.2-4.3c1.8-1.1,3.8-1.6,6-1.6c2.3,0,4,0.4,5.2,1.2c1.2,0.8,1.8,1.7,1.8,2.7c0,0.6-0.2,1.1-0.5,1.4
		c-0.3,0.3-0.8,0.5-1.4,0.5c-0.6,0-1-0.1-1.4-0.3c-0.4-0.2-0.9-0.6-1.5-1.3l-2.3-2.3c-1.3,0-2.4,0.3-3.5,1c-1.1,0.7-2,1.7-2.7,3
		c-0.7,1.3-1,3-1,5.1c0,2.8,0.7,5,2.1,6.5c1.4,1.5,3.2,2.3,5.3,2.3c1.4,0,2.5-0.2,3.5-0.7c1-0.5,1.9-1.3,2.8-2.4l1.4,1.2
		C265.7,166.6,262.8,168.4,258.9,168.4z"/>
	<path class="st1" d="M281.3,168.4c-2.3,0-4.3-0.5-6-1.5c-1.7-1-3-2.4-3.9-4.1c-0.9-1.7-1.4-3.8-1.4-6c0-2.3,0.5-4.4,1.6-6.1
		c1-1.7,2.4-3.1,4.2-4.1s3.6-1.5,5.7-1.5c2.1,0,4,0.5,5.6,1.4c1.6,1,2.9,2.3,3.7,4c0.9,1.7,1.3,3.7,1.3,6c0,2.2-0.5,4.2-1.4,6
		c-1,1.8-2.3,3.2-3.9,4.3C285.1,167.8,283.3,168.4,281.3,168.4z M281.8,166c1.8,0,3.2-0.8,4.3-2.4c1.1-1.6,1.7-3.6,1.7-6.1
		c0-3-0.6-5.5-1.9-7.4c-1.3-1.9-2.9-2.8-5-2.8c-1.9,0-3.5,0.8-4.6,2.4c-1.2,1.6-1.8,3.7-1.8,6.3c0,3,0.7,5.4,2,7.2
		C277.9,165,279.6,166,281.8,166z"/>
	<path class="st1" d="M296,167.9l-0.1-1.8l3.2-0.8c0-0.3,0.1-0.9,0.1-1.7c0-0.8,0.1-2.1,0.1-3.9l0.1-4.1c0-1.2,0-2.3-0.1-3.5
		c-0.1-1.2-0.2-2.1-0.3-2.6l-3.4-0.7V147l6.9-1.9l0.8,0.8l-0.3,2.8l0.2,0.1c1.2-1.3,2.4-2.3,3.6-2.9c1.2-0.6,2.5-0.9,3.8-0.9
		c1.3,0,2.5,0.3,3.6,1c1.1,0.6,2.1,1.6,2.8,3c0.7,1.3,1.1,3,1.1,5v5.8c0,1.3,0,2.4,0.1,3.5c0.1,1,0.1,1.7,0.2,2l3.2,0.8l-0.2,1.8
		h-10.3l-0.2-1.8l3-0.8c0.1-0.4,0.1-1,0.2-1.7c0-0.8,0.1-1.9,0.1-3.4v-5.8c0-1.6-0.3-2.8-0.8-3.7c-0.6-0.9-1.2-1.6-2.1-2
		c-0.8-0.4-1.6-0.6-2.4-0.6c-2.4,0-4.3,1.1-5.9,3.2v7.9c0,1.6,0,3,0.1,4c0.1,1,0.1,1.7,0.2,2.1l3.2,0.8l-0.2,1.8H296z"/>
	<path class="st1" d="M333.3,168.4c-1.3,0-2.6-0.1-3.9-0.4c-1.3-0.3-2.4-0.7-3.3-1.2l-0.3-5.6h2.5l1,3.8c1.2,0.8,2.5,1.3,4.2,1.3
		c1.2,0,2.2-0.3,2.9-0.9c0.8-0.6,1.2-1.4,1.2-2.4c0-0.9-0.3-1.7-1-2.4c-0.7-0.7-2-1.4-3.9-2.3c-2.4-1.1-4.2-2.1-5.2-3.1
		s-1.5-2.3-1.5-3.8c0-1.8,0.8-3.3,2.4-4.5c1.6-1.2,3.7-1.8,6.2-1.8c1,0,2,0.1,3,0.2s1.8,0.4,2.5,0.7l0.6,5.4h-2.4l-1.3-3.5
		c-0.8-0.5-1.7-0.7-2.8-0.7c-1.3,0-2.3,0.3-3,0.9c-0.8,0.6-1.1,1.3-1.1,2.3c0,1,0.4,1.9,1.2,2.5c0.8,0.6,2.2,1.5,4.3,2.4
		c2.3,1,3.9,2.1,4.8,3.1c0.9,1,1.4,2.2,1.4,3.6c0,1.9-0.8,3.4-2.4,4.6C337.8,167.8,335.7,168.4,333.3,168.4z"/>
	<path class="st1" d="M367.6,164.4l3.3,0.8v1.7l-6.7,1.6l-0.7-0.7l0.1-3.2l-0.2-0.1c-1,1.4-2.1,2.4-3.1,3c-1.1,0.6-2.2,0.9-3.4,0.9
		c-2.3,0-4.3-0.7-5.8-2.1c-1.6-1.4-2.4-3.6-2.4-6.5v-4.6c0-1,0-1.9-0.1-2.9c0-0.9-0.1-1.9-0.2-2.8l-3.6-0.7V147l7-1.9l0.8,0.8
		c-0.1,1.1-0.1,2.3-0.2,3.5c0,1.2-0.1,2.5-0.1,3.8v5.8c0,2.2,0.5,3.8,1.5,4.7c1,0.9,2.3,1.4,4,1.4c0.9,0,1.9-0.2,2.9-0.7
		c1-0.5,1.9-1.3,2.6-2.6v-6.1c0-1.1,0-2.2-0.1-3.4c-0.1-1.1-0.1-2.1-0.2-2.8l-3.8-0.7V147l7.2-1.9l0.7,0.7c0,1.5-0.1,2.7-0.1,3.7
		c0,1,0,2.2,0,3.6v3.7c0,2,0,3.6,0.1,4.8C367.4,162.9,367.5,163.8,367.6,164.4z"/>
	<path class="st1" d="M373.8,167.9l-0.1-1.9l3.4-0.7c0.1-0.6,0.1-1.6,0.2-3.1c0.1-1.5,0.1-3.8,0.1-6.8v-6.5c0-1.3,0-2.7,0-4.1
		c0-1.4,0-2.8-0.1-4c0-1.3,0-2.3-0.1-3.2c0-0.9,0-1.5-0.1-1.8l-3.9-0.5l-0.1-1.6l7.3-2.1l1,0.7c0,1.5-0.1,3-0.1,4.4
		c0,1.4-0.1,3.1-0.1,4.9c0,1.8,0,3.9,0,6.4l-0.1,8.5c0,2,0,3.9,0.1,5.5c0.1,1.7,0.1,2.7,0.2,3.2l3.4,0.7l-0.1,1.9H373.8z"/>
	<path class="st1" d="M404.2,164.8c-0.7,1.1-1.6,2-2.7,2.6c-1.1,0.6-2.3,0.9-3.5,0.9c-2.1,0-3.8-0.6-5.2-1.9c-1.4-1.3-2-3.2-2-5.8
		l0.1-12.6h-3.7v-1l6.7-6.1h0.9l-0.1,4.6h7.9v2.6h-7.9l-0.1,11.7c0,1.8,0.4,3.2,1.2,4.1c0.8,0.9,1.9,1.3,3.3,1.3
		c0.8,0,1.6-0.2,2.3-0.5c0.7-0.3,1.3-0.7,1.9-1.3L404.2,164.8z"/>
	<path class="st1" d="M413.9,168.4c-1.4,0-2.6-0.3-3.7-0.8c-1.1-0.6-1.9-1.3-2.5-2.1c-0.6-0.9-0.9-1.8-0.9-2.7
		c0-1.2,0.4-2.1,1.1-2.9c0.8-0.8,2-1.4,3.8-2l8-2.7v-2.7c0-1.3-0.6-2.4-1.7-3.4c-1.2-0.9-2.5-1.4-4.2-1.4c-0.9,0-1.5,0.2-1.8,0.6
		c-0.3,0.4-0.5,1.1-0.5,2.2l-0.2,2c-1.2,0.3-2.2,0.3-3.1-0.1c-0.9-0.4-1.3-1-1.3-1.8c0-0.7,0.4-1.5,1.3-2.3c0.9-0.8,1.9-1.5,3.2-2.1
		c1.3-0.6,2.5-1,3.7-1.2c2.5,0,4.6,0.7,6.2,2c1.6,1.3,2.3,3.1,2.3,5.3l-0.1,8.9c0,0.6,0,1.3,0.1,1.9c0.1,0.6,0.1,1.1,0.2,1.4
		l3.4,0.6v1.6l-2.5,0.9c-0.5,0.2-0.9,0.3-1.3,0.4c-0.4,0.1-0.7,0.2-1,0.2c-1,0-1.7-0.6-2-1.8l-0.3-1.4
		C417.9,167.3,415.9,168.4,413.9,168.4z M415.2,165.4c1.6,0,3.1-0.8,4.5-2.3v-5.6l-6.1,1.7c-1.6,0.4-2.4,1.3-2.4,2.7
		c0,0.9,0.4,1.7,1.2,2.4C413.2,165,414.2,165.4,415.2,165.4z"/>
	<path class="st1" d="M430,167.9l-0.1-1.8l3.2-0.8c0-0.3,0.1-0.9,0.1-1.7c0-0.8,0.1-2.1,0.1-3.9l0.1-4.1c0-1.2,0-2.3-0.1-3.5
		c-0.1-1.2-0.2-2.1-0.3-2.6l-3.4-0.7V147l6.9-1.9l0.8,0.8l-0.3,2.8l0.2,0.1c1.2-1.3,2.4-2.3,3.6-2.9c1.2-0.6,2.5-0.9,3.8-0.9
		c1.3,0,2.5,0.3,3.6,1c1.1,0.6,2.1,1.6,2.8,3c0.7,1.3,1.1,3,1.1,5v5.8c0,1.3,0,2.4,0.1,3.5c0.1,1,0.1,1.7,0.2,2l3.2,0.8l-0.2,1.8
		h-10.3l-0.2-1.8l3-0.8c0.1-0.4,0.1-1,0.2-1.7c0-0.8,0.1-1.9,0.1-3.4v-5.8c0-1.6-0.3-2.8-0.8-3.7c-0.6-0.9-1.2-1.6-2.1-2
		c-0.8-0.4-1.6-0.6-2.4-0.6c-2.4,0-4.3,1.1-5.9,3.2v7.9c0,1.6,0,3,0.1,4c0.1,1,0.1,1.7,0.2,2.1l3.2,0.8l-0.2,1.8H430z"/>
	<path class="st1" d="M475,164.8c-0.7,1.1-1.6,2-2.7,2.6c-1.1,0.6-2.3,0.9-3.5,0.9c-2.1,0-3.8-0.6-5.2-1.9c-1.4-1.3-2-3.2-2-5.8
		l0.1-12.6h-3.7v-1l6.7-6.1h0.9l-0.1,4.6h7.9v2.6h-7.9l-0.1,11.7c0,1.8,0.4,3.2,1.2,4.1c0.8,0.9,1.9,1.3,3.3,1.3
		c0.8,0,1.6-0.2,2.3-0.5c0.7-0.3,1.3-0.7,1.9-1.3L475,164.8z"/>
	<path class="st1" d="M497.3,143.3h3.1v9.8h9.7v3.1h-9.7v9.8h-3.1v-9.8h-9.7v-3.1h9.7V143.3z"/>
	<path class="st1" d="M543.2,168.5l-0.7-0.7l0.1-3.4l-0.2-0.1c-1.1,1.5-2.2,2.5-3.3,3.1c-1.1,0.6-2.3,0.9-3.5,0.9
		c-2,0-3.8-0.5-5.3-1.4c-1.6-0.9-2.8-2.2-3.7-3.8c-0.9-1.6-1.3-3.5-1.3-5.7c0-2.4,0.5-4.6,1.6-6.5c1.1-1.9,2.5-3.3,4.2-4.4
		c1.8-1,3.6-1.6,5.6-1.6c1,0,2,0.1,3.1,0.4c1,0.2,1.9,0.6,2.6,1.2c0-0.6,0-1.5,0-2.5c0-1,0-2.1,0-3.2c0-1.1,0-2.1-0.1-3
		c0-0.9-0.1-1.5-0.1-1.8l-4.1-0.7l-0.1-1.7l7.5-2.1l0.9,0.7c-0.1,2.2-0.1,4.3-0.2,6.3c0,2-0.1,4.2-0.1,6.4l-0.1,12
		c0,1.8,0,3.3,0.1,4.6c0.1,1.3,0.2,2.2,0.2,2.7l3.3,0.8v1.7L543.2,168.5z M536.7,165c1,0,2-0.2,2.9-0.7c0.9-0.4,1.8-1.2,2.7-2.4
		v-11.2c-0.7-1.2-1.5-2.1-2.6-2.6c-1-0.5-2.1-0.8-3.1-0.8c-2.2,0-3.9,0.8-5.2,2.5c-1.3,1.7-1.9,3.8-1.9,6.4c0,2.8,0.7,5,2.1,6.5
		C533,164.2,534.7,165,536.7,165z"/>
	<path class="st1" d="M564.2,168.4c-2,0-3.8-0.5-5.4-1.4c-1.6-0.9-2.9-2.2-3.9-3.9c-1-1.7-1.4-3.7-1.4-6c0-2.5,0.5-4.7,1.5-6.5
		c1-1.8,2.3-3.2,4-4.2c1.6-1,3.4-1.4,5.3-1.4c2.7,0,4.8,0.9,6.3,2.7c1.5,1.8,2.3,4.3,2.3,7.5v0.9h-15c0.1,2.8,0.8,4.9,2.2,6.5
		c1.4,1.5,3.2,2.3,5.4,2.3c1.3,0,2.4-0.2,3.4-0.7c1-0.5,1.9-1.3,2.8-2.4l1.3,1.2c-1,1.8-2.3,3.2-3.7,4
		C567.6,167.9,566,168.4,564.2,168.4z M563.7,147.1c-1.4,0-2.7,0.6-3.8,1.7c-1.2,1.1-1.9,2.8-2.1,5.1h11.1v-0.4c0-2-0.5-3.6-1.4-4.7
		C566.6,147.7,565.3,147.1,563.7,147.1z"/>
	<path class="st1" d="M586.2,168.2l-9.2-20.1l-2.5-0.8l0.1-1.8h9.9l0.2,1.8l-3.2,0.8l6.5,14.6l6-14.6l-3.2-0.8l0.2-1.8h8.5l0.1,1.8
		l-2.5,0.8l-9.4,20.1H586.2z"/>
	<path class="st1" d="M611.8,168.4c-2,0-3.8-0.5-5.4-1.4c-1.6-0.9-2.9-2.2-3.9-3.9c-1-1.7-1.4-3.7-1.4-6c0-2.5,0.5-4.7,1.5-6.5
		c1-1.8,2.3-3.2,4-4.2c1.6-1,3.4-1.4,5.3-1.4c2.7,0,4.8,0.9,6.3,2.7c1.5,1.8,2.3,4.3,2.3,7.5v0.9h-15c0.1,2.8,0.8,4.9,2.2,6.5
		c1.4,1.5,3.2,2.3,5.4,2.3c1.3,0,2.4-0.2,3.4-0.7c1-0.5,1.9-1.3,2.8-2.4l1.3,1.2c-1,1.8-2.3,3.2-3.7,4
		C615.2,167.9,613.6,168.4,611.8,168.4z M611.3,147.1c-1.4,0-2.7,0.6-3.8,1.7c-1.2,1.1-1.9,2.8-2.1,5.1h11.1v-0.4
		c0-2-0.5-3.6-1.4-4.7C614.2,147.7,613,147.1,611.3,147.1z"/>
	<path class="st1" d="M623.9,167.9l-0.1-1.9l3.4-0.7c0.1-0.6,0.1-1.6,0.2-3.1c0.1-1.5,0.1-3.8,0.1-6.8v-6.5c0-1.3,0-2.7,0-4.1
		c0-1.4,0-2.8-0.1-4c0-1.3,0-2.3-0.1-3.2c0-0.9,0-1.5-0.1-1.8l-3.9-0.5l-0.1-1.6l7.3-2.1l1,0.7c0,1.5-0.1,3-0.1,4.4
		c0,1.4-0.1,3.1-0.1,4.9c0,1.8,0,3.9,0,6.4l-0.1,8.5c0,2,0,3.9,0.1,5.5c0.1,1.7,0.1,2.7,0.2,3.2l3.4,0.7l-0.1,1.9H623.9z"/>
	<path class="st1" d="M649.7,168.4c-2.3,0-4.3-0.5-6-1.5c-1.7-1-3-2.4-3.9-4.1c-0.9-1.7-1.4-3.8-1.4-6c0-2.3,0.5-4.4,1.6-6.1
		c1-1.7,2.4-3.1,4.2-4.1s3.6-1.5,5.7-1.5c2.1,0,4,0.5,5.6,1.4c1.6,1,2.9,2.3,3.7,4c0.9,1.7,1.3,3.7,1.3,6c0,2.2-0.5,4.2-1.4,6
		c-1,1.8-2.3,3.2-3.9,4.3C653.6,167.8,651.8,168.4,649.7,168.4z M650.2,166c1.8,0,3.2-0.8,4.3-2.4c1.1-1.6,1.7-3.6,1.7-6.1
		c0-3-0.6-5.5-1.9-7.4c-1.3-1.9-2.9-2.8-5-2.8c-1.9,0-3.5,0.8-4.6,2.4c-1.2,1.6-1.8,3.7-1.8,6.3c0,3,0.7,5.4,2,7.2
		C646.3,165,648.1,166,650.2,166z"/>
	<path class="st1" d="M664.3,179.5l-0.1-1.8l3.2-0.8c0-0.3,0.1-1.2,0.1-2.5c0-1.3,0.1-3.3,0.1-5.9l0.1-13.1c0-1,0-2.1-0.1-3.2
		c-0.1-1.1-0.2-2-0.3-2.6l-3.4-0.7V147l6.9-1.9l0.8,0.8l-0.3,2.9h0.2c2-2.5,4.3-3.8,7-3.8c1.9,0,3.6,0.5,5.1,1.4
		c1.5,1,2.7,2.3,3.5,4c0.8,1.7,1.3,3.6,1.3,5.7c0,2.3-0.5,4.4-1.6,6.3c-1,1.8-2.5,3.3-4.2,4.3s-3.8,1.6-6,1.6
		c-1.9,0-3.6-0.3-5.1-0.9v4c0,1.4,0,2.5,0.1,3.4c0,0.9,0.1,1.6,0.2,2.1l4.3,0.6l-0.1,2H664.3z M676.9,165.8c2.1,0,3.9-0.8,5.2-2.3
		c1.3-1.5,2-3.7,2-6.5c0-1.6-0.2-3.1-0.8-4.5c-0.6-1.3-1.4-2.4-2.4-3.1c-1-0.8-2.2-1.2-3.6-1.2c-2.3,0-4.2,1-5.8,3.1v12.7
		C673,165.3,674.8,165.8,676.9,165.8z"/>
	<path class="st1" d="M703.7,168.4c-2,0-3.8-0.5-5.4-1.4c-1.6-0.9-2.9-2.2-3.9-3.9c-1-1.7-1.4-3.7-1.4-6c0-2.5,0.5-4.7,1.5-6.5
		c1-1.8,2.3-3.2,4-4.2c1.6-1,3.4-1.4,5.3-1.4c2.7,0,4.8,0.9,6.3,2.7c1.5,1.8,2.3,4.3,2.3,7.5v0.9h-15c0.1,2.8,0.8,4.9,2.2,6.5
		s3.2,2.3,5.4,2.3c1.3,0,2.4-0.2,3.4-0.7c1-0.5,1.9-1.3,2.8-2.4l1.3,1.2c-1,1.8-2.3,3.2-3.7,4C707.2,167.9,705.6,168.4,703.7,168.4z
		 M703.3,147.1c-1.4,0-2.7,0.6-3.8,1.7c-1.2,1.1-1.9,2.8-2.1,5.1h11.1v-0.4c0-2-0.5-3.6-1.4-4.7
		C706.2,147.7,704.9,147.1,703.3,147.1z"/>
	<path class="st1" d="M716.1,167.9l-0.1-1.8l3.2-0.8c0-0.2,0.1-0.8,0.1-1.7c0-0.9,0.1-2.2,0.1-3.9l0.1-4.1c0-1.2,0-2.3-0.1-3.5
		c-0.1-1.2-0.2-2-0.3-2.6l-3.4-0.7V147l6.9-1.9l0.7,0.7l-0.2,4.3l0.2,0.1c1-2,2.1-3.3,3.2-4.1c1.1-0.7,2.1-1.1,3-1.1
		c0.8,0,1.5,0.2,2,0.6c0.5,0.4,0.8,1,0.8,1.8c0,0.8-0.3,1.4-0.8,1.8c-0.6,0.4-1.3,0.6-2.1,0.6c-1,0-1.9-0.3-2.8-1
		c-1.3,0.9-2.3,2.4-3.2,4.5l0.1,4.9c0,1.3,0.1,2.6,0.2,4c0.1,1.4,0.1,2.4,0.2,3l4.6,0.7l-0.1,1.9H716.1z"/>
	<path class="st1" d="M734.3,177l-0.7-1.5c1.3-0.6,2.4-1.3,3.1-2.2c0.8-0.9,1.1-1.9,1.1-3.1c0-0.7-0.1-1.2-0.4-1.6
		c-0.3-0.4-0.6-0.7-0.9-1s-0.7-0.6-0.9-1c-0.3-0.4-0.4-0.9-0.4-1.6c0-0.7,0.3-1.4,0.8-1.9c0.5-0.5,1.2-0.8,2.1-0.8
		c0.9,0,1.7,0.4,2.4,1.1c0.7,0.8,1.1,1.9,1.1,3.5c0,1.4-0.3,2.7-0.9,4c-0.6,1.3-1.5,2.5-2.6,3.6C737,175.6,735.7,176.4,734.3,177z"
		/>
	<path class="st1" d="M70.3,224.5l-8.4-20.1l-2.5-0.8l0.1-1.8h9.4l0.1,1.8l-2.7,0.8l5.8,14.4l5.6-13.6l-0.3-0.8l-2.7-0.8l0.2-1.8
		h9.4l0.1,1.8l-2.7,0.8l5.5,14.5l5.6-14.5l-2.7-0.8l0.1-1.8h8.1l0.1,1.8l-2.5,0.8l-8.9,20.1h-1.5l-6.4-16l-7.2,16H70.3z"/>
	<path class="st1" d="M100.2,224.3l-0.1-1.8l3.2-0.8c0-0.2,0.1-0.8,0.1-1.7c0-0.9,0.1-2.2,0.1-3.9l0.1-4.1c0-1.2,0-2.3-0.1-3.5
		c-0.1-1.2-0.2-2-0.3-2.6l-3.4-0.7v-1.7l6.9-1.9l0.7,0.7l-0.2,4.3l0.2,0.1c1-2,2.1-3.3,3.2-4.1c1.1-0.7,2.1-1.1,3-1.1
		c0.8,0,1.5,0.2,2,0.6c0.5,0.4,0.8,1,0.8,1.8c0,0.8-0.3,1.4-0.8,1.8c-0.6,0.4-1.3,0.6-2.1,0.6c-1,0-1.9-0.3-2.8-1
		c-1.3,0.9-2.3,2.4-3.2,4.5l0.1,4.9c0,1.3,0.1,2.6,0.2,4c0.1,1.4,0.1,2.4,0.2,3l4.6,0.7l-0.1,1.9H100.2z"/>
	<path class="st1" d="M118.7,224.3l-0.1-1.9l3.5-0.7c0-0.2,0.1-0.6,0.1-1.4c0-0.7,0.1-2.1,0.1-4.2v-3.5c0-1.5,0-2.8-0.1-4
		c-0.1-1.2-0.2-2.1-0.3-2.7l-3.5-0.7v-1.7l7.3-1.9l0.7,0.7c-0.1,1.1-0.2,2.1-0.2,3.2c-0.1,1-0.1,2.3-0.1,3.7v6.6c0,1.6,0,3,0.1,4.1
		c0.1,1.1,0.1,1.7,0.2,2l3.5,0.7l-0.1,1.9H118.7z M124.3,195.4c-0.9,0-1.6-0.3-2.2-0.8c-0.6-0.6-0.9-1.3-0.9-2.1
		c0-0.8,0.3-1.5,0.9-2.1c0.6-0.6,1.4-0.9,2.2-0.9c0.9,0,1.6,0.3,2.2,0.9c0.6,0.6,0.9,1.3,0.9,2.1c0,0.9-0.3,1.6-0.9,2.1
		C125.9,195.2,125.1,195.4,124.3,195.4z"/>
	<path class="st1" d="M149.1,221.2c-0.7,1.1-1.6,2-2.7,2.6c-1.1,0.6-2.3,0.9-3.5,0.9c-2.1,0-3.8-0.6-5.2-1.9c-1.4-1.3-2-3.2-2-5.8
		l0.1-12.6h-3.7v-1l6.7-6.1h0.9l-0.1,4.6h7.9v2.6h-7.9l-0.1,11.7c0,1.8,0.4,3.2,1.2,4.1c0.8,0.9,1.9,1.3,3.3,1.3
		c0.8,0,1.6-0.2,2.3-0.5c0.7-0.3,1.3-0.7,1.9-1.3L149.1,221.2z"/>
	<path class="st1" d="M161.4,224.7c-2,0-3.8-0.5-5.4-1.4c-1.6-0.9-2.9-2.2-3.9-3.9c-1-1.7-1.4-3.7-1.4-6c0-2.5,0.5-4.7,1.5-6.5
		c1-1.8,2.3-3.2,4-4.2c1.6-1,3.4-1.4,5.3-1.4c2.7,0,4.8,0.9,6.3,2.7c1.5,1.8,2.3,4.3,2.3,7.5v0.9h-15c0.1,2.8,0.8,4.9,2.2,6.5
		c1.4,1.5,3.2,2.3,5.4,2.3c1.3,0,2.4-0.2,3.4-0.7c1-0.5,1.9-1.3,2.8-2.4l1.3,1.2c-1,1.8-2.3,3.2-3.7,4
		C164.9,224.3,163.2,224.7,161.4,224.7z M161,203.5c-1.4,0-2.7,0.6-3.8,1.7c-1.2,1.1-1.9,2.8-2.1,5.1h11.1v-0.4c0-2-0.5-3.6-1.4-4.7
		C163.9,204.1,162.6,203.5,161,203.5z"/>
	<path class="st1" d="M173.8,224.3l-0.1-1.8l3.2-0.8c0-0.2,0.1-0.8,0.1-1.7c0-0.9,0.1-2.2,0.1-3.9l0.1-4.1c0-1.2,0-2.3-0.1-3.5
		c-0.1-1.2-0.2-2-0.3-2.6l-3.4-0.7v-1.7l6.9-1.9l0.7,0.7l-0.2,4.3l0.2,0.1c1-2,2.1-3.3,3.2-4.1c1.1-0.7,2.1-1.1,3-1.1
		c0.8,0,1.5,0.2,2,0.6c0.5,0.4,0.8,1,0.8,1.8c0,0.8-0.3,1.4-0.8,1.8c-0.6,0.4-1.3,0.6-2.1,0.6c-1,0-1.9-0.3-2.8-1
		c-1.3,0.9-2.3,2.4-3.2,4.5l0.1,4.9c0,1.3,0.1,2.6,0.2,4c0.1,1.4,0.1,2.4,0.2,3l4.6,0.7l-0.1,1.9H173.8z"/>
	<path class="st1" d="M192,233.4l-0.7-1.5c1.3-0.6,2.4-1.3,3.1-2.2c0.8-0.9,1.1-1.9,1.1-3.1c0-0.7-0.1-1.2-0.4-1.6
		c-0.3-0.4-0.6-0.7-0.9-1c-0.3-0.3-0.7-0.6-0.9-1c-0.3-0.4-0.4-0.9-0.4-1.6c0-0.7,0.3-1.4,0.8-1.9c0.5-0.5,1.2-0.8,2.1-0.8
		c0.9,0,1.7,0.4,2.4,1.1c0.7,0.8,1.1,1.9,1.1,3.5c0,1.4-0.3,2.7-0.9,4c-0.6,1.3-1.5,2.5-2.6,3.6C194.6,232,193.4,232.8,192,233.4z"
		/>
	<path class="st1" d="M213.6,224.3l-0.1-1.8l3.2-0.8c0-0.3,0.1-0.9,0.1-1.6c0-0.7,0.1-2.1,0.1-4l0.1-4.1c0-1.1,0-2.3-0.1-3.4
		c-0.1-1.2-0.2-2.1-0.3-2.6l-3.4-0.7v-1.7l6.9-1.9l0.8,0.8l-0.3,2.9l0.2,0.1c1.1-1.4,2.2-2.3,3.4-2.9c1.2-0.6,2.3-0.9,3.6-0.9
		c1.2,0,2.4,0.3,3.6,1c1.2,0.7,2.2,1.8,2.9,3.2c1.2-1.5,2.4-2.6,3.7-3.3c1.3-0.7,2.7-1,4.1-1c1.4,0,2.7,0.3,3.9,1
		c1.2,0.7,2.1,1.7,2.9,3c0.7,1.3,1.1,2.9,1.1,4.8l-0.1,5.9c0,1.3,0,2.4,0.1,3.4c0.1,1,0.1,1.7,0.2,2.1l3.2,0.8l-0.2,1.8h-10.2
		l-0.1-1.8l2.9-0.8c0-0.4,0.1-1,0.1-1.7c0.1-0.8,0.1-1.9,0.1-3.4l0.1-5.8c0-1.6-0.3-2.8-0.8-3.7c-0.5-0.9-1.2-1.6-2-2
		c-0.8-0.4-1.6-0.6-2.4-0.6c-2.3,0-4.3,1.1-5.9,3.3c0.2,0.9,0.3,1.9,0.3,2.9l0.1,5.5c0,1.3,0,2.4,0.1,3.4c0.1,1,0.1,1.7,0.2,2.1
		l3.1,0.8l-0.1,1.8h-10.1l-0.2-1.8l2.9-0.8c0.1-0.4,0.1-1,0.2-1.7c0-0.8,0.1-1.9,0.1-3.4v-5.8c0-2.3-0.5-3.9-1.6-4.8
		c-1.1-1-2.2-1.4-3.5-1.4c-1.1,0-2.1,0.3-3.1,0.8c-1,0.5-1.8,1.3-2.6,2.5v7.9c0,1.6,0,3,0.1,4c0.1,1,0.1,1.7,0.2,2.1l3.1,0.8
		l-0.2,1.8H213.6z"/>
	<path class="st1" d="M279.5,201.8l0.1,1.8l-2.5,0.8l-8.9,18.8l-4.2,8.7c-0.8,1.6-1.6,2.7-2.4,3.4c-0.8,0.7-1.8,1-2.9,1
		c-0.8,0-1.5-0.2-2.1-0.6c-0.5-0.4-0.8-0.9-0.8-1.6c0-0.5,0.2-1,0.6-1.4c0.4-0.5,1-0.8,1.9-1l3.6-1.1l3.7-7.1l-8.6-18.9l-2.5-0.8
		l0.1-1.8h9.9l0.2,1.8l-3.2,0.8l6.4,14.4l6.1-14.4l-3.2-0.8l0.2-1.8H279.5z"/>
	<path class="st1" d="M289.3,224.7c-1.3,0-2.6-0.1-3.9-0.4c-1.3-0.3-2.4-0.7-3.3-1.2l-0.3-5.6h2.5l1,3.8c1.2,0.8,2.5,1.3,4.2,1.3
		c1.2,0,2.2-0.3,2.9-0.9c0.8-0.6,1.2-1.4,1.2-2.4c0-0.9-0.3-1.7-1-2.4c-0.7-0.7-2-1.4-3.9-2.3c-2.4-1.1-4.2-2.1-5.2-3.1
		s-1.5-2.3-1.5-3.8c0-1.8,0.8-3.3,2.4-4.5c1.6-1.2,3.7-1.8,6.2-1.8c1,0,2,0.1,3,0.2s1.8,0.4,2.5,0.7l0.6,5.4h-2.4l-1.3-3.5
		c-0.8-0.5-1.7-0.7-2.8-0.7c-1.3,0-2.3,0.3-3,0.9c-0.8,0.6-1.1,1.3-1.1,2.3c0,1,0.4,1.9,1.2,2.5c0.8,0.6,2.2,1.5,4.3,2.4
		c2.3,1,3.9,2.1,4.8,3.1c0.9,1,1.4,2.2,1.4,3.6c0,1.9-0.8,3.4-2.4,4.6C293.8,224.1,291.7,224.7,289.3,224.7z"/>
	<path class="st1" d="M317.9,221.2c-0.7,1.1-1.6,2-2.7,2.6c-1.1,0.6-2.3,0.9-3.5,0.9c-2.1,0-3.8-0.6-5.2-1.9c-1.4-1.3-2-3.2-2-5.8
		l0.1-12.6h-3.7v-1l6.7-6.1h0.9l-0.1,4.6h7.9v2.6h-7.9l-0.1,11.7c0,1.8,0.4,3.2,1.2,4.1c0.8,0.9,1.9,1.3,3.3,1.3
		c0.8,0,1.6-0.2,2.3-0.5c0.7-0.3,1.3-0.7,1.9-1.3L317.9,221.2z"/>
	<path class="st1" d="M319.1,224.3l-0.1-1.9l3.5-0.7c0-0.2,0.1-0.6,0.1-1.4c0-0.7,0.1-2.1,0.1-4.2v-3.5c0-1.5,0-2.8-0.1-4
		c-0.1-1.2-0.2-2.1-0.3-2.7l-3.5-0.7v-1.7l7.3-1.9l0.7,0.7c-0.1,1.1-0.2,2.1-0.2,3.2c-0.1,1-0.1,2.3-0.1,3.7v6.6c0,1.6,0,3,0.1,4.1
		c0.1,1.1,0.1,1.7,0.2,2l3.5,0.7l-0.1,1.9H319.1z M324.6,195.4c-0.9,0-1.6-0.3-2.2-0.8c-0.6-0.6-0.9-1.3-0.9-2.1
		c0-0.8,0.3-1.5,0.9-2.1c0.6-0.6,1.4-0.9,2.2-0.9c0.9,0,1.6,0.3,2.2,0.9c0.6,0.6,0.9,1.3,0.9,2.1c0,0.9-0.3,1.6-0.9,2.1
		C326.2,195.2,325.5,195.4,324.6,195.4z"/>
	<path class="st1" d="M344.5,224.7c-2,0-3.8-0.4-5.4-1.3c-1.6-0.9-2.9-2.2-3.9-3.8c-1-1.7-1.5-3.7-1.5-6.1c0-2.3,0.5-4.3,1.5-6.1
		c1-1.8,2.4-3.3,4.2-4.3c1.8-1.1,3.8-1.6,6-1.6c2.3,0,4,0.4,5.2,1.2c1.2,0.8,1.8,1.7,1.8,2.7c0,0.6-0.2,1.1-0.5,1.4
		c-0.3,0.3-0.8,0.5-1.4,0.5c-0.6,0-1-0.1-1.4-0.3c-0.4-0.2-0.9-0.6-1.5-1.3l-2.3-2.3c-1.3,0-2.4,0.3-3.5,1c-1.1,0.7-2,1.7-2.7,3
		c-0.7,1.3-1,3-1,5.1c0,2.8,0.7,5,2.1,6.5c1.4,1.5,3.2,2.3,5.3,2.3c1.4,0,2.5-0.2,3.5-0.7c1-0.5,1.9-1.3,2.8-2.4l1.4,1.2
		C351.3,223,348.4,224.7,344.5,224.7z"/>
	<path class="st1" d="M355.9,233.4l-0.7-1.5c1.3-0.6,2.4-1.3,3.1-2.2c0.8-0.9,1.1-1.9,1.1-3.1c0-0.7-0.1-1.2-0.4-1.6
		c-0.3-0.4-0.6-0.7-0.9-1c-0.3-0.3-0.7-0.6-0.9-1c-0.3-0.4-0.4-0.9-0.4-1.6c0-0.7,0.3-1.4,0.8-1.9c0.5-0.5,1.2-0.8,2.1-0.8
		c0.9,0,1.7,0.4,2.4,1.1c0.7,0.8,1.1,1.9,1.1,3.5c0,1.4-0.3,2.7-0.9,4c-0.6,1.3-1.5,2.5-2.6,3.6C358.5,232,357.3,232.8,355.9,233.4z
		"/>
	<path class="st1" d="M393.7,221.2c-0.7,1.1-1.6,2-2.7,2.6c-1.1,0.6-2.3,0.9-3.5,0.9c-2.1,0-3.8-0.6-5.2-1.9c-1.4-1.3-2-3.2-2-5.8
		l0.1-12.6h-3.7v-1l6.7-6.1h0.9l-0.1,4.6h7.9v2.6h-7.9l-0.1,11.7c0,1.8,0.4,3.2,1.2,4.1c0.8,0.9,1.9,1.3,3.3,1.3
		c0.8,0,1.6-0.2,2.3-0.5c0.7-0.3,1.3-0.7,1.9-1.3L393.7,221.2z"/>
	<path class="st1" d="M395.2,224.3l-0.1-1.8l3.2-0.8c0-0.2,0.1-0.8,0.1-1.7c0-0.9,0.1-2.2,0.1-3.9l0.1-4.1c0-1.2,0-2.3-0.1-3.5
		c-0.1-1.2-0.2-2-0.3-2.6l-3.4-0.7v-1.7l6.9-1.9l0.7,0.7l-0.2,4.3l0.2,0.1c1-2,2.1-3.3,3.2-4.1c1.1-0.7,2.1-1.1,3-1.1
		c0.8,0,1.5,0.2,2,0.6c0.5,0.4,0.8,1,0.8,1.8c0,0.8-0.3,1.4-0.8,1.8c-0.6,0.4-1.3,0.6-2.1,0.6c-1,0-1.9-0.3-2.8-1
		c-1.3,0.9-2.3,2.4-3.2,4.5l0.1,4.9c0,1.3,0.1,2.6,0.2,4c0.1,1.4,0.1,2.4,0.2,3l4.6,0.7l-0.1,1.9H395.2z"/>
	<path class="st1" d="M421.5,224.7c-1.4,0-2.6-0.3-3.7-0.8c-1.1-0.6-1.9-1.3-2.5-2.1c-0.6-0.9-0.9-1.8-0.9-2.7
		c0-1.2,0.4-2.1,1.1-2.9c0.8-0.8,2-1.4,3.8-2l8-2.7v-2.7c0-1.3-0.6-2.4-1.7-3.4c-1.2-0.9-2.5-1.4-4.2-1.4c-0.9,0-1.5,0.2-1.8,0.6
		c-0.3,0.4-0.5,1.1-0.5,2.2l-0.2,2c-1.2,0.3-2.2,0.3-3.1-0.1c-0.9-0.4-1.3-1-1.3-1.8c0-0.7,0.4-1.5,1.3-2.3c0.9-0.8,1.9-1.5,3.2-2.1
		c1.3-0.6,2.5-1,3.7-1.2c2.5,0,4.6,0.7,6.2,2c1.6,1.3,2.3,3.1,2.3,5.3l-0.1,8.9c0,0.6,0,1.3,0.1,1.9c0.1,0.6,0.1,1.1,0.2,1.4
		l3.4,0.6v1.6l-2.5,0.9c-0.5,0.2-0.9,0.3-1.3,0.4c-0.4,0.1-0.7,0.2-1,0.2c-1,0-1.7-0.6-2-1.8l-0.3-1.4
		C425.5,223.7,423.5,224.7,421.5,224.7z M422.9,221.7c1.6,0,3.1-0.8,4.5-2.3v-5.6l-6.1,1.7c-1.6,0.4-2.4,1.3-2.4,2.7
		c0,0.9,0.4,1.7,1.2,2.4C420.9,221.4,421.8,221.7,422.9,221.7z"/>
	<path class="st1" d="M447.3,224.5l-9.2-20.1l-2.5-0.8l0.1-1.8h9.9l0.2,1.8l-3.2,0.8L449,219l6-14.6l-3.2-0.8l0.2-1.8h8.5l0.1,1.8
		l-2.5,0.8l-9.4,20.1H447.3z"/>
	<path class="st1" d="M472.9,224.7c-2,0-3.8-0.5-5.4-1.4c-1.6-0.9-2.9-2.2-3.9-3.9c-1-1.7-1.4-3.7-1.4-6c0-2.5,0.5-4.7,1.5-6.5
		c1-1.8,2.3-3.2,4-4.2c1.6-1,3.4-1.4,5.3-1.4c2.7,0,4.8,0.9,6.3,2.7c1.5,1.8,2.3,4.3,2.3,7.5v0.9h-15c0.1,2.8,0.8,4.9,2.2,6.5
		c1.4,1.5,3.2,2.3,5.4,2.3c1.3,0,2.4-0.2,3.4-0.7c1-0.5,1.9-1.3,2.8-2.4l1.3,1.2c-1,1.8-2.3,3.2-3.7,4
		C476.3,224.3,474.7,224.7,472.9,224.7z M472.5,203.5c-1.4,0-2.7,0.6-3.8,1.7c-1.2,1.1-1.9,2.8-2.1,5.1h11.1v-0.4
		c0-2-0.5-3.6-1.4-4.7C475.3,204.1,474.1,203.5,472.5,203.5z"/>
	<path class="st1" d="M485,224.3l-0.1-1.9l3.4-0.7c0.1-0.6,0.1-1.6,0.2-3.1c0.1-1.5,0.1-3.8,0.1-6.8v-6.5c0-1.3,0-2.7,0-4.1
		c0-1.4,0-2.8-0.1-4c0-1.3,0-2.3-0.1-3.2c0-0.9,0-1.5-0.1-1.8l-3.9-0.5l-0.1-1.6l7.3-2.1l1,0.7c0,1.5-0.1,3-0.1,4.4
		c0,1.4-0.1,3.1-0.1,4.9c0,1.8,0,3.9,0,6.4l-0.1,8.5c0,2,0,3.9,0.1,5.5c0.1,1.7,0.1,2.7,0.2,3.2l3.4,0.7l-0.1,1.9H485z"/>
	<path class="st1" d="M498.9,224.3l-0.1-1.9l3.4-0.7c0.1-0.6,0.1-1.6,0.2-3.1c0.1-1.5,0.1-3.8,0.1-6.8v-6.5c0-1.3,0-2.7,0-4.1
		c0-1.4,0-2.8-0.1-4c0-1.3,0-2.3-0.1-3.2c0-0.9,0-1.5-0.1-1.8l-3.9-0.5l-0.1-1.6l7.3-2.1l1,0.7c0,1.5-0.1,3-0.1,4.4
		c0,1.4-0.1,3.1-0.1,4.9c0,1.8,0,3.9,0,6.4l-0.1,8.5c0,2,0,3.9,0.1,5.5c0.1,1.7,0.1,2.7,0.2,3.2l3.4,0.7l-0.1,1.9H498.9z"/>
	<path class="st1" d="M524.2,224.7c-2,0-3.8-0.5-5.4-1.4c-1.6-0.9-2.9-2.2-3.9-3.9c-1-1.7-1.4-3.7-1.4-6c0-2.5,0.5-4.7,1.5-6.5
		c1-1.8,2.3-3.2,4-4.2c1.6-1,3.4-1.4,5.3-1.4c2.7,0,4.8,0.9,6.3,2.7c1.5,1.8,2.3,4.3,2.3,7.5v0.9h-15c0.1,2.8,0.8,4.9,2.2,6.5
		c1.4,1.5,3.2,2.3,5.4,2.3c1.3,0,2.4-0.2,3.4-0.7c1-0.5,1.9-1.3,2.8-2.4l1.3,1.2c-1,1.8-2.3,3.2-3.7,4
		C527.7,224.3,526.1,224.7,524.2,224.7z M523.8,203.5c-1.4,0-2.7,0.6-3.8,1.7c-1.2,1.1-1.9,2.8-2.1,5.1H529v-0.4
		c0-2-0.5-3.6-1.4-4.7C526.7,204.1,525.4,203.5,523.8,203.5z"/>
	<path class="st1" d="M536.6,224.3l-0.1-1.8l3.2-0.8c0-0.2,0.1-0.8,0.1-1.7c0-0.9,0.1-2.2,0.1-3.9l0.1-4.1c0-1.2,0-2.3-0.1-3.5
		c-0.1-1.2-0.2-2-0.3-2.6l-3.4-0.7v-1.7l6.9-1.9l0.7,0.7l-0.2,4.3l0.2,0.1c1-2,2.1-3.3,3.2-4.1c1.1-0.7,2.1-1.1,3-1.1
		c0.8,0,1.5,0.2,2,0.6c0.5,0.4,0.8,1,0.8,1.8c0,0.8-0.3,1.4-0.8,1.8c-0.6,0.4-1.3,0.6-2.1,0.6c-1,0-1.9-0.3-2.8-1
		c-1.3,0.9-2.3,2.4-3.2,4.5l0.1,4.9c0,1.3,0.1,2.6,0.2,4c0.1,1.4,0.1,2.4,0.2,3l4.6,0.7l-0.1,1.9H536.6z"/>
	<path class="st1" d="M558.7,224.8c-0.9,0-1.7-0.3-2.3-0.9c-0.6-0.6-0.9-1.3-0.9-2.2c0-0.9,0.3-1.6,0.9-2.2c0.6-0.6,1.4-0.9,2.3-0.9
		c0.9,0,1.7,0.3,2.3,0.9c0.6,0.6,0.9,1.3,0.9,2.2c0,0.9-0.3,1.6-0.9,2.2C560.3,224.5,559.6,224.8,558.7,224.8z"/>
</g>
<g id="Contacts">
	<path class="st1" d="M64.4,396.5c-1.6,0-2.9-0.3-3.9-1c-1-0.7-1.5-1.5-1.5-2.4c0-0.9,0.4-1.8,1.1-2.5c0.8,1,1.7,1.8,2.7,2.5
		c1,0.7,1.9,1,2.7,1c1.4,0,2.1-0.7,2.1-2c0-0.5-0.2-0.9-0.5-1.4c-0.4-0.5-1.1-1.1-2.2-1.9c-1.4-1-2.3-1.9-2.8-2.6
		c-0.5-0.8-0.8-1.6-0.8-2.5c0-1.2,0.3-2.2,1-3.1c0.7-0.9,1.6-1.6,2.7-2.2c1.1-0.5,2.3-0.8,3.7-0.8c1.3,0,2.4,0.2,3.4,0.8
		c1,0.5,1.5,1.2,1.5,2.2c0,0.5-0.1,0.9-0.2,1.3c-0.2,0.4-0.4,0.7-0.7,1c-1.8-2-3.3-3-4.8-3c-0.7,0-1.2,0.2-1.6,0.6
		c-0.4,0.4-0.6,0.9-0.6,1.5c0,0.5,0.2,1,0.6,1.4c0.4,0.5,1.2,1.1,2.4,2.1c1.3,1,2.2,1.8,2.7,2.5c0.5,0.7,0.7,1.4,0.7,2.3
		c0,1.1-0.3,2.2-1,3.1c-0.7,0.9-1.6,1.7-2.7,2.2C67,396.2,65.8,396.5,64.4,396.5z"/>
	<path class="st1" d="M81,396.5c-1.9,0-3.4-0.6-4.6-1.8c-1.2-1.2-1.7-2.8-1.7-4.8c0-1.6,0.3-3.1,0.8-4.6c0.6-1.5,1.3-2.8,2.3-4
		c1-1.2,2.1-2.1,3.4-2.8c1.3-0.7,2.6-1,4-1c1.9,0,3.4,0.6,4.6,1.8c1.2,1.2,1.8,2.8,1.8,4.8c0,1.6-0.3,3.1-0.8,4.6
		c-0.6,1.5-1.3,2.8-2.3,3.9c-1,1.2-2.1,2.1-3.4,2.8C83.8,396.1,82.5,396.5,81,396.5z M82.1,394.1c0.9,0,1.7-0.4,2.4-1.3
		c0.7-0.9,1.2-2.1,1.6-3.5c0.4-1.5,0.6-3.1,0.6-4.8c0-1.4-0.2-2.5-0.7-3.3s-1-1.3-1.8-1.3c-0.9,0-1.7,0.5-2.4,1.4
		c-0.7,0.9-1.2,2.1-1.6,3.6c-0.4,1.5-0.6,3.1-0.6,4.8c0,1.4,0.2,2.6,0.7,3.4C80.8,393.7,81.4,394.1,82.1,394.1z"/>
	<path class="st1" d="M103.3,380.1c-0.8,0-1.5,0.4-2.2,1.2s-1.3,1.8-1.7,3.2c-0.4,1.3-0.6,2.8-0.6,4.5c0,1.3,0.3,2.3,0.9,3
		c0.6,0.7,1.3,1,2.2,1c0.6,0,1.4-0.2,2.3-0.7c0.9-0.4,1.8-1.2,2.7-2.2l1.2,1.7c-1.1,1.6-2.4,2.7-3.9,3.5c-1.4,0.8-2.7,1.2-3.9,1.2
		c-1.9,0-3.4-0.6-4.6-1.8c-1.2-1.2-1.9-2.8-1.9-4.8c0-1.5,0.3-3,0.8-4.5s1.3-2.8,2.3-4c1-1.2,2.1-2.1,3.5-2.8s2.8-1,4.4-1
		c1.3,0,2.3,0.3,3.1,0.8c0.8,0.5,1.2,1.3,1.2,2.2c0,0.5-0.1,0.9-0.3,1.3s-0.4,0.8-0.8,1.1c-0.8-0.9-1.6-1.6-2.4-2.2
		C104.8,380.4,104,380.1,103.3,380.1z"/>
	<path class="st1" d="M113.2,396.5c-1.4,0-2.2-0.8-2.2-2.3c0-0.4,0.1-1.1,0.3-2c0.2-0.9,0.5-1.9,0.8-3c0.3-1.1,0.6-2.2,1-3.3
		c0.3-1.1,0.6-2.1,0.8-3c0.2-0.9,0.3-1.6,0.3-2.1c-0.6,0.3-1.1,0.8-1.7,1.3c-0.6,0.5-1.1,1.2-1.7,2l-1.2-1.5c1-1.4,2.2-2.5,3.5-3.5
		c1.3-1,2.5-1.5,3.6-1.5c1.4,0,2.2,0.8,2.2,2.3c0,0.4-0.1,1.1-0.3,2c-0.2,0.9-0.5,1.9-0.8,3c-0.3,1.1-0.7,2.2-1,3.3
		c-0.3,1.1-0.6,2.1-0.8,3c-0.2,0.9-0.3,1.6-0.3,2c0.6-0.3,1.1-0.8,1.7-1.3c0.5-0.5,1.1-1.1,1.7-1.9l1.2,1.4
		c-1.1,1.4-2.2,2.6-3.5,3.5C115.5,396,114.3,396.5,113.2,396.5z M118.1,373.8c-0.9,0-1.5-0.2-2-0.8c-0.5-0.5-0.7-1.1-0.7-1.9
		c0-0.9,0.3-1.7,1-2.4c0.6-0.7,1.4-1,2.4-1c0.8,0,1.5,0.2,1.9,0.7c0.5,0.5,0.7,1.1,0.7,1.8c0,1-0.3,1.8-0.9,2.5
		C119.9,373.5,119.1,373.8,118.1,373.8z"/>
	<path class="st1" d="M125.9,396.5c-1.1,0-2-0.4-2.6-1.3c-0.6-0.8-1-2-1-3.3c0-2,0.4-3.8,1.1-5.5c0.7-1.7,1.6-3.2,2.8-4.5
		c1.2-1.3,2.4-2.3,3.8-3.1s2.7-1.1,4.1-1.1c0.6,0,1.2,0.1,1.7,0.4c0.5,0.3,1,0.6,1.4,1.1l1.3-1.2h2.9c-0.4,1.3-0.8,2.7-1.3,4.2
		c-0.4,1.5-0.8,3-1.2,4.5c-0.4,1.5-0.7,2.8-0.9,3.9c-0.2,1.2-0.3,2.1-0.3,2.7c0.6-0.3,1.1-0.8,1.7-1.3c0.5-0.5,1.1-1.1,1.6-1.9
		l1.2,1.4c-1,1.4-2.2,2.6-3.5,3.5c-1.3,1-2.5,1.4-3.6,1.4c-1.3,0-2-0.7-2-2.1c0-0.5,0.1-1.3,0.3-2.3c0.2-1,0.6-2.5,1.1-4.3
		c-1.3,2.7-2.6,4.9-4.2,6.4C128.9,395.7,127.4,396.5,125.9,396.5z M127.2,390.8c0,1.4,0.3,2,0.9,2c0.4,0,0.9-0.3,1.5-1
		c0.7-0.7,1.4-1.6,2.2-2.8c0.8-1.2,1.5-2.4,2.3-3.9s1.4-2.9,1.9-4.4c-0.4-0.3-0.8-0.5-1.3-0.6c-0.5-0.1-0.9-0.2-1.4-0.2
		c-1.1,0-2.2,0.5-3.1,1.5c-0.9,1-1.7,2.3-2.2,3.9S127.2,388.9,127.2,390.8z"/>
	<path class="st1" d="M146.3,396.5c-1.4,0-2.1-0.7-2.1-2c0-0.4,0-0.7,0.1-1.1c0.1-0.4,0.2-1,0.4-1.8c0.2-0.8,0.5-2.1,0.9-3.9
		l4.1-16.7l-3-0.4l0.3-1.5l7.4-2l0.8,0.7c-0.4,1.5-0.8,3-1.2,4.3c-0.3,1.3-0.7,2.7-1,4l-3,11.9c-0.3,1.2-0.5,2.3-0.7,3.3
		c-0.2,1-0.3,1.7-0.3,2c0.6-0.3,1.1-0.8,1.7-1.3c0.5-0.5,1.1-1.1,1.6-1.9l1.2,1.4c-1,1.4-2.2,2.6-3.5,3.5
		C148.7,396,147.5,396.5,146.3,396.5z"/>
	<path class="st1" d="M158.6,396.6c-0.9,0-1.7-0.3-2.4-0.9c-0.7-0.6-1-1.4-1-2.3c0-0.9,0.3-1.7,1-2.4c0.7-0.7,1.5-1,2.4-1
		c0.9,0,1.7,0.3,2.4,1c0.7,0.7,1,1.5,1,2.4c0,0.9-0.3,1.7-1,2.3C160.3,396.2,159.5,396.6,158.6,396.6z M161.2,384.2
		c-0.9,0-1.7-0.3-2.4-0.9c-0.7-0.6-1-1.4-1-2.4s0.3-1.7,1-2.4c0.7-0.6,1.5-1,2.4-1c1,0,1.8,0.3,2.4,1c0.7,0.6,1,1.4,1,2.4
		s-0.3,1.7-1,2.4C162.9,383.9,162.1,384.2,161.2,384.2z"/>
	<path class="st1" d="M193.8,405.6c-3.5,0-6.6-0.6-9.3-1.9c-2.7-1.3-4.9-3.1-6.4-5.6c-1.6-2.5-2.3-5.5-2.3-9c0-2.6,0.5-5.1,1.4-7.2
		c0.9-2.2,2.3-4.1,4-5.7c1.7-1.6,3.8-2.8,6.2-3.7c2.4-0.9,5-1.3,7.9-1.3c3,0,5.7,0.5,8.1,1.5c2.4,1,4.3,2.5,5.8,4.5
		c1.4,2,2.1,4.4,2.1,7.2c0,1.6-0.3,3.1-0.9,4.6c-0.6,1.4-1.5,2.7-2.5,3.8c-1.1,1.1-2.3,2-3.6,2.6c-1.3,0.6-2.7,0.9-4.1,0.9
		c-0.7,0-1.3-0.1-1.6-0.4c-0.4-0.3-0.6-0.7-0.8-1.2l-0.3-1.1c-1.6,1.8-3.2,2.7-4.8,2.7c-1.3,0-2.3-0.3-3.2-0.8
		c-0.9-0.5-1.6-1.2-2.1-1.9c-0.5-0.8-0.7-1.5-0.7-2.2c0-1,0.3-1.8,0.9-2.5c0.6-0.6,1.6-1.2,2.9-1.6l6.5-2v-1.7
		c0-0.6-0.2-1.2-0.6-1.7c-0.4-0.5-0.9-1-1.5-1.3c-0.6-0.3-1.3-0.5-2-0.5c-0.6,0-0.9,0.1-1.1,0.4s-0.3,0.7-0.4,1.4l-0.2,2.3
		c-0.5,0.1-1,0.2-1.5,0.2c-0.9,0-1.6-0.2-2.1-0.5c-0.5-0.3-0.8-0.8-0.8-1.5c0-0.5,0.2-1,0.8-1.5c0.5-0.5,1.1-1,1.9-1.5
		s1.6-0.9,2.4-1.2c0.8-0.3,1.6-0.5,2.3-0.6c2.3,0,4.2,0.6,5.6,1.7c1.4,1.1,2.1,2.6,2.1,4.5l-0.1,7.4c0,1.4,0.1,2.3,0.3,2.9
		c1,0,1.9-0.4,2.8-1.1c0.9-0.7,1.6-1.8,2.2-3.2c0.6-1.4,0.8-3.1,0.8-5.2c0-2.6-0.5-4.6-1.5-6.3c-1-1.6-2.5-2.8-4.3-3.6
		c-1.9-0.8-4-1.1-6.5-1.1c-3.1,0-5.8,0.6-8,1.9c-2.2,1.2-3.9,3-5.1,5.3c-1.2,2.3-1.8,5-1.8,8.1c0,3.2,0.6,5.9,1.7,8
		c1.1,2.2,2.7,3.8,4.8,4.9c2.1,1.1,4.5,1.6,7.3,1.6c1.3,0,2.5-0.1,3.6-0.4c1.2-0.2,2.2-0.5,3.1-0.9l0.7,2
		C199.2,405.1,196.6,405.6,193.8,405.6z M194.3,393.1c1,0,1.8-0.4,2.5-1.2v-4.2l-3.4,0.8c-1.3,0.2-1.9,0.9-1.9,2
		c0,0.7,0.3,1.3,0.8,1.8C192.9,392.8,193.5,393.1,194.3,393.1z"/>
	<path class="st1" d="M225,396.1h-10.8l-0.1-1.8l2.6-0.7c0-0.5,0-1,0.1-1.5c0-0.5,0-1.2,0-2.1s0-2.1,0-3.6l0-5.9h-3v-1.8l3-0.8v-1.6
		c0-1.8,0.3-3.4,1-4.8c0.7-1.4,1.5-2.5,2.7-3.3c1.1-0.8,2.4-1.2,3.9-1.2c1.3,0,2.4,0.3,3.3,0.8s1.3,1.2,1.3,2.1
		c0,0.5-0.2,0.9-0.5,1.2s-0.8,0.4-1.3,0.4c-0.8,0-1.5-0.3-2.3-1l-1.7-1.6c-1.2,0.7-1.8,2.6-1.8,5.7v3.3v0h4.5v2.5h-4.5l0,5.7
		c0,1.3,0,2.7,0.1,4.1c0,1.4,0.1,2.5,0.1,3.4l3.4,0.7L225,396.1z"/>
	<path class="st1" d="M234.3,396.5c-1.3,0-2.3-0.3-3.2-0.8c-0.9-0.5-1.6-1.2-2.1-1.9s-0.7-1.5-0.7-2.2c0-1,0.3-1.8,0.9-2.5
		c0.6-0.6,1.6-1.2,2.9-1.6l6.5-2v-1.7c0-0.6-0.2-1.2-0.6-1.7c-0.4-0.5-0.9-1-1.5-1.3s-1.3-0.5-2.1-0.5c-0.5,0-0.9,0.1-1.1,0.4
		s-0.3,0.7-0.4,1.4l-0.2,2.3c-1.3,0.3-2.3,0.2-3.1-0.1c-0.8-0.3-1.2-0.9-1.2-1.7c0-0.5,0.2-1,0.8-1.5c0.5-0.5,1.1-1,1.9-1.5
		c0.8-0.5,1.6-0.9,2.4-1.2c0.8-0.3,1.6-0.5,2.3-0.6c2.4,0,4.2,0.6,5.6,1.7c1.4,1.1,2.1,2.6,2.1,4.5l-0.1,6.1c0,1.4,0.1,2.3,0.3,2.9
		l2.7,0.5v1.6l-2.5,1c-0.9,0.4-1.7,0.6-2.4,0.6c-1,0-1.7-0.5-2.1-1.6l-0.4-1.1C237.4,395.6,235.8,396.5,234.3,396.5z M236.1,393.1
		c1,0,1.8-0.4,2.5-1.2v-4.2l-3.4,0.8c-1.3,0.2-1.9,0.9-1.9,2c0,0.7,0.3,1.3,0.8,1.8C234.7,392.8,235.4,393.1,236.1,393.1z"/>
	<path class="st1" d="M249.8,395c0.1-1.4,0.1-2.7,0.1-4.1c0-1.3,0-2.7,0-4.1V381c0-1.6,0-3,0-4.4c0-1.4,0-2.6-0.1-3.5
		c0-1-0.1-1.7-0.1-2.1l-3.1-0.4l-0.1-1.6l7.3-1.9l1,0.7c-0.1,1.1-0.1,2.3-0.1,3.4c0,1.1-0.1,2.5-0.1,3.9c0,1.5-0.1,3.3-0.1,5.5
		l0.1,0c0.6-0.8,1.4-1.6,2.4-2.2s2.1-0.9,3.3-0.9c1.4,0,2.6,0.3,3.8,1c1.2,0.7,2.1,1.6,2.9,2.9c0.7,1.3,1.1,2.8,1.1,4.6
		c0,1.9-0.5,3.7-1.4,5.3c-0.9,1.6-2.2,2.8-3.9,3.7c-1.6,0.9-3.6,1.4-5.8,1.4c-1.3,0-2.5-0.1-3.8-0.4
		C252.1,395.8,250.9,395.4,249.8,395z M258.1,393.7c1.4,0,2.6-0.5,3.5-1.6c0.9-1.1,1.4-2.7,1.4-4.9c0-2.1-0.5-3.6-1.4-4.6
		c-1-1-2.1-1.4-3.4-1.4c-0.7,0-1.3,0.1-2,0.4c-0.7,0.3-1.2,0.7-1.6,1.3v9.6c0.4,0.3,1,0.6,1.6,0.8S257.5,393.7,258.1,393.7z"/>
	<path class="st1" d="M270.4,396.1l-0.1-1.8l2.8-0.6c0.1-0.4,0.2-1.8,0.2-4.3l0-3.2c0-1.7-0.1-3.2-0.4-4.5l-2.8-0.6v-1.7l7.2-1.8
		l1,0.7c-0.1,0.9-0.1,1.7-0.2,2.6c0,0.9-0.1,1.9-0.1,3v5.3c0,1,0,2,0.1,2.8c0,0.8,0.1,1.4,0.2,1.6l2.8,0.6l-0.1,1.8H270.4z
		 M275.7,373.8c-1,0-1.8-0.3-2.4-0.9c-0.6-0.6-0.9-1.3-0.9-2.1c0-0.8,0.3-1.5,0.9-2.1c0.6-0.6,1.4-0.9,2.4-0.9s1.8,0.3,2.3,0.9
		s0.8,1.3,0.8,2.1c0,0.8-0.3,1.6-0.8,2.1C277.5,373.5,276.7,373.8,275.7,373.8z"/>
	<path class="st1" d="M292.7,396.5c-1.9,0-3.6-0.4-5-1.2c-1.4-0.8-2.6-1.9-3.4-3.3c-0.8-1.4-1.2-3-1.2-4.8c0-2,0.5-3.7,1.4-5.1
		c0.9-1.4,2.1-2.5,3.6-3.3c1.5-0.8,3.1-1.1,4.8-1.1c1.8,0,3.4,0.4,4.8,1.2s2.4,1.9,3.2,3.3c0.8,1.4,1.1,3,1.1,4.8
		c0,1.8-0.4,3.4-1.3,4.9c-0.8,1.5-2,2.6-3.4,3.5C296,396,294.4,396.5,292.7,396.5z M293.1,394c1.2,0,2.1-0.5,2.8-1.6
		c0.7-1.1,1-2.6,1-4.4c0-2.4-0.4-4.3-1.3-5.8c-0.8-1.5-2-2.3-3.3-2.3c-1.2,0-2.1,0.6-2.9,1.7c-0.7,1.1-1.1,2.7-1.1,4.5
		c0,1.5,0.2,2.8,0.6,4s1,2.1,1.7,2.8C291.4,393.7,292.2,394,293.1,394z"/>
	<path class="st1" d="M304.4,396.1l-0.1-1.8l2.6-0.7c0.1-0.4,0.2-1.8,0.2-4.3l0-3.2c0-1.7-0.1-3.2-0.4-4.5l-2.7-0.6v-1.7l6.8-1.8
		l1,0.7l-0.2,2.3l0.1,0c0.9-1.1,1.8-1.9,2.7-2.4c1-0.5,2-0.8,3-0.8c1,0,2,0.3,3,0.8c0.9,0.5,1.7,1.3,2.3,2.5
		c0.9-1.1,1.9-1.9,2.9-2.4c1-0.6,2.1-0.8,3.3-0.8c1.9,0,3.5,0.7,4.7,2c1.2,1.3,1.8,3.1,1.8,5.4l0,4.4c0,0.9,0,1.8,0.1,2.6
		c0,0.8,0.1,1.4,0.2,1.6l2.6,0.7l-0.1,1.8h-9.7l-0.1-1.8l2.3-0.7c0.1-0.3,0.1-0.9,0.1-1.7c0-0.8,0.1-1.6,0.1-2.5l0-3.9
		c0-1.7-0.4-2.8-1.1-3.5c-0.7-0.7-1.6-1-2.6-1c-1.5,0-2.8,0.6-3.8,1.9c0.1,0.7,0.2,1.4,0.2,2.1l0.1,4.3c0,0.9,0,1.8,0,2.6
		c0,0.8,0.1,1.4,0.2,1.6l2.4,0.7l-0.1,1.8h-9.4l-0.1-1.8l2.2-0.7c0.1-0.3,0.1-0.9,0.1-1.6c0-0.8,0.1-1.6,0.1-2.5l0-4.1
		c0-1.6-0.3-2.7-1-3.4c-0.7-0.7-1.5-1-2.5-1c-0.7,0-1.4,0.2-2,0.5s-1.2,0.9-1.7,1.5v6.2c0,1,0,2,0.1,2.8c0,0.8,0.1,1.4,0.2,1.6
		l2.4,0.7l-0.1,1.8H304.4z"/>
	<path class="st1" d="M340,396.1l-0.1-1.8l2.6-0.7c0.1-0.4,0.2-1.8,0.2-4.3l0-3.2c0-1.7-0.1-3.2-0.4-4.5l-2.7-0.6v-1.7l6.7-1.8
		l1,0.7l-0.2,3.3l0.1,0c0.8-1.6,1.6-2.6,2.4-3.2c0.8-0.6,1.7-0.8,2.5-0.8c0.7,0,1.3,0.2,1.8,0.6c0.5,0.4,0.8,1,0.8,1.8
		c0,0.8-0.3,1.5-0.8,1.9c-0.6,0.4-1.2,0.6-2,0.6c-0.5,0-1-0.1-1.4-0.2c-0.4-0.1-0.9-0.4-1.3-0.8c-0.8,0.7-1.4,1.6-1.9,2.7l0,3.5
		c0,1.4,0.1,2.6,0.1,3.7s0.1,1.8,0.1,2.1l3.6,0.6l-0.1,1.9H340z"/>
	<path class="st1" d="M358.2,395c0.1-1.4,0.1-2.7,0.1-4.1c0-1.3,0-2.7,0-4.1V381c0-1.6,0-3,0-4.4c0-1.4,0-2.6-0.1-3.5
		c0-1-0.1-1.7-0.1-2.1l-3.1-0.4L355,369l7.3-1.9l1,0.7c-0.1,1.1-0.1,2.3-0.1,3.4c0,1.1-0.1,2.5-0.1,3.9c0,1.5-0.1,3.3-0.1,5.5l0.1,0
		c0.6-0.8,1.4-1.6,2.4-2.2s2.1-0.9,3.3-0.9c1.4,0,2.6,0.3,3.8,1c1.2,0.7,2.1,1.6,2.9,2.9c0.7,1.3,1.1,2.8,1.1,4.6
		c0,1.9-0.5,3.7-1.4,5.3c-0.9,1.6-2.2,2.8-3.9,3.7c-1.6,0.9-3.6,1.4-5.8,1.4c-1.3,0-2.5-0.1-3.8-0.4
		C360.5,395.8,359.3,395.4,358.2,395z M366.5,393.7c1.4,0,2.6-0.5,3.5-1.6c0.9-1.1,1.4-2.7,1.4-4.9c0-2.1-0.5-3.6-1.4-4.6
		c-1-1-2.1-1.4-3.4-1.4c-0.7,0-1.3,0.1-2,0.4c-0.7,0.3-1.2,0.7-1.6,1.3v9.6c0.4,0.3,1,0.6,1.6,0.8S365.9,393.7,366.5,393.7z"/>
	<path class="st1" d="M385.9,396.5c-1.3,0-2.3-0.3-3.2-0.8c-0.9-0.5-1.6-1.2-2.1-1.9s-0.7-1.5-0.7-2.2c0-1,0.3-1.8,0.9-2.5
		c0.6-0.6,1.6-1.2,2.9-1.6l6.5-2v-1.7c0-0.6-0.2-1.2-0.6-1.7c-0.4-0.5-0.9-1-1.5-1.3s-1.3-0.5-2.1-0.5c-0.5,0-0.9,0.1-1.1,0.4
		s-0.3,0.7-0.4,1.4l-0.2,2.3c-1.3,0.3-2.3,0.2-3.1-0.1c-0.8-0.3-1.2-0.9-1.2-1.7c0-0.5,0.2-1,0.8-1.5c0.5-0.5,1.1-1,1.9-1.5
		c0.8-0.5,1.6-0.9,2.4-1.2c0.8-0.3,1.6-0.5,2.3-0.6c2.4,0,4.2,0.6,5.6,1.7c1.4,1.1,2.1,2.6,2.1,4.5l-0.1,6.1c0,1.4,0.1,2.3,0.3,2.9
		l2.7,0.5v1.6l-2.5,1c-0.9,0.4-1.7,0.6-2.4,0.6c-1,0-1.7-0.5-2.1-1.6l-0.4-1.1C388.9,395.6,387.4,396.5,385.9,396.5z M387.7,393.1
		c1,0,1.8-0.4,2.5-1.2v-4.2l-3.4,0.8c-1.3,0.2-1.9,0.9-1.9,2c0,0.7,0.3,1.3,0.8,1.8C386.3,392.8,386.9,393.1,387.7,393.1z"/>
	<path class="st1" d="M399.3,396.1l-0.1-1.8l2.6-0.7c0.1-0.4,0.2-1.8,0.2-4.3l0-3.2c0-1.7-0.1-3.2-0.4-4.5l-2.7-0.6v-1.7l6.7-1.8
		l1,0.7l-0.2,3.3l0.1,0c0.8-1.6,1.6-2.6,2.4-3.2c0.8-0.6,1.7-0.8,2.5-0.8c0.7,0,1.3,0.2,1.8,0.6c0.5,0.4,0.8,1,0.8,1.8
		c0,0.8-0.3,1.5-0.8,1.9c-0.6,0.4-1.2,0.6-2,0.6c-0.5,0-1-0.1-1.4-0.2c-0.4-0.1-0.9-0.4-1.3-0.8c-0.8,0.7-1.4,1.6-1.9,2.7l0,3.5
		c0,1.4,0.1,2.6,0.1,3.7s0.1,1.8,0.1,2.1l3.6,0.6l-0.1,1.9H399.3z"/>
	<path class="st1" d="M417.6,395c0.1-1.4,0.1-2.7,0.1-4.1c0-1.3,0-2.7,0-4.1V381c0-1.6,0-3,0-4.4c0-1.4,0-2.6-0.1-3.5
		c0-1-0.1-1.7-0.1-2.1l-3.1-0.4l-0.1-1.6l7.3-1.9l1,0.7c-0.1,1.1-0.1,2.3-0.1,3.4c0,1.1-0.1,2.5-0.1,3.9c0,1.5-0.1,3.3-0.1,5.5
		l0.1,0c0.6-0.8,1.4-1.6,2.4-2.2s2.1-0.9,3.3-0.9c1.4,0,2.6,0.3,3.8,1c1.2,0.7,2.1,1.6,2.9,2.9c0.7,1.3,1.1,2.8,1.1,4.6
		c0,1.9-0.5,3.7-1.4,5.3c-0.9,1.6-2.2,2.8-3.9,3.7c-1.6,0.9-3.6,1.4-5.8,1.4c-1.3,0-2.5-0.1-3.8-0.4
		C419.9,395.8,418.7,395.4,417.6,395z M425.9,393.7c1.4,0,2.6-0.5,3.5-1.6c0.9-1.1,1.4-2.7,1.4-4.9c0-2.1-0.5-3.6-1.4-4.6
		c-1-1-2.1-1.4-3.4-1.4c-0.7,0-1.3,0.1-2,0.4c-0.7,0.3-1.2,0.7-1.6,1.3v9.6c0.4,0.3,1,0.6,1.6,0.8S425.2,393.7,425.9,393.7z"/>
	<path class="st1" d="M448.5,396.5c-1.9,0-3.6-0.4-5-1.2c-1.4-0.8-2.6-1.9-3.4-3.3c-0.8-1.4-1.2-3-1.2-4.8c0-2,0.5-3.7,1.4-5.1
		c0.9-1.4,2.1-2.5,3.6-3.3c1.5-0.8,3.1-1.1,4.8-1.1c1.8,0,3.4,0.4,4.8,1.2s2.4,1.9,3.2,3.3c0.8,1.4,1.1,3,1.1,4.8
		c0,1.8-0.4,3.4-1.3,4.9c-0.8,1.5-2,2.6-3.4,3.5C451.7,396,450.2,396.5,448.5,396.5z M448.9,394c1.2,0,2.1-0.5,2.8-1.6
		c0.7-1.1,1-2.6,1-4.4c0-2.4-0.4-4.3-1.3-5.8c-0.8-1.5-2-2.3-3.3-2.3c-1.2,0-2.1,0.6-2.9,1.7c-0.7,1.1-1.1,2.7-1.1,4.5
		c0,1.5,0.2,2.8,0.6,4s1,2.1,1.7,2.8C447.1,393.7,448,394,448.9,394z"/>
	<path class="st1" d="M467.3,396.5c-1.1,0-2.2-0.1-3.3-0.4c-1.1-0.2-2-0.6-2.8-1l-0.2-4.8h2.5l0.9,3c1,0.6,2.1,1,3.3,1
		c0.9,0,1.6-0.2,2.1-0.6c0.5-0.4,0.8-0.9,0.8-1.5c0-0.7-0.3-1.2-0.8-1.7c-0.5-0.5-1.5-1-3-1.6c-2-0.8-3.4-1.6-4.3-2.4
		c-0.8-0.9-1.2-2-1.2-3.3c0-1.6,0.7-2.9,2.2-4c1.5-1,3.4-1.6,5.7-1.6c0.9,0,1.7,0.1,2.6,0.2c0.9,0.2,1.6,0.4,2.2,0.6l0.5,4.7h-2.5
		l-1-2.9c-0.6-0.4-1.3-0.5-2.2-0.5c-0.9,0-1.6,0.2-2.1,0.6c-0.5,0.4-0.8,0.9-0.8,1.6c0,0.7,0.3,1.3,0.9,1.8c0.6,0.5,1.7,1.1,3.4,1.8
		c1.8,0.8,3.1,1.5,3.9,2.4c0.8,0.8,1.1,1.9,1.1,3.1c0,1.7-0.7,3-2.2,4S469.7,396.5,467.3,396.5z"/>
	<path class="st1" d="M484.2,396.5c-1.3,0-2.3-0.3-3.2-0.8c-0.9-0.5-1.6-1.2-2.1-1.9s-0.7-1.5-0.7-2.2c0-1,0.3-1.8,0.9-2.5
		c0.6-0.6,1.6-1.2,2.9-1.6l6.5-2v-1.7c0-0.6-0.2-1.2-0.6-1.7c-0.4-0.5-0.9-1-1.5-1.3s-1.3-0.5-2.1-0.5c-0.5,0-0.9,0.1-1.1,0.4
		s-0.3,0.7-0.4,1.4l-0.2,2.3c-1.3,0.3-2.3,0.2-3.1-0.1c-0.8-0.3-1.2-0.9-1.2-1.7c0-0.5,0.2-1,0.8-1.5c0.5-0.5,1.1-1,1.9-1.5
		c0.8-0.5,1.6-0.9,2.4-1.2c0.8-0.3,1.6-0.5,2.3-0.6c2.4,0,4.2,0.6,5.6,1.7c1.4,1.1,2.1,2.6,2.1,4.5l-0.1,6.1c0,1.4,0.1,2.3,0.3,2.9
		l2.7,0.5v1.6l-2.5,1c-0.9,0.4-1.7,0.6-2.4,0.6c-1,0-1.7-0.5-2.1-1.6l-0.4-1.1C487.2,395.6,485.7,396.5,484.2,396.5z M485.9,393.1
		c1,0,1.8-0.4,2.5-1.2v-4.2l-3.4,0.8c-1.3,0.2-1.9,0.9-1.9,2c0,0.7,0.3,1.3,0.8,1.8C484.5,392.8,485.2,393.1,485.9,393.1z"/>
	<path class="st1" d="M66.7,447.7c-1.9,0-3.5-0.6-4.7-1.8c-1.2-1.2-1.8-2.8-1.8-4.8c0-1.6,0.3-3.2,0.9-4.6c0.6-1.5,1.3-2.8,2.3-4
		c1-1.2,2.1-2.1,3.4-2.8c1.3-0.7,2.7-1,4.2-1c1.5,0,2.7,0.3,3.5,1c0.8,0.7,1.2,1.5,1.2,2.4c0,0.9-0.3,1.7-1,2.6
		c-0.7,0.9-1.8,1.8-3.3,2.7c-1.5,0.9-3.7,1.9-6.4,2.9c0.1,1.3,0.4,2.2,1,2.8c0.6,0.6,1.3,1,2.3,1c0.7,0,1.5-0.2,2.4-0.6
		s1.9-1.2,2.8-2.3l1.2,1.7c-1.2,1.6-2.5,2.7-3.9,3.5C69.4,447.3,68,447.7,66.7,447.7z M69.7,431c-1,0-1.9,0.7-2.8,2
		s-1.4,3.1-1.7,5.3c2.2-0.9,3.7-1.8,4.7-2.8c0.9-0.9,1.4-1.9,1.4-3c0-0.5-0.1-0.9-0.4-1.1C70.6,431.1,70.2,431,69.7,431z"/>
	<path class="st1" d="M101.9,447.7c-1.4,0-2.1-0.7-2.1-2.1c0-0.4,0.1-1.1,0.3-1.9c0.2-0.8,0.5-1.8,0.8-2.8c0.3-1,0.6-2.1,0.9-3.1
		c0.3-1,0.6-1.9,0.8-2.7c0.2-0.8,0.3-1.4,0.3-1.8c0-0.5-0.2-0.8-0.7-0.8c-0.6,0-1.3,0.4-2.2,1.3c-0.9,0.9-1.7,2.1-2.6,3.5
		c-0.9,1.5-1.7,3.1-2.5,4.8c-0.8,1.8-1.4,3.5-1.9,5.3h-4.5c0.4-1.2,0.8-2.5,1.2-3.9c0.4-1.4,0.8-2.8,1.1-4.2
		c0.3-1.4,0.6-2.6,0.9-3.7c0.2-1.1,0.3-1.9,0.3-2.3c0-0.5-0.2-0.8-0.7-0.8c-0.6,0-1.3,0.4-2.1,1.3c-0.9,0.9-1.7,2.1-2.6,3.5
		c-0.9,1.5-1.7,3.1-2.5,4.8c-0.8,1.8-1.4,3.5-1.8,5.3h-4.5c0.4-1.3,0.8-2.7,1.3-4.2s0.8-3,1.2-4.4c0.4-1.5,0.7-2.8,0.9-3.9
		c0.2-1.2,0.3-2.1,0.3-2.7c-0.6,0.3-1.1,0.8-1.7,1.3s-1.1,1.2-1.6,2l-1.2-1.5c1-1.4,2.2-2.5,3.5-3.5c1.3-1,2.5-1.5,3.6-1.5
		c1.3,0,1.9,0.7,1.9,2.2c0,0.5-0.1,1.3-0.3,2.4c-0.2,1.1-0.6,2.6-1.1,4.3c0.8-1.8,1.8-3.3,2.8-4.6c1.1-1.3,2.1-2.4,3.3-3.1
		c1.1-0.8,2.2-1.1,3.3-1.1c0.9,0,1.7,0.2,2.2,0.7s0.8,1.2,0.8,2.2c0,0.6-0.1,1.3-0.4,2.3c-0.2,0.9-0.6,2.1-1.1,3.5
		c1.3-2.6,2.8-4.7,4.4-6.3c1.6-1.6,3.2-2.3,4.9-2.3c0.9,0,1.7,0.2,2.2,0.7c0.5,0.5,0.8,1.2,0.8,2.2c0,0.4-0.1,1-0.3,1.9
		c-0.2,0.8-0.5,1.8-0.8,2.8c-0.3,1-0.6,2.1-1,3.1c-0.3,1-0.6,2-0.8,2.9c-0.2,0.9-0.3,1.5-0.3,2c1.1-0.6,2.2-1.7,3.3-3.1l1.2,1.4
		c-1,1.4-2.2,2.6-3.5,3.5C104.3,447.2,103,447.7,101.9,447.7z"/>
	<path class="st1" d="M114.7,447.7c-1.1,0-2-0.4-2.6-1.3c-0.6-0.8-1-2-1-3.3c0-2,0.4-3.8,1.1-5.5c0.7-1.7,1.6-3.2,2.8-4.5
		c1.2-1.3,2.4-2.3,3.8-3.1s2.7-1.1,4.1-1.1c0.6,0,1.2,0.1,1.7,0.4c0.5,0.3,1,0.6,1.4,1.1l1.3-1.2h2.9c-0.4,1.3-0.8,2.7-1.3,4.2
		c-0.4,1.5-0.8,3-1.2,4.5c-0.4,1.5-0.7,2.8-0.9,3.9c-0.2,1.2-0.3,2.1-0.3,2.7c0.6-0.3,1.1-0.8,1.7-1.3c0.5-0.5,1.1-1.1,1.6-1.9
		l1.2,1.4c-1,1.4-2.2,2.6-3.5,3.5c-1.3,1-2.5,1.4-3.6,1.4c-1.3,0-2-0.7-2-2.1c0-0.5,0.1-1.3,0.3-2.3c0.2-1,0.6-2.5,1.1-4.3
		c-1.3,2.7-2.6,4.9-4.2,6.4C117.6,446.9,116.1,447.7,114.7,447.7z M116,442.1c0,1.4,0.3,2,0.9,2c0.4,0,0.9-0.3,1.5-1
		c0.7-0.7,1.4-1.6,2.2-2.8c0.8-1.2,1.5-2.4,2.3-3.9s1.4-2.9,1.9-4.4c-0.4-0.3-0.8-0.5-1.3-0.6c-0.5-0.1-0.9-0.2-1.4-0.2
		c-1.1,0-2.2,0.5-3.1,1.5c-0.9,1-1.7,2.3-2.2,3.9S116,440.1,116,442.1z"/>
	<path class="st1" d="M136.1,447.7c-1.4,0-2.2-0.8-2.2-2.3c0-0.4,0.1-1.1,0.3-2c0.2-0.9,0.5-1.9,0.8-3c0.3-1.1,0.6-2.2,1-3.3
		c0.3-1.1,0.6-2.1,0.8-3c0.2-0.9,0.3-1.6,0.3-2.1c-0.6,0.3-1.1,0.8-1.7,1.3c-0.6,0.5-1.1,1.2-1.7,2l-1.2-1.5c1-1.4,2.2-2.5,3.5-3.5
		c1.3-1,2.5-1.5,3.6-1.5c1.4,0,2.2,0.8,2.2,2.3c0,0.4-0.1,1.1-0.3,2c-0.2,0.9-0.5,1.9-0.8,3c-0.3,1.1-0.7,2.2-1,3.3
		c-0.3,1.1-0.6,2.1-0.8,3c-0.2,0.9-0.3,1.6-0.3,2c0.6-0.3,1.1-0.8,1.7-1.3c0.5-0.5,1.1-1.1,1.7-1.9l1.2,1.4
		c-1.1,1.4-2.2,2.6-3.5,3.5C138.4,447.2,137.2,447.7,136.1,447.7z M141,425c-0.9,0-1.5-0.2-2-0.8c-0.5-0.5-0.7-1.1-0.7-1.9
		c0-0.9,0.3-1.7,1-2.4c0.6-0.7,1.4-1,2.4-1c0.8,0,1.5,0.2,1.9,0.7c0.5,0.5,0.7,1.1,0.7,1.8c0,1-0.3,1.8-0.9,2.5
		C142.8,424.7,142,425,141,425z"/>
	<path class="st1" d="M147.7,447.7c-1.4,0-2.1-0.7-2.1-2c0-0.4,0-0.7,0.1-1.1c0.1-0.4,0.2-1,0.4-1.8c0.2-0.8,0.5-2.1,0.9-3.9
		l4.1-16.7l-3-0.4l0.3-1.5l7.4-2l0.8,0.7c-0.4,1.5-0.8,3-1.2,4.3c-0.3,1.3-0.7,2.7-1,4l-3,11.9c-0.3,1.2-0.5,2.3-0.7,3.3
		c-0.2,1-0.3,1.7-0.3,2c0.6-0.3,1.1-0.8,1.7-1.3c0.5-0.5,1.1-1.1,1.6-1.9l1.2,1.4c-1,1.4-2.2,2.6-3.5,3.5
		C150.1,447.2,148.8,447.7,147.7,447.7z"/>
	<path class="st1" d="M159.9,447.8c-0.9,0-1.7-0.3-2.4-0.9c-0.7-0.6-1-1.4-1-2.3c0-0.9,0.3-1.7,1-2.4c0.7-0.7,1.5-1,2.4-1
		c0.9,0,1.7,0.3,2.4,1c0.7,0.7,1,1.5,1,2.4c0,0.9-0.3,1.7-1,2.3C161.6,447.5,160.8,447.8,159.9,447.8z M162.5,435.4
		c-0.9,0-1.7-0.3-2.4-0.9c-0.7-0.6-1-1.4-1-2.4s0.3-1.7,1-2.4c0.7-0.6,1.5-1,2.4-1c1,0,1.8,0.3,2.4,1c0.7,0.6,1,1.4,1,2.4
		s-0.3,1.7-1,2.4C164.3,435.1,163.5,435.4,162.5,435.4z"/>
	<path class="st1" d="M175.7,447.4l-0.1-1.8l2.6-0.7c0.1-0.4,0.1-1.3,0.2-2.7c0.1-1.4,0.1-3,0.1-4.7v-5.2c0-1.3,0-2.5,0-3.9
		c0-1.3,0-2.6-0.1-3.7c0-1.1-0.1-1.9-0.1-2.4l-3.1-0.4l-0.1-1.6l7.3-1.9l1,0.7c-0.1,1.1-0.1,2.3-0.1,3.4c0,1.1-0.1,2.4-0.1,3.9
		c0,1.5-0.1,3.4-0.1,5.6l0.1,0c1.8-2.1,3.8-3.1,6-3.1c1.7,0,3.1,0.6,4.4,1.9c1.2,1.3,1.8,3.1,1.8,5.5v4.3c0,0.9,0,1.8,0.1,2.6
		c0,0.8,0.1,1.4,0.1,1.6l2.6,0.7l-0.1,1.8h-9.8l-0.1-1.8l2.4-0.7c0.1-0.3,0.1-0.9,0.1-1.6c0-0.8,0.1-1.6,0.1-2.5V437
		c0-1.6-0.4-2.8-1.1-3.5c-0.8-0.7-1.6-1.1-2.6-1.1c-1.6,0-2.9,0.7-3.9,2v6.2c0,1.1,0,2.1,0.1,2.9c0,0.8,0.1,1.3,0.2,1.5l2.5,0.7
		l-0.1,1.8H175.7z"/>
	<path class="st1" d="M209.4,447.7c-1.7,0-3.3-0.4-4.6-1.2c-1.4-0.8-2.5-1.9-3.2-3.2c-0.8-1.4-1.2-3-1.2-4.7c0-1.9,0.4-3.6,1.3-5.1
		c0.9-1.5,2-2.6,3.4-3.4c1.4-0.8,2.9-1.2,4.5-1.2c2.4,0,4.3,0.8,5.5,2.3c1.3,1.5,1.9,3.5,1.9,5.9v0.9h-11.8c0.1,1.9,0.7,3.4,1.8,4.5
		c1.1,1.1,2.4,1.7,4.1,1.7c0.9,0,1.8-0.2,2.5-0.5c0.8-0.4,1.5-1,2.3-1.8l1.2,1.1c-0.8,1.6-1.9,2.8-3.2,3.6
		C212.6,447.3,211.1,447.7,209.4,447.7z M209.1,431c-1,0-1.9,0.4-2.6,1.2c-0.8,0.8-1.2,2-1.3,3.7h7.5v-0.4c0-1.4-0.3-2.5-0.9-3.3
		C211.1,431.4,210.3,431,209.1,431z"/>
	<path class="st1" d="M219.1,447.4l-0.1-1.8l2.7-0.6c0.1-0.4,0.1-1.3,0.2-2.7c0.1-1.4,0.1-3,0.1-4.7v-5.3c0-1.3,0-2.6,0-4
		c0-1.3,0-2.5-0.1-3.6c0-1.1-0.1-1.9-0.1-2.4l-3.1-0.4l-0.1-1.6l7.3-1.9l1,0.7c-0.1,1.2-0.1,2.3-0.1,3.4c0,1.1,0,2.4-0.1,3.8
		c0,1.4,0,3.1,0,5.1l0,6.3c0,1.8,0,3.4,0,4.8c0,1.4,0.1,2.2,0.2,2.4l2.7,0.6l-0.1,1.8H219.1z"/>
	<path class="st1" d="M231.1,447.4l-0.1-1.8l2.7-0.6c0.1-0.4,0.1-1.3,0.2-2.7c0.1-1.4,0.1-3,0.1-4.7v-5.3c0-1.3,0-2.6,0-4
		c0-1.3,0-2.5-0.1-3.6c0-1.1-0.1-1.9-0.1-2.4l-3.1-0.4l-0.1-1.6l7.3-1.9l1,0.7c-0.1,1.2-0.1,2.3-0.1,3.4c0,1.1,0,2.4-0.1,3.8
		c0,1.4,0,3.1,0,5.1l0,6.3c0,1.8,0,3.4,0,4.8c0,1.4,0.1,2.2,0.2,2.4l2.7,0.6l-0.1,1.8H231.1z"/>
	<path class="st1" d="M253.3,447.7c-1.9,0-3.6-0.4-5-1.2c-1.4-0.8-2.6-1.9-3.4-3.3c-0.8-1.4-1.2-3-1.2-4.8c0-2,0.5-3.7,1.4-5.1
		c0.9-1.4,2.1-2.5,3.6-3.3c1.5-0.8,3.1-1.1,4.8-1.1c1.8,0,3.4,0.4,4.8,1.2s2.4,1.9,3.2,3.3c0.8,1.4,1.1,3,1.1,4.8
		c0,1.8-0.4,3.4-1.3,4.9c-0.8,1.5-2,2.6-3.4,3.5C256.6,447.3,255.1,447.7,253.3,447.7z M253.8,445.3c1.2,0,2.1-0.5,2.8-1.6
		c0.7-1.1,1-2.6,1-4.4c0-2.4-0.4-4.3-1.3-5.8c-0.8-1.5-2-2.3-3.3-2.3c-1.2,0-2.1,0.6-2.9,1.7c-0.7,1.1-1.1,2.7-1.1,4.5
		c0,1.5,0.2,2.8,0.6,4s1,2.1,1.7,2.8C252,445,252.8,445.3,253.8,445.3z"/>
	<path class="st1" d="M284.5,456.9c-3.5,0-6.6-0.6-9.3-1.9c-2.7-1.3-4.9-3.1-6.4-5.6c-1.6-2.5-2.3-5.5-2.3-9c0-2.6,0.5-5.1,1.4-7.2
		c0.9-2.2,2.3-4.1,4-5.7c1.7-1.6,3.8-2.8,6.2-3.7c2.4-0.9,5-1.3,7.9-1.3c3,0,5.7,0.5,8.1,1.5c2.4,1,4.3,2.5,5.8,4.5
		c1.4,2,2.1,4.4,2.1,7.2c0,1.6-0.3,3.1-0.9,4.6c-0.6,1.4-1.5,2.7-2.5,3.8c-1.1,1.1-2.3,2-3.6,2.6c-1.3,0.6-2.7,0.9-4.1,0.9
		c-0.7,0-1.3-0.1-1.6-0.4c-0.4-0.3-0.6-0.7-0.8-1.2l-0.3-1.1c-1.6,1.8-3.2,2.7-4.8,2.7c-1.3,0-2.3-0.3-3.2-0.8
		c-0.9-0.5-1.6-1.2-2.1-1.9c-0.5-0.8-0.7-1.5-0.7-2.2c0-1,0.3-1.8,0.9-2.5c0.6-0.6,1.6-1.2,2.9-1.6l6.5-2v-1.7
		c0-0.6-0.2-1.2-0.6-1.7c-0.4-0.5-0.9-1-1.5-1.3c-0.6-0.3-1.3-0.5-2-0.5c-0.6,0-0.9,0.1-1.1,0.4s-0.3,0.7-0.4,1.4l-0.2,2.3
		c-0.5,0.1-1,0.2-1.5,0.2c-0.9,0-1.6-0.2-2.1-0.5c-0.5-0.3-0.8-0.8-0.8-1.5c0-0.5,0.2-1,0.8-1.5c0.5-0.5,1.1-1,1.9-1.5
		s1.6-0.9,2.4-1.2c0.8-0.3,1.6-0.5,2.3-0.6c2.3,0,4.2,0.6,5.6,1.7c1.4,1.1,2.1,2.6,2.1,4.5l-0.1,7.4c0,1.4,0.1,2.3,0.3,2.9
		c1,0,1.9-0.4,2.8-1.1c0.9-0.7,1.6-1.8,2.2-3.2c0.6-1.4,0.8-3.1,0.8-5.2c0-2.6-0.5-4.6-1.5-6.3c-1-1.6-2.5-2.8-4.3-3.6
		c-1.9-0.8-4-1.1-6.5-1.1c-3.1,0-5.8,0.6-8,1.9c-2.2,1.2-3.9,3-5.1,5.3c-1.2,2.3-1.8,5-1.8,8.1c0,3.2,0.6,5.9,1.7,8
		c1.1,2.2,2.7,3.8,4.8,4.9c2.1,1.1,4.5,1.6,7.3,1.6c1.3,0,2.5-0.1,3.6-0.4c1.2-0.2,2.2-0.5,3.1-0.9l0.7,2
		C289.9,456.3,287.3,456.9,284.5,456.9z M285,444.3c1,0,1.8-0.4,2.5-1.2V439l-3.4,0.8c-1.3,0.2-1.9,0.9-1.9,2c0,0.7,0.3,1.3,0.8,1.8
		C283.5,444.1,284.2,444.3,285,444.3z"/>
	<path class="st1" d="M315.6,447.4h-10.8l-0.1-1.8l2.6-0.7c0-0.5,0-1,0.1-1.5c0-0.5,0-1.2,0-2.1s0-2.1,0-3.6l0-5.9h-3V430l3-0.8
		v-1.6c0-1.8,0.3-3.4,1-4.8c0.7-1.4,1.5-2.5,2.7-3.3c1.1-0.8,2.4-1.2,3.9-1.2c1.3,0,2.4,0.3,3.3,0.8s1.3,1.2,1.3,2.1
		c0,0.5-0.2,0.9-0.5,1.2s-0.8,0.4-1.3,0.4c-0.8,0-1.5-0.3-2.3-1l-1.7-1.6c-1.2,0.7-1.8,2.6-1.8,5.7v3.3v0h4.5v2.5h-4.5l0,5.7
		c0,1.3,0,2.7,0.1,4.1c0,1.4,0.1,2.5,0.1,3.4l3.4,0.7L315.6,447.4z"/>
	<path class="st1" d="M325,447.7c-1.3,0-2.3-0.3-3.2-0.8c-0.9-0.5-1.6-1.2-2.1-1.9s-0.7-1.5-0.7-2.2c0-1,0.3-1.8,0.9-2.5
		c0.6-0.6,1.6-1.2,2.9-1.6l6.5-2v-1.7c0-0.6-0.2-1.2-0.6-1.7c-0.4-0.5-0.9-1-1.5-1.3s-1.3-0.5-2.1-0.5c-0.5,0-0.9,0.1-1.1,0.4
		s-0.3,0.7-0.4,1.4l-0.2,2.3c-1.3,0.3-2.3,0.2-3.1-0.1c-0.8-0.3-1.2-0.9-1.2-1.7c0-0.5,0.2-1,0.8-1.5c0.5-0.5,1.1-1,1.9-1.5
		c0.8-0.5,1.6-0.9,2.4-1.2c0.8-0.3,1.6-0.5,2.3-0.6c2.4,0,4.2,0.6,5.6,1.7c1.4,1.1,2.1,2.6,2.1,4.5l-0.1,6.1c0,1.4,0.1,2.3,0.3,2.9
		l2.7,0.5v1.6l-2.5,1c-0.9,0.4-1.7,0.6-2.4,0.6c-1,0-1.7-0.5-2.1-1.6l-0.4-1.1C328.1,446.8,326.5,447.7,325,447.7z M326.8,444.3
		c1,0,1.8-0.4,2.5-1.2V439l-3.4,0.8c-1.3,0.2-1.9,0.9-1.9,2c0,0.7,0.3,1.3,0.8,1.8C325.4,444.1,326,444.3,326.8,444.3z"/>
	<path class="st1" d="M340.5,446.2c0.1-1.4,0.1-2.7,0.1-4.1c0-1.3,0-2.7,0-4.1v-5.8c0-1.6,0-3,0-4.4c0-1.4,0-2.6-0.1-3.5
		c0-1-0.1-1.7-0.1-2.1l-3.1-0.4l-0.1-1.6l7.3-1.9l1,0.7c-0.1,1.1-0.1,2.3-0.1,3.4c0,1.1-0.1,2.5-0.1,3.9c0,1.5-0.1,3.3-0.1,5.5
		l0.1,0c0.6-0.8,1.4-1.6,2.4-2.2s2.1-0.9,3.3-0.9c1.4,0,2.6,0.3,3.8,1c1.2,0.7,2.1,1.6,2.9,2.9c0.7,1.3,1.1,2.8,1.1,4.6
		c0,1.9-0.5,3.7-1.4,5.3c-0.9,1.6-2.2,2.8-3.9,3.7c-1.6,0.9-3.6,1.4-5.8,1.4c-1.3,0-2.5-0.1-3.8-0.4
		C342.8,447,341.6,446.7,340.5,446.2z M348.8,445c1.4,0,2.6-0.5,3.5-1.6c0.9-1.1,1.4-2.7,1.4-4.9c0-2.1-0.5-3.6-1.4-4.6
		c-1-1-2.1-1.4-3.4-1.4c-0.7,0-1.3,0.1-2,0.4c-0.7,0.3-1.2,0.7-1.6,1.3v9.6c0.4,0.3,1,0.6,1.6,0.8S348.1,445,348.8,445z"/>
	<path class="st1" d="M361.1,447.4l-0.1-1.8l2.8-0.6c0.1-0.4,0.2-1.8,0.2-4.3l0-3.2c0-1.7-0.1-3.2-0.4-4.5l-2.8-0.6v-1.7l7.2-1.8
		l1,0.7c-0.1,0.9-0.1,1.7-0.2,2.6c0,0.9-0.1,1.9-0.1,3v5.3c0,1,0,2,0.1,2.8c0,0.8,0.1,1.4,0.2,1.6l2.8,0.6l-0.1,1.8H361.1z
		 M366.4,425.1c-1,0-1.8-0.3-2.4-0.9c-0.6-0.6-0.9-1.3-0.9-2.1c0-0.8,0.3-1.5,0.9-2.1c0.6-0.6,1.4-0.9,2.4-0.9s1.8,0.3,2.3,0.9
		s0.8,1.3,0.8,2.1c0,0.8-0.3,1.6-0.8,2.1C368.1,424.8,367.4,425.1,366.4,425.1z"/>
	<path class="st1" d="M383.3,447.7c-1.9,0-3.6-0.4-5-1.2c-1.4-0.8-2.6-1.9-3.4-3.3c-0.8-1.4-1.2-3-1.2-4.8c0-2,0.5-3.7,1.4-5.1
		c0.9-1.4,2.1-2.5,3.6-3.3c1.5-0.8,3.1-1.1,4.8-1.1c1.8,0,3.4,0.4,4.8,1.2s2.4,1.9,3.2,3.3c0.8,1.4,1.1,3,1.1,4.8
		c0,1.8-0.4,3.4-1.3,4.9c-0.8,1.5-2,2.6-3.4,3.5C386.6,447.3,385,447.7,383.3,447.7z M383.7,445.3c1.2,0,2.1-0.5,2.8-1.6
		c0.7-1.1,1-2.6,1-4.4c0-2.4-0.4-4.3-1.3-5.8c-0.8-1.5-2-2.3-3.3-2.3c-1.2,0-2.1,0.6-2.9,1.7c-0.7,1.1-1.1,2.7-1.1,4.5
		c0,1.5,0.2,2.8,0.6,4s1,2.1,1.7,2.8C382,445,382.8,445.3,383.7,445.3z"/>
	<path class="st1" d="M395.1,447.4l-0.1-1.8l2.6-0.7c0.1-0.4,0.2-1.8,0.2-4.3l0-3.2c0-1.7-0.1-3.2-0.4-4.5l-2.7-0.6v-1.7l6.8-1.8
		l1,0.7l-0.2,2.3l0.1,0c0.9-1.1,1.8-1.9,2.7-2.4c1-0.5,2-0.8,3-0.8c1,0,2,0.3,3,0.8c0.9,0.5,1.7,1.3,2.3,2.5
		c0.9-1.1,1.9-1.9,2.9-2.4c1-0.6,2.1-0.8,3.3-0.8c1.9,0,3.5,0.7,4.7,2c1.2,1.3,1.8,3.1,1.8,5.4l0,4.4c0,0.9,0,1.8,0.1,2.6
		c0,0.8,0.1,1.4,0.2,1.6l2.6,0.7l-0.1,1.8h-9.7l-0.1-1.8l2.3-0.7c0.1-0.3,0.1-0.9,0.1-1.7c0-0.8,0.1-1.6,0.1-2.5l0-3.9
		c0-1.7-0.4-2.8-1.1-3.5c-0.7-0.7-1.6-1-2.6-1c-1.5,0-2.8,0.6-3.8,1.9c0.1,0.7,0.2,1.4,0.2,2.1l0.1,4.3c0,0.9,0,1.8,0,2.6
		c0,0.8,0.1,1.4,0.2,1.6l2.4,0.7l-0.1,1.8h-9.4l-0.1-1.8l2.2-0.7c0.1-0.3,0.1-0.9,0.1-1.6c0-0.8,0.1-1.6,0.1-2.5l0-4.1
		c0-1.6-0.3-2.7-1-3.4c-0.7-0.7-1.5-1-2.5-1c-0.7,0-1.4,0.2-2,0.5s-1.2,0.9-1.7,1.5v6.2c0,1,0,2,0.1,2.8c0,0.8,0.1,1.4,0.2,1.6
		l2.4,0.7l-0.1,1.8H395.1z"/>
	<path class="st1" d="M430.6,447.4l-0.1-1.8l2.6-0.7c0.1-0.4,0.2-1.8,0.2-4.3l0-3.2c0-1.7-0.1-3.2-0.4-4.5l-2.7-0.6v-1.7l6.7-1.8
		l1,0.7l-0.2,3.3l0.1,0c0.8-1.6,1.6-2.6,2.4-3.2c0.8-0.6,1.7-0.8,2.5-0.8c0.7,0,1.3,0.2,1.8,0.6c0.5,0.4,0.8,1,0.8,1.8
		c0,0.8-0.3,1.5-0.8,1.9c-0.6,0.4-1.2,0.6-2,0.6c-0.5,0-1-0.1-1.4-0.2c-0.4-0.1-0.9-0.4-1.3-0.8c-0.8,0.7-1.4,1.6-1.9,2.7l0,3.5
		c0,1.4,0.1,2.6,0.1,3.7s0.1,1.8,0.1,2.1l3.6,0.6l-0.1,1.9H430.6z"/>
	<path class="st1" d="M448.8,446.2c0.1-1.4,0.1-2.7,0.1-4.1c0-1.3,0-2.7,0-4.1v-5.8c0-1.6,0-3,0-4.4c0-1.4,0-2.6-0.1-3.5
		c0-1-0.1-1.7-0.1-2.1l-3.1-0.4l-0.1-1.6l7.3-1.9l1,0.7c-0.1,1.1-0.1,2.3-0.1,3.4c0,1.1-0.1,2.5-0.1,3.9c0,1.5-0.1,3.3-0.1,5.5
		l0.1,0c0.6-0.8,1.4-1.6,2.4-2.2s2.1-0.9,3.3-0.9c1.4,0,2.6,0.3,3.8,1c1.2,0.7,2.1,1.6,2.9,2.9c0.7,1.3,1.1,2.8,1.1,4.6
		c0,1.9-0.5,3.7-1.4,5.3c-0.9,1.6-2.2,2.8-3.9,3.7c-1.6,0.9-3.6,1.4-5.8,1.4c-1.3,0-2.5-0.1-3.8-0.4
		C451.2,447,450,446.7,448.8,446.2z M457.2,445c1.4,0,2.6-0.5,3.5-1.6c0.9-1.1,1.4-2.7,1.4-4.9c0-2.1-0.5-3.6-1.4-4.6
		c-1-1-2.1-1.4-3.4-1.4c-0.7,0-1.3,0.1-2,0.4c-0.7,0.3-1.2,0.7-1.6,1.3v9.6c0.4,0.3,1,0.6,1.6,0.8S456.5,445,457.2,445z"/>
	<path class="st1" d="M476.5,447.7c-1.3,0-2.3-0.3-3.2-0.8c-0.9-0.5-1.6-1.2-2.1-1.9s-0.7-1.5-0.7-2.2c0-1,0.3-1.8,0.9-2.5
		c0.6-0.6,1.6-1.2,2.9-1.6l6.5-2v-1.7c0-0.6-0.2-1.2-0.6-1.7c-0.4-0.5-0.9-1-1.5-1.3s-1.3-0.5-2.1-0.5c-0.5,0-0.9,0.1-1.1,0.4
		s-0.3,0.7-0.4,1.4l-0.2,2.3c-1.3,0.3-2.3,0.2-3.1-0.1c-0.8-0.3-1.2-0.9-1.2-1.7c0-0.5,0.2-1,0.8-1.5c0.5-0.5,1.1-1,1.9-1.5
		c0.8-0.5,1.6-0.9,2.4-1.2c0.8-0.3,1.6-0.5,2.3-0.6c2.4,0,4.2,0.6,5.6,1.7c1.4,1.1,2.1,2.6,2.1,4.5l-0.1,6.1c0,1.4,0.1,2.3,0.3,2.9
		l2.7,0.5v1.6l-2.5,1c-0.9,0.4-1.7,0.6-2.4,0.6c-1,0-1.7-0.5-2.1-1.6l-0.4-1.1C479.6,446.8,478,447.7,476.5,447.7z M478.3,444.3
		c1,0,1.8-0.4,2.5-1.2V439l-3.4,0.8c-1.3,0.2-1.9,0.9-1.9,2c0,0.7,0.3,1.3,0.8,1.8C476.9,444.1,477.6,444.3,478.3,444.3z"/>
	<path class="st1" d="M490,447.4l-0.1-1.8l2.6-0.7c0.1-0.4,0.2-1.8,0.2-4.3l0-3.2c0-1.7-0.1-3.2-0.4-4.5l-2.7-0.6v-1.7l6.7-1.8
		l1,0.7l-0.2,3.3l0.1,0c0.8-1.6,1.6-2.6,2.4-3.2c0.8-0.6,1.7-0.8,2.5-0.8c0.7,0,1.3,0.2,1.8,0.6c0.5,0.4,0.8,1,0.8,1.8
		c0,0.8-0.3,1.5-0.8,1.9c-0.6,0.4-1.2,0.6-2,0.6c-0.5,0-1-0.1-1.4-0.2c-0.4-0.1-0.9-0.4-1.3-0.8c-0.8,0.7-1.4,1.6-1.9,2.7l0,3.5
		c0,1.4,0.1,2.6,0.1,3.7s0.1,1.8,0.1,2.1l3.6,0.6l-0.1,1.9H490z"/>
	<path class="st1" d="M508.2,446.2c0.1-1.4,0.1-2.7,0.1-4.1c0-1.3,0-2.7,0-4.1v-5.8c0-1.6,0-3,0-4.4c0-1.4,0-2.6-0.1-3.5
		c0-1-0.1-1.7-0.1-2.1l-3.1-0.4l-0.1-1.6l7.3-1.9l1,0.7c-0.1,1.1-0.1,2.3-0.1,3.4c0,1.1-0.1,2.5-0.1,3.9c0,1.5-0.1,3.3-0.1,5.5
		l0.1,0c0.6-0.8,1.4-1.6,2.4-2.2s2.1-0.9,3.3-0.9c1.4,0,2.6,0.3,3.8,1c1.2,0.7,2.1,1.6,2.9,2.9c0.7,1.3,1.1,2.8,1.1,4.6
		c0,1.9-0.5,3.7-1.4,5.3c-0.9,1.6-2.2,2.8-3.9,3.7c-1.6,0.9-3.6,1.4-5.8,1.4c-1.3,0-2.5-0.1-3.8-0.4
		C510.5,447,509.4,446.7,508.2,446.2z M516.6,445c1.4,0,2.6-0.5,3.5-1.6c0.9-1.1,1.4-2.7,1.4-4.9c0-2.1-0.5-3.6-1.4-4.6
		c-1-1-2.1-1.4-3.4-1.4c-0.7,0-1.3,0.1-2,0.4c-0.7,0.3-1.2,0.7-1.6,1.3v9.6c0.4,0.3,1,0.6,1.6,0.8S515.9,445,516.6,445z"/>
	<path class="st1" d="M539.1,447.7c-1.9,0-3.6-0.4-5-1.2c-1.4-0.8-2.6-1.9-3.4-3.3c-0.8-1.4-1.2-3-1.2-4.8c0-2,0.5-3.7,1.4-5.1
		c0.9-1.4,2.1-2.5,3.6-3.3c1.5-0.8,3.1-1.1,4.8-1.1c1.8,0,3.4,0.4,4.8,1.2s2.4,1.9,3.2,3.3c0.8,1.4,1.1,3,1.1,4.8
		c0,1.8-0.4,3.4-1.3,4.9c-0.8,1.5-2,2.6-3.4,3.5C542.4,447.3,540.8,447.7,539.1,447.7z M539.5,445.3c1.2,0,2.1-0.5,2.8-1.6
		c0.7-1.1,1-2.6,1-4.4c0-2.4-0.4-4.3-1.3-5.8c-0.8-1.5-2-2.3-3.3-2.3c-1.2,0-2.1,0.6-2.9,1.7c-0.7,1.1-1.1,2.7-1.1,4.5
		c0,1.5,0.2,2.8,0.6,4s1,2.1,1.7,2.8C537.8,445,538.6,445.3,539.5,445.3z"/>
	<path class="st1" d="M558,447.7c-1.1,0-2.2-0.1-3.3-0.4c-1.1-0.2-2-0.6-2.8-1l-0.2-4.8h2.5l0.9,3c1,0.6,2.1,1,3.3,1
		c0.9,0,1.6-0.2,2.1-0.6c0.5-0.4,0.8-0.9,0.8-1.5c0-0.7-0.3-1.2-0.8-1.7c-0.5-0.5-1.5-1-3-1.6c-2-0.8-3.4-1.6-4.3-2.4
		c-0.8-0.9-1.2-2-1.2-3.3c0-1.6,0.7-2.9,2.2-4c1.5-1,3.4-1.6,5.7-1.6c0.9,0,1.7,0.1,2.6,0.2c0.9,0.2,1.6,0.4,2.2,0.6l0.5,4.7h-2.5
		l-1-2.9c-0.6-0.4-1.3-0.5-2.2-0.5c-0.9,0-1.6,0.2-2.1,0.6c-0.5,0.4-0.8,0.9-0.8,1.6c0,0.7,0.3,1.3,0.9,1.8c0.6,0.5,1.7,1.1,3.4,1.8
		c1.8,0.8,3.1,1.5,3.9,2.4c0.8,0.8,1.1,1.9,1.1,3.1c0,1.7-0.7,3-2.2,4S560.3,447.7,558,447.7z"/>
	<path class="st1" d="M574.8,447.7c-1.3,0-2.3-0.3-3.2-0.8c-0.9-0.5-1.6-1.2-2.1-1.9s-0.7-1.5-0.7-2.2c0-1,0.3-1.8,0.9-2.5
		c0.6-0.6,1.6-1.2,2.9-1.6l6.5-2v-1.7c0-0.6-0.2-1.2-0.6-1.7c-0.4-0.5-0.9-1-1.5-1.3s-1.3-0.5-2.1-0.5c-0.5,0-0.9,0.1-1.1,0.4
		s-0.3,0.7-0.4,1.4l-0.2,2.3c-1.3,0.3-2.3,0.2-3.1-0.1c-0.8-0.3-1.2-0.9-1.2-1.7c0-0.5,0.2-1,0.8-1.5c0.5-0.5,1.1-1,1.9-1.5
		c0.8-0.5,1.6-0.9,2.4-1.2c0.8-0.3,1.6-0.5,2.3-0.6c2.4,0,4.2,0.6,5.6,1.7c1.4,1.1,2.1,2.6,2.1,4.5l-0.1,6.1c0,1.4,0.1,2.3,0.3,2.9
		l2.7,0.5v1.6l-2.5,1c-0.9,0.4-1.7,0.6-2.4,0.6c-1,0-1.7-0.5-2.1-1.6l-0.4-1.1C577.9,446.8,576.3,447.7,574.8,447.7z M576.6,444.3
		c1,0,1.8-0.4,2.5-1.2V439l-3.4,0.8c-1.3,0.2-1.9,0.9-1.9,2c0,0.7,0.3,1.3,0.8,1.8C575.2,444.1,575.8,444.3,576.6,444.3z"/>
	<path class="st1" d="M592.9,447.8c-0.9,0-1.8-0.3-2.4-1c-0.7-0.7-1-1.5-1-2.4c0-0.9,0.3-1.8,1-2.4c0.7-0.7,1.5-1,2.4-1
		c1,0,1.8,0.3,2.5,1s1,1.5,1,2.4c0,1-0.3,1.8-1,2.4C594.7,447.5,593.9,447.8,592.9,447.8z"/>
	<path class="st1" d="M608.7,447.7c-1.7,0-3.2-0.4-4.6-1.1c-1.4-0.8-2.5-1.8-3.3-3.2c-0.8-1.4-1.2-2.9-1.2-4.7
		c0-1.8,0.4-3.4,1.3-4.9c0.9-1.5,2-2.7,3.6-3.6c1.5-0.9,3.2-1.4,5.2-1.4c1.8,0,3.3,0.4,4.5,1.1s1.8,1.6,1.8,2.6
		c0,0.6-0.2,1.1-0.6,1.4c-0.4,0.3-0.9,0.5-1.5,0.5c-0.5,0-0.9-0.1-1.3-0.3c-0.4-0.2-0.8-0.5-1.3-1l-2.3-2.1
		c-1.1,0.2-2.1,0.8-2.9,1.9c-0.8,1.1-1.3,2.6-1.3,4.5c0,2.2,0.5,3.8,1.6,4.9c1.1,1.1,2.4,1.7,4,1.7c0.9,0,1.7-0.2,2.5-0.5
		c0.8-0.3,1.5-1,2.2-1.8l1.3,1.1c-0.8,1.6-1.9,2.8-3.2,3.6C611.7,447.3,610.3,447.7,608.7,447.7z"/>
	<path class="st1" d="M627.6,447.7c-1.9,0-3.6-0.4-5-1.2c-1.4-0.8-2.6-1.9-3.4-3.3c-0.8-1.4-1.2-3-1.2-4.8c0-2,0.5-3.7,1.4-5.1
		c0.9-1.4,2.1-2.5,3.6-3.3c1.5-0.8,3.1-1.1,4.8-1.1c1.8,0,3.4,0.4,4.8,1.2c1.4,0.8,2.4,1.9,3.2,3.3c0.8,1.4,1.1,3,1.1,4.8
		c0,1.8-0.4,3.4-1.3,4.9c-0.8,1.5-2,2.6-3.4,3.5C630.9,447.3,629.3,447.7,627.6,447.7z M628,445.3c1.2,0,2.1-0.5,2.8-1.6
		c0.7-1.1,1-2.6,1-4.4c0-2.4-0.4-4.3-1.3-5.8c-0.8-1.5-2-2.3-3.3-2.3c-1.2,0-2.1,0.6-2.9,1.7c-0.7,1.1-1.1,2.7-1.1,4.5
		c0,1.5,0.2,2.8,0.6,4s1,2.1,1.7,2.8C626.3,445,627.1,445.3,628,445.3z"/>
	<path class="st1" d="M639.4,447.4l-0.1-1.8l2.6-0.7c0.1-0.4,0.2-1.8,0.2-4.3l0-3.2c0-1.7-0.1-3.2-0.4-4.5l-2.7-0.6v-1.7l6.8-1.8
		l1,0.7l-0.2,2.3l0.1,0c0.9-1.1,1.8-1.9,2.7-2.4c1-0.5,2-0.8,3-0.8c1,0,2,0.3,3,0.8c0.9,0.5,1.7,1.3,2.3,2.5
		c0.9-1.1,1.9-1.9,2.9-2.4c1-0.6,2.1-0.8,3.3-0.8c1.9,0,3.5,0.7,4.7,2c1.2,1.3,1.8,3.1,1.8,5.4l0,4.4c0,0.9,0,1.8,0.1,2.6
		c0,0.8,0.1,1.4,0.2,1.6l2.6,0.7l-0.1,1.8h-9.7l-0.1-1.8l2.3-0.7c0.1-0.3,0.1-0.9,0.1-1.7c0-0.8,0.1-1.6,0.1-2.5l0-3.9
		c0-1.7-0.4-2.8-1.1-3.5c-0.7-0.7-1.6-1-2.6-1c-1.5,0-2.8,0.6-3.8,1.9c0.1,0.7,0.2,1.4,0.2,2.1l0.1,4.3c0,0.9,0,1.8,0,2.6
		c0,0.8,0.1,1.4,0.2,1.6l2.4,0.7l-0.1,1.8h-9.4l-0.1-1.8l2.2-0.7c0.1-0.3,0.1-0.9,0.1-1.6c0-0.8,0.1-1.6,0.1-2.5l0-4.1
		c0-1.6-0.3-2.7-1-3.4c-0.7-0.7-1.5-1-2.5-1c-0.7,0-1.4,0.2-2,0.5s-1.2,0.9-1.7,1.5v6.2c0,1,0,2,0.1,2.8s0.1,1.4,0.2,1.6l2.4,0.7
		l-0.1,1.8H639.4z"/>
</g>
<g id="LogoTrace" clip-path="url(#LogoClip)">
	<path class="st2" d="M1316.2,215c0,0-10-0.3-14.9,9.9c-4.5,9.3,0.5,16.4,0.5,16.4s-19.6-3.3-30.4,11.5c-10.8,14.9-4.6,31.1,3.2,38
		c17,15.1,41.3,0,43.7-17.9c2.7-20-0.6-34.8,10.4-47.9s35.6-9.9,42.6,10c5.5,15.7-8.2,37.1-33,38.3c0,0,4.3,9.4-1.2,17.9
		c-5.5,8.5-12.7,7.1-12.7,7.1"/>
	<path class="st2" d="M1327.4,264.1c0,0,7.5,1,15-4.8c8.1-6.2,10.2-8.8,10.2-8.8"/>
</g>
</svg>
