<svg xmlns="http://www.w3.org/2000/svg" id="Layer_1" width="1580" height="515" x="0" y="0" version="1.1" style="background-color:#fff" xml:space="preserve"><style>@keyframes drawingin { to { stroke-dashoffset: 0; } } @keyframes stretchingin { from { stroke-dashoffset: -110; } to { stroke-dashoffset: 0; } } .st2 { fill: none; stroke: #15131F; stroke-miterlimit: 5; stroke-linecap: round; stroke-linejoin: round; stroke-dasharray: 375; stroke-dashoffset: 375; transform: translateZ(0); animation: drawingin 2.5s cubic-bezier(0.83, 0, 0.17, 1) forwards; stroke-width: 16; } .st2 + .st2 { animation-delay: 2s; } #Rays { transform-origin: center; animation: stretchingin 4.5s cubic-bezier(0.83, 0, 0.17, 1) forwards; } .st0 {fill:none;stroke:#A97D47;stroke-width:3;stroke-miterlimit:10; stroke: #aa7d47; stroke-dasharray: 110; transform: translateZ(0); }</style><g id="Rays"><path d="M1285 62.2l3 18M1301.9 161.8l-11.5-66.5M1285 166.3l-23.3-63.3M1220.2 86.1l50.4 87.7M1192.7 104.5l11.5 14.1M1213.6 130.7l43.3 52.2M1192.5 151.7l52 43.5M1148.1 157.5l87.4 51.2M1132.9 188.4l17.1 6.5M1164.6 199.6l63.2 23.7M1156.7 228.2l66.5 11.9M1222.3 257.2h-101.2M1123.5 291.6l18-3M1223.7 273.6l-67.2 11.6M1228.2 290.4l-64 23.5M1148.1 356.9l87.4-51.2M1167.3 385.2l13.9-11.7M1192.8 363.1l51.6-43.5M1214 384l42.9-52.1M1270.6 340.6l-50.4 87.7M1250.7 443.4l6.4-17M1285.4 347.7l-23.3 63.8M1302.2 352.2l-11.3 66.9M1318.4 454.5V353.3M1349.1 434.6l3 17.9M1346.4 419.1l-11.7-67.4M1375.1 411.4l-23.6-64.1M1366.2 340.6l50.4 87.7M1432.9 396.1l11.5 14.2M1379.4 330.8l43.8 52.9M1391.7 318.6l52.6 44.1M1401.3 305.7l87.4 51.2M1487.1 319.9l17.1 6.4M1408.2 290.9l64 23.9M1412.8 274.1l67.3 12.1M1515.7 257.2h-101.2M1495.6 226.2l18-3.1M1480.3 229.2l-67.9 11.8M1472.6 200.5l-64.7 23.8M1401.3 208.7l87.4-51.2M1455.8 141.3l14-11.7M1391.8 195.3l52.2-44M1379.4 183.1l43.4-52.7M1416.6 86.1l-50.4 87.7M1380 88.4l6.4-17.1M1374.7 102.9l-23.5 64.2M1345.9 95.3l-11.4 67.4M1318.4 161.1V59.9" class="st0"/></g><clipPath id="LogoClip"><path d="M1350.8 211.8c-4.8-.5-9.7-.1-14.5 1.2-4.4 1.3-8.7 3.5-12.3 6.3-3.5 2.8-6.5 6.5-8.5 10.5-1.2 2.2-2.1 4.4-2.8 6.8-.8 2.5-1.3 5-1.8 7.5-.5 2.6-.6 5.4-.9 7.9-.3 2.6-.4 5.2-.5 7.8-.1 2.6-.5 5.4-.8 8-.3 2.6-.5 5.2-.9 7.6-.4 2.3-.9 4.8-1.8 7-.8 2.1-1.6 3.7-2.7 5.6-2.5 3.6-5.9 6.6-10.2 8-4.1 1.4-8.7 1.2-12.5-.8-1-.5-1.9-1-2.8-1.8l-4.8 4.8c2.7 1.6 5.6 2.7 8.7 3.4 6.6 1.7 13.6 1.4 20-.6 3.1-1 5.9-2.3 8.7-4.1 2.6-1.8 5-3.9 7-6.2 2.1-2.5 3.7-5.2 5-8.1 1.3-3.1 2.2-6.5 3-9.7.4-1.7.6-3.5.9-5.2.1-.4.3-1.9.3-1.9s1.8.3 2.7.3c3.4.1 6.8-.3 10.1-1.3 3.1-.9 5.9-2.3 8.5-4.3 2.5-1.8 4.7-4 6.5-6.5-1.8-1.2-4-1.7-6.3-1.6-1.9.1-3.9.8-5.4 2.1-.8.6-1.6 1.4-2.2 2.1-.8.6-1.6 1.3-2.5 1.9-3.2 2.2-7 3.6-10.9 4 .1-1.3.3-2.6.4-3.9.1-2.7.3-5.3.4-8 .1-1.8.3-3.5.4-5.3.3-3.1.8-6.2 1.4-9.2.3-1.4.6-3 1.2-4.3.5-1.4 1.2-2.7 1.9-3.9 2.3-3.9 5.7-7.2 10-9 4-1.7 8.7-1.8 12.8-.1 1.4.5 2.7 1.3 3.9 2.2l4.8-4.8c-4.4-2.4-8.9-3.8-13.5-4.4z" class="st1"/><path d="M1379.7 238.3c-.6-4.7-2.5-9.2-5.3-13.1-1.4-1.9-3.1-3.9-5-5.4l-5.7 5.7c.4.5.8 1 1 1.7 2.3 4 3.6 8.7 3.7 13.4.1 4.9-.9 9.7-3 14.1-6.6 13.1-21.8 19.3-35.7 14.3.3.3.5.5.9.8 1.9 1.9 3.4 4.4 4.3 7.1.9 3 .9 6.1.1 9-.8 2.7-2.2 5.3-4.1 7.2-1.9 2.1-4.4 3.6-7.1 4.5-2.8 1-6.1 1.3-9 .8.4.1.8.4 1.2.5 3.2 1.3 6.7 1.7 10.1 1 3.2-.5 6.2-1.8 8.8-3.7 2.5-1.9 4.4-4.4 5.4-7.4 1.2-3.2 1.3-6.6.3-9.8-.9-3-2.7-5.6-5-7.5 2.2.6 4.4 1.2 6.7 1.3 4 .4 8.1.1 12-.6 3.7-.8 7.2-2.3 10.6-4.3 1.9-1.2 3.9-2.6 5.6-4.3 3.4-3.1 5.9-6.8 7.6-11.1 1.6-4.3 2.3-9.3 1.6-14.2zM1267.8 294.7l5.6-5.6c-.6-.8-1.2-1.7-1.7-2.6-2.2-4-3.2-8.7-3.2-13.3 0-4.8 1-9.6 3.2-13.8 6.7-12.8 21.8-18.7 35.5-14-.3-.3-.5-.5-.9-.8-1.9-1.9-3.5-4.4-4.3-7.1-.9-3-.9-6.1 0-9.2.8-2.7 2.2-5.2 4.1-7.2 1.9-1.9 4.4-3.5 7-4.4 2.8-1 5.9-1.3 8.9-.8-.4-.1-.8-.4-1.2-.5-3.2-1.3-6.7-1.7-10.1-1-3.2.5-6.2 1.8-8.8 3.7-2.5 1.9-4.3 4.4-5.4 7.4-1.2 3.2-1.3 6.6-.3 9.8.9 3 2.7 5.6 5 7.5-1.6-.5-3.2-.9-4.8-1-3.5-.5-7-.6-10.5-.1-3.2.4-6.5 1.3-9.6 2.6-3 1.3-5.7 3-8.3 4.9-2.5 1.9-4.7 4.3-6.3 7-1.8 2.7-3.2 5.6-4 8.8-1.7 6.3-1.2 13.3 1.8 19.5 1.4 2.8 3.2 5.6 5.4 7.9 1.1.7 2 1.5 2.9 2.3z" class="st1"/></clipPath><g id="Text"><path d="M62.3 111.6l-.2-3.2 4.1-1.1c0-.3.1-1.4.2-3.3s.1-4.3.1-7.3l.1-11.8c0-2.9 0-5.3-.1-7.1-.1-1.9-.2-2.9-.2-3.1l-4.4-1.1.2-3.2h21.4c1.3 0 2.9 0 4.8-.1s3.5-.2 4.7-.2l1.8 9.9-3.9.5-2.6-6c-.9-.2-1.9-.3-3-.3h-6.1c-.8 0-1.5 0-2.4.1-.8.1-1.5.1-1.9.2 0 .4-.1 1.2-.1 2.5v11.6c.7 0 1.2.1 1.8.1h4.6c.9 0 1.7 0 2.4-.1.7 0 1.1-.1 1.4-.1l.8-4.7h3.8v14.3h-3.8l-.8-5c-.5-.1-1-.2-1.7-.2-.6 0-1.3-.1-2.1-.1h-4.6c-.5 0-1.1 0-1.8.1l.1 6.1c0 2 0 3.8.1 5.4s.2 2.6.2 2.8l5.7.9-.2 3.4H62.3zM107.1 112.1c-2.1 0-3.9-.4-5.4-1.3-1.5-.9-2.7-2-3.5-3.2-.8-1.3-1.2-2.5-1.2-3.7 0-1.7.5-3.1 1.5-4.1 1-1.1 2.7-2 4.9-2.7l11-3.4v-2.9c0-1-.3-2-1-2.9-.7-.9-1.5-1.6-2.6-2.2s-2.2-.8-3.5-.8c-.9 0-1.5.2-1.9.6-.4.4-.6 1.2-.7 2.4l-.3 3.8c-2.1.5-3.9.4-5.2-.2-1.4-.6-2.1-1.6-2.1-2.9 0-.8.4-1.7 1.3-2.6.8-.9 1.9-1.7 3.2-2.5 1.3-.8 2.6-1.5 4.1-2 1.4-.6 2.7-.9 3.8-1.1 4 0 7.1.9 9.5 2.8 2.3 1.9 3.5 4.4 3.6 7.5l-.2 10.3c0 2.3.2 4 .5 4.9l4.6.8v2.7l-4.1 1.8c-1.5.7-2.9 1-4.1 1-1.7 0-2.9-.9-3.5-2.7l-.6-1.8c-2.9 2.9-5.5 4.4-8.1 4.4zm3.1-5.6c1.6 0 3.1-.7 4.3-2v-7l-5.8 1.3c-2.1.4-3.2 1.6-3.2 3.4 0 1.1.5 2.1 1.4 3 .9.8 2 1.3 3.3 1.3zm2.3-28.9l-3.7-1.2 7-12.4 7.4 1.6-10.7 12zM133.2 109.6c.1-2.3.2-4.6.2-6.9V86.1v-7.4c0-2.3-.1-4.3-.1-6 0-1.7-.1-2.8-.1-3.5l-5.2-.6-.1-2.7 12.2-3.2 1.8 1.1c-.1 1.9-.2 3.8-.2 5.8-.1 1.9-.1 4.1-.2 6.6s-.1 5.6-.2 9.3l.2.1c1-1.4 2.4-2.6 4.1-3.7 1.8-1 3.6-1.5 5.6-1.5 2.3 0 4.4.6 6.4 1.7s3.6 2.8 4.8 4.9c1.2 2.2 1.8 4.7 1.8 7.7 0 3.3-.8 6.2-2.4 8.9-1.6 2.6-3.7 4.7-6.5 6.3-2.8 1.5-6 2.3-9.7 2.3-2.2 0-4.3-.2-6.4-.7-2.1-.5-4.1-1.1-6-1.9zm14.1-2.1c2.3 0 4.3-.9 5.9-2.7 1.6-1.8 2.4-4.6 2.4-8.3 0-3.5-.8-6.1-2.4-7.7s-3.5-2.4-5.7-2.4c-1.1 0-2.2.2-3.3.7-1.1.5-2 1.2-2.8 2.1v16.2c.7.6 1.7 1 2.7 1.4 1 .5 2.1.7 3.2.7zM168 111.6l-.2-3.1 4.7-1.1c.1-.7.3-3 .4-7.2l.1-5.3c0-2.8-.2-5.3-.6-7.5l-4.7-1v-2.9l12.1-3 1.6 1.2c-.1 1.5-.2 2.9-.3 4.4s-.1 3.2-.1 5.1v8.9c0 1.7 0 3.3.1 4.7s.2 2.3.3 2.7l4.7 1.1-.2 3.1H168zm8.9-37.6c-1.7 0-3-.5-4-1.5s-1.4-2.2-1.4-3.6.5-2.6 1.4-3.6c1-1 2.3-1.5 4-1.5s3 .5 3.9 1.5c.9 1 1.4 2.2 1.4 3.6s-.5 2.6-1.4 3.6c-.9 1-2.2 1.5-3.9 1.5zM205.5 112.1c-3.2 0-6-.7-8.4-2-2.4-1.3-4.3-3.2-5.7-5.6-1.4-2.4-2-5.1-2-8.1 0-3.3.8-6.2 2.3-8.6 1.5-2.4 3.5-4.3 6-5.6 2.5-1.3 5.2-1.9 8.1-1.9 3 0 5.7.7 8.1 2 2.3 1.3 4.1 3.1 5.4 5.5 1.3 2.3 1.9 5 1.9 8.1 0 3-.7 5.8-2.1 8.3s-3.3 4.4-5.7 5.8c-2.4 1.4-5 2.1-7.9 2.1zm.7-4c2 0 3.5-.9 4.6-2.7s1.7-4.3 1.7-7.5c0-4-.7-7.3-2.1-9.8-1.4-2.5-3.3-3.8-5.6-3.8-2 0-3.6 1-4.8 2.9-1.2 1.9-1.8 4.5-1.8 7.7 0 2.5.4 4.8 1.1 6.8.7 2 1.7 3.6 2.8 4.7 1.2 1.1 2.6 1.7 4.1 1.7zM240.9 70.3h14l13.7 30 12.8-30H295l.2 3.2-4.4 1c0 .5-.1 1.5 0 3 0 1.5.1 3.6.2 6l.4 12.5c.1 3.1.2 5.6.3 7.6.1 1.9.2 3.2.3 3.6l4.4 1.1-.2 3.2h-17.8l-.2-3.2 4.4-1.1c.1-.6.2-4.2.1-10.8l-.1-17.8-14.1 33h-3.7L250 79.7v16.5c0 3.7 0 6.4.1 7.9 0 1.6.1 2.6.1 3l4.9 1.1-.2 3.2H240l-.2-3.2 4.9-1.1c0-.5.1-1.7.2-3.6s.1-4.1.2-6.5l.2-13.5c0-2.6.1-4.7 0-6.1v-3.1l-4.4-1.1v-2.9zM308.4 112.3c-1.6 0-3-.6-4.1-1.7-1.1-1.1-1.7-2.5-1.7-4.1 0-1.6.6-3 1.7-4.1 1.1-1.1 2.5-1.7 4.1-1.7 1.7 0 3.1.6 4.3 1.7 1.1 1.1 1.7 2.5 1.7 4.1 0 1.6-.6 3-1.7 4.1-1.2 1.1-2.6 1.7-4.3 1.7zM321 111.6l-.2-3.2 4.4-1.1c0-.4 0-1.2.1-2.4 0-1.2.1-2.5.1-4V85.4c0-3 0-5.5-.1-7.4-.1-1.9-.2-3.1-.4-3.3l-4.4-1.1.2-3.2h17.4c10 0 15 3.5 15 10.5 0 2.5-.8 4.7-2.4 6.6-1.6 1.9-3.8 3.3-6.5 4.3l6.9 9.8c1.6 2.3 3.2 4 4.6 5.2 1.5 1.1 3.1 1.9 4.9 2.3l-.1 3c-.7.1-1.3.2-2 .3-.7 0-1.3.1-1.9.1-3.7 0-6.8-.9-9.3-2.8-2.5-1.9-4.8-5-7-9.3l-3.7-7.5h-3v3.9c0 2.2 0 4.4.1 6.5.1 2.1.2 3.4.2 4.1l4 1.1-.2 3.2H321zM333.9 74c-.1.3-.1 1.3-.1 3.1V89h2.5c2.5 0 4.5-.7 5.9-2.2 1.5-1.5 2.2-3.4 2.2-5.8 0-4.7-2.5-7-7.4-7h-3.1zM369.8 112.3c-1.6 0-3-.6-4.1-1.7-1.1-1.1-1.7-2.5-1.7-4.1 0-1.6.6-3 1.7-4.1 1.1-1.1 2.5-1.7 4.1-1.7 1.7 0 3.1.6 4.3 1.7 1.1 1.1 1.7 2.5 1.7 4.1 0 1.6-.6 3-1.7 4.1-1.2 1.1-2.7 1.7-4.3 1.7zM399.9 107.3c.1-.3.3-1.5.4-3.5.1-2 .1-4.4.1-7.2V85.4c0-3 0-5.4-.1-7.4s-.2-3.1-.4-3.4l-4.4-1 .2-3.2h18.9c9.7 0 14.5 3.3 14.5 9.9 0 2.2-.8 4.2-2.5 5.8-1.7 1.6-3.9 2.7-6.6 3.3 3.6.5 6.4 1.6 8.3 3.3 1.9 1.8 2.9 4 2.9 6.9 0 3.8-1.6 6.7-4.8 8.8-3.2 2.1-7.6 3.2-13.3 3.2h-17.4l-.2-3.2 4.4-1.1zm8.8-24.6v5.7c.5 0 1 .1 1.5.1h1.7c2.7 0 4.7-.6 6.1-1.9 1.4-1.3 2.1-3.1 2.1-5.5 0-2.2-.7-3.9-2-5.2S414.7 74 412 74h-3.2c0 .4-.1 1.4-.1 3v5.7zm0 16.4v5.2c0 1.5.1 2.5.2 2.9.5.1 1.2.3 2.1.4.9.1 1.7.2 2.4.2 2.8 0 5-.6 6.5-1.9 1.5-1.3 2.3-3.1 2.3-5.4 0-5.3-3.3-7.9-9.9-7.9h-2.1c-.6 0-1.1 0-1.5.1v6.4zM447.4 112.1c-2.1 0-3.9-.4-5.4-1.3-1.5-.9-2.7-2-3.5-3.2-.8-1.3-1.2-2.5-1.2-3.7 0-1.7.5-3.1 1.5-4.1 1-1.1 2.7-2 4.9-2.7l11-3.4v-2.9c0-1-.3-2-1-2.9-.7-.9-1.5-1.6-2.6-2.2s-2.2-.8-3.5-.8c-.9 0-1.5.2-1.9.6-.4.4-.6 1.2-.7 2.4l-.3 3.8c-2.1.5-3.9.4-5.2-.2-1.4-.6-2.1-1.6-2.1-2.9 0-.8.4-1.7 1.3-2.6.8-.9 1.9-1.7 3.2-2.5 1.3-.8 2.6-1.5 4.1-2 1.4-.6 2.7-.9 3.8-1.1 4 0 7.1.9 9.5 2.8 2.3 1.9 3.5 4.4 3.6 7.5l-.2 10.3c0 2.3.2 4 .5 4.9l4.6.8v2.7l-4.1 1.8c-1.5.7-2.9 1-4.1 1-1.7 0-2.9-.9-3.5-2.7l-.6-1.8c-2.9 2.9-5.6 4.4-8.1 4.4zm3-5.6c1.6 0 3.1-.7 4.3-2v-7l-5.8 1.3c-2.1.4-3.2 1.6-3.2 3.4 0 1.1.5 2.1 1.4 3 .9.8 2 1.3 3.3 1.3zM470.1 111.6l-.2-3 4.4-1.1c.1-.7.3-3 .4-7.2l.1-5.3c0-2.8-.2-5.3-.6-7.5l-4.5-1v-2.9l11.3-3 1.6 1.1-.3 5.6.2.1c1.3-2.6 2.7-4.4 4.1-5.3 1.4-.9 2.8-1.4 4.3-1.4 1.2 0 2.2.3 3.1 1 .9.7 1.3 1.7 1.3 3 0 1.4-.5 2.5-1.4 3.2-.9.7-2.1 1.1-3.4 1.1-.9 0-1.7-.1-2.4-.4-.7-.2-1.5-.7-2.2-1.3-1.3 1.1-2.3 2.6-3.2 4.6l.1 5.8c0 2.3.1 4.4.2 6.2s.2 3 .2 3.6l6.1 1-.2 3.2h-19zM500.8 109.6c.1-2.3.2-4.6.2-6.9V86.1v-7.4c0-2.3-.1-4.3-.1-6 0-1.7-.1-2.8-.1-3.5l-5.2-.6-.1-2.7 12.2-3.2 1.8 1.1c-.1 1.9-.2 3.8-.2 5.8-.1 1.9-.1 4.1-.2 6.6s-.1 5.6-.2 9.3l.2.1c1-1.4 2.4-2.6 4.1-3.7 1.8-1 3.6-1.5 5.6-1.5 2.3 0 4.4.6 6.4 1.7s3.6 2.8 4.8 4.9c1.2 2.2 1.8 4.7 1.8 7.7 0 3.3-.8 6.2-2.4 8.9-1.6 2.6-3.7 4.7-6.5 6.3-2.8 1.5-6 2.3-9.7 2.3-2.2 0-4.3-.2-6.4-.7-2.1-.5-4.1-1.1-6-1.9zm14.1-2.1c2.3 0 4.3-.9 5.9-2.7 1.6-1.8 2.4-4.6 2.4-8.3 0-3.5-.8-6.1-2.4-7.7s-3.5-2.4-5.7-2.4c-1.1 0-2.2.2-3.3.7-1.1.5-2 1.2-2.8 2.1v16.2c.7.6 1.7 1 2.7 1.4 1 .5 2.1.7 3.2.7zM552.9 112.1c-3.2 0-6-.7-8.4-2-2.4-1.3-4.3-3.2-5.7-5.6-1.4-2.4-2-5.1-2-8.1 0-3.3.8-6.2 2.3-8.6 1.5-2.4 3.5-4.3 6-5.6 2.5-1.3 5.2-1.9 8.1-1.9 3 0 5.7.7 8.1 2 2.3 1.3 4.1 3.1 5.4 5.5 1.3 2.3 1.9 5 1.9 8.1 0 3-.7 5.8-2.1 8.3s-3.3 4.4-5.7 5.8c-2.3 1.4-5 2.1-7.9 2.1zm.7-4c2 0 3.5-.9 4.6-2.7s1.7-4.3 1.7-7.5c0-4-.7-7.3-2.1-9.8-1.4-2.5-3.3-3.8-5.6-3.8-2 0-3.6 1-4.8 2.9-1.2 1.9-1.8 4.5-1.8 7.7 0 2.5.4 4.8 1.1 6.8.7 2 1.7 3.6 2.8 4.7 1.2 1.1 2.6 1.7 4.1 1.7zM584.8 112.1c-1.9 0-3.8-.2-5.6-.6-1.9-.4-3.4-1-4.7-1.7l-.4-8h4.1l1.5 5.1c1.7 1.1 3.5 1.6 5.6 1.6 1.5 0 2.7-.3 3.5-1 .8-.7 1.3-1.5 1.3-2.6s-.4-2.1-1.3-2.9c-.8-.8-2.6-1.7-5.1-2.7-3.4-1.3-5.8-2.6-7.2-4.1-1.4-1.5-2-3.3-2-5.5 0-2.7 1.2-5 3.7-6.7s5.7-2.6 9.6-2.6c1.5 0 2.9.1 4.4.4 1.5.3 2.7.6 3.7 1.1l.8 7.9h-4.1l-1.6-4.9c-1-.6-2.2-.9-3.7-.9s-2.7.3-3.6 1c-.9.7-1.3 1.6-1.3 2.6 0 1.2.5 2.2 1.5 3 1 .8 2.9 1.8 5.7 3 3.1 1.3 5.3 2.6 6.6 4 1.3 1.4 1.9 3.2 1.9 5.3 0 2.8-1.2 5.1-3.7 6.8-2.5 1.6-5.7 2.4-9.6 2.4zM613.1 112.1c-2.1 0-3.9-.4-5.4-1.3-1.5-.9-2.7-2-3.5-3.2-.8-1.3-1.2-2.5-1.2-3.7 0-1.7.5-3.1 1.5-4.1 1-1.1 2.7-2 4.9-2.7l11-3.4v-2.9c0-1-.3-2-1-2.9-.7-.9-1.5-1.6-2.6-2.2s-2.2-.8-3.5-.8c-.9 0-1.5.2-1.9.6-.4.4-.6 1.2-.7 2.4l-.3 3.8c-2.1.5-3.9.4-5.2-.2-1.4-.6-2.1-1.6-2.1-2.9 0-.8.4-1.7 1.3-2.6.8-.9 1.9-1.7 3.2-2.5 1.3-.8 2.6-1.5 4.1-2 1.4-.6 2.7-.9 3.8-1.1 4 0 7.1.9 9.5 2.8 2.3 1.9 3.5 4.4 3.6 7.5l-.2 10.3c0 2.3.2 4 .5 4.9l4.6.8v2.7l-4.1 1.8c-1.5.7-2.9 1-4.1 1-1.7 0-2.9-.9-3.5-2.7l-.6-1.8c-2.9 2.9-5.6 4.4-8.1 4.4zm3-5.6c1.6 0 3.1-.7 4.3-2v-7l-5.8 1.3c-2.1.4-3.2 1.6-3.2 3.4 0 1.1.5 2.1 1.4 3 1 .8 2.1 1.3 3.3 1.3zM78.3 168.4c-3 0-5.8-.6-8.2-1.8-2.5-1.2-4.5-2.9-6-5.2-1.5-2.3-2.2-5.2-2.2-8.7 0-2.9.7-5.5 2-8 1.3-2.4 3.3-4.4 5.8-5.9s5.6-2.2 9.3-2.2c1.4 0 2.9.1 4.5.4 1.6.3 3.1.7 4.3 1.2l.4 7.1-2.3.2-1.5-4.9c-.7-.5-1.6-.8-2.7-1.1-1.1-.2-2.2-.3-3.2-.3-2.7 0-4.8.6-6.5 1.7-1.7 1.2-2.9 2.7-3.7 4.6-.8 1.9-1.2 4-1.2 6.2 0 3 .5 5.5 1.6 7.6 1 2.1 2.5 3.6 4.2 4.7 1.8 1.1 3.7 1.6 5.9 1.6 1.2 0 2.2-.1 3.1-.4.9-.2 1.8-.6 2.6-1.1l2.4-4.9 2.3.2-1.5 6.5c-1.2.6-2.6 1.2-4.2 1.6-1.6.7-3.4.9-5.2.9zM92.4 167.9l-.1-1.8 3.2-.8c0-.2.1-.8.1-1.7 0-.9.1-2.2.1-3.9l.1-4.1c0-1.2 0-2.3-.1-3.5-.1-1.2-.2-2-.3-2.6l-3.4-.7V147l6.9-1.9.7.7-.2 4.3.2.1c1-2 2.1-3.3 3.2-4.1 1.1-.7 2.1-1.1 3-1.1.8 0 1.5.2 2 .6.5.4.8 1 .8 1.8s-.3 1.4-.8 1.8c-.6.4-1.3.6-2.1.6-1 0-1.9-.3-2.8-1-1.3.9-2.3 2.4-3.2 4.5l.1 4.9c0 1.3.1 2.6.2 4s.1 2.4.2 3l4.6.7-.1 1.9H92.4zM121.3 168.4c-2 0-3.8-.5-5.4-1.4-1.6-.9-2.9-2.2-3.9-3.9-1-1.7-1.4-3.7-1.4-6 0-2.5.5-4.7 1.5-6.5 1-1.8 2.3-3.2 4-4.2 1.6-1 3.4-1.4 5.3-1.4 2.7 0 4.8.9 6.3 2.7 1.5 1.8 2.3 4.3 2.3 7.5v.9h-15c.1 2.8.8 4.9 2.2 6.5 1.4 1.5 3.2 2.3 5.4 2.3 1.3 0 2.4-.2 3.4-.7 1-.5 1.9-1.3 2.8-2.4l1.3 1.2c-1 1.8-2.3 3.2-3.7 4-1.7.9-3.3 1.4-5.1 1.4zm-.4-21.3c-1.4 0-2.7.6-3.8 1.7-1.2 1.1-1.9 2.8-2.1 5.1h11v-.4c0-2-.5-3.6-1.4-4.7-.9-1.1-2.1-1.7-3.7-1.7zM142.2 168.4c-1.4 0-2.6-.3-3.7-.8-1.1-.6-1.9-1.3-2.5-2.1-.6-.9-.9-1.8-.9-2.7 0-1.2.4-2.1 1.1-2.9.8-.8 2-1.4 3.8-2l8-2.7v-2.7c0-1.3-.6-2.4-1.7-3.4-1.2-.9-2.5-1.4-4.2-1.4-.9 0-1.5.2-1.8.6-.3.4-.5 1.1-.5 2.2l-.2 2c-1.2.3-2.2.3-3.1-.1-.9-.4-1.3-1-1.3-1.8 0-.7.4-1.5 1.3-2.3.9-.8 1.9-1.5 3.2-2.1 1.3-.6 2.5-1 3.7-1.2 2.5 0 4.6.7 6.2 2 1.6 1.3 2.3 3.1 2.3 5.3l-.1 8.9c0 .6 0 1.3.1 1.9.1.6.1 1.1.2 1.4l3.4.6v1.6l-2.5.9c-.5.2-.9.3-1.3.4-.4.1-.7.2-1 .2-1 0-1.7-.6-2-1.8l-.3-1.4c-2.3 2.3-4.3 3.4-6.2 3.4zm1.3-3c1.6 0 3.1-.8 4.5-2.3v-5.6l-6.1 1.7c-1.6.4-2.4 1.3-2.4 2.7 0 .9.4 1.7 1.2 2.4.8.7 1.7 1.1 2.8 1.1zM174.6 164.8c-.7 1.1-1.6 2-2.7 2.6-1.1.6-2.3.9-3.5.9-2.1 0-3.8-.6-5.2-1.9-1.4-1.3-2-3.2-2-5.8l.1-12.6h-3.7v-1l6.7-6.1h.9l-.1 4.6h7.9v2.6h-7.9l-.1 11.7c0 1.8.4 3.2 1.2 4.1.8.9 1.9 1.3 3.3 1.3.8 0 1.6-.2 2.3-.5.7-.3 1.3-.7 1.9-1.3l.9 1.4zM175.7 167.9l-.1-1.9 3.5-.7c0-.2.1-.6.1-1.4 0-.7.1-2.1.1-4.2v-3.5c0-1.5 0-2.8-.1-4-.1-1.2-.2-2.1-.3-2.7l-3.5-.7V147l7.3-1.9.7.7c-.1 1.1-.2 2.1-.2 3.2-.1 1-.1 2.3-.1 3.7v6.6c0 1.6 0 3 .1 4.1.1 1.1.1 1.7.2 2l3.5.7-.1 1.9h-11.1zm5.6-28.8c-.9 0-1.6-.3-2.2-.8-.6-.6-.9-1.3-.9-2.1s.3-1.5.9-2.1c.6-.6 1.4-.9 2.2-.9.9 0 1.6.3 2.2.9.6.6.9 1.3.9 2.1 0 .9-.3 1.6-.9 2.1-.6.5-1.3.8-2.2.8zM199.7 168.2l-9.2-20.1-2.5-.8.1-1.8h9.9l.2 1.8-3.2.8 6.5 14.6 6-14.6-3.2-.8.2-1.8h8.5l.1 1.8-2.5.8-9.4 20.1h-1.5zM225.3 168.4c-2 0-3.8-.5-5.4-1.4-1.6-.9-2.9-2.2-3.9-3.9-1-1.7-1.4-3.7-1.4-6 0-2.5.5-4.7 1.5-6.5 1-1.8 2.3-3.2 4-4.2 1.6-1 3.4-1.4 5.3-1.4 2.7 0 4.8.9 6.3 2.7 1.5 1.8 2.3 4.3 2.3 7.5v.9h-15c.1 2.8.8 4.9 2.2 6.5 1.4 1.5 3.2 2.3 5.4 2.3 1.3 0 2.4-.2 3.4-.7 1-.5 1.9-1.3 2.8-2.4l1.3 1.2c-1 1.8-2.3 3.2-3.7 4-1.6.9-3.2 1.4-5.1 1.4zm-.4-21.3c-1.4 0-2.7.6-3.8 1.7-1.2 1.1-1.9 2.8-2.1 5.1h11.1v-.4c0-2-.5-3.6-1.4-4.7-.9-1.1-2.2-1.7-3.8-1.7zM258.9 168.4c-2 0-3.8-.4-5.4-1.3-1.6-.9-2.9-2.2-3.9-3.8-1-1.7-1.5-3.7-1.5-6.1 0-2.3.5-4.3 1.5-6.1 1-1.8 2.4-3.3 4.2-4.3 1.8-1.1 3.8-1.6 6-1.6 2.3 0 4 .4 5.2 1.2 1.2.8 1.8 1.7 1.8 2.7 0 .6-.2 1.1-.5 1.4-.3.3-.8.5-1.4.5-.6 0-1-.1-1.4-.3-.4-.2-.9-.6-1.5-1.3l-2.3-2.3c-1.3 0-2.4.3-3.5 1s-2 1.7-2.7 3c-.7 1.3-1 3-1 5.1 0 2.8.7 5 2.1 6.5 1.4 1.5 3.2 2.3 5.3 2.3 1.4 0 2.5-.2 3.5-.7 1-.5 1.9-1.3 2.8-2.4l1.4 1.2c-1.9 3.5-4.8 5.3-8.7 5.3zM281.3 168.4c-2.3 0-4.3-.5-6-1.5-1.7-1-3-2.4-3.9-4.1-.9-1.7-1.4-3.8-1.4-6 0-2.3.5-4.4 1.6-6.1 1-1.7 2.4-3.1 4.2-4.1s3.6-1.5 5.7-1.5 4 .5 5.6 1.4c1.6 1 2.9 2.3 3.7 4 .9 1.7 1.3 3.7 1.3 6 0 2.2-.5 4.2-1.4 6-1 1.8-2.3 3.2-3.9 4.3-1.7 1-3.5 1.6-5.5 1.6zm.5-2.4c1.8 0 3.2-.8 4.3-2.4 1.1-1.6 1.7-3.6 1.7-6.1 0-3-.6-5.5-1.9-7.4-1.3-1.9-2.9-2.8-5-2.8-1.9 0-3.5.8-4.6 2.4-1.2 1.6-1.8 3.7-1.8 6.3 0 3 .7 5.4 2 7.2 1.4 1.8 3.1 2.8 5.3 2.8zM296 167.9l-.1-1.8 3.2-.8c0-.3.1-.9.1-1.7 0-.8.1-2.1.1-3.9l.1-4.1c0-1.2 0-2.3-.1-3.5-.1-1.2-.2-2.1-.3-2.6l-3.4-.7V147l6.9-1.9.8.8-.3 2.8.2.1c1.2-1.3 2.4-2.3 3.6-2.9 1.2-.6 2.5-.9 3.8-.9 1.3 0 2.5.3 3.6 1 1.1.6 2.1 1.6 2.8 3 .7 1.3 1.1 3 1.1 5v5.8c0 1.3 0 2.4.1 3.5.1 1 .1 1.7.2 2l3.2.8-.2 1.8h-10.3l-.2-1.8 3-.8c.1-.4.1-1 .2-1.7 0-.8.1-1.9.1-3.4v-5.8c0-1.6-.3-2.8-.8-3.7-.6-.9-1.2-1.6-2.1-2-.8-.4-1.6-.6-2.4-.6-2.4 0-4.3 1.1-5.9 3.2v7.9c0 1.6 0 3 .1 4s.1 1.7.2 2.1l3.2.8-.2 1.8H296zM333.3 168.4c-1.3 0-2.6-.1-3.9-.4-1.3-.3-2.4-.7-3.3-1.2l-.3-5.6h2.5l1 3.8c1.2.8 2.5 1.3 4.2 1.3 1.2 0 2.2-.3 2.9-.9.8-.6 1.2-1.4 1.2-2.4 0-.9-.3-1.7-1-2.4s-2-1.4-3.9-2.3c-2.4-1.1-4.2-2.1-5.2-3.1s-1.5-2.3-1.5-3.8c0-1.8.8-3.3 2.4-4.5 1.6-1.2 3.7-1.8 6.2-1.8 1 0 2 .1 3 .2s1.8.4 2.5.7l.6 5.4h-2.4l-1.3-3.5c-.8-.5-1.7-.7-2.8-.7-1.3 0-2.3.3-3 .9-.8.6-1.1 1.3-1.1 2.3 0 1 .4 1.9 1.2 2.5.8.6 2.2 1.5 4.3 2.4 2.3 1 3.9 2.1 4.8 3.1.9 1 1.4 2.2 1.4 3.6 0 1.9-.8 3.4-2.4 4.6-1.6 1.2-3.7 1.8-6.1 1.8zM367.6 164.4l3.3.8v1.7l-6.7 1.6-.7-.7.1-3.2-.2-.1c-1 1.4-2.1 2.4-3.1 3-1.1.6-2.2.9-3.4.9-2.3 0-4.3-.7-5.8-2.1-1.6-1.4-2.4-3.6-2.4-6.5v-4.6c0-1 0-1.9-.1-2.9 0-.9-.1-1.9-.2-2.8l-3.6-.7V147l7-1.9.8.8c-.1 1.1-.1 2.3-.2 3.5 0 1.2-.1 2.5-.1 3.8v5.8c0 2.2.5 3.8 1.5 4.7 1 .9 2.3 1.4 4 1.4.9 0 1.9-.2 2.9-.7 1-.5 1.9-1.3 2.6-2.6v-6.1c0-1.1 0-2.2-.1-3.4-.1-1.1-.1-2.1-.2-2.8l-3.8-.7V147l7.2-1.9.7.7c0 1.5-.1 2.7-.1 3.7V156.8c0 2 0 3.6.1 4.8.3 1.3.4 2.2.5 2.8zM373.8 167.9l-.1-1.9 3.4-.7c.1-.6.1-1.6.2-3.1s.1-3.8.1-6.8v-6.5-4.1c0-1.4 0-2.8-.1-4 0-1.3 0-2.3-.1-3.2 0-.9 0-1.5-.1-1.8l-3.9-.5-.1-1.6 7.3-2.1 1 .7c0 1.5-.1 3-.1 4.4 0 1.4-.1 3.1-.1 4.9v6.4l-.1 8.5c0 2 0 3.9.1 5.5.1 1.7.1 2.7.2 3.2l3.4.7-.1 1.9h-10.9zM404.2 164.8c-.7 1.1-1.6 2-2.7 2.6-1.1.6-2.3.9-3.5.9-2.1 0-3.8-.6-5.2-1.9-1.4-1.3-2-3.2-2-5.8l.1-12.6h-3.7v-1l6.7-6.1h.9l-.1 4.6h7.9v2.6h-7.9l-.1 11.7c0 1.8.4 3.2 1.2 4.1.8.9 1.9 1.3 3.3 1.3.8 0 1.6-.2 2.3-.5.7-.3 1.3-.7 1.9-1.3l.9 1.4zM413.9 168.4c-1.4 0-2.6-.3-3.7-.8-1.1-.6-1.9-1.3-2.5-2.1-.6-.9-.9-1.8-.9-2.7 0-1.2.4-2.1 1.1-2.9.8-.8 2-1.4 3.8-2l8-2.7v-2.7c0-1.3-.6-2.4-1.7-3.4-1.2-.9-2.5-1.4-4.2-1.4-.9 0-1.5.2-1.8.6-.3.4-.5 1.1-.5 2.2l-.2 2c-1.2.3-2.2.3-3.1-.1-.9-.4-1.3-1-1.3-1.8 0-.7.4-1.5 1.3-2.3.9-.8 1.9-1.5 3.2-2.1 1.3-.6 2.5-1 3.7-1.2 2.5 0 4.6.7 6.2 2 1.6 1.3 2.3 3.1 2.3 5.3l-.1 8.9c0 .6 0 1.3.1 1.9.1.6.1 1.1.2 1.4l3.4.6v1.6l-2.5.9c-.5.2-.9.3-1.3.4-.4.1-.7.2-1 .2-1 0-1.7-.6-2-1.8l-.3-1.4c-2.2 2.3-4.2 3.4-6.2 3.4zm1.3-3c1.6 0 3.1-.8 4.5-2.3v-5.6l-6.1 1.7c-1.6.4-2.4 1.3-2.4 2.7 0 .9.4 1.7 1.2 2.4.8.7 1.8 1.1 2.8 1.1zM430 167.9l-.1-1.8 3.2-.8c0-.3.1-.9.1-1.7 0-.8.1-2.1.1-3.9l.1-4.1c0-1.2 0-2.3-.1-3.5-.1-1.2-.2-2.1-.3-2.6l-3.4-.7V147l6.9-1.9.8.8-.3 2.8.2.1c1.2-1.3 2.4-2.3 3.6-2.9 1.2-.6 2.5-.9 3.8-.9 1.3 0 2.5.3 3.6 1 1.1.6 2.1 1.6 2.8 3 .7 1.3 1.1 3 1.1 5v5.8c0 1.3 0 2.4.1 3.5.1 1 .1 1.7.2 2l3.2.8-.2 1.8h-10.3l-.2-1.8 3-.8c.1-.4.1-1 .2-1.7 0-.8.1-1.9.1-3.4v-5.8c0-1.6-.3-2.8-.8-3.7-.6-.9-1.2-1.6-2.1-2-.8-.4-1.6-.6-2.4-.6-2.4 0-4.3 1.1-5.9 3.2v7.9c0 1.6 0 3 .1 4s.1 1.7.2 2.1l3.2.8-.2 1.8H430zM475 164.8c-.7 1.1-1.6 2-2.7 2.6-1.1.6-2.3.9-3.5.9-2.1 0-3.8-.6-5.2-1.9-1.4-1.3-2-3.2-2-5.8l.1-12.6H458v-1l6.7-6.1h.9l-.1 4.6h7.9v2.6h-7.9l-.1 11.7c0 1.8.4 3.2 1.2 4.1.8.9 1.9 1.3 3.3 1.3.8 0 1.6-.2 2.3-.5.7-.3 1.3-.7 1.9-1.3l.9 1.4zM497.3 143.3h3.1v9.8h9.7v3.1h-9.7v9.8h-3.1v-9.8h-9.7v-3.1h9.7v-9.8zM543.2 168.5l-.7-.7.1-3.4-.2-.1c-1.1 1.5-2.2 2.5-3.3 3.1-1.1.6-2.3.9-3.5.9-2 0-3.8-.5-5.3-1.4-1.6-.9-2.8-2.2-3.7-3.8-.9-1.6-1.3-3.5-1.3-5.7 0-2.4.5-4.6 1.6-6.5 1.1-1.9 2.5-3.3 4.2-4.4 1.8-1 3.6-1.6 5.6-1.6 1 0 2 .1 3.1.4 1 .2 1.9.6 2.6 1.2V144v-3.2c0-1.1 0-2.1-.1-3 0-.9-.1-1.5-.1-1.8l-4.1-.7-.1-1.7 7.5-2.1.9.7c-.1 2.2-.1 4.3-.2 6.3 0 2-.1 4.2-.1 6.4l-.1 12c0 1.8 0 3.3.1 4.6.1 1.3.2 2.2.2 2.7l3.3.8v1.7l-6.4 1.8zm-6.5-3.5c1 0 2-.2 2.9-.7.9-.4 1.8-1.2 2.7-2.4v-11.2c-.7-1.2-1.5-2.1-2.6-2.6-1-.5-2.1-.8-3.1-.8-2.2 0-3.9.8-5.2 2.5-1.3 1.7-1.9 3.8-1.9 6.4 0 2.8.7 5 2.1 6.5 1.4 1.5 3.1 2.3 5.1 2.3zM564.2 168.4c-2 0-3.8-.5-5.4-1.4-1.6-.9-2.9-2.2-3.9-3.9-1-1.7-1.4-3.7-1.4-6 0-2.5.5-4.7 1.5-6.5 1-1.8 2.3-3.2 4-4.2 1.6-1 3.4-1.4 5.3-1.4 2.7 0 4.8.9 6.3 2.7 1.5 1.8 2.3 4.3 2.3 7.5v.9h-15c.1 2.8.8 4.9 2.2 6.5 1.4 1.5 3.2 2.3 5.4 2.3 1.3 0 2.4-.2 3.4-.7 1-.5 1.9-1.3 2.8-2.4l1.3 1.2c-1 1.8-2.3 3.2-3.7 4-1.7.9-3.3 1.4-5.1 1.4zm-.5-21.3c-1.4 0-2.7.6-3.8 1.7-1.2 1.1-1.9 2.8-2.1 5.1h11.1v-.4c0-2-.5-3.6-1.4-4.7-.9-1.1-2.2-1.7-3.8-1.7zM586.2 168.2l-9.2-20.1-2.5-.8.1-1.8h9.9l.2 1.8-3.2.8 6.5 14.6 6-14.6-3.2-.8.2-1.8h8.5l.1 1.8-2.5.8-9.4 20.1h-1.5zM611.8 168.4c-2 0-3.8-.5-5.4-1.4-1.6-.9-2.9-2.2-3.9-3.9-1-1.7-1.4-3.7-1.4-6 0-2.5.5-4.7 1.5-6.5 1-1.8 2.3-3.2 4-4.2 1.6-1 3.4-1.4 5.3-1.4 2.7 0 4.8.9 6.3 2.7 1.5 1.8 2.3 4.3 2.3 7.5v.9h-15c.1 2.8.8 4.9 2.2 6.5 1.4 1.5 3.2 2.3 5.4 2.3 1.3 0 2.4-.2 3.4-.7 1-.5 1.9-1.3 2.8-2.4l1.3 1.2c-1 1.8-2.3 3.2-3.7 4-1.7.9-3.3 1.4-5.1 1.4zm-.5-21.3c-1.4 0-2.7.6-3.8 1.7-1.2 1.1-1.9 2.8-2.1 5.1h11.1v-.4c0-2-.5-3.6-1.4-4.7-.9-1.1-2.1-1.7-3.8-1.7zM623.9 167.9l-.1-1.9 3.4-.7c.1-.6.1-1.6.2-3.1s.1-3.8.1-6.8v-6.5-4.1c0-1.4 0-2.8-.1-4 0-1.3 0-2.3-.1-3.2 0-.9 0-1.5-.1-1.8l-3.9-.5-.1-1.6 7.3-2.1 1 .7c0 1.5-.1 3-.1 4.4 0 1.4-.1 3.1-.1 4.9v6.4l-.1 8.5c0 2 0 3.9.1 5.5.1 1.7.1 2.7.2 3.2l3.4.7-.1 1.9h-10.9zM649.7 168.4c-2.3 0-4.3-.5-6-1.5-1.7-1-3-2.4-3.9-4.1-.9-1.7-1.4-3.8-1.4-6 0-2.3.5-4.4 1.6-6.1 1-1.7 2.4-3.1 4.2-4.1s3.6-1.5 5.7-1.5 4 .5 5.6 1.4c1.6 1 2.9 2.3 3.7 4 .9 1.7 1.3 3.7 1.3 6 0 2.2-.5 4.2-1.4 6-1 1.8-2.3 3.2-3.9 4.3-1.6 1-3.4 1.6-5.5 1.6zm.5-2.4c1.8 0 3.2-.8 4.3-2.4 1.1-1.6 1.7-3.6 1.7-6.1 0-3-.6-5.5-1.9-7.4-1.3-1.9-2.9-2.8-5-2.8-1.9 0-3.5.8-4.6 2.4-1.2 1.6-1.8 3.7-1.8 6.3 0 3 .7 5.4 2 7.2 1.4 1.8 3.2 2.8 5.3 2.8zM664.3 179.5l-.1-1.8 3.2-.8c0-.3.1-1.2.1-2.5s.1-3.3.1-5.9l.1-13.1c0-1 0-2.1-.1-3.2s-.2-2-.3-2.6l-3.4-.7V147l6.9-1.9.8.8-.3 2.9h.2c2-2.5 4.3-3.8 7-3.8 1.9 0 3.6.5 5.1 1.4 1.5 1 2.7 2.3 3.5 4 .8 1.7 1.3 3.6 1.3 5.7 0 2.3-.5 4.4-1.6 6.3-1 1.8-2.5 3.3-4.2 4.3s-3.8 1.6-6 1.6c-1.9 0-3.6-.3-5.1-.9v4c0 1.4 0 2.5.1 3.4 0 .9.1 1.6.2 2.1l4.3.6-.1 2h-11.7zm12.6-13.7c2.1 0 3.9-.8 5.2-2.3 1.3-1.5 2-3.7 2-6.5 0-1.6-.2-3.1-.8-4.5-.6-1.3-1.4-2.4-2.4-3.1-1-.8-2.2-1.2-3.6-1.2-2.3 0-4.2 1-5.8 3.1V164c1.5 1.3 3.3 1.8 5.4 1.8zM703.7 168.4c-2 0-3.8-.5-5.4-1.4-1.6-.9-2.9-2.2-3.9-3.9-1-1.7-1.4-3.7-1.4-6 0-2.5.5-4.7 1.5-6.5 1-1.8 2.3-3.2 4-4.2 1.6-1 3.4-1.4 5.3-1.4 2.7 0 4.8.9 6.3 2.7 1.5 1.8 2.3 4.3 2.3 7.5v.9h-15c.1 2.8.8 4.9 2.2 6.5s3.2 2.3 5.4 2.3c1.3 0 2.4-.2 3.4-.7 1-.5 1.9-1.3 2.8-2.4l1.3 1.2c-1 1.8-2.3 3.2-3.7 4-1.6.9-3.2 1.4-5.1 1.4zm-.4-21.3c-1.4 0-2.7.6-3.8 1.7-1.2 1.1-1.9 2.8-2.1 5.1h11.1v-.4c0-2-.5-3.6-1.4-4.7-.9-1.1-2.2-1.7-3.8-1.7zM716.1 167.9l-.1-1.8 3.2-.8c0-.2.1-.8.1-1.7 0-.9.1-2.2.1-3.9l.1-4.1c0-1.2 0-2.3-.1-3.5-.1-1.2-.2-2-.3-2.6l-3.4-.7V147l6.9-1.9.7.7-.2 4.3.2.1c1-2 2.1-3.3 3.2-4.1 1.1-.7 2.1-1.1 3-1.1.8 0 1.5.2 2 .6.5.4.8 1 .8 1.8s-.3 1.4-.8 1.8c-.6.4-1.3.6-2.1.6-1 0-1.9-.3-2.8-1-1.3.9-2.3 2.4-3.2 4.5l.1 4.9c0 1.3.1 2.6.2 4s.1 2.4.2 3l4.6.7-.1 1.9h-12.3zM734.3 177l-.7-1.5c1.3-.6 2.4-1.3 3.1-2.2.8-.9 1.1-1.9 1.1-3.1 0-.7-.1-1.2-.4-1.6-.3-.4-.6-.7-.9-1s-.7-.6-.9-1c-.3-.4-.4-.9-.4-1.6 0-.7.3-1.4.8-1.9s1.2-.8 2.1-.8c.9 0 1.7.4 2.4 1.1.7.8 1.1 1.9 1.1 3.5 0 1.4-.3 2.7-.9 4-.6 1.3-1.5 2.5-2.6 3.6s-2.4 1.9-3.8 2.5zM70.3 224.5l-8.4-20.1-2.5-.8.1-1.8h9.4l.1 1.8-2.7.8 5.8 14.4 5.6-13.6-.3-.8-2.7-.8.2-1.8h9.4l.1 1.8-2.7.8 5.5 14.5 5.6-14.5-2.7-.8.1-1.8h8.1l.1 1.8-2.5.8-8.9 20.1h-1.5l-6.4-16-7.2 16h-1.6zM100.2 224.3l-.1-1.8 3.2-.8c0-.2.1-.8.1-1.7 0-.9.1-2.2.1-3.9l.1-4.1c0-1.2 0-2.3-.1-3.5-.1-1.2-.2-2-.3-2.6l-3.4-.7v-1.7l6.9-1.9.7.7-.2 4.3.2.1c1-2 2.1-3.3 3.2-4.1 1.1-.7 2.1-1.1 3-1.1.8 0 1.5.2 2 .6.5.4.8 1 .8 1.8s-.3 1.4-.8 1.8c-.6.4-1.3.6-2.1.6-1 0-1.9-.3-2.8-1-1.3.9-2.3 2.4-3.2 4.5l.1 4.9c0 1.3.1 2.6.2 4s.1 2.4.2 3l4.6.7-.1 1.9h-12.3zM118.7 224.3l-.1-1.9 3.5-.7c0-.2.1-.6.1-1.4 0-.7.1-2.1.1-4.2v-3.5c0-1.5 0-2.8-.1-4-.1-1.2-.2-2.1-.3-2.7l-3.5-.7v-1.7l7.3-1.9.7.7c-.1 1.1-.2 2.1-.2 3.2-.1 1-.1 2.3-.1 3.7v6.6c0 1.6 0 3 .1 4.1.1 1.1.1 1.7.2 2l3.5.7-.1 1.9h-11.1zm5.6-28.9c-.9 0-1.6-.3-2.2-.8-.6-.6-.9-1.3-.9-2.1s.3-1.5.9-2.1c.6-.6 1.4-.9 2.2-.9.9 0 1.6.3 2.2.9.6.6.9 1.3.9 2.1 0 .9-.3 1.6-.9 2.1-.6.6-1.4.8-2.2.8zM149.1 221.2c-.7 1.1-1.6 2-2.7 2.6-1.1.6-2.3.9-3.5.9-2.1 0-3.8-.6-5.2-1.9-1.4-1.3-2-3.2-2-5.8l.1-12.6h-3.7v-1l6.7-6.1h.9l-.1 4.6h7.9v2.6h-7.9l-.1 11.7c0 1.8.4 3.2 1.2 4.1.8.9 1.9 1.3 3.3 1.3.8 0 1.6-.2 2.3-.5.7-.3 1.3-.7 1.9-1.3l.9 1.4zM161.4 224.7c-2 0-3.8-.5-5.4-1.4-1.6-.9-2.9-2.2-3.9-3.9-1-1.7-1.4-3.7-1.4-6 0-2.5.5-4.7 1.5-6.5 1-1.8 2.3-3.2 4-4.2 1.6-1 3.4-1.4 5.3-1.4 2.7 0 4.8.9 6.3 2.7 1.5 1.8 2.3 4.3 2.3 7.5v.9h-15c.1 2.8.8 4.9 2.2 6.5 1.4 1.5 3.2 2.3 5.4 2.3 1.3 0 2.4-.2 3.4-.7 1-.5 1.9-1.3 2.8-2.4l1.3 1.2c-1 1.8-2.3 3.2-3.7 4-1.6 1-3.3 1.4-5.1 1.4zm-.4-21.2c-1.4 0-2.7.6-3.8 1.7-1.2 1.1-1.9 2.8-2.1 5.1h11.1v-.4c0-2-.5-3.6-1.4-4.7-.9-1.1-2.2-1.7-3.8-1.7zM173.8 224.3l-.1-1.8 3.2-.8c0-.2.1-.8.1-1.7 0-.9.1-2.2.1-3.9l.1-4.1c0-1.2 0-2.3-.1-3.5-.1-1.2-.2-2-.3-2.6l-3.4-.7v-1.7l6.9-1.9.7.7-.2 4.3.2.1c1-2 2.1-3.3 3.2-4.1 1.1-.7 2.1-1.1 3-1.1.8 0 1.5.2 2 .6.5.4.8 1 .8 1.8s-.3 1.4-.8 1.8c-.6.4-1.3.6-2.1.6-1 0-1.9-.3-2.8-1-1.3.9-2.3 2.4-3.2 4.5l.1 4.9c0 1.3.1 2.6.2 4s.1 2.4.2 3l4.6.7-.1 1.9h-12.3zM192 233.4l-.7-1.5c1.3-.6 2.4-1.3 3.1-2.2.8-.9 1.1-1.9 1.1-3.1 0-.7-.1-1.2-.4-1.6-.3-.4-.6-.7-.9-1-.3-.3-.7-.6-.9-1-.3-.4-.4-.9-.4-1.6 0-.7.3-1.4.8-1.9s1.2-.8 2.1-.8c.9 0 1.7.4 2.4 1.1.7.8 1.1 1.9 1.1 3.5 0 1.4-.3 2.7-.9 4-.6 1.3-1.5 2.5-2.6 3.6-1.2 1.1-2.4 1.9-3.8 2.5zM213.6 224.3l-.1-1.8 3.2-.8c0-.3.1-.9.1-1.6 0-.7.1-2.1.1-4l.1-4.1c0-1.1 0-2.3-.1-3.4-.1-1.2-.2-2.1-.3-2.6l-3.4-.7v-1.7l6.9-1.9.8.8-.3 2.9.2.1c1.1-1.4 2.2-2.3 3.4-2.9 1.2-.6 2.3-.9 3.6-.9 1.2 0 2.4.3 3.6 1 1.2.7 2.2 1.8 2.9 3.2 1.2-1.5 2.4-2.6 3.7-3.3 1.3-.7 2.7-1 4.1-1 1.4 0 2.7.3 3.9 1 1.2.7 2.1 1.7 2.9 3 .7 1.3 1.1 2.9 1.1 4.8l-.1 5.9c0 1.3 0 2.4.1 3.4s.1 1.7.2 2.1l3.2.8-.2 1.8H243l-.1-1.8 2.9-.8c0-.4.1-1 .1-1.7.1-.8.1-1.9.1-3.4l.1-5.8c0-1.6-.3-2.8-.8-3.7-.5-.9-1.2-1.6-2-2-.8-.4-1.6-.6-2.4-.6-2.3 0-4.3 1.1-5.9 3.3.2.9.3 1.9.3 2.9l.1 5.5c0 1.3 0 2.4.1 3.4s.1 1.7.2 2.1l3.1.8-.1 1.8h-10.1l-.2-1.8 2.9-.8c.1-.4.1-1 .2-1.7 0-.8.1-1.9.1-3.4v-5.8c0-2.3-.5-3.9-1.6-4.8-1.1-1-2.2-1.4-3.5-1.4-1.1 0-2.1.3-3.1.8s-1.8 1.3-2.6 2.5v7.9c0 1.6 0 3 .1 4s.1 1.7.2 2.1l3.1.8-.2 1.8h-10.4zM279.5 201.8l.1 1.8-2.5.8-8.9 18.8-4.2 8.7c-.8 1.6-1.6 2.7-2.4 3.4-.8.7-1.8 1-2.9 1-.8 0-1.5-.2-2.1-.6-.5-.4-.8-.9-.8-1.6 0-.5.2-1 .6-1.4.4-.5 1-.8 1.9-1l3.6-1.1 3.7-7.1-8.6-18.9-2.5-.8.1-1.8h9.9l.2 1.8-3.2.8 6.4 14.4 6.1-14.4-3.2-.8.2-1.8h8.5zM289.3 224.7c-1.3 0-2.6-.1-3.9-.4-1.3-.3-2.4-.7-3.3-1.2l-.3-5.6h2.5l1 3.8c1.2.8 2.5 1.3 4.2 1.3 1.2 0 2.2-.3 2.9-.9.8-.6 1.2-1.4 1.2-2.4 0-.9-.3-1.7-1-2.4s-2-1.4-3.9-2.3c-2.4-1.1-4.2-2.1-5.2-3.1s-1.5-2.3-1.5-3.8c0-1.8.8-3.3 2.4-4.5 1.6-1.2 3.7-1.8 6.2-1.8 1 0 2 .1 3 .2s1.8.4 2.5.7l.6 5.4h-2.4l-1.3-3.5c-.8-.5-1.7-.7-2.8-.7-1.3 0-2.3.3-3 .9-.8.6-1.1 1.3-1.1 2.3 0 1 .4 1.9 1.2 2.5.8.6 2.2 1.5 4.3 2.4 2.3 1 3.9 2.1 4.8 3.1.9 1 1.4 2.2 1.4 3.6 0 1.9-.8 3.4-2.4 4.6-1.6 1.2-3.7 1.8-6.1 1.8zM317.9 221.2c-.7 1.1-1.6 2-2.7 2.6-1.1.6-2.3.9-3.5.9-2.1 0-3.8-.6-5.2-1.9-1.4-1.3-2-3.2-2-5.8l.1-12.6h-3.7v-1l6.7-6.1h.9l-.1 4.6h7.9v2.6h-7.9l-.1 11.7c0 1.8.4 3.2 1.2 4.1.8.9 1.9 1.3 3.3 1.3.8 0 1.6-.2 2.3-.5.7-.3 1.3-.7 1.9-1.3l.9 1.4zM319.1 224.3l-.1-1.9 3.5-.7c0-.2.1-.6.1-1.4 0-.7.1-2.1.1-4.2v-3.5c0-1.5 0-2.8-.1-4-.1-1.2-.2-2.1-.3-2.7l-3.5-.7v-1.7l7.3-1.9.7.7c-.1 1.1-.2 2.1-.2 3.2-.1 1-.1 2.3-.1 3.7v6.6c0 1.6 0 3 .1 4.1.1 1.1.1 1.7.2 2l3.5.7-.1 1.9h-11.1zm5.5-28.9c-.9 0-1.6-.3-2.2-.8-.6-.6-.9-1.3-.9-2.1s.3-1.5.9-2.1c.6-.6 1.4-.9 2.2-.9.9 0 1.6.3 2.2.9.6.6.9 1.3.9 2.1 0 .9-.3 1.6-.9 2.1-.6.6-1.3.8-2.2.8zM344.5 224.7c-2 0-3.8-.4-5.4-1.3-1.6-.9-2.9-2.2-3.9-3.8-1-1.7-1.5-3.7-1.5-6.1 0-2.3.5-4.3 1.5-6.1 1-1.8 2.4-3.3 4.2-4.3 1.8-1.1 3.8-1.6 6-1.6 2.3 0 4 .4 5.2 1.2 1.2.8 1.8 1.7 1.8 2.7 0 .6-.2 1.1-.5 1.4-.3.3-.8.5-1.4.5-.6 0-1-.1-1.4-.3-.4-.2-.9-.6-1.5-1.3l-2.3-2.3c-1.3 0-2.4.3-3.5 1s-2 1.7-2.7 3c-.7 1.3-1 3-1 5.1 0 2.8.7 5 2.1 6.5 1.4 1.5 3.2 2.3 5.3 2.3 1.4 0 2.5-.2 3.5-.7 1-.5 1.9-1.3 2.8-2.4l1.4 1.2c-1.9 3.6-4.8 5.3-8.7 5.3zM355.9 233.4l-.7-1.5c1.3-.6 2.4-1.3 3.1-2.2.8-.9 1.1-1.9 1.1-3.1 0-.7-.1-1.2-.4-1.6-.3-.4-.6-.7-.9-1-.3-.3-.7-.6-.9-1-.3-.4-.4-.9-.4-1.6 0-.7.3-1.4.8-1.9s1.2-.8 2.1-.8c.9 0 1.7.4 2.4 1.1.7.8 1.1 1.9 1.1 3.5 0 1.4-.3 2.7-.9 4-.6 1.3-1.5 2.5-2.6 3.6-1.2 1.1-2.4 1.9-3.8 2.5zM393.7 221.2c-.7 1.1-1.6 2-2.7 2.6-1.1.6-2.3.9-3.5.9-2.1 0-3.8-.6-5.2-1.9-1.4-1.3-2-3.2-2-5.8l.1-12.6h-3.7v-1l6.7-6.1h.9l-.1 4.6h7.9v2.6h-7.9l-.1 11.7c0 1.8.4 3.2 1.2 4.1.8.9 1.9 1.3 3.3 1.3.8 0 1.6-.2 2.3-.5.7-.3 1.3-.7 1.9-1.3l.9 1.4zM395.2 224.3l-.1-1.8 3.2-.8c0-.2.1-.8.1-1.7 0-.9.1-2.2.1-3.9l.1-4.1c0-1.2 0-2.3-.1-3.5-.1-1.2-.2-2-.3-2.6l-3.4-.7v-1.7l6.9-1.9.7.7-.2 4.3.2.1c1-2 2.1-3.3 3.2-4.1 1.1-.7 2.1-1.1 3-1.1.8 0 1.5.2 2 .6.5.4.8 1 .8 1.8s-.3 1.4-.8 1.8c-.6.4-1.3.6-2.1.6-1 0-1.9-.3-2.8-1-1.3.9-2.3 2.4-3.2 4.5l.1 4.9c0 1.3.1 2.6.2 4s.1 2.4.2 3l4.6.7-.1 1.9h-12.3zM421.5 224.7c-1.4 0-2.6-.3-3.7-.8-1.1-.6-1.9-1.3-2.5-2.1-.6-.9-.9-1.8-.9-2.7 0-1.2.4-2.1 1.1-2.9.8-.8 2-1.4 3.8-2l8-2.7v-2.7c0-1.3-.6-2.4-1.7-3.4-1.2-.9-2.5-1.4-4.2-1.4-.9 0-1.5.2-1.8.6-.3.4-.5 1.1-.5 2.2l-.2 2c-1.2.3-2.2.3-3.1-.1-.9-.4-1.3-1-1.3-1.8 0-.7.4-1.5 1.3-2.3.9-.8 1.9-1.5 3.2-2.1 1.3-.6 2.5-1 3.7-1.2 2.5 0 4.6.7 6.2 2 1.6 1.3 2.3 3.1 2.3 5.3l-.1 8.9c0 .6 0 1.3.1 1.9.1.6.1 1.1.2 1.4l3.4.6v1.6l-2.5.9c-.5.2-.9.3-1.3.4-.4.1-.7.2-1 .2-1 0-1.7-.6-2-1.8l-.3-1.4c-2.2 2.4-4.2 3.4-6.2 3.4zm1.4-3c1.6 0 3.1-.8 4.5-2.3v-5.6l-6.1 1.7c-1.6.4-2.4 1.3-2.4 2.7 0 .9.4 1.7 1.2 2.4.8.8 1.7 1.1 2.8 1.1zM447.3 224.5l-9.2-20.1-2.5-.8.1-1.8h9.9l.2 1.8-3.2.8L449 219l6-14.6-3.2-.8.2-1.8h8.5l.1 1.8-2.5.8-9.4 20.1h-1.4zM472.9 224.7c-2 0-3.8-.5-5.4-1.4-1.6-.9-2.9-2.2-3.9-3.9-1-1.7-1.4-3.7-1.4-6 0-2.5.5-4.7 1.5-6.5 1-1.8 2.3-3.2 4-4.2 1.6-1 3.4-1.4 5.3-1.4 2.7 0 4.8.9 6.3 2.7 1.5 1.8 2.3 4.3 2.3 7.5v.9h-15c.1 2.8.8 4.9 2.2 6.5 1.4 1.5 3.2 2.3 5.4 2.3 1.3 0 2.4-.2 3.4-.7 1-.5 1.9-1.3 2.8-2.4l1.3 1.2c-1 1.8-2.3 3.2-3.7 4-1.7 1-3.3 1.4-5.1 1.4zm-.4-21.2c-1.4 0-2.7.6-3.8 1.7-1.2 1.1-1.9 2.8-2.1 5.1h11.1v-.4c0-2-.5-3.6-1.4-4.7-1-1.1-2.2-1.7-3.8-1.7zM485 224.3l-.1-1.9 3.4-.7c.1-.6.1-1.6.2-3.1s.1-3.8.1-6.8v-6.5-4.1c0-1.4 0-2.8-.1-4 0-1.3 0-2.3-.1-3.2 0-.9 0-1.5-.1-1.8l-3.9-.5-.1-1.6 7.3-2.1 1 .7c0 1.5-.1 3-.1 4.4 0 1.4-.1 3.1-.1 4.9v6.4l-.1 8.5c0 2 0 3.9.1 5.5.1 1.7.1 2.7.2 3.2l3.4.7-.1 1.9H485zM498.9 224.3l-.1-1.9 3.4-.7c.1-.6.1-1.6.2-3.1s.1-3.8.1-6.8v-6.5-4.1c0-1.4 0-2.8-.1-4 0-1.3 0-2.3-.1-3.2 0-.9 0-1.5-.1-1.8l-3.9-.5-.1-1.6 7.3-2.1 1 .7c0 1.5-.1 3-.1 4.4 0 1.4-.1 3.1-.1 4.9v6.4l-.1 8.5c0 2 0 3.9.1 5.5.1 1.7.1 2.7.2 3.2l3.4.7-.1 1.9h-10.9zM524.2 224.7c-2 0-3.8-.5-5.4-1.4-1.6-.9-2.9-2.2-3.9-3.9-1-1.7-1.4-3.7-1.4-6 0-2.5.5-4.7 1.5-6.5 1-1.8 2.3-3.2 4-4.2 1.6-1 3.4-1.4 5.3-1.4 2.7 0 4.8.9 6.3 2.7 1.5 1.8 2.3 4.3 2.3 7.5v.9h-15c.1 2.8.8 4.9 2.2 6.5 1.4 1.5 3.2 2.3 5.4 2.3 1.3 0 2.4-.2 3.4-.7 1-.5 1.9-1.3 2.8-2.4l1.3 1.2c-1 1.8-2.3 3.2-3.7 4-1.6 1-3.2 1.4-5.1 1.4zm-.4-21.2c-1.4 0-2.7.6-3.8 1.7-1.2 1.1-1.9 2.8-2.1 5.1H529v-.4c0-2-.5-3.6-1.4-4.7-.9-1.1-2.2-1.7-3.8-1.7zM536.6 224.3l-.1-1.8 3.2-.8c0-.2.1-.8.1-1.7 0-.9.1-2.2.1-3.9l.1-4.1c0-1.2 0-2.3-.1-3.5-.1-1.2-.2-2-.3-2.6l-3.4-.7v-1.7l6.9-1.9.7.7-.2 4.3.2.1c1-2 2.1-3.3 3.2-4.1 1.1-.7 2.1-1.1 3-1.1.8 0 1.5.2 2 .6.5.4.8 1 .8 1.8s-.3 1.4-.8 1.8c-.6.4-1.3.6-2.1.6-1 0-1.9-.3-2.8-1-1.3.9-2.3 2.4-3.2 4.5l.1 4.9c0 1.3.1 2.6.2 4s.1 2.4.2 3l4.6.7-.1 1.9h-12.3zM558.7 224.8c-.9 0-1.7-.3-2.3-.9-.6-.6-.9-1.3-.9-2.2 0-.9.3-1.6.9-2.2.6-.6 1.4-.9 2.3-.9.9 0 1.7.3 2.3.9.6.6.9 1.3.9 2.2 0 .9-.3 1.6-.9 2.2-.7.6-1.4.9-2.3.9z" class="st1"/></g><g id="Contacts"><path d="M64.4 396.5c-1.6 0-2.9-.3-3.9-1S59 394 59 393.1c0-.9.4-1.8 1.1-2.5.8 1 1.7 1.8 2.7 2.5 1 .7 1.9 1 2.7 1 1.4 0 2.1-.7 2.1-2 0-.5-.2-.9-.5-1.4-.4-.5-1.1-1.1-2.2-1.9-1.4-1-2.3-1.9-2.8-2.6-.5-.8-.8-1.6-.8-2.5 0-1.2.3-2.2 1-3.1.7-.9 1.6-1.6 2.7-2.2 1.1-.5 2.3-.8 3.7-.8 1.3 0 2.4.2 3.4.8 1 .5 1.5 1.2 1.5 2.2 0 .5-.1.9-.2 1.3-.2.4-.4.7-.7 1-1.8-2-3.3-3-4.8-3-.7 0-1.2.2-1.6.6-.4.4-.6.9-.6 1.5 0 .5.2 1 .6 1.4.4.5 1.2 1.1 2.4 2.1 1.3 1 2.2 1.8 2.7 2.5s.7 1.4.7 2.3c0 1.1-.3 2.2-1 3.1-.7.9-1.6 1.7-2.7 2.2-1.4.6-2.6.9-4 .9zM81 396.5c-1.9 0-3.4-.6-4.6-1.8-1.2-1.2-1.7-2.8-1.7-4.8 0-1.6.3-3.1.8-4.6.6-1.5 1.3-2.8 2.3-4 1-1.2 2.1-2.1 3.4-2.8 1.3-.7 2.6-1 4-1 1.9 0 3.4.6 4.6 1.8 1.2 1.2 1.8 2.8 1.8 4.8 0 1.6-.3 3.1-.8 4.6-.6 1.5-1.3 2.8-2.3 3.9-1 1.2-2.1 2.1-3.4 2.8-1.3.7-2.6 1.1-4.1 1.1zm1.1-2.4c.9 0 1.7-.4 2.4-1.3s1.2-2.1 1.6-3.5c.4-1.5.6-3.1.6-4.8 0-1.4-.2-2.5-.7-3.3s-1-1.3-1.8-1.3c-.9 0-1.7.5-2.4 1.4-.7.9-1.2 2.1-1.6 3.6-.4 1.5-.6 3.1-.6 4.8 0 1.4.2 2.6.7 3.4.5.6 1.1 1 1.8 1zM103.3 380.1c-.8 0-1.5.4-2.2 1.2s-1.3 1.8-1.7 3.2c-.4 1.3-.6 2.8-.6 4.5 0 1.3.3 2.3.9 3 .6.7 1.3 1 2.2 1 .6 0 1.4-.2 2.3-.7.9-.4 1.8-1.2 2.7-2.2l1.2 1.7c-1.1 1.6-2.4 2.7-3.9 3.5-1.4.8-2.7 1.2-3.9 1.2-1.9 0-3.4-.6-4.6-1.8-1.2-1.2-1.9-2.8-1.9-4.8 0-1.5.3-3 .8-4.5s1.3-2.8 2.3-4c1-1.2 2.1-2.1 3.5-2.8s2.8-1 4.4-1c1.3 0 2.3.3 3.1.8.8.5 1.2 1.3 1.2 2.2 0 .5-.1.9-.3 1.3s-.4.8-.8 1.1c-.8-.9-1.6-1.6-2.4-2.2-.8-.4-1.6-.7-2.3-.7zM113.2 396.5c-1.4 0-2.2-.8-2.2-2.3 0-.4.1-1.1.3-2 .2-.9.5-1.9.8-3 .3-1.1.6-2.2 1-3.3.3-1.1.6-2.1.8-3 .2-.9.3-1.6.3-2.1-.6.3-1.1.8-1.7 1.3-.6.5-1.1 1.2-1.7 2l-1.2-1.5c1-1.4 2.2-2.5 3.5-3.5 1.3-1 2.5-1.5 3.6-1.5 1.4 0 2.2.8 2.2 2.3 0 .4-.1 1.1-.3 2-.2.9-.5 1.9-.8 3-.3 1.1-.7 2.2-1 3.3-.3 1.1-.6 2.1-.8 3-.2.9-.3 1.6-.3 2 .6-.3 1.1-.8 1.7-1.3.5-.5 1.1-1.1 1.7-1.9l1.2 1.4c-1.1 1.4-2.2 2.6-3.5 3.5-1.3 1.1-2.5 1.6-3.6 1.6zm4.9-22.7c-.9 0-1.5-.2-2-.8-.5-.5-.7-1.1-.7-1.9 0-.9.3-1.7 1-2.4.6-.7 1.4-1 2.4-1 .8 0 1.5.2 1.9.7.5.5.7 1.1.7 1.8 0 1-.3 1.8-.9 2.5-.6.8-1.4 1.1-2.4 1.1zM125.9 396.5c-1.1 0-2-.4-2.6-1.3-.6-.8-1-2-1-3.3 0-2 .4-3.8 1.1-5.5.7-1.7 1.6-3.2 2.8-4.5 1.2-1.3 2.4-2.3 3.8-3.1s2.7-1.1 4.1-1.1c.6 0 1.2.1 1.7.4.5.3 1 .6 1.4 1.1l1.3-1.2h2.9c-.4 1.3-.8 2.7-1.3 4.2l-1.2 4.5c-.4 1.5-.7 2.8-.9 3.9-.2 1.2-.3 2.1-.3 2.7.6-.3 1.1-.8 1.7-1.3.5-.5 1.1-1.1 1.6-1.9l1.2 1.4c-1 1.4-2.2 2.6-3.5 3.5-1.3 1-2.5 1.4-3.6 1.4-1.3 0-2-.7-2-2.1 0-.5.1-1.3.3-2.3.2-1 .6-2.5 1.1-4.3-1.3 2.7-2.6 4.9-4.2 6.4-1.4 1.6-2.9 2.4-4.4 2.4zm1.3-5.7c0 1.4.3 2 .9 2 .4 0 .9-.3 1.5-1 .7-.7 1.4-1.6 2.2-2.8.8-1.2 1.5-2.4 2.3-3.9s1.4-2.9 1.9-4.4c-.4-.3-.8-.5-1.3-.6-.5-.1-.9-.2-1.4-.2-1.1 0-2.2.5-3.1 1.5-.9 1-1.7 2.3-2.2 3.9s-.8 3.6-.8 5.5zM146.3 396.5c-1.4 0-2.1-.7-2.1-2 0-.4 0-.7.1-1.1.1-.4.2-1 .4-1.8s.5-2.1.9-3.9l4.1-16.7-3-.4.3-1.5 7.4-2 .8.7c-.4 1.5-.8 3-1.2 4.3-.3 1.3-.7 2.7-1 4l-3 11.9c-.3 1.2-.5 2.3-.7 3.3-.2 1-.3 1.7-.3 2 .6-.3 1.1-.8 1.7-1.3.5-.5 1.1-1.1 1.6-1.9l1.2 1.4c-1 1.4-2.2 2.6-3.5 3.5-1.3 1-2.5 1.5-3.7 1.5zM158.6 396.6c-.9 0-1.7-.3-2.4-.9-.7-.6-1-1.4-1-2.3 0-.9.3-1.7 1-2.4s1.5-1 2.4-1c.9 0 1.7.3 2.4 1s1 1.5 1 2.4c0 .9-.3 1.7-1 2.3-.7.5-1.5.9-2.4.9zm2.6-12.4c-.9 0-1.7-.3-2.4-.9-.7-.6-1-1.4-1-2.4s.3-1.7 1-2.4c.7-.6 1.5-1 2.4-1 1 0 1.8.3 2.4 1 .7.6 1 1.4 1 2.4s-.3 1.7-1 2.4c-.7.6-1.5.9-2.4.9zM193.8 405.6c-3.5 0-6.6-.6-9.3-1.9-2.7-1.3-4.9-3.1-6.4-5.6-1.6-2.5-2.3-5.5-2.3-9 0-2.6.5-5.1 1.4-7.2.9-2.2 2.3-4.1 4-5.7 1.7-1.6 3.8-2.8 6.2-3.7 2.4-.9 5-1.3 7.9-1.3 3 0 5.7.5 8.1 1.5 2.4 1 4.3 2.5 5.8 4.5 1.4 2 2.1 4.4 2.1 7.2 0 1.6-.3 3.1-.9 4.6-.6 1.4-1.5 2.7-2.5 3.8-1.1 1.1-2.3 2-3.6 2.6-1.3.6-2.7.9-4.1.9-.7 0-1.3-.1-1.6-.4-.4-.3-.6-.7-.8-1.2l-.3-1.1c-1.6 1.8-3.2 2.7-4.8 2.7-1.3 0-2.3-.3-3.2-.8-.9-.5-1.6-1.2-2.1-1.9-.5-.8-.7-1.5-.7-2.2 0-1 .3-1.8.9-2.5.6-.6 1.6-1.2 2.9-1.6l6.5-2v-1.7c0-.6-.2-1.2-.6-1.7-.4-.5-.9-1-1.5-1.3-.6-.3-1.3-.5-2-.5-.6 0-.9.1-1.1.4s-.3.7-.4 1.4l-.2 2.3c-.5.1-1 .2-1.5.2-.9 0-1.6-.2-2.1-.5s-.8-.8-.8-1.5c0-.5.2-1 .8-1.5.5-.5 1.1-1 1.9-1.5s1.6-.9 2.4-1.2c.8-.3 1.6-.5 2.3-.6 2.3 0 4.2.6 5.6 1.7 1.4 1.1 2.1 2.6 2.1 4.5l-.1 7.4c0 1.4.1 2.3.3 2.9 1 0 1.9-.4 2.8-1.1.9-.7 1.6-1.8 2.2-3.2.6-1.4.8-3.1.8-5.2 0-2.6-.5-4.6-1.5-6.3-1-1.6-2.5-2.8-4.3-3.6-1.9-.8-4-1.1-6.5-1.1-3.1 0-5.8.6-8 1.9-2.2 1.2-3.9 3-5.1 5.3-1.2 2.3-1.8 5-1.8 8.1 0 3.2.6 5.9 1.7 8 1.1 2.2 2.7 3.8 4.8 4.9 2.1 1.1 4.5 1.6 7.3 1.6 1.3 0 2.5-.1 3.6-.4 1.2-.2 2.2-.5 3.1-.9l.7 2c-2.7 1-5.3 1.5-8.1 1.5zm.5-12.5c1 0 1.8-.4 2.5-1.2v-4.2l-3.4.8c-1.3.2-1.9.9-1.9 2 0 .7.3 1.3.8 1.8.6.5 1.2.8 2 .8zM225 396.1h-10.8l-.1-1.8 2.6-.7c0-.5 0-1 .1-1.5V390v-9.5h-3v-1.8l3-.8v-1.6c0-1.8.3-3.4 1-4.8s1.5-2.5 2.7-3.3c1.1-.8 2.4-1.2 3.9-1.2 1.3 0 2.4.3 3.3.8s1.3 1.2 1.3 2.1c0 .5-.2.9-.5 1.2s-.8.4-1.3.4c-.8 0-1.5-.3-2.3-1l-1.7-1.6c-1.2.7-1.8 2.6-1.8 5.7v3.3h4.5v2.5h-4.5v5.7c0 1.3 0 2.7.1 4.1 0 1.4.1 2.5.1 3.4l3.4.7v1.8zM234.3 396.5c-1.3 0-2.3-.3-3.2-.8-.9-.5-1.6-1.2-2.1-1.9s-.7-1.5-.7-2.2c0-1 .3-1.8.9-2.5.6-.6 1.6-1.2 2.9-1.6l6.5-2v-1.7c0-.6-.2-1.2-.6-1.7-.4-.5-.9-1-1.5-1.3s-1.3-.5-2.1-.5c-.5 0-.9.1-1.1.4s-.3.7-.4 1.4l-.2 2.3c-1.3.3-2.3.2-3.1-.1-.8-.3-1.2-.9-1.2-1.7 0-.5.2-1 .8-1.5.5-.5 1.1-1 1.9-1.5.8-.5 1.6-.9 2.4-1.2.8-.3 1.6-.5 2.3-.6 2.4 0 4.2.6 5.6 1.7 1.4 1.1 2.1 2.6 2.1 4.5l-.1 6.1c0 1.4.1 2.3.3 2.9l2.7.5v1.6l-2.5 1c-.9.4-1.7.6-2.4.6-1 0-1.7-.5-2.1-1.6l-.4-1.1c-1.6 1.6-3.2 2.5-4.7 2.5zm1.8-3.4c1 0 1.8-.4 2.5-1.2v-4.2l-3.4.8c-1.3.2-1.9.9-1.9 2 0 .7.3 1.3.8 1.8.6.5 1.3.8 2 .8zM249.8 395c.1-1.4.1-2.7.1-4.1V381v-4.4c0-1.4 0-2.6-.1-3.5 0-1-.1-1.7-.1-2.1l-3.1-.4-.1-1.6 7.3-1.9 1 .7c-.1 1.1-.1 2.3-.1 3.4s-.1 2.5-.1 3.9c0 1.5-.1 3.3-.1 5.5h.1c.6-.8 1.4-1.6 2.4-2.2s2.1-.9 3.3-.9c1.4 0 2.6.3 3.8 1 1.2.7 2.1 1.6 2.9 2.9.7 1.3 1.1 2.8 1.1 4.6 0 1.9-.5 3.7-1.4 5.3-.9 1.6-2.2 2.8-3.9 3.7-1.6.9-3.6 1.4-5.8 1.4-1.3 0-2.5-.1-3.8-.4-1.1-.2-2.3-.6-3.4-1zm8.3-1.3c1.4 0 2.6-.5 3.5-1.6.9-1.1 1.4-2.7 1.4-4.9 0-2.1-.5-3.6-1.4-4.6-1-1-2.1-1.4-3.4-1.4-.7 0-1.3.1-2 .4-.7.3-1.2.7-1.6 1.3v9.6c.4.3 1 .6 1.6.8s1.3.4 1.9.4zM270.4 396.1l-.1-1.8 2.8-.6c.1-.4.2-1.8.2-4.3v-3.2c0-1.7-.1-3.2-.4-4.5l-2.8-.6v-1.7l7.2-1.8 1 .7c-.1.9-.1 1.7-.2 2.6 0 .9-.1 1.9-.1 3v5.3c0 1 0 2 .1 2.8 0 .8.1 1.4.2 1.6l2.8.6-.1 1.8h-10.6zm5.3-22.3c-1 0-1.8-.3-2.4-.9-.6-.6-.9-1.3-.9-2.1s.3-1.5.9-2.1c.6-.6 1.4-.9 2.4-.9s1.8.3 2.3.9.8 1.3.8 2.1-.3 1.6-.8 2.1c-.5.6-1.3.9-2.3.9zM292.7 396.5c-1.9 0-3.6-.4-5-1.2-1.4-.8-2.6-1.9-3.4-3.3-.8-1.4-1.2-3-1.2-4.8 0-2 .5-3.7 1.4-5.1.9-1.4 2.1-2.5 3.6-3.3 1.5-.8 3.1-1.1 4.8-1.1 1.8 0 3.4.4 4.8 1.2s2.4 1.9 3.2 3.3c.8 1.4 1.1 3 1.1 4.8 0 1.8-.4 3.4-1.3 4.9-.8 1.5-2 2.6-3.4 3.5-1.3.6-2.9 1.1-4.6 1.1zm.4-2.5c1.2 0 2.1-.5 2.8-1.6.7-1.1 1-2.6 1-4.4 0-2.4-.4-4.3-1.3-5.8-.8-1.5-2-2.3-3.3-2.3-1.2 0-2.1.6-2.9 1.7-.7 1.1-1.1 2.7-1.1 4.5 0 1.5.2 2.8.6 4s1 2.1 1.7 2.8c.8.8 1.6 1.1 2.5 1.1zM304.4 396.1l-.1-1.8 2.6-.7c.1-.4.2-1.8.2-4.3v-3.2c0-1.7-.1-3.2-.4-4.5l-2.7-.6v-1.7l6.8-1.8 1 .7-.2 2.3h.1c.9-1.1 1.8-1.9 2.7-2.4 1-.5 2-.8 3-.8s2 .3 3 .8c.9.5 1.7 1.3 2.3 2.5.9-1.1 1.9-1.9 2.9-2.4 1-.6 2.1-.8 3.3-.8 1.9 0 3.5.7 4.7 2 1.2 1.3 1.8 3.1 1.8 5.4v4.4c0 .9 0 1.8.1 2.6 0 .8.1 1.4.2 1.6l2.6.7-.1 1.8h-9.7l-.1-1.8 2.3-.7c.1-.3.1-.9.1-1.7 0-.8.1-1.6.1-2.5v-3.9c0-1.7-.4-2.8-1.1-3.5-.7-.7-1.6-1-2.6-1-1.5 0-2.8.6-3.8 1.9.1.7.2 1.4.2 2.1l.1 4.3v2.6c0 .8.1 1.4.2 1.6l2.4.7-.1 1.8h-9.4l-.1-1.8 2.2-.7c.1-.3.1-.9.1-1.6 0-.8.1-1.6.1-2.5v-4.1c0-1.6-.3-2.7-1-3.4-.7-.7-1.5-1-2.5-1-.7 0-1.4.2-2 .5s-1.2.9-1.7 1.5v6.2c0 1 0 2 .1 2.8 0 .8.1 1.4.2 1.6l2.4.7-.1 1.8h-10.1zM340 396.1l-.1-1.8 2.6-.7c.1-.4.2-1.8.2-4.3v-3.2c0-1.7-.1-3.2-.4-4.5l-2.7-.6v-1.7l6.7-1.8 1 .7-.2 3.3h.1c.8-1.6 1.6-2.6 2.4-3.2.8-.6 1.7-.8 2.5-.8.7 0 1.3.2 1.8.6.5.4.8 1 .8 1.8s-.3 1.5-.8 1.9c-.6.4-1.2.6-2 .6-.5 0-1-.1-1.4-.2-.4-.1-.9-.4-1.3-.8-.8.7-1.4 1.6-1.9 2.7v3.5c0 1.4.1 2.6.1 3.7s.1 1.8.1 2.1l3.6.6-.1 1.9h-11zM358.2 395c.1-1.4.1-2.7.1-4.1V381v-4.4c0-1.4 0-2.6-.1-3.5 0-1-.1-1.7-.1-2.1l-3.1-.4V369l7.3-1.9 1 .7c-.1 1.1-.1 2.3-.1 3.4s-.1 2.5-.1 3.9c0 1.5-.1 3.3-.1 5.5h.1c.6-.8 1.4-1.6 2.4-2.2s2.1-.9 3.3-.9c1.4 0 2.6.3 3.8 1 1.2.7 2.1 1.6 2.9 2.9.7 1.3 1.1 2.8 1.1 4.6 0 1.9-.5 3.7-1.4 5.3-.9 1.6-2.2 2.8-3.9 3.7-1.6.9-3.6 1.4-5.8 1.4-1.3 0-2.5-.1-3.8-.4-1.2-.2-2.4-.6-3.5-1zm8.3-1.3c1.4 0 2.6-.5 3.5-1.6.9-1.1 1.4-2.7 1.4-4.9 0-2.1-.5-3.6-1.4-4.6-1-1-2.1-1.4-3.4-1.4-.7 0-1.3.1-2 .4-.7.3-1.2.7-1.6 1.3v9.6c.4.3 1 .6 1.6.8s1.3.4 1.9.4zM385.9 396.5c-1.3 0-2.3-.3-3.2-.8-.9-.5-1.6-1.2-2.1-1.9s-.7-1.5-.7-2.2c0-1 .3-1.8.9-2.5.6-.6 1.6-1.2 2.9-1.6l6.5-2v-1.7c0-.6-.2-1.2-.6-1.7-.4-.5-.9-1-1.5-1.3s-1.3-.5-2.1-.5c-.5 0-.9.1-1.1.4s-.3.7-.4 1.4l-.2 2.3c-1.3.3-2.3.2-3.1-.1-.8-.3-1.2-.9-1.2-1.7 0-.5.2-1 .8-1.5.5-.5 1.1-1 1.9-1.5.8-.5 1.6-.9 2.4-1.2.8-.3 1.6-.5 2.3-.6 2.4 0 4.2.6 5.6 1.7 1.4 1.1 2.1 2.6 2.1 4.5l-.1 6.1c0 1.4.1 2.3.3 2.9l2.7.5v1.6l-2.5 1c-.9.4-1.7.6-2.4.6-1 0-1.7-.5-2.1-1.6l-.4-1.1c-1.7 1.6-3.2 2.5-4.7 2.5zm1.8-3.4c1 0 1.8-.4 2.5-1.2v-4.2l-3.4.8c-1.3.2-1.9.9-1.9 2 0 .7.3 1.3.8 1.8.6.5 1.2.8 2 .8zM399.3 396.1l-.1-1.8 2.6-.7c.1-.4.2-1.8.2-4.3v-3.2c0-1.7-.1-3.2-.4-4.5l-2.7-.6v-1.7l6.7-1.8 1 .7-.2 3.3h.1c.8-1.6 1.6-2.6 2.4-3.2.8-.6 1.7-.8 2.5-.8.7 0 1.3.2 1.8.6.5.4.8 1 .8 1.8s-.3 1.5-.8 1.9c-.6.4-1.2.6-2 .6-.5 0-1-.1-1.4-.2-.4-.1-.9-.4-1.3-.8-.8.7-1.4 1.6-1.9 2.7v3.5c0 1.4.1 2.6.1 3.7s.1 1.8.1 2.1l3.6.6-.1 1.9h-11zM417.6 395c.1-1.4.1-2.7.1-4.1V381v-4.4c0-1.4 0-2.6-.1-3.5 0-1-.1-1.7-.1-2.1l-3.1-.4-.1-1.6 7.3-1.9 1 .7c-.1 1.1-.1 2.3-.1 3.4s-.1 2.5-.1 3.9c0 1.5-.1 3.3-.1 5.5h.1c.6-.8 1.4-1.6 2.4-2.2s2.1-.9 3.3-.9c1.4 0 2.6.3 3.8 1 1.2.7 2.1 1.6 2.9 2.9.7 1.3 1.1 2.8 1.1 4.6 0 1.9-.5 3.7-1.4 5.3-.9 1.6-2.2 2.8-3.9 3.7-1.6.9-3.6 1.4-5.8 1.4-1.3 0-2.5-.1-3.8-.4-1.1-.2-2.3-.6-3.4-1zm8.3-1.3c1.4 0 2.6-.5 3.5-1.6.9-1.1 1.4-2.7 1.4-4.9 0-2.1-.5-3.6-1.4-4.6-1-1-2.1-1.4-3.4-1.4-.7 0-1.3.1-2 .4-.7.3-1.2.7-1.6 1.3v9.6c.4.3 1 .6 1.6.8s1.2.4 1.9.4zM448.5 396.5c-1.9 0-3.6-.4-5-1.2-1.4-.8-2.6-1.9-3.4-3.3-.8-1.4-1.2-3-1.2-4.8 0-2 .5-3.7 1.4-5.1.9-1.4 2.1-2.5 3.6-3.3 1.5-.8 3.1-1.1 4.8-1.1 1.8 0 3.4.4 4.8 1.2s2.4 1.9 3.2 3.3c.8 1.4 1.1 3 1.1 4.8 0 1.8-.4 3.4-1.3 4.9-.8 1.5-2 2.6-3.4 3.5-1.4.6-2.9 1.1-4.6 1.1zm.4-2.5c1.2 0 2.1-.5 2.8-1.6.7-1.1 1-2.6 1-4.4 0-2.4-.4-4.3-1.3-5.8-.8-1.5-2-2.3-3.3-2.3-1.2 0-2.1.6-2.9 1.7-.7 1.1-1.1 2.7-1.1 4.5 0 1.5.2 2.8.6 4s1 2.1 1.7 2.8c.7.8 1.6 1.1 2.5 1.1zM467.3 396.5c-1.1 0-2.2-.1-3.3-.4-1.1-.2-2-.6-2.8-1l-.2-4.8h2.5l.9 3c1 .6 2.1 1 3.3 1 .9 0 1.6-.2 2.1-.6.5-.4.8-.9.8-1.5 0-.7-.3-1.2-.8-1.7s-1.5-1-3-1.6c-2-.8-3.4-1.6-4.3-2.4-.8-.9-1.2-2-1.2-3.3 0-1.6.7-2.9 2.2-4 1.5-1 3.4-1.6 5.7-1.6.9 0 1.7.1 2.6.2.9.2 1.6.4 2.2.6l.5 4.7H472l-1-2.9c-.6-.4-1.3-.5-2.2-.5-.9 0-1.6.2-2.1.6-.5.4-.8.9-.8 1.6 0 .7.3 1.3.9 1.8.6.5 1.7 1.1 3.4 1.8 1.8.8 3.1 1.5 3.9 2.4.8.8 1.1 1.9 1.1 3.1 0 1.7-.7 3-2.2 4s-3.3 1.5-5.7 1.5zM484.2 396.5c-1.3 0-2.3-.3-3.2-.8-.9-.5-1.6-1.2-2.1-1.9s-.7-1.5-.7-2.2c0-1 .3-1.8.9-2.5.6-.6 1.6-1.2 2.9-1.6l6.5-2v-1.7c0-.6-.2-1.2-.6-1.7-.4-.5-.9-1-1.5-1.3s-1.3-.5-2.1-.5c-.5 0-.9.1-1.1.4s-.3.7-.4 1.4l-.2 2.3c-1.3.3-2.3.2-3.1-.1-.8-.3-1.2-.9-1.2-1.7 0-.5.2-1 .8-1.5.5-.5 1.1-1 1.9-1.5.8-.5 1.6-.9 2.4-1.2.8-.3 1.6-.5 2.3-.6 2.4 0 4.2.6 5.6 1.7 1.4 1.1 2.1 2.6 2.1 4.5l-.1 6.1c0 1.4.1 2.3.3 2.9l2.7.5v1.6l-2.5 1c-.9.4-1.7.6-2.4.6-1 0-1.7-.5-2.1-1.6l-.4-1.1c-1.7 1.6-3.2 2.5-4.7 2.5zm1.7-3.4c1 0 1.8-.4 2.5-1.2v-4.2l-3.4.8c-1.3.2-1.9.9-1.9 2 0 .7.3 1.3.8 1.8.6.5 1.3.8 2 .8zM66.7 447.7c-1.9 0-3.5-.6-4.7-1.8-1.2-1.2-1.8-2.8-1.8-4.8 0-1.6.3-3.2.9-4.6.6-1.5 1.3-2.8 2.3-4 1-1.2 2.1-2.1 3.4-2.8 1.3-.7 2.7-1 4.2-1s2.7.3 3.5 1c.8.7 1.2 1.5 1.2 2.4 0 .9-.3 1.7-1 2.6-.7.9-1.8 1.8-3.3 2.7-1.5.9-3.7 1.9-6.4 2.9.1 1.3.4 2.2 1 2.8.6.6 1.3 1 2.3 1 .7 0 1.5-.2 2.4-.6s1.9-1.2 2.8-2.3l1.2 1.7c-1.2 1.6-2.5 2.7-3.9 3.5-1.4.9-2.8 1.3-4.1 1.3zm3-16.7c-1 0-1.9.7-2.8 2s-1.4 3.1-1.7 5.3c2.2-.9 3.7-1.8 4.7-2.8.9-.9 1.4-1.9 1.4-3 0-.5-.1-.9-.4-1.1-.3-.3-.7-.4-1.2-.4zM101.9 447.7c-1.4 0-2.1-.7-2.1-2.1 0-.4.1-1.1.3-1.9.2-.8.5-1.8.8-2.8.3-1 .6-2.1.9-3.1.3-1 .6-1.9.8-2.7.2-.8.3-1.4.3-1.8 0-.5-.2-.8-.7-.8-.6 0-1.3.4-2.2 1.3-.9.9-1.7 2.1-2.6 3.5-.9 1.5-1.7 3.1-2.5 4.8-.8 1.8-1.4 3.5-1.9 5.3h-4.5c.4-1.2.8-2.5 1.2-3.9.4-1.4.8-2.8 1.1-4.2.3-1.4.6-2.6.9-3.7.2-1.1.3-1.9.3-2.3 0-.5-.2-.8-.7-.8-.6 0-1.3.4-2.1 1.3-.9.9-1.7 2.1-2.6 3.5-.9 1.5-1.7 3.1-2.5 4.8-.8 1.8-1.4 3.5-1.8 5.3h-4.5c.4-1.3.8-2.7 1.3-4.2s.8-3 1.2-4.4c.4-1.5.7-2.8.9-3.9.2-1.2.3-2.1.3-2.7-.6.3-1.1.8-1.7 1.3s-1.1 1.2-1.6 2L77 434c1-1.4 2.2-2.5 3.5-3.5 1.3-1 2.5-1.5 3.6-1.5 1.3 0 1.9.7 1.9 2.2 0 .5-.1 1.3-.3 2.4-.2 1.1-.6 2.6-1.1 4.3.8-1.8 1.8-3.3 2.8-4.6 1.1-1.3 2.1-2.4 3.3-3.1 1.1-.8 2.2-1.1 3.3-1.1.9 0 1.7.2 2.2.7s.8 1.2.8 2.2c0 .6-.1 1.3-.4 2.3-.2.9-.6 2.1-1.1 3.5 1.3-2.6 2.8-4.7 4.4-6.3 1.6-1.6 3.2-2.3 4.9-2.3.9 0 1.7.2 2.2.7.5.5.8 1.2.8 2.2 0 .4-.1 1-.3 1.9-.2.8-.5 1.8-.8 2.8-.3 1-.6 2.1-1 3.1-.3 1-.6 2-.8 2.9-.2.9-.3 1.5-.3 2 1.1-.6 2.2-1.7 3.3-3.1l1.2 1.4c-1 1.4-2.2 2.6-3.5 3.5-1.3.6-2.6 1.1-3.7 1.1zM114.7 447.7c-1.1 0-2-.4-2.6-1.3-.6-.8-1-2-1-3.3 0-2 .4-3.8 1.1-5.5.7-1.7 1.6-3.2 2.8-4.5 1.2-1.3 2.4-2.3 3.8-3.1s2.7-1.1 4.1-1.1c.6 0 1.2.1 1.7.4.5.3 1 .6 1.4 1.1l1.3-1.2h2.9c-.4 1.3-.8 2.7-1.3 4.2l-1.2 4.5c-.4 1.5-.7 2.8-.9 3.9-.2 1.2-.3 2.1-.3 2.7.6-.3 1.1-.8 1.7-1.3.5-.5 1.1-1.1 1.6-1.9l1.2 1.4c-1 1.4-2.2 2.6-3.5 3.5-1.3 1-2.5 1.4-3.6 1.4-1.3 0-2-.7-2-2.1 0-.5.1-1.3.3-2.3.2-1 .6-2.5 1.1-4.3-1.3 2.7-2.6 4.9-4.2 6.4-1.5 1.6-3 2.4-4.4 2.4zm1.3-5.6c0 1.4.3 2 .9 2 .4 0 .9-.3 1.5-1 .7-.7 1.4-1.6 2.2-2.8.8-1.2 1.5-2.4 2.3-3.9s1.4-2.9 1.9-4.4c-.4-.3-.8-.5-1.3-.6-.5-.1-.9-.2-1.4-.2-1.1 0-2.2.5-3.1 1.5-.9 1-1.7 2.3-2.2 3.9s-.8 3.5-.8 5.5zM136.1 447.7c-1.4 0-2.2-.8-2.2-2.3 0-.4.1-1.1.3-2 .2-.9.5-1.9.8-3 .3-1.1.6-2.2 1-3.3.3-1.1.6-2.1.8-3 .2-.9.3-1.6.3-2.1-.6.3-1.1.8-1.7 1.3-.6.5-1.1 1.2-1.7 2l-1.2-1.5c1-1.4 2.2-2.5 3.5-3.5 1.3-1 2.5-1.5 3.6-1.5 1.4 0 2.2.8 2.2 2.3 0 .4-.1 1.1-.3 2-.2.9-.5 1.9-.8 3-.3 1.1-.7 2.2-1 3.3-.3 1.1-.6 2.1-.8 3-.2.9-.3 1.6-.3 2 .6-.3 1.1-.8 1.7-1.3.5-.5 1.1-1.1 1.7-1.9l1.2 1.4c-1.1 1.4-2.2 2.6-3.5 3.5-1.3 1.1-2.5 1.6-3.6 1.6zM141 425c-.9 0-1.5-.2-2-.8-.5-.5-.7-1.1-.7-1.9 0-.9.3-1.7 1-2.4.6-.7 1.4-1 2.4-1 .8 0 1.5.2 1.9.7.5.5.7 1.1.7 1.8 0 1-.3 1.8-.9 2.5-.6.8-1.4 1.1-2.4 1.1zM147.7 447.7c-1.4 0-2.1-.7-2.1-2 0-.4 0-.7.1-1.1.1-.4.2-1 .4-1.8s.5-2.1.9-3.9l4.1-16.7-3-.4.3-1.5 7.4-2 .8.7c-.4 1.5-.8 3-1.2 4.3-.3 1.3-.7 2.7-1 4l-3 11.9c-.3 1.2-.5 2.3-.7 3.3-.2 1-.3 1.7-.3 2 .6-.3 1.1-.8 1.7-1.3.5-.5 1.1-1.1 1.6-1.9l1.2 1.4c-1 1.4-2.2 2.6-3.5 3.5-1.3 1-2.6 1.5-3.7 1.5zM159.9 447.8c-.9 0-1.7-.3-2.4-.9-.7-.6-1-1.4-1-2.3 0-.9.3-1.7 1-2.4s1.5-1 2.4-1c.9 0 1.7.3 2.4 1s1 1.5 1 2.4c0 .9-.3 1.7-1 2.3-.7.6-1.5.9-2.4.9zm2.6-12.4c-.9 0-1.7-.3-2.4-.9-.7-.6-1-1.4-1-2.4s.3-1.7 1-2.4c.7-.6 1.5-1 2.4-1 1 0 1.8.3 2.4 1 .7.6 1 1.4 1 2.4s-.3 1.7-1 2.4c-.6.6-1.4.9-2.4.9zM175.7 447.4l-.1-1.8 2.6-.7c.1-.4.1-1.3.2-2.7.1-1.4.1-3 .1-4.7v-5.2-3.9c0-1.3 0-2.6-.1-3.7 0-1.1-.1-1.9-.1-2.4l-3.1-.4-.1-1.6 7.3-1.9 1 .7c-.1 1.1-.1 2.3-.1 3.4s-.1 2.4-.1 3.9-.1 3.4-.1 5.6h.1c1.8-2.1 3.8-3.1 6-3.1 1.7 0 3.1.6 4.4 1.9 1.2 1.3 1.8 3.1 1.8 5.5v4.3c0 .9 0 1.8.1 2.6 0 .8.1 1.4.1 1.6l2.6.7-.1 1.8h-9.8l-.1-1.8 2.4-.7c.1-.3.1-.9.1-1.6 0-.8.1-1.6.1-2.5V437c0-1.6-.4-2.8-1.1-3.5-.8-.7-1.6-1.1-2.6-1.1-1.6 0-2.9.7-3.9 2v6.2c0 1.1 0 2.1.1 2.9 0 .8.1 1.3.2 1.5l2.5.7-.1 1.8h-10.2zM209.4 447.7c-1.7 0-3.3-.4-4.6-1.2-1.4-.8-2.5-1.9-3.2-3.2-.8-1.4-1.2-3-1.2-4.7 0-1.9.4-3.6 1.3-5.1.9-1.5 2-2.6 3.4-3.4 1.4-.8 2.9-1.2 4.5-1.2 2.4 0 4.3.8 5.5 2.3 1.3 1.5 1.9 3.5 1.9 5.9v.9h-11.8c.1 1.9.7 3.4 1.8 4.5s2.4 1.7 4.1 1.7c.9 0 1.8-.2 2.5-.5.8-.4 1.5-1 2.3-1.8l1.2 1.1c-.8 1.6-1.9 2.8-3.2 3.6-1.3.7-2.8 1.1-4.5 1.1zm-.3-16.7c-1 0-1.9.4-2.6 1.2-.8.8-1.2 2-1.3 3.7h7.5v-.4c0-1.4-.3-2.5-.9-3.3-.7-.8-1.5-1.2-2.7-1.2zM219.1 447.4l-.1-1.8 2.7-.6c.1-.4.1-1.3.2-2.7.1-1.4.1-3 .1-4.7v-5.3-4c0-1.3 0-2.5-.1-3.6 0-1.1-.1-1.9-.1-2.4l-3.1-.4-.1-1.6 7.3-1.9 1 .7c-.1 1.2-.1 2.3-.1 3.4s0 2.4-.1 3.8v16.2c0 1.4.1 2.2.2 2.4l2.7.6-.1 1.8h-10.4zM231.1 447.4l-.1-1.8 2.7-.6c.1-.4.1-1.3.2-2.7.1-1.4.1-3 .1-4.7v-5.3-4c0-1.3 0-2.5-.1-3.6 0-1.1-.1-1.9-.1-2.4l-3.1-.4-.1-1.6 7.3-1.9 1 .7c-.1 1.2-.1 2.3-.1 3.4s0 2.4-.1 3.8v16.2c0 1.4.1 2.2.2 2.4l2.7.6-.1 1.8h-10.4zM253.3 447.7c-1.9 0-3.6-.4-5-1.2-1.4-.8-2.6-1.9-3.4-3.3-.8-1.4-1.2-3-1.2-4.8 0-2 .5-3.7 1.4-5.1.9-1.4 2.1-2.5 3.6-3.3 1.5-.8 3.1-1.1 4.8-1.1 1.8 0 3.4.4 4.8 1.2s2.4 1.9 3.2 3.3c.8 1.4 1.1 3 1.1 4.8 0 1.8-.4 3.4-1.3 4.9-.8 1.5-2 2.6-3.4 3.5-1.3.7-2.8 1.1-4.6 1.1zm.5-2.4c1.2 0 2.1-.5 2.8-1.6.7-1.1 1-2.6 1-4.4 0-2.4-.4-4.3-1.3-5.8-.8-1.5-2-2.3-3.3-2.3-1.2 0-2.1.6-2.9 1.7-.7 1.1-1.1 2.7-1.1 4.5 0 1.5.2 2.8.6 4s1 2.1 1.7 2.8c.7.8 1.5 1.1 2.5 1.1zM284.5 456.9c-3.5 0-6.6-.6-9.3-1.9-2.7-1.3-4.9-3.1-6.4-5.6-1.6-2.5-2.3-5.5-2.3-9 0-2.6.5-5.1 1.4-7.2.9-2.2 2.3-4.1 4-5.7 1.7-1.6 3.8-2.8 6.2-3.7 2.4-.9 5-1.3 7.9-1.3 3 0 5.7.5 8.1 1.5 2.4 1 4.3 2.5 5.8 4.5 1.4 2 2.1 4.4 2.1 7.2 0 1.6-.3 3.1-.9 4.6-.6 1.4-1.5 2.7-2.5 3.8-1.1 1.1-2.3 2-3.6 2.6-1.3.6-2.7.9-4.1.9-.7 0-1.3-.1-1.6-.4-.4-.3-.6-.7-.8-1.2l-.3-1.1c-1.6 1.8-3.2 2.7-4.8 2.7-1.3 0-2.3-.3-3.2-.8-.9-.5-1.6-1.2-2.1-1.9-.5-.8-.7-1.5-.7-2.2 0-1 .3-1.8.9-2.5.6-.6 1.6-1.2 2.9-1.6l6.5-2v-1.7c0-.6-.2-1.2-.6-1.7-.4-.5-.9-1-1.5-1.3-.6-.3-1.3-.5-2-.5-.6 0-.9.1-1.1.4s-.3.7-.4 1.4l-.2 2.3c-.5.1-1 .2-1.5.2-.9 0-1.6-.2-2.1-.5s-.8-.8-.8-1.5c0-.5.2-1 .8-1.5.5-.5 1.1-1 1.9-1.5s1.6-.9 2.4-1.2c.8-.3 1.6-.5 2.3-.6 2.3 0 4.2.6 5.6 1.7 1.4 1.1 2.1 2.6 2.1 4.5l-.1 7.4c0 1.4.1 2.3.3 2.9 1 0 1.9-.4 2.8-1.1.9-.7 1.6-1.8 2.2-3.2.6-1.4.8-3.1.8-5.2 0-2.6-.5-4.6-1.5-6.3-1-1.6-2.5-2.8-4.3-3.6-1.9-.8-4-1.1-6.5-1.1-3.1 0-5.8.6-8 1.9-2.2 1.2-3.9 3-5.1 5.3-1.2 2.3-1.8 5-1.8 8.1 0 3.2.6 5.9 1.7 8 1.1 2.2 2.7 3.8 4.8 4.9 2.1 1.1 4.5 1.6 7.3 1.6 1.3 0 2.5-.1 3.6-.4 1.2-.2 2.2-.5 3.1-.9l.7 2c-2.7.9-5.3 1.5-8.1 1.5zm.5-12.6c1 0 1.8-.4 2.5-1.2V439l-3.4.8c-1.3.2-1.9.9-1.9 2 0 .7.3 1.3.8 1.8s1.2.7 2 .7zM315.6 447.4h-10.8l-.1-1.8 2.6-.7c0-.5 0-1 .1-1.5v-2.1-9.5h-3V430l3-.8v-1.6c0-1.8.3-3.4 1-4.8s1.5-2.5 2.7-3.3c1.1-.8 2.4-1.2 3.9-1.2 1.3 0 2.4.3 3.3.8s1.3 1.2 1.3 2.1c0 .5-.2.9-.5 1.2s-.8.4-1.3.4c-.8 0-1.5-.3-2.3-1l-1.7-1.6c-1.2.7-1.8 2.6-1.8 5.7v3.3h4.5v2.5H312v5.7c0 1.3 0 2.7.1 4.1 0 1.4.1 2.5.1 3.4l3.4.7v1.8zM325 447.7c-1.3 0-2.3-.3-3.2-.8-.9-.5-1.6-1.2-2.1-1.9s-.7-1.5-.7-2.2c0-1 .3-1.8.9-2.5.6-.6 1.6-1.2 2.9-1.6l6.5-2V435c0-.6-.2-1.2-.6-1.7-.4-.5-.9-1-1.5-1.3s-1.3-.5-2.1-.5c-.5 0-.9.1-1.1.4s-.3.7-.4 1.4l-.2 2.3c-1.3.3-2.3.2-3.1-.1-.8-.3-1.2-.9-1.2-1.7 0-.5.2-1 .8-1.5.5-.5 1.1-1 1.9-1.5.8-.5 1.6-.9 2.4-1.2.8-.3 1.6-.5 2.3-.6 2.4 0 4.2.6 5.6 1.7 1.4 1.1 2.1 2.6 2.1 4.5l-.1 6.1c0 1.4.1 2.3.3 2.9l2.7.5v1.6l-2.5 1c-.9.4-1.7.6-2.4.6-1 0-1.7-.5-2.1-1.6l-.4-1.1c-1.6 1.6-3.2 2.5-4.7 2.5zm1.8-3.4c1 0 1.8-.4 2.5-1.2V439l-3.4.8c-1.3.2-1.9.9-1.9 2 0 .7.3 1.3.8 1.8.6.5 1.2.7 2 .7zM340.5 446.2c.1-1.4.1-2.7.1-4.1V432.2v-4.4c0-1.4 0-2.6-.1-3.5 0-1-.1-1.7-.1-2.1l-3.1-.4-.1-1.6 7.3-1.9 1 .7c-.1 1.1-.1 2.3-.1 3.4s-.1 2.5-.1 3.9c0 1.5-.1 3.3-.1 5.5h.1c.6-.8 1.4-1.6 2.4-2.2s2.1-.9 3.3-.9c1.4 0 2.6.3 3.8 1 1.2.7 2.1 1.6 2.9 2.9.7 1.3 1.1 2.8 1.1 4.6 0 1.9-.5 3.7-1.4 5.3-.9 1.6-2.2 2.8-3.9 3.7-1.6.9-3.6 1.4-5.8 1.4-1.3 0-2.5-.1-3.8-.4-1.1-.2-2.3-.5-3.4-1zm8.3-1.2c1.4 0 2.6-.5 3.5-1.6.9-1.1 1.4-2.7 1.4-4.9 0-2.1-.5-3.6-1.4-4.6-1-1-2.1-1.4-3.4-1.4-.7 0-1.3.1-2 .4-.7.3-1.2.7-1.6 1.3v9.6c.4.3 1 .6 1.6.8s1.2.4 1.9.4zM361.1 447.4l-.1-1.8 2.8-.6c.1-.4.2-1.8.2-4.3v-3.2c0-1.7-.1-3.2-.4-4.5l-2.8-.6v-1.7l7.2-1.8 1 .7c-.1.9-.1 1.7-.2 2.6 0 .9-.1 1.9-.1 3v5.3c0 1 0 2 .1 2.8 0 .8.1 1.4.2 1.6l2.8.6-.1 1.8h-10.6zm5.3-22.3c-1 0-1.8-.3-2.4-.9-.6-.6-.9-1.3-.9-2.1s.3-1.5.9-2.1c.6-.6 1.4-.9 2.4-.9s1.8.3 2.3.9.8 1.3.8 2.1-.3 1.6-.8 2.1c-.6.6-1.3.9-2.3.9zM383.3 447.7c-1.9 0-3.6-.4-5-1.2-1.4-.8-2.6-1.9-3.4-3.3-.8-1.4-1.2-3-1.2-4.8 0-2 .5-3.7 1.4-5.1.9-1.4 2.1-2.5 3.6-3.3 1.5-.8 3.1-1.1 4.8-1.1 1.8 0 3.4.4 4.8 1.2s2.4 1.9 3.2 3.3c.8 1.4 1.1 3 1.1 4.8 0 1.8-.4 3.4-1.3 4.9-.8 1.5-2 2.6-3.4 3.5-1.3.7-2.9 1.1-4.6 1.1zm.4-2.4c1.2 0 2.1-.5 2.8-1.6.7-1.1 1-2.6 1-4.4 0-2.4-.4-4.3-1.3-5.8-.8-1.5-2-2.3-3.3-2.3-1.2 0-2.1.6-2.9 1.7-.7 1.1-1.1 2.7-1.1 4.5 0 1.5.2 2.8.6 4s1 2.1 1.7 2.8c.8.8 1.6 1.1 2.5 1.1zM395.1 447.4l-.1-1.8 2.6-.7c.1-.4.2-1.8.2-4.3v-3.2c0-1.7-.1-3.2-.4-4.5l-2.7-.6v-1.7l6.8-1.8 1 .7-.2 2.3h.1c.9-1.1 1.8-1.9 2.7-2.4 1-.5 2-.8 3-.8s2 .3 3 .8c.9.5 1.7 1.3 2.3 2.5.9-1.1 1.9-1.9 2.9-2.4 1-.6 2.1-.8 3.3-.8 1.9 0 3.5.7 4.7 2 1.2 1.3 1.8 3.1 1.8 5.4v4.4c0 .9 0 1.8.1 2.6 0 .8.1 1.4.2 1.6l2.6.7-.1 1.8h-9.7l-.1-1.8 2.3-.7c.1-.3.1-.9.1-1.7 0-.8.1-1.6.1-2.5v-3.9c0-1.7-.4-2.8-1.1-3.5-.7-.7-1.6-1-2.6-1-1.5 0-2.8.6-3.8 1.9.1.7.2 1.4.2 2.1l.1 4.3v2.6c0 .8.1 1.4.2 1.6l2.4.7-.1 1.8h-9.4l-.1-1.8 2.2-.7c.1-.3.1-.9.1-1.6 0-.8.1-1.6.1-2.5v-4.1c0-1.6-.3-2.7-1-3.4-.7-.7-1.5-1-2.5-1-.7 0-1.4.2-2 .5s-1.2.9-1.7 1.5v6.2c0 1 0 2 .1 2.8 0 .8.1 1.4.2 1.6l2.4.7-.1 1.8h-10.1zM430.6 447.4l-.1-1.8 2.6-.7c.1-.4.2-1.8.2-4.3v-3.2c0-1.7-.1-3.2-.4-4.5l-2.7-.6v-1.7l6.7-1.8 1 .7-.2 3.3h.1c.8-1.6 1.6-2.6 2.4-3.2.8-.6 1.7-.8 2.5-.8.7 0 1.3.2 1.8.6.5.4.8 1 .8 1.8s-.3 1.5-.8 1.9c-.6.4-1.2.6-2 .6-.5 0-1-.1-1.4-.2-.4-.1-.9-.4-1.3-.8-.8.7-1.4 1.6-1.9 2.7v3.5c0 1.4.1 2.6.1 3.7s.1 1.8.1 2.1l3.6.6-.1 1.9h-11zM448.8 446.2c.1-1.4.1-2.7.1-4.1V432.2v-4.4c0-1.4 0-2.6-.1-3.5 0-1-.1-1.7-.1-2.1l-3.1-.4-.1-1.6 7.3-1.9 1 .7c-.1 1.1-.1 2.3-.1 3.4s-.1 2.5-.1 3.9c0 1.5-.1 3.3-.1 5.5h.1c.6-.8 1.4-1.6 2.4-2.2s2.1-.9 3.3-.9c1.4 0 2.6.3 3.8 1 1.2.7 2.1 1.6 2.9 2.9.7 1.3 1.1 2.8 1.1 4.6 0 1.9-.5 3.7-1.4 5.3-.9 1.6-2.2 2.8-3.9 3.7-1.6.9-3.6 1.4-5.8 1.4-1.3 0-2.5-.1-3.8-.4-1-.2-2.2-.5-3.4-1zm8.4-1.2c1.4 0 2.6-.5 3.5-1.6.9-1.1 1.4-2.7 1.4-4.9 0-2.1-.5-3.6-1.4-4.6-1-1-2.1-1.4-3.4-1.4-.7 0-1.3.1-2 .4-.7.3-1.2.7-1.6 1.3v9.6c.4.3 1 .6 1.6.8s1.2.4 1.9.4zM476.5 447.7c-1.3 0-2.3-.3-3.2-.8-.9-.5-1.6-1.2-2.1-1.9s-.7-1.5-.7-2.2c0-1 .3-1.8.9-2.5.6-.6 1.6-1.2 2.9-1.6l6.5-2V435c0-.6-.2-1.2-.6-1.7-.4-.5-.9-1-1.5-1.3s-1.3-.5-2.1-.5c-.5 0-.9.1-1.1.4s-.3.7-.4 1.4l-.2 2.3c-1.3.3-2.3.2-3.1-.1-.8-.3-1.2-.9-1.2-1.7 0-.5.2-1 .8-1.5.5-.5 1.1-1 1.9-1.5.8-.5 1.6-.9 2.4-1.2.8-.3 1.6-.5 2.3-.6 2.4 0 4.2.6 5.6 1.7 1.4 1.1 2.1 2.6 2.1 4.5l-.1 6.1c0 1.4.1 2.3.3 2.9l2.7.5v1.6l-2.5 1c-.9.4-1.7.6-2.4.6-1 0-1.7-.5-2.1-1.6l-.4-1.1c-1.6 1.6-3.2 2.5-4.7 2.5zm1.8-3.4c1 0 1.8-.4 2.5-1.2V439l-3.4.8c-1.3.2-1.9.9-1.9 2 0 .7.3 1.3.8 1.8.6.5 1.3.7 2 .7zM490 447.4l-.1-1.8 2.6-.7c.1-.4.2-1.8.2-4.3v-3.2c0-1.7-.1-3.2-.4-4.5l-2.7-.6v-1.7l6.7-1.8 1 .7-.2 3.3h.1c.8-1.6 1.6-2.6 2.4-3.2.8-.6 1.7-.8 2.5-.8.7 0 1.3.2 1.8.6.5.4.8 1 .8 1.8s-.3 1.5-.8 1.9c-.6.4-1.2.6-2 .6-.5 0-1-.1-1.4-.2-.4-.1-.9-.4-1.3-.8-.8.7-1.4 1.6-1.9 2.7v3.5c0 1.4.1 2.6.1 3.7s.1 1.8.1 2.1l3.6.6-.1 1.9h-11zM508.2 446.2c.1-1.4.1-2.7.1-4.1V432.2v-4.4c0-1.4 0-2.6-.1-3.5 0-1-.1-1.7-.1-2.1l-3.1-.4-.1-1.6 7.3-1.9 1 .7c-.1 1.1-.1 2.3-.1 3.4s-.1 2.5-.1 3.9c0 1.5-.1 3.3-.1 5.5h.1c.6-.8 1.4-1.6 2.4-2.2s2.1-.9 3.3-.9c1.4 0 2.6.3 3.8 1 1.2.7 2.1 1.6 2.9 2.9.7 1.3 1.1 2.8 1.1 4.6 0 1.9-.5 3.7-1.4 5.3-.9 1.6-2.2 2.8-3.9 3.7-1.6.9-3.6 1.4-5.8 1.4-1.3 0-2.5-.1-3.8-.4-1.1-.2-2.2-.5-3.4-1zm8.4-1.2c1.4 0 2.6-.5 3.5-1.6.9-1.1 1.4-2.7 1.4-4.9 0-2.1-.5-3.6-1.4-4.6-1-1-2.1-1.4-3.4-1.4-.7 0-1.3.1-2 .4-.7.3-1.2.7-1.6 1.3v9.6c.4.3 1 .6 1.6.8s1.2.4 1.9.4zM539.1 447.7c-1.9 0-3.6-.4-5-1.2-1.4-.8-2.6-1.9-3.4-3.3-.8-1.4-1.2-3-1.2-4.8 0-2 .5-3.7 1.4-5.1.9-1.4 2.1-2.5 3.6-3.3 1.5-.8 3.1-1.1 4.8-1.1 1.8 0 3.4.4 4.8 1.2s2.4 1.9 3.2 3.3c.8 1.4 1.1 3 1.1 4.8 0 1.8-.4 3.4-1.3 4.9-.8 1.5-2 2.6-3.4 3.5-1.3.7-2.9 1.1-4.6 1.1zm.4-2.4c1.2 0 2.1-.5 2.8-1.6.7-1.1 1-2.6 1-4.4 0-2.4-.4-4.3-1.3-5.8-.8-1.5-2-2.3-3.3-2.3-1.2 0-2.1.6-2.9 1.7-.7 1.1-1.1 2.7-1.1 4.5 0 1.5.2 2.8.6 4s1 2.1 1.7 2.8c.8.8 1.6 1.1 2.5 1.1zM558 447.7c-1.1 0-2.2-.1-3.3-.4-1.1-.2-2-.6-2.8-1l-.2-4.8h2.5l.9 3c1 .6 2.1 1 3.3 1 .9 0 1.6-.2 2.1-.6.5-.4.8-.9.8-1.5 0-.7-.3-1.2-.8-1.7s-1.5-1-3-1.6c-2-.8-3.4-1.6-4.3-2.4-.8-.9-1.2-2-1.2-3.3 0-1.6.7-2.9 2.2-4 1.5-1 3.4-1.6 5.7-1.6.9 0 1.7.1 2.6.2.9.2 1.6.4 2.2.6l.5 4.7h-2.5l-1-2.9c-.6-.4-1.3-.5-2.2-.5-.9 0-1.6.2-2.1.6-.5.4-.8.9-.8 1.6 0 .7.3 1.3.9 1.8.6.5 1.7 1.1 3.4 1.8 1.8.8 3.1 1.5 3.9 2.4.8.8 1.1 1.9 1.1 3.1 0 1.7-.7 3-2.2 4s-3.4 1.5-5.7 1.5zM574.8 447.7c-1.3 0-2.3-.3-3.2-.8-.9-.5-1.6-1.2-2.1-1.9s-.7-1.5-.7-2.2c0-1 .3-1.8.9-2.5.6-.6 1.6-1.2 2.9-1.6l6.5-2V435c0-.6-.2-1.2-.6-1.7-.4-.5-.9-1-1.5-1.3s-1.3-.5-2.1-.5c-.5 0-.9.1-1.1.4s-.3.7-.4 1.4l-.2 2.3c-1.3.3-2.3.2-3.1-.1-.8-.3-1.2-.9-1.2-1.7 0-.5.2-1 .8-1.5.5-.5 1.1-1 1.9-1.5.8-.5 1.6-.9 2.4-1.2.8-.3 1.6-.5 2.3-.6 2.4 0 4.2.6 5.6 1.7 1.4 1.1 2.1 2.6 2.1 4.5l-.1 6.1c0 1.4.1 2.3.3 2.9l2.7.5v1.6l-2.5 1c-.9.4-1.7.6-2.4.6-1 0-1.7-.5-2.1-1.6l-.4-1.1c-1.6 1.6-3.2 2.5-4.7 2.5zm1.8-3.4c1 0 1.8-.4 2.5-1.2V439l-3.4.8c-1.3.2-1.9.9-1.9 2 0 .7.3 1.3.8 1.8.6.5 1.2.7 2 .7zM592.9 447.8c-.9 0-1.8-.3-2.4-1-.7-.7-1-1.5-1-2.4 0-.9.3-1.8 1-2.4.7-.7 1.5-1 2.4-1 1 0 1.8.3 2.5 1s1 1.5 1 2.4c0 1-.3 1.8-1 2.4-.7.7-1.5 1-2.5 1zM608.7 447.7c-1.7 0-3.2-.4-4.6-1.1-1.4-.8-2.5-1.8-3.3-3.2-.8-1.4-1.2-2.9-1.2-4.7 0-1.8.4-3.4 1.3-4.9.9-1.5 2-2.7 3.6-3.6 1.5-.9 3.2-1.4 5.2-1.4 1.8 0 3.3.4 4.5 1.1s1.8 1.6 1.8 2.6c0 .6-.2 1.1-.6 1.4-.4.3-.9.5-1.5.5-.5 0-.9-.1-1.3-.3-.4-.2-.8-.5-1.3-1L609 431c-1.1.2-2.1.8-2.9 1.9-.8 1.1-1.3 2.6-1.3 4.5 0 2.2.5 3.8 1.6 4.9 1.1 1.1 2.4 1.7 4 1.7.9 0 1.7-.2 2.5-.5s1.5-1 2.2-1.8l1.3 1.1c-.8 1.6-1.9 2.8-3.2 3.6-1.5.9-2.9 1.3-4.5 1.3zM627.6 447.7c-1.9 0-3.6-.4-5-1.2-1.4-.8-2.6-1.9-3.4-3.3-.8-1.4-1.2-3-1.2-4.8 0-2 .5-3.7 1.4-5.1.9-1.4 2.1-2.5 3.6-3.3 1.5-.8 3.1-1.1 4.8-1.1 1.8 0 3.4.4 4.8 1.2 1.4.8 2.4 1.9 3.2 3.3.8 1.4 1.1 3 1.1 4.8 0 1.8-.4 3.4-1.3 4.9-.8 1.5-2 2.6-3.4 3.5-1.3.7-2.9 1.1-4.6 1.1zm.4-2.4c1.2 0 2.1-.5 2.8-1.6.7-1.1 1-2.6 1-4.4 0-2.4-.4-4.3-1.3-5.8-.8-1.5-2-2.3-3.3-2.3-1.2 0-2.1.6-2.9 1.7-.7 1.1-1.1 2.7-1.1 4.5 0 1.5.2 2.8.6 4s1 2.1 1.7 2.8c.8.8 1.6 1.1 2.5 1.1zM639.4 447.4l-.1-1.8 2.6-.7c.1-.4.2-1.8.2-4.3v-3.2c0-1.7-.1-3.2-.4-4.5l-2.7-.6v-1.7l6.8-1.8 1 .7-.2 2.3h.1c.9-1.1 1.8-1.9 2.7-2.4 1-.5 2-.8 3-.8s2 .3 3 .8c.9.5 1.7 1.3 2.3 2.5.9-1.1 1.9-1.9 2.9-2.4 1-.6 2.1-.8 3.3-.8 1.9 0 3.5.7 4.7 2 1.2 1.3 1.8 3.1 1.8 5.4v4.4c0 .9 0 1.8.1 2.6 0 .8.1 1.4.2 1.6l2.6.7-.1 1.8h-9.7l-.1-1.8 2.3-.7c.1-.3.1-.9.1-1.7 0-.8.1-1.6.1-2.5v-3.9c0-1.7-.4-2.8-1.1-3.5-.7-.7-1.6-1-2.6-1-1.5 0-2.8.6-3.8 1.9.1.7.2 1.4.2 2.1l.1 4.3v2.6c0 .8.1 1.4.2 1.6l2.4.7-.1 1.8h-9.4l-.1-1.8 2.2-.7c.1-.3.1-.9.1-1.6 0-.8.1-1.6.1-2.5v-4.1c0-1.6-.3-2.7-1-3.4-.7-.7-1.5-1-2.5-1-.7 0-1.4.2-2 .5s-1.2.9-1.7 1.5v6.2c0 1 0 2 .1 2.8s.1 1.4.2 1.6l2.4.7-.1 1.8h-10.1z" class="st1"/></g><g id="LogoTrace" clip-path="url(#LogoClip)"><path d="M1316.2 215a17.65 17.65 0 00-14.4 26.3s-19.6-3.3-30.4 11.5-8.6 32.2-.8 39.1c17 15.1 44.2 6.5 47.7-19 2.7-20-.65-34.84 10.4-47.9 13.8-16.3 36.81-13.11 43.81 6.79 5.5 15.7-9.41 40.31-34.21 41.51 0 0 4.3 9.4-1.2 17.9s-12.7 7.1-12.7 7.1" class="st2"/><path d="M1326 263.49c.45-.26 10.13-.51 15-4.8 8.1-6.2 10.2-8.8 10.2-8.8" class="st2"/></g></svg>