<svg xmlns="http://www.w3.org/2000/svg" id="Layer_1" width="1580" height="515" x="0" y="0" version="1.1" style="background-color: #fff" xml:space="preserve"><style>@keyframes drawingin { to { stroke-dashoffset: 0; } } @keyframes stretchingin { from { stroke-dashoffset: -110; } to { stroke-dashoffset: 0; } } .st2 { fill: none; stroke: #15131F; stroke-miterlimit: 5; stroke-linecap: round; stroke-linejoin: round; stroke-dasharray: 375; stroke-dashoffset: 375; transform: translateZ(0); animation: drawingin 2.5s cubic-bezier(0.83, 0, 0.17, 1) forwards; stroke-width: 16; } .st2 + .st2 { animation-delay: 2s; } #Rays { transform-origin: center; animation: stretchingin 4.5s cubic-bezier(0.83, 0, 0.17, 1) forwards; } .st0 {fill:none;stroke:#A97D47;stroke-width:3;stroke-miterlimit:10; stroke: #aa7d47; stroke-dasharray: 110; transform: translateZ(0); }</style><g id="Rays"><path d="M 1285 62.2 l 3 18 M 1301.9 161.8 l -11.5 -66.5 M 1285 166.3 l -23.3 -63.3 M 1220.2 86.1 l 50.4 87.7 M 1192.7 104.5 l 11.5 14.1 M 1213.6 130.7 l 43.3 52.2 M 1192.5 151.7 l 52 43.5 M 1148.1 157.5 l 87.4 51.2 M 1132.9 188.4 l 17.1 6.5 M 1164.6 199.6 l 63.2 23.7 M 1156.7 228.2 l 66.5 11.9 M 1222.3 257.2 h -101.2 M 1123.5 291.6 l 18 -3 M 1223.7 273.6 l -67.2 11.6 M 1228.2 290.4 l -64 23.5 M 1148.1 356.9 l 87.4 -51.2 M 1167.3 385.2 l 13.9 -11.7 M 1192.8 363.1 l 51.6 -43.5 M 1214 384 l 42.9 -52.1 M 1270.6 340.6 l -50.4 87.7 M 1250.7 443.4 l 6.4 -17 M 1285.4 347.7 l -23.3 63.8 M 1302.2 352.2 l -11.3 66.9 M 1318.4 454.5 V 353.3 M 1349.1 434.6 l 3 17.9 M 1346.4 419.1 l -11.7 -67.4 M 1375.1 411.4 l -23.6 -64.1 M 1366.2 340.6 l 50.4 87.7 M 1432.9 396.1 l 11.5 14.2 M 1379.4 330.8 l 43.8 52.9 M 1391.7 318.6 l 52.6 44.1 M 1401.3 305.7 l 87.4 51.2 M 1487.1 319.9 l 17.1 6.4 M 1408.2 290.9 l 64 23.9 M 1412.8 274.1 l 67.3 12.1 M 1515.7 257.2 h -101.2 M 1495.6 226.2 l 18 -3.1 M 1480.3 229.2 l -67.9 11.8 M 1472.6 200.5 l -64.7 23.8 M 1401.3 208.7 l 87.4 -51.2 M 1455.8 141.3 l 14 -11.7 M 1391.8 195.3 l 52.2 -44 M 1379.4 183.1 l 43.4 -52.7 M 1416.6 86.1 l -50.4 87.7 M 1380 88.4 l 6.4 -17.1 M 1374.7 102.9 l -23.5 64.2 M 1345.9 95.3 l -11.4 67.4 M 1318.4 161.1 V 59.9" class="st0"/></g><clipPath id="LogoClip"><path d="M 1350.8 211.8 c -4.8 -0.5 -9.7 -0.1 -14.5 1.2 c -4.4 1.3 -8.7 3.5 -12.3 6.3 c -3.5 2.8 -6.5 6.5 -8.5 10.5 c -1.2 2.2 -2.1 4.4 -2.8 6.8 c -0.8 2.5 -1.3 5 -1.8 7.5 c -0.5 2.6 -0.6 5.4 -0.9 7.9 c -0.3 2.6 -0.4 5.2 -0.5 7.8 c -0.1 2.6 -0.5 5.4 -0.8 8 c -0.3 2.6 -0.5 5.2 -0.9 7.6 c -0.4 2.3 -0.9 4.8 -1.8 7 c -0.8 2.1 -1.6 3.7 -2.7 5.6 c -2.5 3.6 -5.9 6.6 -10.2 8 c -4.1 1.4 -8.7 1.2 -12.5 -0.8 c -1 -0.5 -1.9 -1 -2.8 -1.8 l -4.8 4.8 c 2.7 1.6 5.6 2.7 8.7 3.4 c 6.6 1.7 13.6 1.4 20 -0.6 c 3.1 -1 5.9 -2.3 8.7 -4.1 c 2.6 -1.8 5 -3.9 7 -6.2 c 2.1 -2.5 3.7 -5.2 5 -8.1 c 1.3 -3.1 2.2 -6.5 3 -9.7 c 0.4 -1.7 0.6 -3.5 0.9 -5.2 c 0.1 -0.4 0.3 -1.9 0.3 -1.9 s 1.8 0.3 2.7 0.3 c 3.4 0.1 6.8 -0.3 10.1 -1.3 c 3.1 -0.9 5.9 -2.3 8.5 -4.3 c 2.5 -1.8 4.7 -4 6.5 -6.5 c -1.8 -1.2 -4 -1.7 -6.3 -1.6 c -1.9 0.1 -3.9 0.8 -5.4 2.1 c -0.8 0.6 -1.6 1.4 -2.2 2.1 c -0.8 0.6 -1.6 1.3 -2.5 1.9 c -3.2 2.2 -7 3.6 -10.9 4 c 0.1 -1.3 0.3 -2.6 0.4 -3.9 c 0.1 -2.7 0.3 -5.3 0.4 -8 c 0.1 -1.8 0.3 -3.5 0.4 -5.3 c 0.3 -3.1 0.8 -6.2 1.4 -9.2 c 0.3 -1.4 0.6 -3 1.2 -4.3 c 0.5 -1.4 1.2 -2.7 1.9 -3.9 c 2.3 -3.9 5.7 -7.2 10 -9 c 4 -1.7 8.7 -1.8 12.8 -0.1 c 1.4 0.5 2.7 1.3 3.9 2.2 l 4.8 -4.8 c -4.4 -2.4 -8.9 -3.8 -13.5 -4.4 z" class="st1"/><path d="M 1379.7 238.3 c -0.6 -4.7 -2.5 -9.2 -5.3 -13.1 c -1.4 -1.9 -3.1 -3.9 -5 -5.4 l -5.7 5.7 c 0.4 0.5 0.8 1 1 1.7 c 2.3 4 3.6 8.7 3.7 13.4 c 0.1 4.9 -0.9 9.7 -3 14.1 c -6.6 13.1 -21.8 19.3 -35.7 14.3 c 0.3 0.3 0.5 0.5 0.9 0.8 c 1.9 1.9 3.4 4.4 4.3 7.1 c 0.9 3 0.9 6.1 0.1 9 c -0.8 2.7 -2.2 5.3 -4.1 7.2 c -1.9 2.1 -4.4 3.6 -7.1 4.5 c -2.8 1 -6.1 1.3 -9 0.8 c 0.4 0.1 0.8 0.4 1.2 0.5 c 3.2 1.3 6.7 1.7 10.1 1 c 3.2 -0.5 6.2 -1.8 8.8 -3.7 c 2.5 -1.9 4.4 -4.4 5.4 -7.4 c 1.2 -3.2 1.3 -6.6 0.3 -9.8 c -0.9 -3 -2.7 -5.6 -5 -7.5 c 2.2 0.6 4.4 1.2 6.7 1.3 c 4 0.4 8.1 0.1 12 -0.6 c 3.7 -0.8 7.2 -2.3 10.6 -4.3 c 1.9 -1.2 3.9 -2.6 5.6 -4.3 c 3.4 -3.1 5.9 -6.8 7.6 -11.1 c 1.6 -4.3 2.3 -9.3 1.6 -14.2 z M 1267.8 294.7 l 5.6 -5.6 c -0.6 -0.8 -1.2 -1.7 -1.7 -2.6 c -2.2 -4 -3.2 -8.7 -3.2 -13.3 c 0 -4.8 1 -9.6 3.2 -13.8 c 6.7 -12.8 21.8 -18.7 35.5 -14 c -0.3 -0.3 -0.5 -0.5 -0.9 -0.8 c -1.9 -1.9 -3.5 -4.4 -4.3 -7.1 c -0.9 -3 -0.9 -6.1 0 -9.2 c 0.8 -2.7 2.2 -5.2 4.1 -7.2 c 1.9 -1.9 4.4 -3.5 7 -4.4 c 2.8 -1 5.9 -1.3 8.9 -0.8 c -0.4 -0.1 -0.8 -0.4 -1.2 -0.5 c -3.2 -1.3 -6.7 -1.7 -10.1 -1 c -3.2 0.5 -6.2 1.8 -8.8 3.7 c -2.5 1.9 -4.3 4.4 -5.4 7.4 c -1.2 3.2 -1.3 6.6 -0.3 9.8 c 0.9 3 2.7 5.6 5 7.5 c -1.6 -0.5 -3.2 -0.9 -4.8 -1 c -3.5 -0.5 -7 -0.6 -10.5 -0.1 c -3.2 0.4 -6.5 1.3 -9.6 2.6 c -3 1.3 -5.7 3 -8.3 4.9 c -2.5 1.9 -4.7 4.3 -6.3 7 c -1.8 2.7 -3.2 5.6 -4 8.8 c -1.7 6.3 -1.2 13.3 1.8 19.5 c 1.4 2.8 3.2 5.6 5.4 7.9 c 1.1 0.7 2 1.5 2.9 2.3 z" class="st1"/></clipPath><g id="Text"><path d="M 22.3 67.6 l -0.2 -3.2 l 4.1 -1.1 c 0 -0.3 0.1 -1.4 0.2 -3.3 s 0.1 -4.3 0.1 -7.3 l 0.1 -11.8 c 0 -2.9 0 -5.3 -0.1 -7.1 c -0.1 -1.9 -0.2 -2.9 -0.2 -3.1 l -4.4 -1.1 l 0.2 -3.2 h 21.4 c 1.3 0 2.9 0 4.8 -0.1 s 3.5 -0.2 4.7 -0.2 l 1.8 9.9 l -3.9 0.5 l -2.6 -6 c -0.9 -0.2 -1.9 -0.3 -3 -0.3 h -6.1 c -0.8 0 -1.5 0 -2.4 0.1 c -0.8 0.1 -1.5 0.1 -1.9 0.2 c 0 0.4 -0.1 1.2 -0.1 2.5 v 11.6 c 0.7 0 1.2 0.1 1.8 0.1 h 4.6 c 0.9 0 1.7 0 2.4 -0.1 c 0.7 0 1.1 -0.1 1.4 -0.1 l 0.8 -4.7 h 3.8 v 14.3 h -3.8 l -0.8 -5 c -0.5 -0.1 -1 -0.2 -1.7 -0.2 c -0.6 0 -1.3 -0.1 -2.1 -0.1 h -4.6 c -0.5 0 -1.1 0 -1.8 0.1 l 0.1 6.1 c 0 2 0 3.8 0.1 5.4 s 0.2 2.6 0.2 2.8 l 5.7 0.9 l -0.2 3.4 H 22.3 z M 67.1 68.1 c -2.1 0 -3.9 -0.4 -5.4 -1.3 c -1.5 -0.9 -2.7 -2 -3.5 -3.2 c -0.8 -1.3 -1.2 -2.5 -1.2 -3.7 c 0 -1.7 0.5 -3.1 1.5 -4.1 c 1 -1.1 2.7 -2 4.9 -2.7 l 11 -3.4 v -2.9 c 0 -1 -0.3 -2 -1 -2.9 c -0.7 -0.9 -1.5 -1.6 -2.6 -2.2 s -2.2 -0.8 -3.5 -0.8 c -0.9 0 -1.5 0.2 -1.9 0.6 c -0.4 0.4 -0.6 1.2 -0.7 2.4 l -0.3 3.8 c -2.1 0.5 -3.9 0.4 -5.2 -0.2 c -1.4 -0.6 -2.1 -1.6 -2.1 -2.9 c 0 -0.8 0.4 -1.7 1.3 -2.6 c 0.8 -0.9 1.9 -1.7 3.2 -2.5 c 1.3 -0.8 2.6 -1.5 4.1 -2 c 1.4 -0.6 2.7 -0.9 3.8 -1.1 c 4 0 7.1 0.9 9.5 2.8 c 2.3 1.9 3.5 4.4 3.6 7.5 l -0.2 10.3 c 0 2.3 0.2 4 0.5 4.9 l 4.6 0.8 v 2.7 l -4.1 1.8 c -1.5 0.7 -2.9 1 -4.1 1 c -1.7 0 -2.9 -0.9 -3.5 -2.7 l -0.6 -1.8 c -2.9 2.9 -5.5 4.4 -8.1 4.4 z m 3.1 -5.6 c 1.6 0 3.1 -0.7 4.3 -2 v -7 l -5.8 1.3 c -2.1 0.4 -3.2 1.6 -3.2 3.4 c 0 1.1 0.5 2.1 1.4 3 c 0.9 0.8 2 1.3 3.3 1.3 z m 2.3 -28.9 l -3.7 -1.2 l 7 -12.4 l 7.4 1.6 l -10.7 12 z M 93.2 65.6 c 0.1 -2.3 0.2 -4.6 0.2 -6.9 V 42.1 v -7.4 c 0 -2.3 -0.1 -4.3 -0.1 -6 c 0 -1.7 -0.1 -2.8 -0.1 -3.5 l -5.2 -0.6 l -0.1 -2.7 l 12.2 -3.2 l 1.8 1.1 c -0.1 1.9 -0.2 3.8 -0.2 5.8 c -0.1 1.9 -0.1 4.1 -0.2 6.6 s -0.1 5.6 -0.2 9.3 l 0.2 0.1 c 1 -1.4 2.4 -2.6 4.1 -3.7 c 1.8 -1 3.6 -1.5 5.6 -1.5 c 2.3 0 4.4 0.6 6.4 1.7 s 3.6 2.8 4.8 4.9 c 1.2 2.2 1.8 4.7 1.8 7.7 c 0 3.3 -0.8 6.2 -2.4 8.9 c -1.6 2.6 -3.7 4.7 -6.5 6.3 c -2.8 1.5 -6 2.3 -9.7 2.3 c -2.2 0 -4.3 -0.2 -6.4 -0.7 c -2.1 -0.5 -4.1 -1.1 -6 -1.9 z m 14.1 -2.1 c 2.3 0 4.3 -0.9 5.9 -2.7 c 1.6 -1.8 2.4 -4.6 2.4 -8.3 c 0 -3.5 -0.8 -6.1 -2.4 -7.7 s -3.5 -2.4 -5.7 -2.4 c -1.1 0 -2.2 0.2 -3.3 0.7 c -1.1 0.5 -2 1.2 -2.8 2.1 v 16.2 c 0.7 0.6 1.7 1 2.7 1.4 c 1 0.5 2.1 0.7 3.2 0.7 z M 128 67.6 l -0.2 -3.1 l 4.7 -1.1 c 0.1 -0.7 0.3 -3 0.4 -7.2 l 0.1 -5.3 c 0 -2.8 -0.2 -5.3 -0.6 -7.5 l -4.7 -1 v -2.9 l 12.1 -3 l 1.6 1.2 c -0.1 1.5 -0.2 2.9 -0.3 4.4 s -0.1 3.2 -0.1 5.1 v 8.9 c 0 1.7 0 3.3 0.1 4.7 s 0.2 2.3 0.3 2.7 l 4.7 1.1 l -0.2 3.1 H 128 z m 8.9 -37.6 c -1.7 0 -3 -0.5 -4 -1.5 s -1.4 -2.2 -1.4 -3.6 s 0.5 -2.6 1.4 -3.6 c 1 -1 2.3 -1.5 4 -1.5 s 3 0.5 3.9 1.5 c 0.9 1 1.4 2.2 1.4 3.6 s -0.5 2.6 -1.4 3.6 c -0.9 1 -2.2 1.5 -3.9 1.5 z M 165.5 68.1 c -3.2 0 -6 -0.7 -8.4 -2 c -2.4 -1.3 -4.3 -3.2 -5.7 -5.6 c -1.4 -2.4 -2 -5.1 -2 -8.1 c 0 -3.3 0.8 -6.2 2.3 -8.6 c 1.5 -2.4 3.5 -4.3 6 -5.6 c 2.5 -1.3 5.2 -1.9 8.1 -1.9 c 3 0 5.7 0.7 8.1 2 c 2.3 1.3 4.1 3.1 5.4 5.5 c 1.3 2.3 1.9 5 1.9 8.1 c 0 3 -0.7 5.8 -2.1 8.3 s -3.3 4.4 -5.7 5.8 c -2.4 1.4 -5 2.1 -7.9 2.1 z m 0.7 -4 c 2 0 3.5 -0.9 4.6 -2.7 s 1.7 -4.3 1.7 -7.5 c 0 -4 -0.7 -7.3 -2.1 -9.8 c -1.4 -2.5 -3.3 -3.8 -5.6 -3.8 c -2 0 -3.6 1 -4.8 2.9 c -1.2 1.9 -1.8 4.5 -1.8 7.7 c 0 2.5 0.4 4.8 1.1 6.8 c 0.7 2 1.7 3.6 2.8 4.7 c 1.2 1.1 2.6 1.7 4.1 1.7 z M 200.9 26.3 h 14 l 13.7 30 l 12.8 -30 H 255 l 0.2 3.2 l -4.4 1 c 0 0.5 -0.1 1.5 0 3 c 0 1.5 0.1 3.6 0.2 6 l 0.4 12.5 c 0.1 3.1 0.2 5.6 0.3 7.6 c 0.1 1.9 0.2 3.2 0.3 3.6 l 4.4 1.1 l -0.2 3.2 h -17.8 l -0.2 -3.2 l 4.4 -1.1 c 0.1 -0.6 0.2 -4.2 0.1 -10.8 l -0.1 -17.8 l -14.1 33 h -3.7 L 210 35.7 v 16.5 c 0 3.7 0 6.4 0.1 7.9 c 0 1.6 0.1 2.6 0.1 3 l 4.9 1.1 l -0.2 3.2 H 200 l -0.2 -3.2 l 4.9 -1.1 c 0 -0.5 0.1 -1.7 0.2 -3.6 s 0.1 -4.1 0.2 -6.5 l 0.2 -13.5 c 0 -2.6 0.1 -4.7 0 -6.1 v -3.1 l -4.4 -1.1 v -2.9 z M 268.4 68.3 c -1.6 0 -3 -0.6 -4.1 -1.7 c -1.1 -1.1 -1.7 -2.5 -1.7 -4.1 c 0 -1.6 0.6 -3 1.7 -4.1 c 1.1 -1.1 2.5 -1.7 4.1 -1.7 c 1.7 0 3.1 0.6 4.3 1.7 c 1.1 1.1 1.7 2.5 1.7 4.1 c 0 1.6 -0.6 3 -1.7 4.1 c -1.2 1.1 -2.6 1.7 -4.3 1.7 z M 281 67.6 l -0.2 -3.2 l 4.4 -1.1 c 0 -0.4 0 -1.2 0.1 -2.4 c 0 -1.2 0.1 -2.5 0.1 -4 V 41.4 c 0 -3 0 -5.5 -0.1 -7.4 c -0.1 -1.9 -0.2 -3.1 -0.4 -3.3 l -4.4 -1.1 l 0.2 -3.2 h 17.4 c 10 0 15 3.5 15 10.5 c 0 2.5 -0.8 4.7 -2.4 6.6 c -1.6 1.9 -3.8 3.3 -6.5 4.3 l 6.9 9.8 c 1.6 2.3 3.2 4 4.6 5.2 c 1.5 1.1 3.1 1.9 4.9 2.3 l -0.1 3 c -0.7 0.1 -1.3 0.2 -2 0.3 c -0.7 0 -1.3 0.1 -1.9 0.1 c -3.7 0 -6.8 -0.9 -9.3 -2.8 c -2.5 -1.9 -4.8 -5 -7 -9.3 l -3.7 -7.5 h -3 v 3.9 c 0 2.2 0 4.4 0.1 6.5 c 0.1 2.1 0.2 3.4 0.2 4.1 l 4 1.1 l -0.2 3.2 H 281 z M 293.9 30 c -0.1 0.3 -0.1 1.3 -0.1 3.1 V 45 h 2.5 c 2.5 0 4.5 -0.7 5.9 -2.2 c 1.5 -1.5 2.2 -3.4 2.2 -5.8 c 0 -4.7 -2.5 -7 -7.4 -7 h -3.1 z M 329.8 68.3 c -1.6 0 -3 -0.6 -4.1 -1.7 c -1.1 -1.1 -1.7 -2.5 -1.7 -4.1 c 0 -1.6 0.6 -3 1.7 -4.1 c 1.1 -1.1 2.5 -1.7 4.1 -1.7 c 1.7 0 3.1 0.6 4.3 1.7 c 1.1 1.1 1.7 2.5 1.7 4.1 c 0 1.6 -0.6 3 -1.7 4.1 c -1.2 1.1 -2.7 1.7 -4.3 1.7 z M 359.9 63.3 c 0.1 -0.3 0.3 -1.5 0.4 -3.5 c 0.1 -2 0.1 -4.4 0.1 -7.2 V 41.4 c 0 -3 0 -5.4 -0.1 -7.4 s -0.2 -3.1 -0.4 -3.4 l -4.4 -1 l 0.2 -3.2 h 18.9 c 9.7 0 14.5 3.3 14.5 9.9 c 0 2.2 -0.8 4.2 -2.5 5.8 c -1.7 1.6 -3.9 2.7 -6.6 3.3 c 3.6 0.5 6.4 1.6 8.3 3.3 c 1.9 1.8 2.9 4 2.9 6.9 c 0 3.8 -1.6 6.7 -4.8 8.8 c -3.2 2.1 -7.6 3.2 -13.3 3.2 h -17.4 l -0.2 -3.2 l 4.4 -1.1 z m 8.8 -24.6 v 5.7 c 0.5 0 1 0.1 1.5 0.1 h 1.7 c 2.7 0 4.7 -0.6 6.1 -1.9 c 1.4 -1.3 2.1 -3.1 2.1 -5.5 c 0 -2.2 -0.7 -3.9 -2 -5.2 S 374.7 30 372 30 h -3.2 c 0 0.4 -0.1 1.4 -0.1 3 v 5.7 z m 0 16.4 v 5.2 c 0 1.5 0.1 2.5 0.2 2.9 c 0.5 0.1 1.2 0.3 2.1 0.4 c 0.9 0.1 1.7 0.2 2.4 0.2 c 2.8 0 5 -0.6 6.5 -1.9 c 1.5 -1.3 2.3 -3.1 2.3 -5.4 c 0 -5.3 -3.3 -7.9 -9.9 -7.9 h -2.1 c -0.6 0 -1.1 0 -1.5 0.1 v 6.4 z M 407.4 68.1 c -2.1 0 -3.9 -0.4 -5.4 -1.3 c -1.5 -0.9 -2.7 -2 -3.5 -3.2 c -0.8 -1.3 -1.2 -2.5 -1.2 -3.7 c 0 -1.7 0.5 -3.1 1.5 -4.1 c 1 -1.1 2.7 -2 4.9 -2.7 l 11 -3.4 v -2.9 c 0 -1 -0.3 -2 -1 -2.9 c -0.7 -0.9 -1.5 -1.6 -2.6 -2.2 s -2.2 -0.8 -3.5 -0.8 c -0.9 0 -1.5 0.2 -1.9 0.6 c -0.4 0.4 -0.6 1.2 -0.7 2.4 l -0.3 3.8 c -2.1 0.5 -3.9 0.4 -5.2 -0.2 c -1.4 -0.6 -2.1 -1.6 -2.1 -2.9 c 0 -0.8 0.4 -1.7 1.3 -2.6 c 0.8 -0.9 1.9 -1.7 3.2 -2.5 c 1.3 -0.8 2.6 -1.5 4.1 -2 c 1.4 -0.6 2.7 -0.9 3.8 -1.1 c 4 0 7.1 0.9 9.5 2.8 c 2.3 1.9 3.5 4.4 3.6 7.5 l -0.2 10.3 c 0 2.3 0.2 4 0.5 4.9 l 4.6 0.8 v 2.7 l -4.1 1.8 c -1.5 0.7 -2.9 1 -4.1 1 c -1.7 0 -2.9 -0.9 -3.5 -2.7 l -0.6 -1.8 c -2.9 2.9 -5.6 4.4 -8.1 4.4 z m 3 -5.6 c 1.6 0 3.1 -0.7 4.3 -2 v -7 l -5.8 1.3 c -2.1 0.4 -3.2 1.6 -3.2 3.4 c 0 1.1 0.5 2.1 1.4 3 c 0.9 0.8 2 1.3 3.3 1.3 z M 430.1 67.6 l -0.2 -3 l 4.4 -1.1 c 0.1 -0.7 0.3 -3 0.4 -7.2 l 0.1 -5.3 c 0 -2.8 -0.2 -5.3 -0.6 -7.5 l -4.5 -1 v -2.9 l 11.3 -3 l 1.6 1.1 l -0.3 5.6 l 0.2 0.1 c 1.3 -2.6 2.7 -4.4 4.1 -5.3 c 1.4 -0.9 2.8 -1.4 4.3 -1.4 c 1.2 0 2.2 0.3 3.1 1 c 0.9 0.7 1.3 1.7 1.3 3 c 0 1.4 -0.5 2.5 -1.4 3.2 c -0.9 0.7 -2.1 1.1 -3.4 1.1 c -0.9 0 -1.7 -0.1 -2.4 -0.4 c -0.7 -0.2 -1.5 -0.7 -2.2 -1.3 c -1.3 1.1 -2.3 2.6 -3.2 4.6 l 0.1 5.8 c 0 2.3 0.1 4.4 0.2 6.2 s 0.2 3 0.2 3.6 l 6.1 1 l -0.2 3.2 h -19 z M 460.8 65.6 c 0.1 -2.3 0.2 -4.6 0.2 -6.9 V 42.1 v -7.4 c 0 -2.3 -0.1 -4.3 -0.1 -6 c 0 -1.7 -0.1 -2.8 -0.1 -3.5 l -5.2 -0.6 l -0.1 -2.7 l 12.2 -3.2 l 1.8 1.1 c -0.1 1.9 -0.2 3.8 -0.2 5.8 c -0.1 1.9 -0.1 4.1 -0.2 6.6 s -0.1 5.6 -0.2 9.3 l 0.2 0.1 c 1 -1.4 2.4 -2.6 4.1 -3.7 c 1.8 -1 3.6 -1.5 5.6 -1.5 c 2.3 0 4.4 0.6 6.4 1.7 s 3.6 2.8 4.8 4.9 c 1.2 2.2 1.8 4.7 1.8 7.7 c 0 3.3 -0.8 6.2 -2.4 8.9 c -1.6 2.6 -3.7 4.7 -6.5 6.3 c -2.8 1.5 -6 2.3 -9.7 2.3 c -2.2 0 -4.3 -0.2 -6.4 -0.7 c -2.1 -0.5 -4.1 -1.1 -6 -1.9 z m 14.1 -2.1 c 2.3 0 4.3 -0.9 5.9 -2.7 c 1.6 -1.8 2.4 -4.6 2.4 -8.3 c 0 -3.5 -0.8 -6.1 -2.4 -7.7 s -3.5 -2.4 -5.7 -2.4 c -1.1 0 -2.2 0.2 -3.3 0.7 c -1.1 0.5 -2 1.2 -2.8 2.1 v 16.2 c 0.7 0.6 1.7 1 2.7 1.4 c 1 0.5 2.1 0.7 3.2 0.7 z M 512.9 68.1 c -3.2 0 -6 -0.7 -8.4 -2 c -2.4 -1.3 -4.3 -3.2 -5.7 -5.6 c -1.4 -2.4 -2 -5.1 -2 -8.1 c 0 -3.3 0.8 -6.2 2.3 -8.6 c 1.5 -2.4 3.5 -4.3 6 -5.6 c 2.5 -1.3 5.2 -1.9 8.1 -1.9 c 3 0 5.7 0.7 8.1 2 c 2.3 1.3 4.1 3.1 5.4 5.5 c 1.3 2.3 1.9 5 1.9 8.1 c 0 3 -0.7 5.8 -2.1 8.3 s -3.3 4.4 -5.7 5.8 c -2.3 1.4 -5 2.1 -7.9 2.1 z m 0.7 -4 c 2 0 3.5 -0.9 4.6 -2.7 s 1.7 -4.3 1.7 -7.5 c 0 -4 -0.7 -7.3 -2.1 -9.8 c -1.4 -2.5 -3.3 -3.8 -5.6 -3.8 c -2 0 -3.6 1 -4.8 2.9 c -1.2 1.9 -1.8 4.5 -1.8 7.7 c 0 2.5 0.4 4.8 1.1 6.8 c 0.7 2 1.7 3.6 2.8 4.7 c 1.2 1.1 2.6 1.7 4.1 1.7 z M 544.8 68.1 c -1.9 0 -3.8 -0.2 -5.6 -0.6 c -1.9 -0.4 -3.4 -1 -4.7 -1.7 l -0.4 -8 h 4.1 l 1.5 5.1 c 1.7 1.1 3.5 1.6 5.6 1.6 c 1.5 0 2.7 -0.3 3.5 -1 c 0.8 -0.7 1.3 -1.5 1.3 -2.6 s -0.4 -2.1 -1.3 -2.9 c -0.8 -0.8 -2.6 -1.7 -5.1 -2.7 c -3.4 -1.3 -5.8 -2.6 -7.2 -4.1 c -1.4 -1.5 -2 -3.3 -2 -5.5 c 0 -2.7 1.2 -5 3.7 -6.7 s 5.7 -2.6 9.6 -2.6 c 1.5 0 2.9 0.1 4.4 0.4 c 1.5 0.3 2.7 0.6 3.7 1.1 l 0.8 7.9 h -4.1 l -1.6 -4.9 c -1 -0.6 -2.2 -0.9 -3.7 -0.9 s -2.7 0.3 -3.6 1 c -0.9 0.7 -1.3 1.6 -1.3 2.6 c 0 1.2 0.5 2.2 1.5 3 c 1 0.8 2.9 1.8 5.7 3 c 3.1 1.3 5.3 2.6 6.6 4 c 1.3 1.4 1.9 3.2 1.9 5.3 c 0 2.8 -1.2 5.1 -3.7 6.8 c -2.5 1.6 -5.7 2.4 -9.6 2.4 z M 573.1 68.1 c -2.1 0 -3.9 -0.4 -5.4 -1.3 c -1.5 -0.9 -2.7 -2 -3.5 -3.2 c -0.8 -1.3 -1.2 -2.5 -1.2 -3.7 c 0 -1.7 0.5 -3.1 1.5 -4.1 c 1 -1.1 2.7 -2 4.9 -2.7 l 11 -3.4 v -2.9 c 0 -1 -0.3 -2 -1 -2.9 c -0.7 -0.9 -1.5 -1.6 -2.6 -2.2 s -2.2 -0.8 -3.5 -0.8 c -0.9 0 -1.5 0.2 -1.9 0.6 c -0.4 0.4 -0.6 1.2 -0.7 2.4 l -0.3 3.8 c -2.1 0.5 -3.9 0.4 -5.2 -0.2 c -1.4 -0.6 -2.1 -1.6 -2.1 -2.9 c 0 -0.8 0.4 -1.7 1.3 -2.6 c 0.8 -0.9 1.9 -1.7 3.2 -2.5 c 1.3 -0.8 2.6 -1.5 4.1 -2 c 1.4 -0.6 2.7 -0.9 3.8 -1.1 c 4 0 7.1 0.9 9.5 2.8 c 2.3 1.9 3.5 4.4 3.6 7.5 l -0.2 10.3 c 0 2.3 0.2 4 0.5 4.9 l 4.6 0.8 v 2.7 l -4.1 1.8 c -1.5 0.7 -2.9 1 -4.1 1 c -1.7 0 -2.9 -0.9 -3.5 -2.7 l -0.6 -1.8 c -2.9 2.9 -5.6 4.4 -8.1 4.4 z m 3 -5.6 c 1.6 0 3.1 -0.7 4.3 -2 v -7 l -5.8 1.3 c -2.1 0.4 -3.2 1.6 -3.2 3.4 c 0 1.1 0.5 2.1 1.4 3 c 1 0.8 2.1 1.3 3.3 1.3 z M 38.3 124.4 c -3 0 -5.8 -0.6 -8.2 -1.8 c -2.5 -1.2 -4.5 -2.9 -6 -5.2 c -1.5 -2.3 -2.2 -5.2 -2.2 -8.7 c 0 -2.9 0.7 -5.5 2 -8 c 1.3 -2.4 3.3 -4.4 5.8 -5.9 s 5.6 -2.2 9.3 -2.2 c 1.4 0 2.9 0.1 4.5 0.4 c 1.6 0.3 3.1 0.7 4.3 1.2 l 0.4 7.1 l -2.3 0.2 l -1.5 -4.9 c -0.7 -0.5 -1.6 -0.8 -2.7 -1.1 c -1.1 -0.2 -2.2 -0.3 -3.2 -0.3 c -2.7 0 -4.8 0.6 -6.5 1.7 c -1.7 1.2 -2.9 2.7 -3.7 4.6 c -0.8 1.9 -1.2 4 -1.2 6.2 c 0 3 0.5 5.5 1.6 7.6 c 1 2.1 2.5 3.6 4.2 4.7 c 1.8 1.1 3.7 1.6 5.9 1.6 c 1.2 0 2.2 -0.1 3.1 -0.4 c 0.9 -0.2 1.8 -0.6 2.6 -1.1 l 2.4 -4.9 l 2.3 0.2 l -1.5 6.5 c -1.2 0.6 -2.6 1.2 -4.2 1.6 c -1.6 0.7 -3.4 0.9 -5.2 0.9 z M 52.4 123.9 l -0.1 -1.8 l 3.2 -0.8 c 0 -0.2 0.1 -0.8 0.1 -1.7 c 0 -0.9 0.1 -2.2 0.1 -3.9 l 0.1 -4.1 c 0 -1.2 0 -2.3 -0.1 -3.5 c -0.1 -1.2 -0.2 -2 -0.3 -2.6 l -3.4 -0.7 V 103 l 6.9 -1.9 l 0.7 0.7 l -0.2 4.3 l 0.2 0.1 c 1 -2 2.1 -3.3 3.2 -4.1 c 1.1 -0.7 2.1 -1.1 3 -1.1 c 0.8 0 1.5 0.2 2 0.6 c 0.5 0.4 0.8 1 0.8 1.8 s -0.3 1.4 -0.8 1.8 c -0.6 0.4 -1.3 0.6 -2.1 0.6 c -1 0 -1.9 -0.3 -2.8 -1 c -1.3 0.9 -2.3 2.4 -3.2 4.5 l 0.1 4.9 c 0 1.3 0.1 2.6 0.2 4 s 0.1 2.4 0.2 3 l 4.6 0.7 l -0.1 1.9 H 52.4 z M 81.3 124.4 c -2 0 -3.8 -0.5 -5.4 -1.4 c -1.6 -0.9 -2.9 -2.2 -3.9 -3.9 c -1 -1.7 -1.4 -3.7 -1.4 -6 c 0 -2.5 0.5 -4.7 1.5 -6.5 c 1 -1.8 2.3 -3.2 4 -4.2 c 1.6 -1 3.4 -1.4 5.3 -1.4 c 2.7 0 4.8 0.9 6.3 2.7 c 1.5 1.8 2.3 4.3 2.3 7.5 v 0.9 h -15 c 0.1 2.8 0.8 4.9 2.2 6.5 c 1.4 1.5 3.2 2.3 5.4 2.3 c 1.3 0 2.4 -0.2 3.4 -0.7 c 1 -0.5 1.9 -1.3 2.8 -2.4 l 1.3 1.2 c -1 1.8 -2.3 3.2 -3.7 4 c -1.7 0.9 -3.3 1.4 -5.1 1.4 z m -0.4 -21.3 c -1.4 0 -2.7 0.6 -3.8 1.7 c -1.2 1.1 -1.9 2.8 -2.1 5.1 h 11 v -0.4 c 0 -2 -0.5 -3.6 -1.4 -4.7 c -0.9 -1.1 -2.1 -1.7 -3.7 -1.7 z M 102.2 124.4 c -1.4 0 -2.6 -0.3 -3.7 -0.8 c -1.1 -0.6 -1.9 -1.3 -2.5 -2.1 c -0.6 -0.9 -0.9 -1.8 -0.9 -2.7 c 0 -1.2 0.4 -2.1 1.1 -2.9 c 0.8 -0.8 2 -1.4 3.8 -2 l 8 -2.7 v -2.7 c 0 -1.3 -0.6 -2.4 -1.7 -3.4 c -1.2 -0.9 -2.5 -1.4 -4.2 -1.4 c -0.9 0 -1.5 0.2 -1.8 0.6 c -0.3 0.4 -0.5 1.1 -0.5 2.2 l -0.2 2 c -1.2 0.3 -2.2 0.3 -3.1 -0.1 c -0.9 -0.4 -1.3 -1 -1.3 -1.8 c 0 -0.7 0.4 -1.5 1.3 -2.3 c 0.9 -0.8 1.9 -1.5 3.2 -2.1 c 1.3 -0.6 2.5 -1 3.7 -1.2 c 2.5 0 4.6 0.7 6.2 2 c 1.6 1.3 2.3 3.1 2.3 5.3 l -0.1 8.9 c 0 0.6 0 1.3 0.1 1.9 c 0.1 0.6 0.1 1.1 0.2 1.4 l 3.4 0.6 v 1.6 l -2.5 0.9 c -0.5 0.2 -0.9 0.3 -1.3 0.4 c -0.4 0.1 -0.7 0.2 -1 0.2 c -1 0 -1.7 -0.6 -2 -1.8 l -0.3 -1.4 c -2.3 2.3 -4.3 3.4 -6.2 3.4 z m 1.3 -3 c 1.6 0 3.1 -0.8 4.5 -2.3 v -5.6 l -6.1 1.7 c -1.6 0.4 -2.4 1.3 -2.4 2.7 c 0 0.9 0.4 1.7 1.2 2.4 c 0.8 0.7 1.7 1.1 2.8 1.1 z M 134.6 120.8 c -0.7 1.1 -1.6 2 -2.7 2.6 c -1.1 0.6 -2.3 0.9 -3.5 0.9 c -2.1 0 -3.8 -0.6 -5.2 -1.9 c -1.4 -1.3 -2 -3.2 -2 -5.8 l 0.1 -12.6 h -3.7 v -1 l 6.7 -6.1 h 0.9 l -0.1 4.6 h 7.9 v 2.6 h -7.9 l -0.1 11.7 c 0 1.8 0.4 3.2 1.2 4.1 c 0.8 0.9 1.9 1.3 3.3 1.3 c 0.8 0 1.6 -0.2 2.3 -0.5 c 0.7 -0.3 1.3 -0.7 1.9 -1.3 l 0.9 1.4 z M 135.7 123.9 l -0.1 -1.9 l 3.5 -0.7 c 0 -0.2 0.1 -0.6 0.1 -1.4 c 0 -0.7 0.1 -2.1 0.1 -4.2 v -3.5 c 0 -1.5 0 -2.8 -0.1 -4 c -0.1 -1.2 -0.2 -2.1 -0.3 -2.7 l -3.5 -0.7 V 103 l 7.3 -1.9 l 0.7 0.7 c -0.1 1.1 -0.2 2.1 -0.2 3.2 c -0.1 1 -0.1 2.3 -0.1 3.7 v 6.6 c 0 1.6 0 3 0.1 4.1 c 0.1 1.1 0.1 1.7 0.2 2 l 3.5 0.7 l -0.1 1.9 h -11.1 z m 5.6 -28.8 c -0.9 0 -1.6 -0.3 -2.2 -0.8 c -0.6 -0.6 -0.9 -1.3 -0.9 -2.1 s 0.3 -1.5 0.9 -2.1 c 0.6 -0.6 1.4 -0.9 2.2 -0.9 c 0.9 0 1.6 0.3 2.2 0.9 c 0.6 0.6 0.9 1.3 0.9 2.1 c 0 0.9 -0.3 1.6 -0.9 2.1 c -0.6 0.5 -1.3 0.8 -2.2 0.8 z M 159.7 124.2 l -9.2 -20.1 l -2.5 -0.8 l 0.1 -1.8 h 9.9 l 0.2 1.8 l -3.2 0.8 l 6.5 14.6 l 6 -14.6 l -3.2 -0.8 l 0.2 -1.8 h 8.5 l 0.1 1.8 l -2.5 0.8 l -9.4 20.1 h -1.5 z M 185.3 124.4 c -2 0 -3.8 -0.5 -5.4 -1.4 c -1.6 -0.9 -2.9 -2.2 -3.9 -3.9 c -1 -1.7 -1.4 -3.7 -1.4 -6 c 0 -2.5 0.5 -4.7 1.5 -6.5 c 1 -1.8 2.3 -3.2 4 -4.2 c 1.6 -1 3.4 -1.4 5.3 -1.4 c 2.7 0 4.8 0.9 6.3 2.7 c 1.5 1.8 2.3 4.3 2.3 7.5 v 0.9 h -15 c 0.1 2.8 0.8 4.9 2.2 6.5 c 1.4 1.5 3.2 2.3 5.4 2.3 c 1.3 0 2.4 -0.2 3.4 -0.7 c 1 -0.5 1.9 -1.3 2.8 -2.4 l 1.3 1.2 c -1 1.8 -2.3 3.2 -3.7 4 c -1.6 0.9 -3.2 1.4 -5.1 1.4 z m -0.4 -21.3 c -1.4 0 -2.7 0.6 -3.8 1.7 c -1.2 1.1 -1.9 2.8 -2.1 5.1 h 11.1 v -0.4 c 0 -2 -0.5 -3.6 -1.4 -4.7 c -0.9 -1.1 -2.2 -1.7 -3.8 -1.7 z M 218.9 124.4 c -2 0 -3.8 -0.4 -5.4 -1.3 c -1.6 -0.9 -2.9 -2.2 -3.9 -3.8 c -1 -1.7 -1.5 -3.7 -1.5 -6.1 c 0 -2.3 0.5 -4.3 1.5 -6.1 c 1 -1.8 2.4 -3.3 4.2 -4.3 c 1.8 -1.1 3.8 -1.6 6 -1.6 c 2.3 0 4 0.4 5.2 1.2 c 1.2 0.8 1.8 1.7 1.8 2.7 c 0 0.6 -0.2 1.1 -0.5 1.4 c -0.3 0.3 -0.8 0.5 -1.4 0.5 c -0.6 0 -1 -0.1 -1.4 -0.3 c -0.4 -0.2 -0.9 -0.6 -1.5 -1.3 l -2.3 -2.3 c -1.3 0 -2.4 0.3 -3.5 1 s -2 1.7 -2.7 3 c -0.7 1.3 -1 3 -1 5.1 c 0 2.8 0.7 5 2.1 6.5 c 1.4 1.5 3.2 2.3 5.3 2.3 c 1.4 0 2.5 -0.2 3.5 -0.7 c 1 -0.5 1.9 -1.3 2.8 -2.4 l 1.4 1.2 c -1.9 3.5 -4.8 5.3 -8.7 5.3 z M 241.3 124.4 c -2.3 0 -4.3 -0.5 -6 -1.5 c -1.7 -1 -3 -2.4 -3.9 -4.1 c -0.9 -1.7 -1.4 -3.8 -1.4 -6 c 0 -2.3 0.5 -4.4 1.6 -6.1 c 1 -1.7 2.4 -3.1 4.2 -4.1 s 3.6 -1.5 5.7 -1.5 s 4 0.5 5.6 1.4 c 1.6 1 2.9 2.3 3.7 4 c 0.9 1.7 1.3 3.7 1.3 6 c 0 2.2 -0.5 4.2 -1.4 6 c -1 1.8 -2.3 3.2 -3.9 4.3 c -1.7 1 -3.5 1.6 -5.5 1.6 z m 0.5 -2.4 c 1.8 0 3.2 -0.8 4.3 -2.4 c 1.1 -1.6 1.7 -3.6 1.7 -6.1 c 0 -3 -0.6 -5.5 -1.9 -7.4 c -1.3 -1.9 -2.9 -2.8 -5 -2.8 c -1.9 0 -3.5 0.8 -4.6 2.4 c -1.2 1.6 -1.8 3.7 -1.8 6.3 c 0 3 0.7 5.4 2 7.2 c 1.4 1.8 3.1 2.8 5.3 2.8 z M 256 123.9 l -0.1 -1.8 l 3.2 -0.8 c 0 -0.3 0.1 -0.9 0.1 -1.7 c 0 -0.8 0.1 -2.1 0.1 -3.9 l 0.1 -4.1 c 0 -1.2 0 -2.3 -0.1 -3.5 c -0.1 -1.2 -0.2 -2.1 -0.3 -2.6 l -3.4 -0.7 V 103 l 6.9 -1.9 l 0.8 0.8 l -0.3 2.8 l 0.2 0.1 c 1.2 -1.3 2.4 -2.3 3.6 -2.9 c 1.2 -0.6 2.5 -0.9 3.8 -0.9 c 1.3 0 2.5 0.3 3.6 1 c 1.1 0.6 2.1 1.6 2.8 3 c 0.7 1.3 1.1 3 1.1 5 v 5.8 c 0 1.3 0 2.4 0.1 3.5 c 0.1 1 0.1 1.7 0.2 2 l 3.2 0.8 l -0.2 1.8 h -10.3 l -0.2 -1.8 l 3 -0.8 c 0.1 -0.4 0.1 -1 0.2 -1.7 c 0 -0.8 0.1 -1.9 0.1 -3.4 v -5.8 c 0 -1.6 -0.3 -2.8 -0.8 -3.7 c -0.6 -0.9 -1.2 -1.6 -2.1 -2 c -0.8 -0.4 -1.6 -0.6 -2.4 -0.6 c -2.4 0 -4.3 1.1 -5.9 3.2 v 7.9 c 0 1.6 0 3 0.1 4 s 0.1 1.7 0.2 2.1 l 3.2 0.8 l -0.2 1.8 H 256 z M 293.3 124.4 c -1.3 0 -2.6 -0.1 -3.9 -0.4 c -1.3 -0.3 -2.4 -0.7 -3.3 -1.2 l -0.3 -5.6 h 2.5 l 1 3.8 c 1.2 0.8 2.5 1.3 4.2 1.3 c 1.2 0 2.2 -0.3 2.9 -0.9 c 0.8 -0.6 1.2 -1.4 1.2 -2.4 c 0 -0.9 -0.3 -1.7 -1 -2.4 s -2 -1.4 -3.9 -2.3 c -2.4 -1.1 -4.2 -2.1 -5.2 -3.1 s -1.5 -2.3 -1.5 -3.8 c 0 -1.8 0.8 -3.3 2.4 -4.5 c 1.6 -1.2 3.7 -1.8 6.2 -1.8 c 1 0 2 0.1 3 0.2 s 1.8 0.4 2.5 0.7 l 0.6 5.4 h -2.4 l -1.3 -3.5 c -0.8 -0.5 -1.7 -0.7 -2.8 -0.7 c -1.3 0 -2.3 0.3 -3 0.9 c -0.8 0.6 -1.1 1.3 -1.1 2.3 c 0 1 0.4 1.9 1.2 2.5 c 0.8 0.6 2.2 1.5 4.3 2.4 c 2.3 1 3.9 2.1 4.8 3.1 c 0.9 1 1.4 2.2 1.4 3.6 c 0 1.9 -0.8 3.4 -2.4 4.6 c -1.6 1.2 -3.7 1.8 -6.1 1.8 z M 327.6 120.4 l 3.3 0.8 v 1.7 l -6.7 1.6 l -0.7 -0.7 l 0.1 -3.2 l -0.2 -0.1 c -1 1.4 -2.1 2.4 -3.1 3 c -1.1 0.6 -2.2 0.9 -3.4 0.9 c -2.3 0 -4.3 -0.7 -5.8 -2.1 c -1.6 -1.4 -2.4 -3.6 -2.4 -6.5 v -4.6 c 0 -1 0 -1.9 -0.1 -2.9 c 0 -0.9 -0.1 -1.9 -0.2 -2.8 l -3.6 -0.7 V 103 l 7 -1.9 l 0.8 0.8 c -0.1 1.1 -0.1 2.3 -0.2 3.5 c 0 1.2 -0.1 2.5 -0.1 3.8 v 5.8 c 0 2.2 0.5 3.8 1.5 4.7 c 1 0.9 2.3 1.4 4 1.4 c 0.9 0 1.9 -0.2 2.9 -0.7 c 1 -0.5 1.9 -1.3 2.6 -2.6 v -6.1 c 0 -1.1 0 -2.2 -0.1 -3.4 c -0.1 -1.1 -0.1 -2.1 -0.2 -2.8 l -3.8 -0.7 V 103 l 7.2 -1.9 l 0.7 0.7 c 0 1.5 -0.1 2.7 -0.1 3.7 V 112.8 c 0 2 0 3.6 0.1 4.8 c 0.3 1.3 0.4 2.2 0.5 2.8 z M 333.8 123.9 l -0.1 -1.9 l 3.4 -0.7 c 0.1 -0.6 0.1 -1.6 0.2 -3.1 s 0.1 -3.8 0.1 -6.8 v -6.5 v -4.1 c 0 -1.4 0 -2.8 -0.1 -4 c 0 -1.3 0 -2.3 -0.1 -3.2 c 0 -0.9 0 -1.5 -0.1 -1.8 l -3.9 -0.5 l -0.1 -1.6 l 7.3 -2.1 l 1 0.7 c 0 1.5 -0.1 3 -0.1 4.4 c 0 1.4 -0.1 3.1 -0.1 4.9 v 6.4 l -0.1 8.5 c 0 2 0 3.9 0.1 5.5 c 0.1 1.7 0.1 2.7 0.2 3.2 l 3.4 0.7 l -0.1 1.9 h -10.9 z M 364.2 120.8 c -0.7 1.1 -1.6 2 -2.7 2.6 c -1.1 0.6 -2.3 0.9 -3.5 0.9 c -2.1 0 -3.8 -0.6 -5.2 -1.9 c -1.4 -1.3 -2 -3.2 -2 -5.8 l 0.1 -12.6 h -3.7 v -1 l 6.7 -6.1 h 0.9 l -0.1 4.6 h 7.9 v 2.6 h -7.9 l -0.1 11.7 c 0 1.8 0.4 3.2 1.2 4.1 c 0.8 0.9 1.9 1.3 3.3 1.3 c 0.8 0 1.6 -0.2 2.3 -0.5 c 0.7 -0.3 1.3 -0.7 1.9 -1.3 l 0.9 1.4 z M 373.9 124.4 c -1.4 0 -2.6 -0.3 -3.7 -0.8 c -1.1 -0.6 -1.9 -1.3 -2.5 -2.1 c -0.6 -0.9 -0.9 -1.8 -0.9 -2.7 c 0 -1.2 0.4 -2.1 1.1 -2.9 c 0.8 -0.8 2 -1.4 3.8 -2 l 8 -2.7 v -2.7 c 0 -1.3 -0.6 -2.4 -1.7 -3.4 c -1.2 -0.9 -2.5 -1.4 -4.2 -1.4 c -0.9 0 -1.5 0.2 -1.8 0.6 c -0.3 0.4 -0.5 1.1 -0.5 2.2 l -0.2 2 c -1.2 0.3 -2.2 0.3 -3.1 -0.1 c -0.9 -0.4 -1.3 -1 -1.3 -1.8 c 0 -0.7 0.4 -1.5 1.3 -2.3 c 0.9 -0.8 1.9 -1.5 3.2 -2.1 c 1.3 -0.6 2.5 -1 3.7 -1.2 c 2.5 0 4.6 0.7 6.2 2 c 1.6 1.3 2.3 3.1 2.3 5.3 l -0.1 8.9 c 0 0.6 0 1.3 0.1 1.9 c 0.1 0.6 0.1 1.1 0.2 1.4 l 3.4 0.6 v 1.6 l -2.5 0.9 c -0.5 0.2 -0.9 0.3 -1.3 0.4 c -0.4 0.1 -0.7 0.2 -1 0.2 c -1 0 -1.7 -0.6 -2 -1.8 l -0.3 -1.4 c -2.2 2.3 -4.2 3.4 -6.2 3.4 z m 1.3 -3 c 1.6 0 3.1 -0.8 4.5 -2.3 v -5.6 l -6.1 1.7 c -1.6 0.4 -2.4 1.3 -2.4 2.7 c 0 0.9 0.4 1.7 1.2 2.4 c 0.8 0.7 1.8 1.1 2.8 1.1 z M 390 123.9 l -0.1 -1.8 l 3.2 -0.8 c 0 -0.3 0.1 -0.9 0.1 -1.7 c 0 -0.8 0.1 -2.1 0.1 -3.9 l 0.1 -4.1 c 0 -1.2 0 -2.3 -0.1 -3.5 c -0.1 -1.2 -0.2 -2.1 -0.3 -2.6 l -3.4 -0.7 V 103 l 6.9 -1.9 l 0.8 0.8 l -0.3 2.8 l 0.2 0.1 c 1.2 -1.3 2.4 -2.3 3.6 -2.9 c 1.2 -0.6 2.5 -0.9 3.8 -0.9 c 1.3 0 2.5 0.3 3.6 1 c 1.1 0.6 2.1 1.6 2.8 3 c 0.7 1.3 1.1 3 1.1 5 v 5.8 c 0 1.3 0 2.4 0.1 3.5 c 0.1 1 0.1 1.7 0.2 2 l 3.2 0.8 l -0.2 1.8 h -10.3 l -0.2 -1.8 l 3 -0.8 c 0.1 -0.4 0.1 -1 0.2 -1.7 c 0 -0.8 0.1 -1.9 0.1 -3.4 v -5.8 c 0 -1.6 -0.3 -2.8 -0.8 -3.7 c -0.6 -0.9 -1.2 -1.6 -2.1 -2 c -0.8 -0.4 -1.6 -0.6 -2.4 -0.6 c -2.4 0 -4.3 1.1 -5.9 3.2 v 7.9 c 0 1.6 0 3 0.1 4 s 0.1 1.7 0.2 2.1 l 3.2 0.8 l -0.2 1.8 H 390 z M 435 120.8 c -0.7 1.1 -1.6 2 -2.7 2.6 c -1.1 0.6 -2.3 0.9 -3.5 0.9 c -2.1 0 -3.8 -0.6 -5.2 -1.9 c -1.4 -1.3 -2 -3.2 -2 -5.8 l 0.1 -12.6 H 418 v -1 l 6.7 -6.1 h 0.9 l -0.1 4.6 h 7.9 v 2.6 h -7.9 l -0.1 11.7 c 0 1.8 0.4 3.2 1.2 4.1 c 0.8 0.9 1.9 1.3 3.3 1.3 c 0.8 0 1.6 -0.2 2.3 -0.5 c 0.7 -0.3 1.3 -0.7 1.9 -1.3 l 0.9 1.4 z M 457.3 99.3 h 3.1 v 9.8 h 9.7 v 3.1 h -9.7 v 9.8 h -3.1 v -9.8 h -9.7 v -3.1 h 9.7 v -9.8 z M 503.2 124.5 l -0.7 -0.7 l 0.1 -3.4 l -0.2 -0.1 c -1.1 1.5 -2.2 2.5 -3.3 3.1 c -1.1 0.6 -2.3 0.9 -3.5 0.9 c -2 0 -3.8 -0.5 -5.3 -1.4 c -1.6 -0.9 -2.8 -2.2 -3.7 -3.8 c -0.9 -1.6 -1.3 -3.5 -1.3 -5.7 c 0 -2.4 0.5 -4.6 1.6 -6.5 c 1.1 -1.9 2.5 -3.3 4.2 -4.4 c 1.8 -1 3.6 -1.6 5.6 -1.6 c 1 0 2 0.1 3.1 0.4 c 1 0.2 1.9 0.6 2.6 1.2 V 100 v -3.2 c 0 -1.1 0 -2.1 -0.1 -3 c 0 -0.9 -0.1 -1.5 -0.1 -1.8 l -4.1 -0.7 l -0.1 -1.7 l 7.5 -2.1 l 0.9 0.7 c -0.1 2.2 -0.1 4.3 -0.2 6.3 c 0 2 -0.1 4.2 -0.1 6.4 l -0.1 12 c 0 1.8 0 3.3 0.1 4.6 c 0.1 1.3 0.2 2.2 0.2 2.7 l 3.3 0.8 v 1.7 l -6.4 1.8 z m -6.5 -3.5 c 1 0 2 -0.2 2.9 -0.7 c 0.9 -0.4 1.8 -1.2 2.7 -2.4 v -11.2 c -0.7 -1.2 -1.5 -2.1 -2.6 -2.6 c -1 -0.5 -2.1 -0.8 -3.1 -0.8 c -2.2 0 -3.9 0.8 -5.2 2.5 c -1.3 1.7 -1.9 3.8 -1.9 6.4 c 0 2.8 0.7 5 2.1 6.5 c 1.4 1.5 3.1 2.3 5.1 2.3 z M 524.2 124.4 c -2 0 -3.8 -0.5 -5.4 -1.4 c -1.6 -0.9 -2.9 -2.2 -3.9 -3.9 c -1 -1.7 -1.4 -3.7 -1.4 -6 c 0 -2.5 0.5 -4.7 1.5 -6.5 c 1 -1.8 2.3 -3.2 4 -4.2 c 1.6 -1 3.4 -1.4 5.3 -1.4 c 2.7 0 4.8 0.9 6.3 2.7 c 1.5 1.8 2.3 4.3 2.3 7.5 v 0.9 h -15 c 0.1 2.8 0.8 4.9 2.2 6.5 c 1.4 1.5 3.2 2.3 5.4 2.3 c 1.3 0 2.4 -0.2 3.4 -0.7 c 1 -0.5 1.9 -1.3 2.8 -2.4 l 1.3 1.2 c -1 1.8 -2.3 3.2 -3.7 4 c -1.7 0.9 -3.3 1.4 -5.1 1.4 z m -0.5 -21.3 c -1.4 0 -2.7 0.6 -3.8 1.7 c -1.2 1.1 -1.9 2.8 -2.1 5.1 h 11.1 v -0.4 c 0 -2 -0.5 -3.6 -1.4 -4.7 c -0.9 -1.1 -2.2 -1.7 -3.8 -1.7 z M 546.2 124.2 l -9.2 -20.1 l -2.5 -0.8 l 0.1 -1.8 h 9.9 l 0.2 1.8 l -3.2 0.8 l 6.5 14.6 l 6 -14.6 l -3.2 -0.8 l 0.2 -1.8 h 8.5 l 0.1 1.8 l -2.5 0.8 l -9.4 20.1 h -1.5 z M 571.8 124.4 c -2 0 -3.8 -0.5 -5.4 -1.4 c -1.6 -0.9 -2.9 -2.2 -3.9 -3.9 c -1 -1.7 -1.4 -3.7 -1.4 -6 c 0 -2.5 0.5 -4.7 1.5 -6.5 c 1 -1.8 2.3 -3.2 4 -4.2 c 1.6 -1 3.4 -1.4 5.3 -1.4 c 2.7 0 4.8 0.9 6.3 2.7 c 1.5 1.8 2.3 4.3 2.3 7.5 v 0.9 h -15 c 0.1 2.8 0.8 4.9 2.2 6.5 c 1.4 1.5 3.2 2.3 5.4 2.3 c 1.3 0 2.4 -0.2 3.4 -0.7 c 1 -0.5 1.9 -1.3 2.8 -2.4 l 1.3 1.2 c -1 1.8 -2.3 3.2 -3.7 4 c -1.7 0.9 -3.3 1.4 -5.1 1.4 z m -0.5 -21.3 c -1.4 0 -2.7 0.6 -3.8 1.7 c -1.2 1.1 -1.9 2.8 -2.1 5.1 h 11.1 v -0.4 c 0 -2 -0.5 -3.6 -1.4 -4.7 c -0.9 -1.1 -2.1 -1.7 -3.8 -1.7 z M 583.9 123.9 l -0.1 -1.9 l 3.4 -0.7 c 0.1 -0.6 0.1 -1.6 0.2 -3.1 s 0.1 -3.8 0.1 -6.8 v -6.5 v -4.1 c 0 -1.4 0 -2.8 -0.1 -4 c 0 -1.3 0 -2.3 -0.1 -3.2 c 0 -0.9 0 -1.5 -0.1 -1.8 l -3.9 -0.5 l -0.1 -1.6 l 7.3 -2.1 l 1 0.7 c 0 1.5 -0.1 3 -0.1 4.4 c 0 1.4 -0.1 3.1 -0.1 4.9 v 6.4 l -0.1 8.5 c 0 2 0 3.9 0.1 5.5 c 0.1 1.7 0.1 2.7 0.2 3.2 l 3.4 0.7 l -0.1 1.9 h -10.9 z M 609.7 124.4 c -2.3 0 -4.3 -0.5 -6 -1.5 c -1.7 -1 -3 -2.4 -3.9 -4.1 c -0.9 -1.7 -1.4 -3.8 -1.4 -6 c 0 -2.3 0.5 -4.4 1.6 -6.1 c 1 -1.7 2.4 -3.1 4.2 -4.1 s 3.6 -1.5 5.7 -1.5 s 4 0.5 5.6 1.4 c 1.6 1 2.9 2.3 3.7 4 c 0.9 1.7 1.3 3.7 1.3 6 c 0 2.2 -0.5 4.2 -1.4 6 c -1 1.8 -2.3 3.2 -3.9 4.3 c -1.6 1 -3.4 1.6 -5.5 1.6 z m 0.5 -2.4 c 1.8 0 3.2 -0.8 4.3 -2.4 c 1.1 -1.6 1.7 -3.6 1.7 -6.1 c 0 -3 -0.6 -5.5 -1.9 -7.4 c -1.3 -1.9 -2.9 -2.8 -5 -2.8 c -1.9 0 -3.5 0.8 -4.6 2.4 c -1.2 1.6 -1.8 3.7 -1.8 6.3 c 0 3 0.7 5.4 2 7.2 c 1.4 1.8 3.2 2.8 5.3 2.8 z M 624.3 135.5 l -0.1 -1.8 l 3.2 -0.8 c 0 -0.3 0.1 -1.2 0.1 -2.5 s 0.1 -3.3 0.1 -5.9 l 0.1 -13.1 c 0 -1 0 -2.1 -0.1 -3.2 s -0.2 -2 -0.3 -2.6 l -3.4 -0.7 V 103 l 6.9 -1.9 l 0.8 0.8 l -0.3 2.9 h 0.2 c 2 -2.5 4.3 -3.8 7 -3.8 c 1.9 0 3.6 0.5 5.1 1.4 c 1.5 1 2.7 2.3 3.5 4 c 0.8 1.7 1.3 3.6 1.3 5.7 c 0 2.3 -0.5 4.4 -1.6 6.3 c -1 1.8 -2.5 3.3 -4.2 4.3 s -3.8 1.6 -6 1.6 c -1.9 0 -3.6 -0.3 -5.1 -0.9 v 4 c 0 1.4 0 2.5 0.1 3.4 c 0 0.9 0.1 1.6 0.2 2.1 l 4.3 0.6 l -0.1 2 h -11.7 z m 12.6 -13.7 c 2.1 0 3.9 -0.8 5.2 -2.3 c 1.3 -1.5 2 -3.7 2 -6.5 c 0 -1.6 -0.2 -3.1 -0.8 -4.5 c -0.6 -1.3 -1.4 -2.4 -2.4 -3.1 c -1 -0.8 -2.2 -1.2 -3.6 -1.2 c -2.3 0 -4.2 1 -5.8 3.1 V 120 c 1.5 1.3 3.3 1.8 5.4 1.8 z M 663.7 124.4 c -2 0 -3.8 -0.5 -5.4 -1.4 c -1.6 -0.9 -2.9 -2.2 -3.9 -3.9 c -1 -1.7 -1.4 -3.7 -1.4 -6 c 0 -2.5 0.5 -4.7 1.5 -6.5 c 1 -1.8 2.3 -3.2 4 -4.2 c 1.6 -1 3.4 -1.4 5.3 -1.4 c 2.7 0 4.8 0.9 6.3 2.7 c 1.5 1.8 2.3 4.3 2.3 7.5 v 0.9 h -15 c 0.1 2.8 0.8 4.9 2.2 6.5 s 3.2 2.3 5.4 2.3 c 1.3 0 2.4 -0.2 3.4 -0.7 c 1 -0.5 1.9 -1.3 2.8 -2.4 l 1.3 1.2 c -1 1.8 -2.3 3.2 -3.7 4 c -1.6 0.9 -3.2 1.4 -5.1 1.4 z m -0.4 -21.3 c -1.4 0 -2.7 0.6 -3.8 1.7 c -1.2 1.1 -1.9 2.8 -2.1 5.1 h 11.1 v -0.4 c 0 -2 -0.5 -3.6 -1.4 -4.7 c -0.9 -1.1 -2.2 -1.7 -3.8 -1.7 z M 676.1 123.9 l -0.1 -1.8 l 3.2 -0.8 c 0 -0.2 0.1 -0.8 0.1 -1.7 c 0 -0.9 0.1 -2.2 0.1 -3.9 l 0.1 -4.1 c 0 -1.2 0 -2.3 -0.1 -3.5 c -0.1 -1.2 -0.2 -2 -0.3 -2.6 l -3.4 -0.7 V 103 l 6.9 -1.9 l 0.7 0.7 l -0.2 4.3 l 0.2 0.1 c 1 -2 2.1 -3.3 3.2 -4.1 c 1.1 -0.7 2.1 -1.1 3 -1.1 c 0.8 0 1.5 0.2 2 0.6 c 0.5 0.4 0.8 1 0.8 1.8 s -0.3 1.4 -0.8 1.8 c -0.6 0.4 -1.3 0.6 -2.1 0.6 c -1 0 -1.9 -0.3 -2.8 -1 c -1.3 0.9 -2.3 2.4 -3.2 4.5 l 0.1 4.9 c 0 1.3 0.1 2.6 0.2 4 s 0.1 2.4 0.2 3 l 4.6 0.7 l -0.1 1.9 h -12.3 z M 694.3 133 l -0.7 -1.5 c 1.3 -0.6 2.4 -1.3 3.1 -2.2 c 0.8 -0.9 1.1 -1.9 1.1 -3.1 c 0 -0.7 -0.1 -1.2 -0.4 -1.6 c -0.3 -0.4 -0.6 -0.7 -0.9 -1 s -0.7 -0.6 -0.9 -1 c -0.3 -0.4 -0.4 -0.9 -0.4 -1.6 c 0 -0.7 0.3 -1.4 0.8 -1.9 s 1.2 -0.8 2.1 -0.8 c 0.9 0 1.7 0.4 2.4 1.1 c 0.7 0.8 1.1 1.9 1.1 3.5 c 0 1.4 -0.3 2.7 -0.9 4 c -0.6 1.3 -1.5 2.5 -2.6 3.6 s -2.4 1.9 -3.8 2.5 z M 30.3 180.5 l -8.4 -20.1 l -2.5 -0.8 l 0.1 -1.8 h 9.4 l 0.1 1.8 l -2.7 0.8 l 5.8 14.4 l 5.6 -13.6 l -0.3 -0.8 l -2.7 -0.8 l 0.2 -1.8 h 9.4 l 0.1 1.8 l -2.7 0.8 l 5.5 14.5 l 5.6 -14.5 l -2.7 -0.8 l 0.1 -1.8 h 8.1 l 0.1 1.8 l -2.5 0.8 l -8.9 20.1 h -1.5 l -6.4 -16 l -7.2 16 h -1.6 z M 60.2 180.3 l -0.1 -1.8 l 3.2 -0.8 c 0 -0.2 0.1 -0.8 0.1 -1.7 c 0 -0.9 0.1 -2.2 0.1 -3.9 l 0.1 -4.1 c 0 -1.2 0 -2.3 -0.1 -3.5 c -0.1 -1.2 -0.2 -2 -0.3 -2.6 l -3.4 -0.7 v -1.7 l 6.9 -1.9 l 0.7 0.7 l -0.2 4.3 l 0.2 0.1 c 1 -2 2.1 -3.3 3.2 -4.1 c 1.1 -0.7 2.1 -1.1 3 -1.1 c 0.8 0 1.5 0.2 2 0.6 c 0.5 0.4 0.8 1 0.8 1.8 s -0.3 1.4 -0.8 1.8 c -0.6 0.4 -1.3 0.6 -2.1 0.6 c -1 0 -1.9 -0.3 -2.8 -1 c -1.3 0.9 -2.3 2.4 -3.2 4.5 l 0.1 4.9 c 0 1.3 0.1 2.6 0.2 4 s 0.1 2.4 0.2 3 l 4.6 0.7 l -0.1 1.9 h -12.3 z M 78.7 180.3 l -0.1 -1.9 l 3.5 -0.7 c 0 -0.2 0.1 -0.6 0.1 -1.4 c 0 -0.7 0.1 -2.1 0.1 -4.2 v -3.5 c 0 -1.5 0 -2.8 -0.1 -4 c -0.1 -1.2 -0.2 -2.1 -0.3 -2.7 l -3.5 -0.7 v -1.7 l 7.3 -1.9 l 0.7 0.7 c -0.1 1.1 -0.2 2.1 -0.2 3.2 c -0.1 1 -0.1 2.3 -0.1 3.7 v 6.6 c 0 1.6 0 3 0.1 4.1 c 0.1 1.1 0.1 1.7 0.2 2 l 3.5 0.7 l -0.1 1.9 h -11.1 z m 5.6 -28.9 c -0.9 0 -1.6 -0.3 -2.2 -0.8 c -0.6 -0.6 -0.9 -1.3 -0.9 -2.1 s 0.3 -1.5 0.9 -2.1 c 0.6 -0.6 1.4 -0.9 2.2 -0.9 c 0.9 0 1.6 0.3 2.2 0.9 c 0.6 0.6 0.9 1.3 0.9 2.1 c 0 0.9 -0.3 1.6 -0.9 2.1 c -0.6 0.6 -1.4 0.8 -2.2 0.8 z M 109.1 177.2 c -0.7 1.1 -1.6 2 -2.7 2.6 c -1.1 0.6 -2.3 0.9 -3.5 0.9 c -2.1 0 -3.8 -0.6 -5.2 -1.9 c -1.4 -1.3 -2 -3.2 -2 -5.8 l 0.1 -12.6 h -3.7 v -1 l 6.7 -6.1 h 0.9 l -0.1 4.6 h 7.9 v 2.6 h -7.9 l -0.1 11.7 c 0 1.8 0.4 3.2 1.2 4.1 c 0.8 0.9 1.9 1.3 3.3 1.3 c 0.8 0 1.6 -0.2 2.3 -0.5 c 0.7 -0.3 1.3 -0.7 1.9 -1.3 l 0.9 1.4 z M 121.4 180.7 c -2 0 -3.8 -0.5 -5.4 -1.4 c -1.6 -0.9 -2.9 -2.2 -3.9 -3.9 c -1 -1.7 -1.4 -3.7 -1.4 -6 c 0 -2.5 0.5 -4.7 1.5 -6.5 c 1 -1.8 2.3 -3.2 4 -4.2 c 1.6 -1 3.4 -1.4 5.3 -1.4 c 2.7 0 4.8 0.9 6.3 2.7 c 1.5 1.8 2.3 4.3 2.3 7.5 v 0.9 h -15 c 0.1 2.8 0.8 4.9 2.2 6.5 c 1.4 1.5 3.2 2.3 5.4 2.3 c 1.3 0 2.4 -0.2 3.4 -0.7 c 1 -0.5 1.9 -1.3 2.8 -2.4 l 1.3 1.2 c -1 1.8 -2.3 3.2 -3.7 4 c -1.6 1 -3.3 1.4 -5.1 1.4 z m -0.4 -21.2 c -1.4 0 -2.7 0.6 -3.8 1.7 c -1.2 1.1 -1.9 2.8 -2.1 5.1 h 11.1 v -0.4 c 0 -2 -0.5 -3.6 -1.4 -4.7 c -0.9 -1.1 -2.2 -1.7 -3.8 -1.7 z M 133.8 180.3 l -0.1 -1.8 l 3.2 -0.8 c 0 -0.2 0.1 -0.8 0.1 -1.7 c 0 -0.9 0.1 -2.2 0.1 -3.9 l 0.1 -4.1 c 0 -1.2 0 -2.3 -0.1 -3.5 c -0.1 -1.2 -0.2 -2 -0.3 -2.6 l -3.4 -0.7 v -1.7 l 6.9 -1.9 l 0.7 0.7 l -0.2 4.3 l 0.2 0.1 c 1 -2 2.1 -3.3 3.2 -4.1 c 1.1 -0.7 2.1 -1.1 3 -1.1 c 0.8 0 1.5 0.2 2 0.6 c 0.5 0.4 0.8 1 0.8 1.8 s -0.3 1.4 -0.8 1.8 c -0.6 0.4 -1.3 0.6 -2.1 0.6 c -1 0 -1.9 -0.3 -2.8 -1 c -1.3 0.9 -2.3 2.4 -3.2 4.5 l 0.1 4.9 c 0 1.3 0.1 2.6 0.2 4 s 0.1 2.4 0.2 3 l 4.6 0.7 l -0.1 1.9 h -12.3 z M 152 189.4 l -0.7 -1.5 c 1.3 -0.6 2.4 -1.3 3.1 -2.2 c 0.8 -0.9 1.1 -1.9 1.1 -3.1 c 0 -0.7 -0.1 -1.2 -0.4 -1.6 c -0.3 -0.4 -0.6 -0.7 -0.9 -1 c -0.3 -0.3 -0.7 -0.6 -0.9 -1 c -0.3 -0.4 -0.4 -0.9 -0.4 -1.6 c 0 -0.7 0.3 -1.4 0.8 -1.9 s 1.2 -0.8 2.1 -0.8 c 0.9 0 1.7 0.4 2.4 1.1 c 0.7 0.8 1.1 1.9 1.1 3.5 c 0 1.4 -0.3 2.7 -0.9 4 c -0.6 1.3 -1.5 2.5 -2.6 3.6 c -1.2 1.1 -2.4 1.9 -3.8 2.5 z M 173.6 180.3 l -0.1 -1.8 l 3.2 -0.8 c 0 -0.3 0.1 -0.9 0.1 -1.6 c 0 -0.7 0.1 -2.1 0.1 -4 l 0.1 -4.1 c 0 -1.1 0 -2.3 -0.1 -3.4 c -0.1 -1.2 -0.2 -2.1 -0.3 -2.6 l -3.4 -0.7 v -1.7 l 6.9 -1.9 l 0.8 0.8 l -0.3 2.9 l 0.2 0.1 c 1.1 -1.4 2.2 -2.3 3.4 -2.9 c 1.2 -0.6 2.3 -0.9 3.6 -0.9 c 1.2 0 2.4 0.3 3.6 1 c 1.2 0.7 2.2 1.8 2.9 3.2 c 1.2 -1.5 2.4 -2.6 3.7 -3.3 c 1.3 -0.7 2.7 -1 4.1 -1 c 1.4 0 2.7 0.3 3.9 1 c 1.2 0.7 2.1 1.7 2.9 3 c 0.7 1.3 1.1 2.9 1.1 4.8 l -0.1 5.9 c 0 1.3 0 2.4 0.1 3.4 s 0.1 1.7 0.2 2.1 l 3.2 0.8 l -0.2 1.8 H 203 l -0.1 -1.8 l 2.9 -0.8 c 0 -0.4 0.1 -1 0.1 -1.7 c 0.1 -0.8 0.1 -1.9 0.1 -3.4 l 0.1 -5.8 c 0 -1.6 -0.3 -2.8 -0.8 -3.7 c -0.5 -0.9 -1.2 -1.6 -2 -2 c -0.8 -0.4 -1.6 -0.6 -2.4 -0.6 c -2.3 0 -4.3 1.1 -5.9 3.3 c 0.2 0.9 0.3 1.9 0.3 2.9 l 0.1 5.5 c 0 1.3 0 2.4 0.1 3.4 s 0.1 1.7 0.2 2.1 l 3.1 0.8 l -0.1 1.8 h -10.1 l -0.2 -1.8 l 2.9 -0.8 c 0.1 -0.4 0.1 -1 0.2 -1.7 c 0 -0.8 0.1 -1.9 0.1 -3.4 v -5.8 c 0 -2.3 -0.5 -3.9 -1.6 -4.8 c -1.1 -1 -2.2 -1.4 -3.5 -1.4 c -1.1 0 -2.1 0.3 -3.1 0.8 s -1.8 1.3 -2.6 2.5 v 7.9 c 0 1.6 0 3 0.1 4 s 0.1 1.7 0.2 2.1 l 3.1 0.8 l -0.2 1.8 h -10.4 z M 239.5 157.8 l 0.1 1.8 l -2.5 0.8 l -8.9 18.8 l -4.2 8.7 c -0.8 1.6 -1.6 2.7 -2.4 3.4 c -0.8 0.7 -1.8 1 -2.9 1 c -0.8 0 -1.5 -0.2 -2.1 -0.6 c -0.5 -0.4 -0.8 -0.9 -0.8 -1.6 c 0 -0.5 0.2 -1 0.6 -1.4 c 0.4 -0.5 1 -0.8 1.9 -1 l 3.6 -1.1 l 3.7 -7.1 l -8.6 -18.9 l -2.5 -0.8 l 0.1 -1.8 h 9.9 l 0.2 1.8 l -3.2 0.8 l 6.4 14.4 l 6.1 -14.4 l -3.2 -0.8 l 0.2 -1.8 h 8.5 z M 249.3 180.7 c -1.3 0 -2.6 -0.1 -3.9 -0.4 c -1.3 -0.3 -2.4 -0.7 -3.3 -1.2 l -0.3 -5.6 h 2.5 l 1 3.8 c 1.2 0.8 2.5 1.3 4.2 1.3 c 1.2 0 2.2 -0.3 2.9 -0.9 c 0.8 -0.6 1.2 -1.4 1.2 -2.4 c 0 -0.9 -0.3 -1.7 -1 -2.4 s -2 -1.4 -3.9 -2.3 c -2.4 -1.1 -4.2 -2.1 -5.2 -3.1 s -1.5 -2.3 -1.5 -3.8 c 0 -1.8 0.8 -3.3 2.4 -4.5 c 1.6 -1.2 3.7 -1.8 6.2 -1.8 c 1 0 2 0.1 3 0.2 s 1.8 0.4 2.5 0.7 l 0.6 5.4 h -2.4 l -1.3 -3.5 c -0.8 -0.5 -1.7 -0.7 -2.8 -0.7 c -1.3 0 -2.3 0.3 -3 0.9 c -0.8 0.6 -1.1 1.3 -1.1 2.3 c 0 1 0.4 1.9 1.2 2.5 c 0.8 0.6 2.2 1.5 4.3 2.4 c 2.3 1 3.9 2.1 4.8 3.1 c 0.9 1 1.4 2.2 1.4 3.6 c 0 1.9 -0.8 3.4 -2.4 4.6 c -1.6 1.2 -3.7 1.8 -6.1 1.8 z M 277.9 177.2 c -0.7 1.1 -1.6 2 -2.7 2.6 c -1.1 0.6 -2.3 0.9 -3.5 0.9 c -2.1 0 -3.8 -0.6 -5.2 -1.9 c -1.4 -1.3 -2 -3.2 -2 -5.8 l 0.1 -12.6 h -3.7 v -1 l 6.7 -6.1 h 0.9 l -0.1 4.6 h 7.9 v 2.6 h -7.9 l -0.1 11.7 c 0 1.8 0.4 3.2 1.2 4.1 c 0.8 0.9 1.9 1.3 3.3 1.3 c 0.8 0 1.6 -0.2 2.3 -0.5 c 0.7 -0.3 1.3 -0.7 1.9 -1.3 l 0.9 1.4 z M 279.1 180.3 l -0.1 -1.9 l 3.5 -0.7 c 0 -0.2 0.1 -0.6 0.1 -1.4 c 0 -0.7 0.1 -2.1 0.1 -4.2 v -3.5 c 0 -1.5 0 -2.8 -0.1 -4 c -0.1 -1.2 -0.2 -2.1 -0.3 -2.7 l -3.5 -0.7 v -1.7 l 7.3 -1.9 l 0.7 0.7 c -0.1 1.1 -0.2 2.1 -0.2 3.2 c -0.1 1 -0.1 2.3 -0.1 3.7 v 6.6 c 0 1.6 0 3 0.1 4.1 c 0.1 1.1 0.1 1.7 0.2 2 l 3.5 0.7 l -0.1 1.9 h -11.1 z m 5.5 -28.9 c -0.9 0 -1.6 -0.3 -2.2 -0.8 c -0.6 -0.6 -0.9 -1.3 -0.9 -2.1 s 0.3 -1.5 0.9 -2.1 c 0.6 -0.6 1.4 -0.9 2.2 -0.9 c 0.9 0 1.6 0.3 2.2 0.9 c 0.6 0.6 0.9 1.3 0.9 2.1 c 0 0.9 -0.3 1.6 -0.9 2.1 c -0.6 0.6 -1.3 0.8 -2.2 0.8 z M 304.5 180.7 c -2 0 -3.8 -0.4 -5.4 -1.3 c -1.6 -0.9 -2.9 -2.2 -3.9 -3.8 c -1 -1.7 -1.5 -3.7 -1.5 -6.1 c 0 -2.3 0.5 -4.3 1.5 -6.1 c 1 -1.8 2.4 -3.3 4.2 -4.3 c 1.8 -1.1 3.8 -1.6 6 -1.6 c 2.3 0 4 0.4 5.2 1.2 c 1.2 0.8 1.8 1.7 1.8 2.7 c 0 0.6 -0.2 1.1 -0.5 1.4 c -0.3 0.3 -0.8 0.5 -1.4 0.5 c -0.6 0 -1 -0.1 -1.4 -0.3 c -0.4 -0.2 -0.9 -0.6 -1.5 -1.3 l -2.3 -2.3 c -1.3 0 -2.4 0.3 -3.5 1 s -2 1.7 -2.7 3 c -0.7 1.3 -1 3 -1 5.1 c 0 2.8 0.7 5 2.1 6.5 c 1.4 1.5 3.2 2.3 5.3 2.3 c 1.4 0 2.5 -0.2 3.5 -0.7 c 1 -0.5 1.9 -1.3 2.8 -2.4 l 1.4 1.2 c -1.9 3.6 -4.8 5.3 -8.7 5.3 z M 315.9 189.4 l -0.7 -1.5 c 1.3 -0.6 2.4 -1.3 3.1 -2.2 c 0.8 -0.9 1.1 -1.9 1.1 -3.1 c 0 -0.7 -0.1 -1.2 -0.4 -1.6 c -0.3 -0.4 -0.6 -0.7 -0.9 -1 c -0.3 -0.3 -0.7 -0.6 -0.9 -1 c -0.3 -0.4 -0.4 -0.9 -0.4 -1.6 c 0 -0.7 0.3 -1.4 0.8 -1.9 s 1.2 -0.8 2.1 -0.8 c 0.9 0 1.7 0.4 2.4 1.1 c 0.7 0.8 1.1 1.9 1.1 3.5 c 0 1.4 -0.3 2.7 -0.9 4 c -0.6 1.3 -1.5 2.5 -2.6 3.6 c -1.2 1.1 -2.4 1.9 -3.8 2.5 z M 353.7 177.2 c -0.7 1.1 -1.6 2 -2.7 2.6 c -1.1 0.6 -2.3 0.9 -3.5 0.9 c -2.1 0 -3.8 -0.6 -5.2 -1.9 c -1.4 -1.3 -2 -3.2 -2 -5.8 l 0.1 -12.6 h -3.7 v -1 l 6.7 -6.1 h 0.9 l -0.1 4.6 h 7.9 v 2.6 h -7.9 l -0.1 11.7 c 0 1.8 0.4 3.2 1.2 4.1 c 0.8 0.9 1.9 1.3 3.3 1.3 c 0.8 0 1.6 -0.2 2.3 -0.5 c 0.7 -0.3 1.3 -0.7 1.9 -1.3 l 0.9 1.4 z M 355.2 180.3 l -0.1 -1.8 l 3.2 -0.8 c 0 -0.2 0.1 -0.8 0.1 -1.7 c 0 -0.9 0.1 -2.2 0.1 -3.9 l 0.1 -4.1 c 0 -1.2 0 -2.3 -0.1 -3.5 c -0.1 -1.2 -0.2 -2 -0.3 -2.6 l -3.4 -0.7 v -1.7 l 6.9 -1.9 l 0.7 0.7 l -0.2 4.3 l 0.2 0.1 c 1 -2 2.1 -3.3 3.2 -4.1 c 1.1 -0.7 2.1 -1.1 3 -1.1 c 0.8 0 1.5 0.2 2 0.6 c 0.5 0.4 0.8 1 0.8 1.8 s -0.3 1.4 -0.8 1.8 c -0.6 0.4 -1.3 0.6 -2.1 0.6 c -1 0 -1.9 -0.3 -2.8 -1 c -1.3 0.9 -2.3 2.4 -3.2 4.5 l 0.1 4.9 c 0 1.3 0.1 2.6 0.2 4 s 0.1 2.4 0.2 3 l 4.6 0.7 l -0.1 1.9 h -12.3 z M 381.5 180.7 c -1.4 0 -2.6 -0.3 -3.7 -0.8 c -1.1 -0.6 -1.9 -1.3 -2.5 -2.1 c -0.6 -0.9 -0.9 -1.8 -0.9 -2.7 c 0 -1.2 0.4 -2.1 1.1 -2.9 c 0.8 -0.8 2 -1.4 3.8 -2 l 8 -2.7 v -2.7 c 0 -1.3 -0.6 -2.4 -1.7 -3.4 c -1.2 -0.9 -2.5 -1.4 -4.2 -1.4 c -0.9 0 -1.5 0.2 -1.8 0.6 c -0.3 0.4 -0.5 1.1 -0.5 2.2 l -0.2 2 c -1.2 0.3 -2.2 0.3 -3.1 -0.1 c -0.9 -0.4 -1.3 -1 -1.3 -1.8 c 0 -0.7 0.4 -1.5 1.3 -2.3 c 0.9 -0.8 1.9 -1.5 3.2 -2.1 c 1.3 -0.6 2.5 -1 3.7 -1.2 c 2.5 0 4.6 0.7 6.2 2 c 1.6 1.3 2.3 3.1 2.3 5.3 l -0.1 8.9 c 0 0.6 0 1.3 0.1 1.9 c 0.1 0.6 0.1 1.1 0.2 1.4 l 3.4 0.6 v 1.6 l -2.5 0.9 c -0.5 0.2 -0.9 0.3 -1.3 0.4 c -0.4 0.1 -0.7 0.2 -1 0.2 c -1 0 -1.7 -0.6 -2 -1.8 l -0.3 -1.4 c -2.2 2.4 -4.2 3.4 -6.2 3.4 z m 1.4 -3 c 1.6 0 3.1 -0.8 4.5 -2.3 v -5.6 l -6.1 1.7 c -1.6 0.4 -2.4 1.3 -2.4 2.7 c 0 0.9 0.4 1.7 1.2 2.4 c 0.8 0.8 1.7 1.1 2.8 1.1 z M 407.3 180.5 l -9.2 -20.1 l -2.5 -0.8 l 0.1 -1.8 h 9.9 l 0.2 1.8 l -3.2 0.8 L 409 175 l 6 -14.6 l -3.2 -0.8 l 0.2 -1.8 h 8.5 l 0.1 1.8 l -2.5 0.8 l -9.4 20.1 h -1.4 z M 432.9 180.7 c -2 0 -3.8 -0.5 -5.4 -1.4 c -1.6 -0.9 -2.9 -2.2 -3.9 -3.9 c -1 -1.7 -1.4 -3.7 -1.4 -6 c 0 -2.5 0.5 -4.7 1.5 -6.5 c 1 -1.8 2.3 -3.2 4 -4.2 c 1.6 -1 3.4 -1.4 5.3 -1.4 c 2.7 0 4.8 0.9 6.3 2.7 c 1.5 1.8 2.3 4.3 2.3 7.5 v 0.9 h -15 c 0.1 2.8 0.8 4.9 2.2 6.5 c 1.4 1.5 3.2 2.3 5.4 2.3 c 1.3 0 2.4 -0.2 3.4 -0.7 c 1 -0.5 1.9 -1.3 2.8 -2.4 l 1.3 1.2 c -1 1.8 -2.3 3.2 -3.7 4 c -1.7 1 -3.3 1.4 -5.1 1.4 z m -0.4 -21.2 c -1.4 0 -2.7 0.6 -3.8 1.7 c -1.2 1.1 -1.9 2.8 -2.1 5.1 h 11.1 v -0.4 c 0 -2 -0.5 -3.6 -1.4 -4.7 c -1 -1.1 -2.2 -1.7 -3.8 -1.7 z M 445 180.3 l -0.1 -1.9 l 3.4 -0.7 c 0.1 -0.6 0.1 -1.6 0.2 -3.1 s 0.1 -3.8 0.1 -6.8 v -6.5 v -4.1 c 0 -1.4 0 -2.8 -0.1 -4 c 0 -1.3 0 -2.3 -0.1 -3.2 c 0 -0.9 0 -1.5 -0.1 -1.8 l -3.9 -0.5 l -0.1 -1.6 l 7.3 -2.1 l 1 0.7 c 0 1.5 -0.1 3 -0.1 4.4 c 0 1.4 -0.1 3.1 -0.1 4.9 v 6.4 l -0.1 8.5 c 0 2 0 3.9 0.1 5.5 c 0.1 1.7 0.1 2.7 0.2 3.2 l 3.4 0.7 l -0.1 1.9 H 445 z M 458.9 180.3 l -0.1 -1.9 l 3.4 -0.7 c 0.1 -0.6 0.1 -1.6 0.2 -3.1 s 0.1 -3.8 0.1 -6.8 v -6.5 v -4.1 c 0 -1.4 0 -2.8 -0.1 -4 c 0 -1.3 0 -2.3 -0.1 -3.2 c 0 -0.9 0 -1.5 -0.1 -1.8 l -3.9 -0.5 l -0.1 -1.6 l 7.3 -2.1 l 1 0.7 c 0 1.5 -0.1 3 -0.1 4.4 c 0 1.4 -0.1 3.1 -0.1 4.9 v 6.4 l -0.1 8.5 c 0 2 0 3.9 0.1 5.5 c 0.1 1.7 0.1 2.7 0.2 3.2 l 3.4 0.7 l -0.1 1.9 h -10.9 z M 484.2 180.7 c -2 0 -3.8 -0.5 -5.4 -1.4 c -1.6 -0.9 -2.9 -2.2 -3.9 -3.9 c -1 -1.7 -1.4 -3.7 -1.4 -6 c 0 -2.5 0.5 -4.7 1.5 -6.5 c 1 -1.8 2.3 -3.2 4 -4.2 c 1.6 -1 3.4 -1.4 5.3 -1.4 c 2.7 0 4.8 0.9 6.3 2.7 c 1.5 1.8 2.3 4.3 2.3 7.5 v 0.9 h -15 c 0.1 2.8 0.8 4.9 2.2 6.5 c 1.4 1.5 3.2 2.3 5.4 2.3 c 1.3 0 2.4 -0.2 3.4 -0.7 c 1 -0.5 1.9 -1.3 2.8 -2.4 l 1.3 1.2 c -1 1.8 -2.3 3.2 -3.7 4 c -1.6 1 -3.2 1.4 -5.1 1.4 z m -0.4 -21.2 c -1.4 0 -2.7 0.6 -3.8 1.7 c -1.2 1.1 -1.9 2.8 -2.1 5.1 H 489 v -0.4 c 0 -2 -0.5 -3.6 -1.4 -4.7 c -0.9 -1.1 -2.2 -1.7 -3.8 -1.7 z M 496.6 180.3 l -0.1 -1.8 l 3.2 -0.8 c 0 -0.2 0.1 -0.8 0.1 -1.7 c 0 -0.9 0.1 -2.2 0.1 -3.9 l 0.1 -4.1 c 0 -1.2 0 -2.3 -0.1 -3.5 c -0.1 -1.2 -0.2 -2 -0.3 -2.6 l -3.4 -0.7 v -1.7 l 6.9 -1.9 l 0.7 0.7 l -0.2 4.3 l 0.2 0.1 c 1 -2 2.1 -3.3 3.2 -4.1 c 1.1 -0.7 2.1 -1.1 3 -1.1 c 0.8 0 1.5 0.2 2 0.6 c 0.5 0.4 0.8 1 0.8 1.8 s -0.3 1.4 -0.8 1.8 c -0.6 0.4 -1.3 0.6 -2.1 0.6 c -1 0 -1.9 -0.3 -2.8 -1 c -1.3 0.9 -2.3 2.4 -3.2 4.5 l 0.1 4.9 c 0 1.3 0.1 2.6 0.2 4 s 0.1 2.4 0.2 3 l 4.6 0.7 l -0.1 1.9 h -12.3 z M 518.7 180.8 c -0.9 0 -1.7 -0.3 -2.3 -0.9 c -0.6 -0.6 -0.9 -1.3 -0.9 -2.2 c 0 -0.9 0.3 -1.6 0.9 -2.2 c 0.6 -0.6 1.4 -0.9 2.3 -0.9 c 0.9 0 1.7 0.3 2.3 0.9 c 0.6 0.6 0.9 1.3 0.9 2.2 c 0 0.9 -0.3 1.6 -0.9 2.2 c -0.7 0.6 -1.4 0.9 -2.3 0.9 z" class="st1"/></g><g id="Contacts"><path d="M 23.4 442.5 c -1.6 0 -2.9 -0.3 -3.9 -1 S 18 440 18 439.1 c 0 -0.9 0.4 -1.8 1.1 -2.5 c 0.8 1 1.7 1.8 2.7 2.5 c 1 0.7 1.9 1 2.7 1 c 1.4 0 2.1 -0.7 2.1 -2 c 0 -0.5 -0.2 -0.9 -0.5 -1.4 c -0.4 -0.5 -1.1 -1.1 -2.2 -1.9 c -1.4 -1 -2.3 -1.9 -2.8 -2.6 c -0.5 -0.8 -0.8 -1.6 -0.8 -2.5 c 0 -1.2 0.3 -2.2 1 -3.1 c 0.7 -0.9 1.6 -1.6 2.7 -2.2 c 1.1 -0.5 2.3 -0.8 3.7 -0.8 c 1.3 0 2.4 0.2 3.4 0.8 c 1 0.5 1.5 1.2 1.5 2.2 c 0 0.5 -0.1 0.9 -0.2 1.3 c -0.2 0.4 -0.4 0.7 -0.7 1 c -1.8 -2 -3.3 -3 -4.8 -3 c -0.7 0 -1.2 0.2 -1.6 0.6 c -0.4 0.4 -0.6 0.9 -0.6 1.5 c 0 0.5 0.2 1 0.6 1.4 c 0.4 0.5 1.2 1.1 2.4 2.1 c 1.3 1 2.2 1.8 2.7 2.5 s 0.7 1.4 0.7 2.3 c 0 1.1 -0.3 2.2 -1 3.1 c -0.7 0.9 -1.6 1.7 -2.7 2.2 c -1.4 0.6 -2.6 0.9 -4 0.9 z M 40 442.5 c -1.9 0 -3.4 -0.6 -4.6 -1.8 c -1.2 -1.2 -1.7 -2.8 -1.7 -4.8 c 0 -1.6 0.3 -3.1 0.8 -4.6 c 0.6 -1.5 1.3 -2.8 2.3 -4 c 1 -1.2 2.1 -2.1 3.4 -2.8 c 1.3 -0.7 2.6 -1 4 -1 c 1.9 0 3.4 0.6 4.6 1.8 c 1.2 1.2 1.8 2.8 1.8 4.8 c 0 1.6 -0.3 3.1 -0.8 4.6 c -0.6 1.5 -1.3 2.8 -2.3 3.9 c -1 1.2 -2.1 2.1 -3.4 2.8 c -1.3 0.7 -2.6 1.1 -4.1 1.1 z m 1.1 -2.4 c 0.9 0 1.7 -0.4 2.4 -1.3 s 1.2 -2.1 1.6 -3.5 c 0.4 -1.5 0.6 -3.1 0.6 -4.8 c 0 -1.4 -0.2 -2.5 -0.7 -3.3 s -1 -1.3 -1.8 -1.3 c -0.9 0 -1.7 0.5 -2.4 1.4 c -0.7 0.9 -1.2 2.1 -1.6 3.6 c -0.4 1.5 -0.6 3.1 -0.6 4.8 c 0 1.4 0.2 2.6 0.7 3.4 c 0.5 0.6 1.1 1 1.8 1 z M 62.3 426.1 c -0.8 0 -1.5 0.4 -2.2 1.2 s -1.3 1.8 -1.7 3.2 c -0.4 1.3 -0.6 2.8 -0.6 4.5 c 0 1.3 0.3 2.3 0.9 3 c 0.6 0.7 1.3 1 2.2 1 c 0.6 0 1.4 -0.2 2.3 -0.7 c 0.9 -0.4 1.8 -1.2 2.7 -2.2 l 1.2 1.7 c -1.1 1.6 -2.4 2.7 -3.9 3.5 c -1.4 0.8 -2.7 1.2 -3.9 1.2 c -1.9 0 -3.4 -0.6 -4.6 -1.8 c -1.2 -1.2 -1.9 -2.8 -1.9 -4.8 c 0 -1.5 0.3 -3 0.8 -4.5 s 1.3 -2.8 2.3 -4 c 1 -1.2 2.1 -2.1 3.5 -2.8 s 2.8 -1 4.4 -1 c 1.3 0 2.3 0.3 3.1 0.8 c 0.8 0.5 1.2 1.3 1.2 2.2 c 0 0.5 -0.1 0.9 -0.3 1.3 s -0.4 0.8 -0.8 1.1 c -0.8 -0.9 -1.6 -1.6 -2.4 -2.2 c -0.8 -0.4 -1.6 -0.7 -2.3 -0.7 z M 72.2 442.5 c -1.4 0 -2.2 -0.8 -2.2 -2.3 c 0 -0.4 0.1 -1.1 0.3 -2 c 0.2 -0.9 0.5 -1.9 0.8 -3 c 0.3 -1.1 0.6 -2.2 1 -3.3 c 0.3 -1.1 0.6 -2.1 0.8 -3 c 0.2 -0.9 0.3 -1.6 0.3 -2.1 c -0.6 0.3 -1.1 0.8 -1.7 1.3 c -0.6 0.5 -1.1 1.2 -1.7 2 l -1.2 -1.5 c 1 -1.4 2.2 -2.5 3.5 -3.5 c 1.3 -1 2.5 -1.5 3.6 -1.5 c 1.4 0 2.2 0.8 2.2 2.3 c 0 0.4 -0.1 1.1 -0.3 2 c -0.2 0.9 -0.5 1.9 -0.8 3 c -0.3 1.1 -0.7 2.2 -1 3.3 c -0.3 1.1 -0.6 2.1 -0.8 3 c -0.2 0.9 -0.3 1.6 -0.3 2 c 0.6 -0.3 1.1 -0.8 1.7 -1.3 c 0.5 -0.5 1.1 -1.1 1.7 -1.9 l 1.2 1.4 c -1.1 1.4 -2.2 2.6 -3.5 3.5 c -1.3 1.1 -2.5 1.6 -3.6 1.6 z m 4.9 -22.7 c -0.9 0 -1.5 -0.2 -2 -0.8 c -0.5 -0.5 -0.7 -1.1 -0.7 -1.9 c 0 -0.9 0.3 -1.7 1 -2.4 c 0.6 -0.7 1.4 -1 2.4 -1 c 0.8 0 1.5 0.2 1.9 0.7 c 0.5 0.5 0.7 1.1 0.7 1.8 c 0 1 -0.3 1.8 -0.9 2.5 c -0.6 0.8 -1.4 1.1 -2.4 1.1 z M 84.9 442.5 c -1.1 0 -2 -0.4 -2.6 -1.3 c -0.6 -0.8 -1 -2 -1 -3.3 c 0 -2 0.4 -3.8 1.1 -5.5 c 0.7 -1.7 1.6 -3.2 2.8 -4.5 c 1.2 -1.3 2.4 -2.3 3.8 -3.1 s 2.7 -1.1 4.1 -1.1 c 0.6 0 1.2 0.1 1.7 0.4 c 0.5 0.3 1 0.6 1.4 1.1 l 1.3 -1.2 h 2.9 c -0.4 1.3 -0.8 2.7 -1.3 4.2 l -1.2 4.5 c -0.4 1.5 -0.7 2.8 -0.9 3.9 c -0.2 1.2 -0.3 2.1 -0.3 2.7 c 0.6 -0.3 1.1 -0.8 1.7 -1.3 c 0.5 -0.5 1.1 -1.1 1.6 -1.9 l 1.2 1.4 c -1 1.4 -2.2 2.6 -3.5 3.5 c -1.3 1 -2.5 1.4 -3.6 1.4 c -1.3 0 -2 -0.7 -2 -2.1 c 0 -0.5 0.1 -1.3 0.3 -2.3 c 0.2 -1 0.6 -2.5 1.1 -4.3 c -1.3 2.7 -2.6 4.9 -4.2 6.4 c -1.4 1.6 -2.9 2.4 -4.4 2.4 z m 1.3 -5.7 c 0 1.4 0.3 2 0.9 2 c 0.4 0 0.9 -0.3 1.5 -1 c 0.7 -0.7 1.4 -1.6 2.2 -2.8 c 0.8 -1.2 1.5 -2.4 2.3 -3.9 s 1.4 -2.9 1.9 -4.4 c -0.4 -0.3 -0.8 -0.5 -1.3 -0.6 c -0.5 -0.1 -0.9 -0.2 -1.4 -0.2 c -1.1 0 -2.2 0.5 -3.1 1.5 c -0.9 1 -1.7 2.3 -2.2 3.9 s -0.8 3.6 -0.8 5.5 z M 105.3 442.5 c -1.4 0 -2.1 -0.7 -2.1 -2 c 0 -0.4 0 -0.7 0.1 -1.1 c 0.1 -0.4 0.2 -1 0.4 -1.8 s 0.5 -2.1 0.9 -3.9 l 4.1 -16.7 l -3 -0.4 l 0.3 -1.5 l 7.4 -2 l 0.8 0.7 c -0.4 1.5 -0.8 3 -1.2 4.3 c -0.3 1.3 -0.7 2.7 -1 4 l -3 11.9 c -0.3 1.2 -0.5 2.3 -0.7 3.3 c -0.2 1 -0.3 1.7 -0.3 2 c 0.6 -0.3 1.1 -0.8 1.7 -1.3 c 0.5 -0.5 1.1 -1.1 1.6 -1.9 l 1.2 1.4 c -1 1.4 -2.2 2.6 -3.5 3.5 c -1.3 1 -2.5 1.5 -3.7 1.5 z M 117.6 442.6 c -0.9 0 -1.7 -0.3 -2.4 -0.9 c -0.7 -0.6 -1 -1.4 -1 -2.3 c 0 -0.9 0.3 -1.7 1 -2.4 s 1.5 -1 2.4 -1 c 0.9 0 1.7 0.3 2.4 1 s 1 1.5 1 2.4 c 0 0.9 -0.3 1.7 -1 2.3 c -0.7 0.5 -1.5 0.9 -2.4 0.9 z m 2.6 -12.4 c -0.9 0 -1.7 -0.3 -2.4 -0.9 c -0.7 -0.6 -1 -1.4 -1 -2.4 s 0.3 -1.7 1 -2.4 c 0.7 -0.6 1.5 -1 2.4 -1 c 1 0 1.8 0.3 2.4 1 c 0.7 0.6 1 1.4 1 2.4 s -0.3 1.7 -1 2.4 c -0.7 0.6 -1.5 0.9 -2.4 0.9 z M 152.8 451.6 c -3.5 0 -6.6 -0.6 -9.3 -1.9 c -2.7 -1.3 -4.9 -3.1 -6.4 -5.6 c -1.6 -2.5 -2.3 -5.5 -2.3 -9 c 0 -2.6 0.5 -5.1 1.4 -7.2 c 0.9 -2.2 2.3 -4.1 4 -5.7 c 1.7 -1.6 3.8 -2.8 6.2 -3.7 c 2.4 -0.9 5 -1.3 7.9 -1.3 c 3 0 5.7 0.5 8.1 1.5 c 2.4 1 4.3 2.5 5.8 4.5 c 1.4 2 2.1 4.4 2.1 7.2 c 0 1.6 -0.3 3.1 -0.9 4.6 c -0.6 1.4 -1.5 2.7 -2.5 3.8 c -1.1 1.1 -2.3 2 -3.6 2.6 c -1.3 0.6 -2.7 0.9 -4.1 0.9 c -0.7 0 -1.3 -0.1 -1.6 -0.4 c -0.4 -0.3 -0.6 -0.7 -0.8 -1.2 l -0.3 -1.1 c -1.6 1.8 -3.2 2.7 -4.8 2.7 c -1.3 0 -2.3 -0.3 -3.2 -0.8 c -0.9 -0.5 -1.6 -1.2 -2.1 -1.9 c -0.5 -0.8 -0.7 -1.5 -0.7 -2.2 c 0 -1 0.3 -1.8 0.9 -2.5 c 0.6 -0.6 1.6 -1.2 2.9 -1.6 l 6.5 -2 v -1.7 c 0 -0.6 -0.2 -1.2 -0.6 -1.7 c -0.4 -0.5 -0.9 -1 -1.5 -1.3 c -0.6 -0.3 -1.3 -0.5 -2 -0.5 c -0.6 0 -0.9 0.1 -1.1 0.4 s -0.3 0.7 -0.4 1.4 l -0.2 2.3 c -0.5 0.1 -1 0.2 -1.5 0.2 c -0.9 0 -1.6 -0.2 -2.1 -0.5 s -0.8 -0.8 -0.8 -1.5 c 0 -0.5 0.2 -1 0.8 -1.5 c 0.5 -0.5 1.1 -1 1.9 -1.5 s 1.6 -0.9 2.4 -1.2 c 0.8 -0.3 1.6 -0.5 2.3 -0.6 c 2.3 0 4.2 0.6 5.6 1.7 c 1.4 1.1 2.1 2.6 2.1 4.5 l -0.1 7.4 c 0 1.4 0.1 2.3 0.3 2.9 c 1 0 1.9 -0.4 2.8 -1.1 c 0.9 -0.7 1.6 -1.8 2.2 -3.2 c 0.6 -1.4 0.8 -3.1 0.8 -5.2 c 0 -2.6 -0.5 -4.6 -1.5 -6.3 c -1 -1.6 -2.5 -2.8 -4.3 -3.6 c -1.9 -0.8 -4 -1.1 -6.5 -1.1 c -3.1 0 -5.8 0.6 -8 1.9 c -2.2 1.2 -3.9 3 -5.1 5.3 c -1.2 2.3 -1.8 5 -1.8 8.1 c 0 3.2 0.6 5.9 1.7 8 c 1.1 2.2 2.7 3.8 4.8 4.9 c 2.1 1.1 4.5 1.6 7.3 1.6 c 1.3 0 2.5 -0.1 3.6 -0.4 c 1.2 -0.2 2.2 -0.5 3.1 -0.9 l 0.7 2 c -2.7 1 -5.3 1.5 -8.1 1.5 z m 0.5 -12.5 c 1 0 1.8 -0.4 2.5 -1.2 v -4.2 l -3.4 0.8 c -1.3 0.2 -1.9 0.9 -1.9 2 c 0 0.7 0.3 1.3 0.8 1.8 c 0.6 0.5 1.2 0.8 2 0.8 z M 184 442.1 h -10.8 l -0.1 -1.8 l 2.6 -0.7 c 0 -0.5 0 -1 0.1 -1.5 V 436 v -9.5 h -3 v -1.8 l 3 -0.8 v -1.6 c 0 -1.8 0.3 -3.4 1 -4.8 s 1.5 -2.5 2.7 -3.3 c 1.1 -0.8 2.4 -1.2 3.9 -1.2 c 1.3 0 2.4 0.3 3.3 0.8 s 1.3 1.2 1.3 2.1 c 0 0.5 -0.2 0.9 -0.5 1.2 s -0.8 0.4 -1.3 0.4 c -0.8 0 -1.5 -0.3 -2.3 -1 l -1.7 -1.6 c -1.2 0.7 -1.8 2.6 -1.8 5.7 v 3.3 h 4.5 v 2.5 h -4.5 v 5.7 c 0 1.3 0 2.7 0.1 4.1 c 0 1.4 0.1 2.5 0.1 3.4 l 3.4 0.7 v 1.8 z M 193.3 442.5 c -1.3 0 -2.3 -0.3 -3.2 -0.8 c -0.9 -0.5 -1.6 -1.2 -2.1 -1.9 s -0.7 -1.5 -0.7 -2.2 c 0 -1 0.3 -1.8 0.9 -2.5 c 0.6 -0.6 1.6 -1.2 2.9 -1.6 l 6.5 -2 v -1.7 c 0 -0.6 -0.2 -1.2 -0.6 -1.7 c -0.4 -0.5 -0.9 -1 -1.5 -1.3 s -1.3 -0.5 -2.1 -0.5 c -0.5 0 -0.9 0.1 -1.1 0.4 s -0.3 0.7 -0.4 1.4 l -0.2 2.3 c -1.3 0.3 -2.3 0.2 -3.1 -0.1 c -0.8 -0.3 -1.2 -0.9 -1.2 -1.7 c 0 -0.5 0.2 -1 0.8 -1.5 c 0.5 -0.5 1.1 -1 1.9 -1.5 c 0.8 -0.5 1.6 -0.9 2.4 -1.2 c 0.8 -0.3 1.6 -0.5 2.3 -0.6 c 2.4 0 4.2 0.6 5.6 1.7 c 1.4 1.1 2.1 2.6 2.1 4.5 l -0.1 6.1 c 0 1.4 0.1 2.3 0.3 2.9 l 2.7 0.5 v 1.6 l -2.5 1 c -0.9 0.4 -1.7 0.6 -2.4 0.6 c -1 0 -1.7 -0.5 -2.1 -1.6 l -0.4 -1.1 c -1.6 1.6 -3.2 2.5 -4.7 2.5 z m 1.8 -3.4 c 1 0 1.8 -0.4 2.5 -1.2 v -4.2 l -3.4 0.8 c -1.3 0.2 -1.9 0.9 -1.9 2 c 0 0.7 0.3 1.3 0.8 1.8 c 0.6 0.5 1.3 0.8 2 0.8 z M 208.8 441 c 0.1 -1.4 0.1 -2.7 0.1 -4.1 V 427 v -4.4 c 0 -1.4 0 -2.6 -0.1 -3.5 c 0 -1 -0.1 -1.7 -0.1 -2.1 l -3.1 -0.4 l -0.1 -1.6 l 7.3 -1.9 l 1 0.7 c -0.1 1.1 -0.1 2.3 -0.1 3.4 s -0.1 2.5 -0.1 3.9 c 0 1.5 -0.1 3.3 -0.1 5.5 h 0.1 c 0.6 -0.8 1.4 -1.6 2.4 -2.2 s 2.1 -0.9 3.3 -0.9 c 1.4 0 2.6 0.3 3.8 1 c 1.2 0.7 2.1 1.6 2.9 2.9 c 0.7 1.3 1.1 2.8 1.1 4.6 c 0 1.9 -0.5 3.7 -1.4 5.3 c -0.9 1.6 -2.2 2.8 -3.9 3.7 c -1.6 0.9 -3.6 1.4 -5.8 1.4 c -1.3 0 -2.5 -0.1 -3.8 -0.4 c -1.1 -0.2 -2.3 -0.6 -3.4 -1 z m 8.3 -1.3 c 1.4 0 2.6 -0.5 3.5 -1.6 c 0.9 -1.1 1.4 -2.7 1.4 -4.9 c 0 -2.1 -0.5 -3.6 -1.4 -4.6 c -1 -1 -2.1 -1.4 -3.4 -1.4 c -0.7 0 -1.3 0.1 -2 0.4 c -0.7 0.3 -1.2 0.7 -1.6 1.3 v 9.6 c 0.4 0.3 1 0.6 1.6 0.8 s 1.3 0.4 1.9 0.4 z M 229.4 442.1 l -0.1 -1.8 l 2.8 -0.6 c 0.1 -0.4 0.2 -1.8 0.2 -4.3 v -3.2 c 0 -1.7 -0.1 -3.2 -0.4 -4.5 l -2.8 -0.6 v -1.7 l 7.2 -1.8 l 1 0.7 c -0.1 0.9 -0.1 1.7 -0.2 2.6 c 0 0.9 -0.1 1.9 -0.1 3 v 5.3 c 0 1 0 2 0.1 2.8 c 0 0.8 0.1 1.4 0.2 1.6 l 2.8 0.6 l -0.1 1.8 h -10.6 z m 5.3 -22.3 c -1 0 -1.8 -0.3 -2.4 -0.9 c -0.6 -0.6 -0.9 -1.3 -0.9 -2.1 s 0.3 -1.5 0.9 -2.1 c 0.6 -0.6 1.4 -0.9 2.4 -0.9 s 1.8 0.3 2.3 0.9 s 0.8 1.3 0.8 2.1 s -0.3 1.6 -0.8 2.1 c -0.5 0.6 -1.3 0.9 -2.3 0.9 z M 251.7 442.5 c -1.9 0 -3.6 -0.4 -5 -1.2 c -1.4 -0.8 -2.6 -1.9 -3.4 -3.3 c -0.8 -1.4 -1.2 -3 -1.2 -4.8 c 0 -2 0.5 -3.7 1.4 -5.1 c 0.9 -1.4 2.1 -2.5 3.6 -3.3 c 1.5 -0.8 3.1 -1.1 4.8 -1.1 c 1.8 0 3.4 0.4 4.8 1.2 s 2.4 1.9 3.2 3.3 c 0.8 1.4 1.1 3 1.1 4.8 c 0 1.8 -0.4 3.4 -1.3 4.9 c -0.8 1.5 -2 2.6 -3.4 3.5 c -1.3 0.6 -2.9 1.1 -4.6 1.1 z m 0.4 -2.5 c 1.2 0 2.1 -0.5 2.8 -1.6 c 0.7 -1.1 1 -2.6 1 -4.4 c 0 -2.4 -0.4 -4.3 -1.3 -5.8 c -0.8 -1.5 -2 -2.3 -3.3 -2.3 c -1.2 0 -2.1 0.6 -2.9 1.7 c -0.7 1.1 -1.1 2.7 -1.1 4.5 c 0 1.5 0.2 2.8 0.6 4 s 1 2.1 1.7 2.8 c 0.8 0.8 1.6 1.1 2.5 1.1 z M 263.4 442.1 l -0.1 -1.8 l 2.6 -0.7 c 0.1 -0.4 0.2 -1.8 0.2 -4.3 v -3.2 c 0 -1.7 -0.1 -3.2 -0.4 -4.5 l -2.7 -0.6 v -1.7 l 6.8 -1.8 l 1 0.7 l -0.2 2.3 h 0.1 c 0.9 -1.1 1.8 -1.9 2.7 -2.4 c 1 -0.5 2 -0.8 3 -0.8 s 2 0.3 3 0.8 c 0.9 0.5 1.7 1.3 2.3 2.5 c 0.9 -1.1 1.9 -1.9 2.9 -2.4 c 1 -0.6 2.1 -0.8 3.3 -0.8 c 1.9 0 3.5 0.7 4.7 2 c 1.2 1.3 1.8 3.1 1.8 5.4 v 4.4 c 0 0.9 0 1.8 0.1 2.6 c 0 0.8 0.1 1.4 0.2 1.6 l 2.6 0.7 l -0.1 1.8 h -9.7 l -0.1 -1.8 l 2.3 -0.7 c 0.1 -0.3 0.1 -0.9 0.1 -1.7 c 0 -0.8 0.1 -1.6 0.1 -2.5 v -3.9 c 0 -1.7 -0.4 -2.8 -1.1 -3.5 c -0.7 -0.7 -1.6 -1 -2.6 -1 c -1.5 0 -2.8 0.6 -3.8 1.9 c 0.1 0.7 0.2 1.4 0.2 2.1 l 0.1 4.3 v 2.6 c 0 0.8 0.1 1.4 0.2 1.6 l 2.4 0.7 l -0.1 1.8 h -9.4 l -0.1 -1.8 l 2.2 -0.7 c 0.1 -0.3 0.1 -0.9 0.1 -1.6 c 0 -0.8 0.1 -1.6 0.1 -2.5 v -4.1 c 0 -1.6 -0.3 -2.7 -1 -3.4 c -0.7 -0.7 -1.5 -1 -2.5 -1 c -0.7 0 -1.4 0.2 -2 0.5 s -1.2 0.9 -1.7 1.5 v 6.2 c 0 1 0 2 0.1 2.8 c 0 0.8 0.1 1.4 0.2 1.6 l 2.4 0.7 l -0.1 1.8 h -10.1 z M 299 442.1 l -0.1 -1.8 l 2.6 -0.7 c 0.1 -0.4 0.2 -1.8 0.2 -4.3 v -3.2 c 0 -1.7 -0.1 -3.2 -0.4 -4.5 l -2.7 -0.6 v -1.7 l 6.7 -1.8 l 1 0.7 l -0.2 3.3 h 0.1 c 0.8 -1.6 1.6 -2.6 2.4 -3.2 c 0.8 -0.6 1.7 -0.8 2.5 -0.8 c 0.7 0 1.3 0.2 1.8 0.6 c 0.5 0.4 0.8 1 0.8 1.8 s -0.3 1.5 -0.8 1.9 c -0.6 0.4 -1.2 0.6 -2 0.6 c -0.5 0 -1 -0.1 -1.4 -0.2 c -0.4 -0.1 -0.9 -0.4 -1.3 -0.8 c -0.8 0.7 -1.4 1.6 -1.9 2.7 v 3.5 c 0 1.4 0.1 2.6 0.1 3.7 s 0.1 1.8 0.1 2.1 l 3.6 0.6 l -0.1 1.9 h -11 z M 317.2 441 c 0.1 -1.4 0.1 -2.7 0.1 -4.1 V 427 v -4.4 c 0 -1.4 0 -2.6 -0.1 -3.5 c 0 -1 -0.1 -1.7 -0.1 -2.1 l -3.1 -0.4 V 415 l 7.3 -1.9 l 1 0.7 c -0.1 1.1 -0.1 2.3 -0.1 3.4 s -0.1 2.5 -0.1 3.9 c 0 1.5 -0.1 3.3 -0.1 5.5 h 0.1 c 0.6 -0.8 1.4 -1.6 2.4 -2.2 s 2.1 -0.9 3.3 -0.9 c 1.4 0 2.6 0.3 3.8 1 c 1.2 0.7 2.1 1.6 2.9 2.9 c 0.7 1.3 1.1 2.8 1.1 4.6 c 0 1.9 -0.5 3.7 -1.4 5.3 c -0.9 1.6 -2.2 2.8 -3.9 3.7 c -1.6 0.9 -3.6 1.4 -5.8 1.4 c -1.3 0 -2.5 -0.1 -3.8 -0.4 c -1.2 -0.2 -2.4 -0.6 -3.5 -1 z m 8.3 -1.3 c 1.4 0 2.6 -0.5 3.5 -1.6 c 0.9 -1.1 1.4 -2.7 1.4 -4.9 c 0 -2.1 -0.5 -3.6 -1.4 -4.6 c -1 -1 -2.1 -1.4 -3.4 -1.4 c -0.7 0 -1.3 0.1 -2 0.4 c -0.7 0.3 -1.2 0.7 -1.6 1.3 v 9.6 c 0.4 0.3 1 0.6 1.6 0.8 s 1.3 0.4 1.9 0.4 z M 344.9 442.5 c -1.3 0 -2.3 -0.3 -3.2 -0.8 c -0.9 -0.5 -1.6 -1.2 -2.1 -1.9 s -0.7 -1.5 -0.7 -2.2 c 0 -1 0.3 -1.8 0.9 -2.5 c 0.6 -0.6 1.6 -1.2 2.9 -1.6 l 6.5 -2 v -1.7 c 0 -0.6 -0.2 -1.2 -0.6 -1.7 c -0.4 -0.5 -0.9 -1 -1.5 -1.3 s -1.3 -0.5 -2.1 -0.5 c -0.5 0 -0.9 0.1 -1.1 0.4 s -0.3 0.7 -0.4 1.4 l -0.2 2.3 c -1.3 0.3 -2.3 0.2 -3.1 -0.1 c -0.8 -0.3 -1.2 -0.9 -1.2 -1.7 c 0 -0.5 0.2 -1 0.8 -1.5 c 0.5 -0.5 1.1 -1 1.9 -1.5 c 0.8 -0.5 1.6 -0.9 2.4 -1.2 c 0.8 -0.3 1.6 -0.5 2.3 -0.6 c 2.4 0 4.2 0.6 5.6 1.7 c 1.4 1.1 2.1 2.6 2.1 4.5 l -0.1 6.1 c 0 1.4 0.1 2.3 0.3 2.9 l 2.7 0.5 v 1.6 l -2.5 1 c -0.9 0.4 -1.7 0.6 -2.4 0.6 c -1 0 -1.7 -0.5 -2.1 -1.6 l -0.4 -1.1 c -1.7 1.6 -3.2 2.5 -4.7 2.5 z m 1.8 -3.4 c 1 0 1.8 -0.4 2.5 -1.2 v -4.2 l -3.4 0.8 c -1.3 0.2 -1.9 0.9 -1.9 2 c 0 0.7 0.3 1.3 0.8 1.8 c 0.6 0.5 1.2 0.8 2 0.8 z M 358.3 442.1 l -0.1 -1.8 l 2.6 -0.7 c 0.1 -0.4 0.2 -1.8 0.2 -4.3 v -3.2 c 0 -1.7 -0.1 -3.2 -0.4 -4.5 l -2.7 -0.6 v -1.7 l 6.7 -1.8 l 1 0.7 l -0.2 3.3 h 0.1 c 0.8 -1.6 1.6 -2.6 2.4 -3.2 c 0.8 -0.6 1.7 -0.8 2.5 -0.8 c 0.7 0 1.3 0.2 1.8 0.6 c 0.5 0.4 0.8 1 0.8 1.8 s -0.3 1.5 -0.8 1.9 c -0.6 0.4 -1.2 0.6 -2 0.6 c -0.5 0 -1 -0.1 -1.4 -0.2 c -0.4 -0.1 -0.9 -0.4 -1.3 -0.8 c -0.8 0.7 -1.4 1.6 -1.9 2.7 v 3.5 c 0 1.4 0.1 2.6 0.1 3.7 s 0.1 1.8 0.1 2.1 l 3.6 0.6 l -0.1 1.9 h -11 z M 376.6 441 c 0.1 -1.4 0.1 -2.7 0.1 -4.1 V 427 v -4.4 c 0 -1.4 0 -2.6 -0.1 -3.5 c 0 -1 -0.1 -1.7 -0.1 -2.1 l -3.1 -0.4 l -0.1 -1.6 l 7.3 -1.9 l 1 0.7 c -0.1 1.1 -0.1 2.3 -0.1 3.4 s -0.1 2.5 -0.1 3.9 c 0 1.5 -0.1 3.3 -0.1 5.5 h 0.1 c 0.6 -0.8 1.4 -1.6 2.4 -2.2 s 2.1 -0.9 3.3 -0.9 c 1.4 0 2.6 0.3 3.8 1 c 1.2 0.7 2.1 1.6 2.9 2.9 c 0.7 1.3 1.1 2.8 1.1 4.6 c 0 1.9 -0.5 3.7 -1.4 5.3 c -0.9 1.6 -2.2 2.8 -3.9 3.7 c -1.6 0.9 -3.6 1.4 -5.8 1.4 c -1.3 0 -2.5 -0.1 -3.8 -0.4 c -1.1 -0.2 -2.3 -0.6 -3.4 -1 z m 8.3 -1.3 c 1.4 0 2.6 -0.5 3.5 -1.6 c 0.9 -1.1 1.4 -2.7 1.4 -4.9 c 0 -2.1 -0.5 -3.6 -1.4 -4.6 c -1 -1 -2.1 -1.4 -3.4 -1.4 c -0.7 0 -1.3 0.1 -2 0.4 c -0.7 0.3 -1.2 0.7 -1.6 1.3 v 9.6 c 0.4 0.3 1 0.6 1.6 0.8 s 1.2 0.4 1.9 0.4 z M 407.5 442.5 c -1.9 0 -3.6 -0.4 -5 -1.2 c -1.4 -0.8 -2.6 -1.9 -3.4 -3.3 c -0.8 -1.4 -1.2 -3 -1.2 -4.8 c 0 -2 0.5 -3.7 1.4 -5.1 c 0.9 -1.4 2.1 -2.5 3.6 -3.3 c 1.5 -0.8 3.1 -1.1 4.8 -1.1 c 1.8 0 3.4 0.4 4.8 1.2 s 2.4 1.9 3.2 3.3 c 0.8 1.4 1.1 3 1.1 4.8 c 0 1.8 -0.4 3.4 -1.3 4.9 c -0.8 1.5 -2 2.6 -3.4 3.5 c -1.4 0.6 -2.9 1.1 -4.6 1.1 z m 0.4 -2.5 c 1.2 0 2.1 -0.5 2.8 -1.6 c 0.7 -1.1 1 -2.6 1 -4.4 c 0 -2.4 -0.4 -4.3 -1.3 -5.8 c -0.8 -1.5 -2 -2.3 -3.3 -2.3 c -1.2 0 -2.1 0.6 -2.9 1.7 c -0.7 1.1 -1.1 2.7 -1.1 4.5 c 0 1.5 0.2 2.8 0.6 4 s 1 2.1 1.7 2.8 c 0.7 0.8 1.6 1.1 2.5 1.1 z M 426.3 442.5 c -1.1 0 -2.2 -0.1 -3.3 -0.4 c -1.1 -0.2 -2 -0.6 -2.8 -1 l -0.2 -4.8 h 2.5 l 0.9 3 c 1 0.6 2.1 1 3.3 1 c 0.9 0 1.6 -0.2 2.1 -0.6 c 0.5 -0.4 0.8 -0.9 0.8 -1.5 c 0 -0.7 -0.3 -1.2 -0.8 -1.7 s -1.5 -1 -3 -1.6 c -2 -0.8 -3.4 -1.6 -4.3 -2.4 c -0.8 -0.9 -1.2 -2 -1.2 -3.3 c 0 -1.6 0.7 -2.9 2.2 -4 c 1.5 -1 3.4 -1.6 5.7 -1.6 c 0.9 0 1.7 0.1 2.6 0.2 c 0.9 0.2 1.6 0.4 2.2 0.6 l 0.5 4.7 H 431 l -1 -2.9 c -0.6 -0.4 -1.3 -0.5 -2.2 -0.5 c -0.9 0 -1.6 0.2 -2.1 0.6 c -0.5 0.4 -0.8 0.9 -0.8 1.6 c 0 0.7 0.3 1.3 0.9 1.8 c 0.6 0.5 1.7 1.1 3.4 1.8 c 1.8 0.8 3.1 1.5 3.9 2.4 c 0.8 0.8 1.1 1.9 1.1 3.1 c 0 1.7 -0.7 3 -2.2 4 s -3.3 1.5 -5.7 1.5 z M 443.2 442.5 c -1.3 0 -2.3 -0.3 -3.2 -0.8 c -0.9 -0.5 -1.6 -1.2 -2.1 -1.9 s -0.7 -1.5 -0.7 -2.2 c 0 -1 0.3 -1.8 0.9 -2.5 c 0.6 -0.6 1.6 -1.2 2.9 -1.6 l 6.5 -2 v -1.7 c 0 -0.6 -0.2 -1.2 -0.6 -1.7 c -0.4 -0.5 -0.9 -1 -1.5 -1.3 s -1.3 -0.5 -2.1 -0.5 c -0.5 0 -0.9 0.1 -1.1 0.4 s -0.3 0.7 -0.4 1.4 l -0.2 2.3 c -1.3 0.3 -2.3 0.2 -3.1 -0.1 c -0.8 -0.3 -1.2 -0.9 -1.2 -1.7 c 0 -0.5 0.2 -1 0.8 -1.5 c 0.5 -0.5 1.1 -1 1.9 -1.5 c 0.8 -0.5 1.6 -0.9 2.4 -1.2 c 0.8 -0.3 1.6 -0.5 2.3 -0.6 c 2.4 0 4.2 0.6 5.6 1.7 c 1.4 1.1 2.1 2.6 2.1 4.5 l -0.1 6.1 c 0 1.4 0.1 2.3 0.3 2.9 l 2.7 0.5 v 1.6 l -2.5 1 c -0.9 0.4 -1.7 0.6 -2.4 0.6 c -1 0 -1.7 -0.5 -2.1 -1.6 l -0.4 -1.1 c -1.7 1.6 -3.2 2.5 -4.7 2.5 z m 1.7 -3.4 c 1 0 1.8 -0.4 2.5 -1.2 v -4.2 l -3.4 0.8 c -1.3 0.2 -1.9 0.9 -1.9 2 c 0 0.7 0.3 1.3 0.8 1.8 c 0.6 0.5 1.3 0.8 2 0.8 z M 25.7 493.7 c -1.9 0 -3.5 -0.6 -4.7 -1.8 c -1.2 -1.2 -1.8 -2.8 -1.8 -4.8 c 0 -1.6 0.3 -3.2 0.9 -4.6 c 0.6 -1.5 1.3 -2.8 2.3 -4 c 1 -1.2 2.1 -2.1 3.4 -2.8 c 1.3 -0.7 2.7 -1 4.2 -1 s 2.7 0.3 3.5 1 c 0.8 0.7 1.2 1.5 1.2 2.4 c 0 0.9 -0.3 1.7 -1 2.6 c -0.7 0.9 -1.8 1.8 -3.3 2.7 c -1.5 0.9 -3.7 1.9 -6.4 2.9 c 0.1 1.3 0.4 2.2 1 2.8 c 0.6 0.6 1.3 1 2.3 1 c 0.7 0 1.5 -0.2 2.4 -0.6 s 1.9 -1.2 2.8 -2.3 l 1.2 1.7 c -1.2 1.6 -2.5 2.7 -3.9 3.5 c -1.4 0.9 -2.8 1.3 -4.1 1.3 z m 3 -16.7 c -1 0 -1.9 0.7 -2.8 2 s -1.4 3.1 -1.7 5.3 c 2.2 -0.9 3.7 -1.8 4.7 -2.8 c 0.9 -0.9 1.4 -1.9 1.4 -3 c 0 -0.5 -0.1 -0.9 -0.4 -1.1 c -0.3 -0.3 -0.7 -0.4 -1.2 -0.4 z M 60.9 493.7 c -1.4 0 -2.1 -0.7 -2.1 -2.1 c 0 -0.4 0.1 -1.1 0.3 -1.9 c 0.2 -0.8 0.5 -1.8 0.8 -2.8 c 0.3 -1 0.6 -2.1 0.9 -3.1 c 0.3 -1 0.6 -1.9 0.8 -2.7 c 0.2 -0.8 0.3 -1.4 0.3 -1.8 c 0 -0.5 -0.2 -0.8 -0.7 -0.8 c -0.6 0 -1.3 0.4 -2.2 1.3 c -0.9 0.9 -1.7 2.1 -2.6 3.5 c -0.9 1.5 -1.7 3.1 -2.5 4.8 c -0.8 1.8 -1.4 3.5 -1.9 5.3 h -4.5 c 0.4 -1.2 0.8 -2.5 1.2 -3.9 c 0.4 -1.4 0.8 -2.8 1.1 -4.2 c 0.3 -1.4 0.6 -2.6 0.9 -3.7 c 0.2 -1.1 0.3 -1.9 0.3 -2.3 c 0 -0.5 -0.2 -0.8 -0.7 -0.8 c -0.6 0 -1.3 0.4 -2.1 1.3 c -0.9 0.9 -1.7 2.1 -2.6 3.5 c -0.9 1.5 -1.7 3.1 -2.5 4.8 c -0.8 1.8 -1.4 3.5 -1.8 5.3 h -4.5 c 0.4 -1.3 0.8 -2.7 1.3 -4.2 s 0.8 -3 1.2 -4.4 c 0.4 -1.5 0.7 -2.8 0.9 -3.9 c 0.2 -1.2 0.3 -2.1 0.3 -2.7 c -0.6 0.3 -1.1 0.8 -1.7 1.3 s -1.1 1.2 -1.6 2 L 36 480 c 1 -1.4 2.2 -2.5 3.5 -3.5 c 1.3 -1 2.5 -1.5 3.6 -1.5 c 1.3 0 1.9 0.7 1.9 2.2 c 0 0.5 -0.1 1.3 -0.3 2.4 c -0.2 1.1 -0.6 2.6 -1.1 4.3 c 0.8 -1.8 1.8 -3.3 2.8 -4.6 c 1.1 -1.3 2.1 -2.4 3.3 -3.1 c 1.1 -0.8 2.2 -1.1 3.3 -1.1 c 0.9 0 1.7 0.2 2.2 0.7 s 0.8 1.2 0.8 2.2 c 0 0.6 -0.1 1.3 -0.4 2.3 c -0.2 0.9 -0.6 2.1 -1.1 3.5 c 1.3 -2.6 2.8 -4.7 4.4 -6.3 c 1.6 -1.6 3.2 -2.3 4.9 -2.3 c 0.9 0 1.7 0.2 2.2 0.7 c 0.5 0.5 0.8 1.2 0.8 2.2 c 0 0.4 -0.1 1 -0.3 1.9 c -0.2 0.8 -0.5 1.8 -0.8 2.8 c -0.3 1 -0.6 2.1 -1 3.1 c -0.3 1 -0.6 2 -0.8 2.9 c -0.2 0.9 -0.3 1.5 -0.3 2 c 1.1 -0.6 2.2 -1.7 3.3 -3.1 l 1.2 1.4 c -1 1.4 -2.2 2.6 -3.5 3.5 c -1.3 0.6 -2.6 1.1 -3.7 1.1 z M 73.7 493.7 c -1.1 0 -2 -0.4 -2.6 -1.3 c -0.6 -0.8 -1 -2 -1 -3.3 c 0 -2 0.4 -3.8 1.1 -5.5 c 0.7 -1.7 1.6 -3.2 2.8 -4.5 c 1.2 -1.3 2.4 -2.3 3.8 -3.1 s 2.7 -1.1 4.1 -1.1 c 0.6 0 1.2 0.1 1.7 0.4 c 0.5 0.3 1 0.6 1.4 1.1 l 1.3 -1.2 h 2.9 c -0.4 1.3 -0.8 2.7 -1.3 4.2 l -1.2 4.5 c -0.4 1.5 -0.7 2.8 -0.9 3.9 c -0.2 1.2 -0.3 2.1 -0.3 2.7 c 0.6 -0.3 1.1 -0.8 1.7 -1.3 c 0.5 -0.5 1.1 -1.1 1.6 -1.9 l 1.2 1.4 c -1 1.4 -2.2 2.6 -3.5 3.5 c -1.3 1 -2.5 1.4 -3.6 1.4 c -1.3 0 -2 -0.7 -2 -2.1 c 0 -0.5 0.1 -1.3 0.3 -2.3 c 0.2 -1 0.6 -2.5 1.1 -4.3 c -1.3 2.7 -2.6 4.9 -4.2 6.4 c -1.5 1.6 -3 2.4 -4.4 2.4 z m 1.3 -5.6 c 0 1.4 0.3 2 0.9 2 c 0.4 0 0.9 -0.3 1.5 -1 c 0.7 -0.7 1.4 -1.6 2.2 -2.8 c 0.8 -1.2 1.5 -2.4 2.3 -3.9 s 1.4 -2.9 1.9 -4.4 c -0.4 -0.3 -0.8 -0.5 -1.3 -0.6 c -0.5 -0.1 -0.9 -0.2 -1.4 -0.2 c -1.1 0 -2.2 0.5 -3.1 1.5 c -0.9 1 -1.7 2.3 -2.2 3.9 s -0.8 3.5 -0.8 5.5 z M 95.1 493.7 c -1.4 0 -2.2 -0.8 -2.2 -2.3 c 0 -0.4 0.1 -1.1 0.3 -2 c 0.2 -0.9 0.5 -1.9 0.8 -3 c 0.3 -1.1 0.6 -2.2 1 -3.3 c 0.3 -1.1 0.6 -2.1 0.8 -3 c 0.2 -0.9 0.3 -1.6 0.3 -2.1 c -0.6 0.3 -1.1 0.8 -1.7 1.3 c -0.6 0.5 -1.1 1.2 -1.7 2 l -1.2 -1.5 c 1 -1.4 2.2 -2.5 3.5 -3.5 c 1.3 -1 2.5 -1.5 3.6 -1.5 c 1.4 0 2.2 0.8 2.2 2.3 c 0 0.4 -0.1 1.1 -0.3 2 c -0.2 0.9 -0.5 1.9 -0.8 3 c -0.3 1.1 -0.7 2.2 -1 3.3 c -0.3 1.1 -0.6 2.1 -0.8 3 c -0.2 0.9 -0.3 1.6 -0.3 2 c 0.6 -0.3 1.1 -0.8 1.7 -1.3 c 0.5 -0.5 1.1 -1.1 1.7 -1.9 l 1.2 1.4 c -1.1 1.4 -2.2 2.6 -3.5 3.5 c -1.3 1.1 -2.5 1.6 -3.6 1.6 z M 100 471 c -0.9 0 -1.5 -0.2 -2 -0.8 c -0.5 -0.5 -0.7 -1.1 -0.7 -1.9 c 0 -0.9 0.3 -1.7 1 -2.4 c 0.6 -0.7 1.4 -1 2.4 -1 c 0.8 0 1.5 0.2 1.9 0.7 c 0.5 0.5 0.7 1.1 0.7 1.8 c 0 1 -0.3 1.8 -0.9 2.5 c -0.6 0.8 -1.4 1.1 -2.4 1.1 z M 106.7 493.7 c -1.4 0 -2.1 -0.7 -2.1 -2 c 0 -0.4 0 -0.7 0.1 -1.1 c 0.1 -0.4 0.2 -1 0.4 -1.8 s 0.5 -2.1 0.9 -3.9 l 4.1 -16.7 l -3 -0.4 l 0.3 -1.5 l 7.4 -2 l 0.8 0.7 c -0.4 1.5 -0.8 3 -1.2 4.3 c -0.3 1.3 -0.7 2.7 -1 4 l -3 11.9 c -0.3 1.2 -0.5 2.3 -0.7 3.3 c -0.2 1 -0.3 1.7 -0.3 2 c 0.6 -0.3 1.1 -0.8 1.7 -1.3 c 0.5 -0.5 1.1 -1.1 1.6 -1.9 l 1.2 1.4 c -1 1.4 -2.2 2.6 -3.5 3.5 c -1.3 1 -2.6 1.5 -3.7 1.5 z M 118.9 493.8 c -0.9 0 -1.7 -0.3 -2.4 -0.9 c -0.7 -0.6 -1 -1.4 -1 -2.3 c 0 -0.9 0.3 -1.7 1 -2.4 s 1.5 -1 2.4 -1 c 0.9 0 1.7 0.3 2.4 1 s 1 1.5 1 2.4 c 0 0.9 -0.3 1.7 -1 2.3 c -0.7 0.6 -1.5 0.9 -2.4 0.9 z m 2.6 -12.4 c -0.9 0 -1.7 -0.3 -2.4 -0.9 c -0.7 -0.6 -1 -1.4 -1 -2.4 s 0.3 -1.7 1 -2.4 c 0.7 -0.6 1.5 -1 2.4 -1 c 1 0 1.8 0.3 2.4 1 c 0.7 0.6 1 1.4 1 2.4 s -0.3 1.7 -1 2.4 c -0.6 0.6 -1.4 0.9 -2.4 0.9 z M 134.7 493.4 l -0.1 -1.8 l 2.6 -0.7 c 0.1 -0.4 0.1 -1.3 0.2 -2.7 c 0.1 -1.4 0.1 -3 0.1 -4.7 v -5.2 v -3.9 c 0 -1.3 0 -2.6 -0.1 -3.7 c 0 -1.1 -0.1 -1.9 -0.1 -2.4 l -3.1 -0.4 l -0.1 -1.6 l 7.3 -1.9 l 1 0.7 c -0.1 1.1 -0.1 2.3 -0.1 3.4 s -0.1 2.4 -0.1 3.9 s -0.1 3.4 -0.1 5.6 h 0.1 c 1.8 -2.1 3.8 -3.1 6 -3.1 c 1.7 0 3.1 0.6 4.4 1.9 c 1.2 1.3 1.8 3.1 1.8 5.5 v 4.3 c 0 0.9 0 1.8 0.1 2.6 c 0 0.8 0.1 1.4 0.1 1.6 l 2.6 0.7 l -0.1 1.8 h -9.8 l -0.1 -1.8 l 2.4 -0.7 c 0.1 -0.3 0.1 -0.9 0.1 -1.6 c 0 -0.8 0.1 -1.6 0.1 -2.5 V 483 c 0 -1.6 -0.4 -2.8 -1.1 -3.5 c -0.8 -0.7 -1.6 -1.1 -2.6 -1.1 c -1.6 0 -2.9 0.7 -3.9 2 v 6.2 c 0 1.1 0 2.1 0.1 2.9 c 0 0.8 0.1 1.3 0.2 1.5 l 2.5 0.7 l -0.1 1.8 h -10.2 z M 168.4 493.7 c -1.7 0 -3.3 -0.4 -4.6 -1.2 c -1.4 -0.8 -2.5 -1.9 -3.2 -3.2 c -0.8 -1.4 -1.2 -3 -1.2 -4.7 c 0 -1.9 0.4 -3.6 1.3 -5.1 c 0.9 -1.5 2 -2.6 3.4 -3.4 c 1.4 -0.8 2.9 -1.2 4.5 -1.2 c 2.4 0 4.3 0.8 5.5 2.3 c 1.3 1.5 1.9 3.5 1.9 5.9 v 0.9 h -11.8 c 0.1 1.9 0.7 3.4 1.8 4.5 s 2.4 1.7 4.1 1.7 c 0.9 0 1.8 -0.2 2.5 -0.5 c 0.8 -0.4 1.5 -1 2.3 -1.8 l 1.2 1.1 c -0.8 1.6 -1.9 2.8 -3.2 3.6 c -1.3 0.7 -2.8 1.1 -4.5 1.1 z m -0.3 -16.7 c -1 0 -1.9 0.4 -2.6 1.2 c -0.8 0.8 -1.2 2 -1.3 3.7 h 7.5 v -0.4 c 0 -1.4 -0.3 -2.5 -0.9 -3.3 c -0.7 -0.8 -1.5 -1.2 -2.7 -1.2 z M 178.1 493.4 l -0.1 -1.8 l 2.7 -0.6 c 0.1 -0.4 0.1 -1.3 0.2 -2.7 c 0.1 -1.4 0.1 -3 0.1 -4.7 v -5.3 v -4 c 0 -1.3 0 -2.5 -0.1 -3.6 c 0 -1.1 -0.1 -1.9 -0.1 -2.4 l -3.1 -0.4 l -0.1 -1.6 l 7.3 -1.9 l 1 0.7 c -0.1 1.2 -0.1 2.3 -0.1 3.4 s 0 2.4 -0.1 3.8 v 16.2 c 0 1.4 0.1 2.2 0.2 2.4 l 2.7 0.6 l -0.1 1.8 h -10.4 z M 190.1 493.4 l -0.1 -1.8 l 2.7 -0.6 c 0.1 -0.4 0.1 -1.3 0.2 -2.7 c 0.1 -1.4 0.1 -3 0.1 -4.7 v -5.3 v -4 c 0 -1.3 0 -2.5 -0.1 -3.6 c 0 -1.1 -0.1 -1.9 -0.1 -2.4 l -3.1 -0.4 l -0.1 -1.6 l 7.3 -1.9 l 1 0.7 c -0.1 1.2 -0.1 2.3 -0.1 3.4 s 0 2.4 -0.1 3.8 v 16.2 c 0 1.4 0.1 2.2 0.2 2.4 l 2.7 0.6 l -0.1 1.8 h -10.4 z M 212.3 493.7 c -1.9 0 -3.6 -0.4 -5 -1.2 c -1.4 -0.8 -2.6 -1.9 -3.4 -3.3 c -0.8 -1.4 -1.2 -3 -1.2 -4.8 c 0 -2 0.5 -3.7 1.4 -5.1 c 0.9 -1.4 2.1 -2.5 3.6 -3.3 c 1.5 -0.8 3.1 -1.1 4.8 -1.1 c 1.8 0 3.4 0.4 4.8 1.2 s 2.4 1.9 3.2 3.3 c 0.8 1.4 1.1 3 1.1 4.8 c 0 1.8 -0.4 3.4 -1.3 4.9 c -0.8 1.5 -2 2.6 -3.4 3.5 c -1.3 0.7 -2.8 1.1 -4.6 1.1 z m 0.5 -2.4 c 1.2 0 2.1 -0.5 2.8 -1.6 c 0.7 -1.1 1 -2.6 1 -4.4 c 0 -2.4 -0.4 -4.3 -1.3 -5.8 c -0.8 -1.5 -2 -2.3 -3.3 -2.3 c -1.2 0 -2.1 0.6 -2.9 1.7 c -0.7 1.1 -1.1 2.7 -1.1 4.5 c 0 1.5 0.2 2.8 0.6 4 s 1 2.1 1.7 2.8 c 0.7 0.8 1.5 1.1 2.5 1.1 z M 243.5 502.9 c -3.5 0 -6.6 -0.6 -9.3 -1.9 c -2.7 -1.3 -4.9 -3.1 -6.4 -5.6 c -1.6 -2.5 -2.3 -5.5 -2.3 -9 c 0 -2.6 0.5 -5.1 1.4 -7.2 c 0.9 -2.2 2.3 -4.1 4 -5.7 c 1.7 -1.6 3.8 -2.8 6.2 -3.7 c 2.4 -0.9 5 -1.3 7.9 -1.3 c 3 0 5.7 0.5 8.1 1.5 c 2.4 1 4.3 2.5 5.8 4.5 c 1.4 2 2.1 4.4 2.1 7.2 c 0 1.6 -0.3 3.1 -0.9 4.6 c -0.6 1.4 -1.5 2.7 -2.5 3.8 c -1.1 1.1 -2.3 2 -3.6 2.6 c -1.3 0.6 -2.7 0.9 -4.1 0.9 c -0.7 0 -1.3 -0.1 -1.6 -0.4 c -0.4 -0.3 -0.6 -0.7 -0.8 -1.2 l -0.3 -1.1 c -1.6 1.8 -3.2 2.7 -4.8 2.7 c -1.3 0 -2.3 -0.3 -3.2 -0.8 c -0.9 -0.5 -1.6 -1.2 -2.1 -1.9 c -0.5 -0.8 -0.7 -1.5 -0.7 -2.2 c 0 -1 0.3 -1.8 0.9 -2.5 c 0.6 -0.6 1.6 -1.2 2.9 -1.6 l 6.5 -2 v -1.7 c 0 -0.6 -0.2 -1.2 -0.6 -1.7 c -0.4 -0.5 -0.9 -1 -1.5 -1.3 c -0.6 -0.3 -1.3 -0.5 -2 -0.5 c -0.6 0 -0.9 0.1 -1.1 0.4 s -0.3 0.7 -0.4 1.4 l -0.2 2.3 c -0.5 0.1 -1 0.2 -1.5 0.2 c -0.9 0 -1.6 -0.2 -2.1 -0.5 s -0.8 -0.8 -0.8 -1.5 c 0 -0.5 0.2 -1 0.8 -1.5 c 0.5 -0.5 1.1 -1 1.9 -1.5 s 1.6 -0.9 2.4 -1.2 c 0.8 -0.3 1.6 -0.5 2.3 -0.6 c 2.3 0 4.2 0.6 5.6 1.7 c 1.4 1.1 2.1 2.6 2.1 4.5 l -0.1 7.4 c 0 1.4 0.1 2.3 0.3 2.9 c 1 0 1.9 -0.4 2.8 -1.1 c 0.9 -0.7 1.6 -1.8 2.2 -3.2 c 0.6 -1.4 0.8 -3.1 0.8 -5.2 c 0 -2.6 -0.5 -4.6 -1.5 -6.3 c -1 -1.6 -2.5 -2.8 -4.3 -3.6 c -1.9 -0.8 -4 -1.1 -6.5 -1.1 c -3.1 0 -5.8 0.6 -8 1.9 c -2.2 1.2 -3.9 3 -5.1 5.3 c -1.2 2.3 -1.8 5 -1.8 8.1 c 0 3.2 0.6 5.9 1.7 8 c 1.1 2.2 2.7 3.8 4.8 4.9 c 2.1 1.1 4.5 1.6 7.3 1.6 c 1.3 0 2.5 -0.1 3.6 -0.4 c 1.2 -0.2 2.2 -0.5 3.1 -0.9 l 0.7 2 c -2.7 0.9 -5.3 1.5 -8.1 1.5 z m 0.5 -12.6 c 1 0 1.8 -0.4 2.5 -1.2 V 485 l -3.4 0.8 c -1.3 0.2 -1.9 0.9 -1.9 2 c 0 0.7 0.3 1.3 0.8 1.8 s 1.2 0.7 2 0.7 z M 274.6 493.4 h -10.8 l -0.1 -1.8 l 2.6 -0.7 c 0 -0.5 0 -1 0.1 -1.5 v -2.1 v -9.5 h -3 V 476 l 3 -0.8 v -1.6 c 0 -1.8 0.3 -3.4 1 -4.8 s 1.5 -2.5 2.7 -3.3 c 1.1 -0.8 2.4 -1.2 3.9 -1.2 c 1.3 0 2.4 0.3 3.3 0.8 s 1.3 1.2 1.3 2.1 c 0 0.5 -0.2 0.9 -0.5 1.2 s -0.8 0.4 -1.3 0.4 c -0.8 0 -1.5 -0.3 -2.3 -1 l -1.7 -1.6 c -1.2 0.7 -1.8 2.6 -1.8 5.7 v 3.3 h 4.5 v 2.5 H 271 v 5.7 c 0 1.3 0 2.7 0.1 4.1 c 0 1.4 0.1 2.5 0.1 3.4 l 3.4 0.7 v 1.8 z M 284 493.7 c -1.3 0 -2.3 -0.3 -3.2 -0.8 c -0.9 -0.5 -1.6 -1.2 -2.1 -1.9 s -0.7 -1.5 -0.7 -2.2 c 0 -1 0.3 -1.8 0.9 -2.5 c 0.6 -0.6 1.6 -1.2 2.9 -1.6 l 6.5 -2 V 481 c 0 -0.6 -0.2 -1.2 -0.6 -1.7 c -0.4 -0.5 -0.9 -1 -1.5 -1.3 s -1.3 -0.5 -2.1 -0.5 c -0.5 0 -0.9 0.1 -1.1 0.4 s -0.3 0.7 -0.4 1.4 l -0.2 2.3 c -1.3 0.3 -2.3 0.2 -3.1 -0.1 c -0.8 -0.3 -1.2 -0.9 -1.2 -1.7 c 0 -0.5 0.2 -1 0.8 -1.5 c 0.5 -0.5 1.1 -1 1.9 -1.5 c 0.8 -0.5 1.6 -0.9 2.4 -1.2 c 0.8 -0.3 1.6 -0.5 2.3 -0.6 c 2.4 0 4.2 0.6 5.6 1.7 c 1.4 1.1 2.1 2.6 2.1 4.5 l -0.1 6.1 c 0 1.4 0.1 2.3 0.3 2.9 l 2.7 0.5 v 1.6 l -2.5 1 c -0.9 0.4 -1.7 0.6 -2.4 0.6 c -1 0 -1.7 -0.5 -2.1 -1.6 l -0.4 -1.1 c -1.6 1.6 -3.2 2.5 -4.7 2.5 z m 1.8 -3.4 c 1 0 1.8 -0.4 2.5 -1.2 V 485 l -3.4 0.8 c -1.3 0.2 -1.9 0.9 -1.9 2 c 0 0.7 0.3 1.3 0.8 1.8 c 0.6 0.5 1.2 0.7 2 0.7 z M 299.5 492.2 c 0.1 -1.4 0.1 -2.7 0.1 -4.1 V 478.2 v -4.4 c 0 -1.4 0 -2.6 -0.1 -3.5 c 0 -1 -0.1 -1.7 -0.1 -2.1 l -3.1 -0.4 l -0.1 -1.6 l 7.3 -1.9 l 1 0.7 c -0.1 1.1 -0.1 2.3 -0.1 3.4 s -0.1 2.5 -0.1 3.9 c 0 1.5 -0.1 3.3 -0.1 5.5 h 0.1 c 0.6 -0.8 1.4 -1.6 2.4 -2.2 s 2.1 -0.9 3.3 -0.9 c 1.4 0 2.6 0.3 3.8 1 c 1.2 0.7 2.1 1.6 2.9 2.9 c 0.7 1.3 1.1 2.8 1.1 4.6 c 0 1.9 -0.5 3.7 -1.4 5.3 c -0.9 1.6 -2.2 2.8 -3.9 3.7 c -1.6 0.9 -3.6 1.4 -5.8 1.4 c -1.3 0 -2.5 -0.1 -3.8 -0.4 c -1.1 -0.2 -2.3 -0.5 -3.4 -1 z m 8.3 -1.2 c 1.4 0 2.6 -0.5 3.5 -1.6 c 0.9 -1.1 1.4 -2.7 1.4 -4.9 c 0 -2.1 -0.5 -3.6 -1.4 -4.6 c -1 -1 -2.1 -1.4 -3.4 -1.4 c -0.7 0 -1.3 0.1 -2 0.4 c -0.7 0.3 -1.2 0.7 -1.6 1.3 v 9.6 c 0.4 0.3 1 0.6 1.6 0.8 s 1.2 0.4 1.9 0.4 z M 320.1 493.4 l -0.1 -1.8 l 2.8 -0.6 c 0.1 -0.4 0.2 -1.8 0.2 -4.3 v -3.2 c 0 -1.7 -0.1 -3.2 -0.4 -4.5 l -2.8 -0.6 v -1.7 l 7.2 -1.8 l 1 0.7 c -0.1 0.9 -0.1 1.7 -0.2 2.6 c 0 0.9 -0.1 1.9 -0.1 3 v 5.3 c 0 1 0 2 0.1 2.8 c 0 0.8 0.1 1.4 0.2 1.6 l 2.8 0.6 l -0.1 1.8 h -10.6 z m 5.3 -22.3 c -1 0 -1.8 -0.3 -2.4 -0.9 c -0.6 -0.6 -0.9 -1.3 -0.9 -2.1 s 0.3 -1.5 0.9 -2.1 c 0.6 -0.6 1.4 -0.9 2.4 -0.9 s 1.8 0.3 2.3 0.9 s 0.8 1.3 0.8 2.1 s -0.3 1.6 -0.8 2.1 c -0.6 0.6 -1.3 0.9 -2.3 0.9 z M 342.3 493.7 c -1.9 0 -3.6 -0.4 -5 -1.2 c -1.4 -0.8 -2.6 -1.9 -3.4 -3.3 c -0.8 -1.4 -1.2 -3 -1.2 -4.8 c 0 -2 0.5 -3.7 1.4 -5.1 c 0.9 -1.4 2.1 -2.5 3.6 -3.3 c 1.5 -0.8 3.1 -1.1 4.8 -1.1 c 1.8 0 3.4 0.4 4.8 1.2 s 2.4 1.9 3.2 3.3 c 0.8 1.4 1.1 3 1.1 4.8 c 0 1.8 -0.4 3.4 -1.3 4.9 c -0.8 1.5 -2 2.6 -3.4 3.5 c -1.3 0.7 -2.9 1.1 -4.6 1.1 z m 0.4 -2.4 c 1.2 0 2.1 -0.5 2.8 -1.6 c 0.7 -1.1 1 -2.6 1 -4.4 c 0 -2.4 -0.4 -4.3 -1.3 -5.8 c -0.8 -1.5 -2 -2.3 -3.3 -2.3 c -1.2 0 -2.1 0.6 -2.9 1.7 c -0.7 1.1 -1.1 2.7 -1.1 4.5 c 0 1.5 0.2 2.8 0.6 4 s 1 2.1 1.7 2.8 c 0.8 0.8 1.6 1.1 2.5 1.1 z M 354.1 493.4 l -0.1 -1.8 l 2.6 -0.7 c 0.1 -0.4 0.2 -1.8 0.2 -4.3 v -3.2 c 0 -1.7 -0.1 -3.2 -0.4 -4.5 l -2.7 -0.6 v -1.7 l 6.8 -1.8 l 1 0.7 l -0.2 2.3 h 0.1 c 0.9 -1.1 1.8 -1.9 2.7 -2.4 c 1 -0.5 2 -0.8 3 -0.8 s 2 0.3 3 0.8 c 0.9 0.5 1.7 1.3 2.3 2.5 c 0.9 -1.1 1.9 -1.9 2.9 -2.4 c 1 -0.6 2.1 -0.8 3.3 -0.8 c 1.9 0 3.5 0.7 4.7 2 c 1.2 1.3 1.8 3.1 1.8 5.4 v 4.4 c 0 0.9 0 1.8 0.1 2.6 c 0 0.8 0.1 1.4 0.2 1.6 l 2.6 0.7 l -0.1 1.8 h -9.7 l -0.1 -1.8 l 2.3 -0.7 c 0.1 -0.3 0.1 -0.9 0.1 -1.7 c 0 -0.8 0.1 -1.6 0.1 -2.5 v -3.9 c 0 -1.7 -0.4 -2.8 -1.1 -3.5 c -0.7 -0.7 -1.6 -1 -2.6 -1 c -1.5 0 -2.8 0.6 -3.8 1.9 c 0.1 0.7 0.2 1.4 0.2 2.1 l 0.1 4.3 v 2.6 c 0 0.8 0.1 1.4 0.2 1.6 l 2.4 0.7 l -0.1 1.8 h -9.4 l -0.1 -1.8 l 2.2 -0.7 c 0.1 -0.3 0.1 -0.9 0.1 -1.6 c 0 -0.8 0.1 -1.6 0.1 -2.5 v -4.1 c 0 -1.6 -0.3 -2.7 -1 -3.4 c -0.7 -0.7 -1.5 -1 -2.5 -1 c -0.7 0 -1.4 0.2 -2 0.5 s -1.2 0.9 -1.7 1.5 v 6.2 c 0 1 0 2 0.1 2.8 c 0 0.8 0.1 1.4 0.2 1.6 l 2.4 0.7 l -0.1 1.8 h -10.1 z M 389.6 493.4 l -0.1 -1.8 l 2.6 -0.7 c 0.1 -0.4 0.2 -1.8 0.2 -4.3 v -3.2 c 0 -1.7 -0.1 -3.2 -0.4 -4.5 l -2.7 -0.6 v -1.7 l 6.7 -1.8 l 1 0.7 l -0.2 3.3 h 0.1 c 0.8 -1.6 1.6 -2.6 2.4 -3.2 c 0.8 -0.6 1.7 -0.8 2.5 -0.8 c 0.7 0 1.3 0.2 1.8 0.6 c 0.5 0.4 0.8 1 0.8 1.8 s -0.3 1.5 -0.8 1.9 c -0.6 0.4 -1.2 0.6 -2 0.6 c -0.5 0 -1 -0.1 -1.4 -0.2 c -0.4 -0.1 -0.9 -0.4 -1.3 -0.8 c -0.8 0.7 -1.4 1.6 -1.9 2.7 v 3.5 c 0 1.4 0.1 2.6 0.1 3.7 s 0.1 1.8 0.1 2.1 l 3.6 0.6 l -0.1 1.9 h -11 z M 407.8 492.2 c 0.1 -1.4 0.1 -2.7 0.1 -4.1 V 478.2 v -4.4 c 0 -1.4 0 -2.6 -0.1 -3.5 c 0 -1 -0.1 -1.7 -0.1 -2.1 l -3.1 -0.4 l -0.1 -1.6 l 7.3 -1.9 l 1 0.7 c -0.1 1.1 -0.1 2.3 -0.1 3.4 s -0.1 2.5 -0.1 3.9 c 0 1.5 -0.1 3.3 -0.1 5.5 h 0.1 c 0.6 -0.8 1.4 -1.6 2.4 -2.2 s 2.1 -0.9 3.3 -0.9 c 1.4 0 2.6 0.3 3.8 1 c 1.2 0.7 2.1 1.6 2.9 2.9 c 0.7 1.3 1.1 2.8 1.1 4.6 c 0 1.9 -0.5 3.7 -1.4 5.3 c -0.9 1.6 -2.2 2.8 -3.9 3.7 c -1.6 0.9 -3.6 1.4 -5.8 1.4 c -1.3 0 -2.5 -0.1 -3.8 -0.4 c -1 -0.2 -2.2 -0.5 -3.4 -1 z m 8.4 -1.2 c 1.4 0 2.6 -0.5 3.5 -1.6 c 0.9 -1.1 1.4 -2.7 1.4 -4.9 c 0 -2.1 -0.5 -3.6 -1.4 -4.6 c -1 -1 -2.1 -1.4 -3.4 -1.4 c -0.7 0 -1.3 0.1 -2 0.4 c -0.7 0.3 -1.2 0.7 -1.6 1.3 v 9.6 c 0.4 0.3 1 0.6 1.6 0.8 s 1.2 0.4 1.9 0.4 z M 435.5 493.7 c -1.3 0 -2.3 -0.3 -3.2 -0.8 c -0.9 -0.5 -1.6 -1.2 -2.1 -1.9 s -0.7 -1.5 -0.7 -2.2 c 0 -1 0.3 -1.8 0.9 -2.5 c 0.6 -0.6 1.6 -1.2 2.9 -1.6 l 6.5 -2 V 481 c 0 -0.6 -0.2 -1.2 -0.6 -1.7 c -0.4 -0.5 -0.9 -1 -1.5 -1.3 s -1.3 -0.5 -2.1 -0.5 c -0.5 0 -0.9 0.1 -1.1 0.4 s -0.3 0.7 -0.4 1.4 l -0.2 2.3 c -1.3 0.3 -2.3 0.2 -3.1 -0.1 c -0.8 -0.3 -1.2 -0.9 -1.2 -1.7 c 0 -0.5 0.2 -1 0.8 -1.5 c 0.5 -0.5 1.1 -1 1.9 -1.5 c 0.8 -0.5 1.6 -0.9 2.4 -1.2 c 0.8 -0.3 1.6 -0.5 2.3 -0.6 c 2.4 0 4.2 0.6 5.6 1.7 c 1.4 1.1 2.1 2.6 2.1 4.5 l -0.1 6.1 c 0 1.4 0.1 2.3 0.3 2.9 l 2.7 0.5 v 1.6 l -2.5 1 c -0.9 0.4 -1.7 0.6 -2.4 0.6 c -1 0 -1.7 -0.5 -2.1 -1.6 l -0.4 -1.1 c -1.6 1.6 -3.2 2.5 -4.7 2.5 z m 1.8 -3.4 c 1 0 1.8 -0.4 2.5 -1.2 V 485 l -3.4 0.8 c -1.3 0.2 -1.9 0.9 -1.9 2 c 0 0.7 0.3 1.3 0.8 1.8 c 0.6 0.5 1.3 0.7 2 0.7 z M 449 493.4 l -0.1 -1.8 l 2.6 -0.7 c 0.1 -0.4 0.2 -1.8 0.2 -4.3 v -3.2 c 0 -1.7 -0.1 -3.2 -0.4 -4.5 l -2.7 -0.6 v -1.7 l 6.7 -1.8 l 1 0.7 l -0.2 3.3 h 0.1 c 0.8 -1.6 1.6 -2.6 2.4 -3.2 c 0.8 -0.6 1.7 -0.8 2.5 -0.8 c 0.7 0 1.3 0.2 1.8 0.6 c 0.5 0.4 0.8 1 0.8 1.8 s -0.3 1.5 -0.8 1.9 c -0.6 0.4 -1.2 0.6 -2 0.6 c -0.5 0 -1 -0.1 -1.4 -0.2 c -0.4 -0.1 -0.9 -0.4 -1.3 -0.8 c -0.8 0.7 -1.4 1.6 -1.9 2.7 v 3.5 c 0 1.4 0.1 2.6 0.1 3.7 s 0.1 1.8 0.1 2.1 l 3.6 0.6 l -0.1 1.9 h -11 z M 467.2 492.2 c 0.1 -1.4 0.1 -2.7 0.1 -4.1 V 478.2 v -4.4 c 0 -1.4 0 -2.6 -0.1 -3.5 c 0 -1 -0.1 -1.7 -0.1 -2.1 l -3.1 -0.4 l -0.1 -1.6 l 7.3 -1.9 l 1 0.7 c -0.1 1.1 -0.1 2.3 -0.1 3.4 s -0.1 2.5 -0.1 3.9 c 0 1.5 -0.1 3.3 -0.1 5.5 h 0.1 c 0.6 -0.8 1.4 -1.6 2.4 -2.2 s 2.1 -0.9 3.3 -0.9 c 1.4 0 2.6 0.3 3.8 1 c 1.2 0.7 2.1 1.6 2.9 2.9 c 0.7 1.3 1.1 2.8 1.1 4.6 c 0 1.9 -0.5 3.7 -1.4 5.3 c -0.9 1.6 -2.2 2.8 -3.9 3.7 c -1.6 0.9 -3.6 1.4 -5.8 1.4 c -1.3 0 -2.5 -0.1 -3.8 -0.4 c -1.1 -0.2 -2.2 -0.5 -3.4 -1 z m 8.4 -1.2 c 1.4 0 2.6 -0.5 3.5 -1.6 c 0.9 -1.1 1.4 -2.7 1.4 -4.9 c 0 -2.1 -0.5 -3.6 -1.4 -4.6 c -1 -1 -2.1 -1.4 -3.4 -1.4 c -0.7 0 -1.3 0.1 -2 0.4 c -0.7 0.3 -1.2 0.7 -1.6 1.3 v 9.6 c 0.4 0.3 1 0.6 1.6 0.8 s 1.2 0.4 1.9 0.4 z M 498.1 493.7 c -1.9 0 -3.6 -0.4 -5 -1.2 c -1.4 -0.8 -2.6 -1.9 -3.4 -3.3 c -0.8 -1.4 -1.2 -3 -1.2 -4.8 c 0 -2 0.5 -3.7 1.4 -5.1 c 0.9 -1.4 2.1 -2.5 3.6 -3.3 c 1.5 -0.8 3.1 -1.1 4.8 -1.1 c 1.8 0 3.4 0.4 4.8 1.2 s 2.4 1.9 3.2 3.3 c 0.8 1.4 1.1 3 1.1 4.8 c 0 1.8 -0.4 3.4 -1.3 4.9 c -0.8 1.5 -2 2.6 -3.4 3.5 c -1.3 0.7 -2.9 1.1 -4.6 1.1 z m 0.4 -2.4 c 1.2 0 2.1 -0.5 2.8 -1.6 c 0.7 -1.1 1 -2.6 1 -4.4 c 0 -2.4 -0.4 -4.3 -1.3 -5.8 c -0.8 -1.5 -2 -2.3 -3.3 -2.3 c -1.2 0 -2.1 0.6 -2.9 1.7 c -0.7 1.1 -1.1 2.7 -1.1 4.5 c 0 1.5 0.2 2.8 0.6 4 s 1 2.1 1.7 2.8 c 0.8 0.8 1.6 1.1 2.5 1.1 z M 517 493.7 c -1.1 0 -2.2 -0.1 -3.3 -0.4 c -1.1 -0.2 -2 -0.6 -2.8 -1 l -0.2 -4.8 h 2.5 l 0.9 3 c 1 0.6 2.1 1 3.3 1 c 0.9 0 1.6 -0.2 2.1 -0.6 c 0.5 -0.4 0.8 -0.9 0.8 -1.5 c 0 -0.7 -0.3 -1.2 -0.8 -1.7 s -1.5 -1 -3 -1.6 c -2 -0.8 -3.4 -1.6 -4.3 -2.4 c -0.8 -0.9 -1.2 -2 -1.2 -3.3 c 0 -1.6 0.7 -2.9 2.2 -4 c 1.5 -1 3.4 -1.6 5.7 -1.6 c 0.9 0 1.7 0.1 2.6 0.2 c 0.9 0.2 1.6 0.4 2.2 0.6 l 0.5 4.7 h -2.5 l -1 -2.9 c -0.6 -0.4 -1.3 -0.5 -2.2 -0.5 c -0.9 0 -1.6 0.2 -2.1 0.6 c -0.5 0.4 -0.8 0.9 -0.8 1.6 c 0 0.7 0.3 1.3 0.9 1.8 c 0.6 0.5 1.7 1.1 3.4 1.8 c 1.8 0.8 3.1 1.5 3.9 2.4 c 0.8 0.8 1.1 1.9 1.1 3.1 c 0 1.7 -0.7 3 -2.2 4 s -3.4 1.5 -5.7 1.5 z M 533.8 493.7 c -1.3 0 -2.3 -0.3 -3.2 -0.8 c -0.9 -0.5 -1.6 -1.2 -2.1 -1.9 s -0.7 -1.5 -0.7 -2.2 c 0 -1 0.3 -1.8 0.9 -2.5 c 0.6 -0.6 1.6 -1.2 2.9 -1.6 l 6.5 -2 V 481 c 0 -0.6 -0.2 -1.2 -0.6 -1.7 c -0.4 -0.5 -0.9 -1 -1.5 -1.3 s -1.3 -0.5 -2.1 -0.5 c -0.5 0 -0.9 0.1 -1.1 0.4 s -0.3 0.7 -0.4 1.4 l -0.2 2.3 c -1.3 0.3 -2.3 0.2 -3.1 -0.1 c -0.8 -0.3 -1.2 -0.9 -1.2 -1.7 c 0 -0.5 0.2 -1 0.8 -1.5 c 0.5 -0.5 1.1 -1 1.9 -1.5 c 0.8 -0.5 1.6 -0.9 2.4 -1.2 c 0.8 -0.3 1.6 -0.5 2.3 -0.6 c 2.4 0 4.2 0.6 5.6 1.7 c 1.4 1.1 2.1 2.6 2.1 4.5 l -0.1 6.1 c 0 1.4 0.1 2.3 0.3 2.9 l 2.7 0.5 v 1.6 l -2.5 1 c -0.9 0.4 -1.7 0.6 -2.4 0.6 c -1 0 -1.7 -0.5 -2.1 -1.6 l -0.4 -1.1 c -1.6 1.6 -3.2 2.5 -4.7 2.5 z m 1.8 -3.4 c 1 0 1.8 -0.4 2.5 -1.2 V 485 l -3.4 0.8 c -1.3 0.2 -1.9 0.9 -1.9 2 c 0 0.7 0.3 1.3 0.8 1.8 c 0.6 0.5 1.2 0.7 2 0.7 z M 551.9 493.8 c -0.9 0 -1.8 -0.3 -2.4 -1 c -0.7 -0.7 -1 -1.5 -1 -2.4 c 0 -0.9 0.3 -1.8 1 -2.4 c 0.7 -0.7 1.5 -1 2.4 -1 c 1 0 1.8 0.3 2.5 1 s 1 1.5 1 2.4 c 0 1 -0.3 1.8 -1 2.4 c -0.7 0.7 -1.5 1 -2.5 1 z M 567.7 493.7 c -1.7 0 -3.2 -0.4 -4.6 -1.1 c -1.4 -0.8 -2.5 -1.8 -3.3 -3.2 c -0.8 -1.4 -1.2 -2.9 -1.2 -4.7 c 0 -1.8 0.4 -3.4 1.3 -4.9 c 0.9 -1.5 2 -2.7 3.6 -3.6 c 1.5 -0.9 3.2 -1.4 5.2 -1.4 c 1.8 0 3.3 0.4 4.5 1.1 s 1.8 1.6 1.8 2.6 c 0 0.6 -0.2 1.1 -0.6 1.4 c -0.4 0.3 -0.9 0.5 -1.5 0.5 c -0.5 0 -0.9 -0.1 -1.3 -0.3 c -0.4 -0.2 -0.8 -0.5 -1.3 -1 L 568 477 c -1.1 0.2 -2.1 0.8 -2.9 1.9 c -0.8 1.1 -1.3 2.6 -1.3 4.5 c 0 2.2 0.5 3.8 1.6 4.9 c 1.1 1.1 2.4 1.7 4 1.7 c 0.9 0 1.7 -0.2 2.5 -0.5 s 1.5 -1 2.2 -1.8 l 1.3 1.1 c -0.8 1.6 -1.9 2.8 -3.2 3.6 c -1.5 0.9 -2.9 1.3 -4.5 1.3 z M 586.6 493.7 c -1.9 0 -3.6 -0.4 -5 -1.2 c -1.4 -0.8 -2.6 -1.9 -3.4 -3.3 c -0.8 -1.4 -1.2 -3 -1.2 -4.8 c 0 -2 0.5 -3.7 1.4 -5.1 c 0.9 -1.4 2.1 -2.5 3.6 -3.3 c 1.5 -0.8 3.1 -1.1 4.8 -1.1 c 1.8 0 3.4 0.4 4.8 1.2 c 1.4 0.8 2.4 1.9 3.2 3.3 c 0.8 1.4 1.1 3 1.1 4.8 c 0 1.8 -0.4 3.4 -1.3 4.9 c -0.8 1.5 -2 2.6 -3.4 3.5 c -1.3 0.7 -2.9 1.1 -4.6 1.1 z m 0.4 -2.4 c 1.2 0 2.1 -0.5 2.8 -1.6 c 0.7 -1.1 1 -2.6 1 -4.4 c 0 -2.4 -0.4 -4.3 -1.3 -5.8 c -0.8 -1.5 -2 -2.3 -3.3 -2.3 c -1.2 0 -2.1 0.6 -2.9 1.7 c -0.7 1.1 -1.1 2.7 -1.1 4.5 c 0 1.5 0.2 2.8 0.6 4 s 1 2.1 1.7 2.8 c 0.8 0.8 1.6 1.1 2.5 1.1 z M 598.4 493.4 l -0.1 -1.8 l 2.6 -0.7 c 0.1 -0.4 0.2 -1.8 0.2 -4.3 v -3.2 c 0 -1.7 -0.1 -3.2 -0.4 -4.5 l -2.7 -0.6 v -1.7 l 6.8 -1.8 l 1 0.7 l -0.2 2.3 h 0.1 c 0.9 -1.1 1.8 -1.9 2.7 -2.4 c 1 -0.5 2 -0.8 3 -0.8 s 2 0.3 3 0.8 c 0.9 0.5 1.7 1.3 2.3 2.5 c 0.9 -1.1 1.9 -1.9 2.9 -2.4 c 1 -0.6 2.1 -0.8 3.3 -0.8 c 1.9 0 3.5 0.7 4.7 2 c 1.2 1.3 1.8 3.1 1.8 5.4 v 4.4 c 0 0.9 0 1.8 0.1 2.6 c 0 0.8 0.1 1.4 0.2 1.6 l 2.6 0.7 l -0.1 1.8 h -9.7 l -0.1 -1.8 l 2.3 -0.7 c 0.1 -0.3 0.1 -0.9 0.1 -1.7 c 0 -0.8 0.1 -1.6 0.1 -2.5 v -3.9 c 0 -1.7 -0.4 -2.8 -1.1 -3.5 c -0.7 -0.7 -1.6 -1 -2.6 -1 c -1.5 0 -2.8 0.6 -3.8 1.9 c 0.1 0.7 0.2 1.4 0.2 2.1 l 0.1 4.3 v 2.6 c 0 0.8 0.1 1.4 0.2 1.6 l 2.4 0.7 l -0.1 1.8 h -9.4 l -0.1 -1.8 l 2.2 -0.7 c 0.1 -0.3 0.1 -0.9 0.1 -1.6 c 0 -0.8 0.1 -1.6 0.1 -2.5 v -4.1 c 0 -1.6 -0.3 -2.7 -1 -3.4 c -0.7 -0.7 -1.5 -1 -2.5 -1 c -0.7 0 -1.4 0.2 -2 0.5 s -1.2 0.9 -1.7 1.5 v 6.2 c 0 1 0 2 0.1 2.8 s 0.1 1.4 0.2 1.6 l 2.4 0.7 l -0.1 1.8 h -10.1 z" class="st1"/></g><g id="LogoTrace" clip-path="url(#LogoClip)"><path d="M1316.2 215a17.65 17.65 0 00-14.4 26.3s-19.6-3.3-30.4 11.5-8.6 32.2-.8 39.1c17 15.1 44.2 6.5 47.7-19 2.7-20-.65-34.84 10.4-47.9 13.8-16.3 36.81-13.11 43.81 6.79 5.5 15.7-9.41 40.31-34.21 41.51 0 0 4.3 9.4-1.2 17.9s-12.7 7.1-12.7 7.1" class="st2"/><path d="M 1326 263.5 c 0.5 -0.3 10.1 -0.5 15 -4.8 c 8.1 -6.2 10.2 -8.8 10.2 -8.8" class="st2"/></g></svg>